<?xml version="1.0" encoding="utf-8"?>
<!-- Generator: Adobe Illustrator 19.0.0, SVG Export Plug-In . SVG Version: 6.00 Build 0)  -->
<svg version="1.1" id="Capa_1" xmlns="http://www.w3.org/2000/svg" xmlns:xlink="http://www.w3.org/1999/xlink" x="0px" y="0px"
	 viewBox="0 0 1540 536.5" enable-background="new 0 0 1540 536.5" xml:space="preserve">
<g>
	<rect x="0.1" y="0" width="1540" height="536.8"/>
	<rect x="18.8" y="28.4" width="1502.6" height="480"/>
	<g>
		<path fill="#FFFFFF" d="M169,341.4H62.7L168,404.8h42l-71.9-41.7H176c18.8,0,34-18.9,34-42.2s-15.2-42.2-34-42.2H18.8v126.1h24
			V300.7H169c10,0,18,9.1,18,20.4S178.9,341.4,169,341.4z"/>
		<g>
			<rect x="361.1" y="328.7" fill="#FFFFFF" width="124.1" height="24.1"/>
			<polygon fill="#FFFFFF" points="517.1,278.7 517.1,302.7 343.1,302.7 343.1,382.8 517.1,382.8 517.1,404.8 321.1,404.8 
				321.1,278.7 			"/>
		</g>
		<rect x="249.1" y="318.7" fill="#ED1B24" width="40" height="40"/>
		<rect x="557.3" y="318.7" fill="#23B14D" width="40" height="40"/>
		<rect x="873.3" y="318.7" fill="#2993C3" width="40" height="40"/>
		<polygon fill="#FFFFFF" points="983.7,278.7 983.7,382.7 1155.9,382.7 1155.9,404.8 959.7,404.8 959.7,278.7 		"/>
		<path fill="#FFFFFF" d="M804.8,372.5l35.6,32.2h37.9L739.5,279.6c-1.9-1.8-4.9-1.7-6.8,0.1l-130,125.1h31.9l102.3-95l41.7,41.3
			H717l-21.9,21.5H804.8z"/>
	</g>
	<rect x="18.8" y="424.8" fill="#2993C3" width="1137.1" height="12"/>
	<g>
		<g>
			<path fill="#FFFFFF" d="M38.8,474c-0.1,1.5,0.5,2.7,1.7,3.5c1.1,0.8,2.8,1.3,5,1.3c4,0,6.2-1.9,6.2-3.8c0-3.7-8.6-4.2-11.9-4.2
				l0-5c3.2,0.2,11.5-0.3,11.5-3.4c0-2.1-2.7-2.9-5.4-2.9c-3.2,0-5.6,1.2-6,3.5H27.3c0.5-7.5,9.1-10.7,18.9-10.7
				c11.1,0,17.9,3.6,17.9,9.1c0,3-1.7,5.1-5.4,6.4c4.2,1.2,6.7,3.6,6.7,6.8c0,7.6-8.1,11.4-20.7,11.4c-10.9,0-19.1-3.9-18.9-12H38.8
				z"/>
			<path fill="#FFFFFF" d="M74.8,485.4v-31.1h19.4c14.2,0,23.1,4.7,23.1,14.9c0,11.7-9.3,16.2-23.4,16.2H74.8z M89.3,478.1h3.1
				c6.7,0,10.4-2.5,10.4-8.4c0-6.5-3-8.2-10.7-8.2h-2.8V478.1z"/>
			<path fill="#FFFFFF" d="M165.5,469.6c0,10.6-10.1,16.6-23.2,16.6c-13.9,0-23.1-6.1-23.1-16.7c0-9.8,9.4-16.1,23.1-16.1
				C158,453.4,165.5,461.4,165.5,469.6z M133.6,469.6c0,4,1.7,9,8.6,9c6.3,0,8.7-3.8,8.7-9c0-4.2-2.5-8.7-8.8-8.6
				C135.6,461,133.6,465.7,133.6,469.6z"/>
		</g>
		<g>
			<path fill="#FFFFFF" d="M210.9,485.4v-31.1h13.7v31.1H210.9z"/>
			<path fill="#FFFFFF" d="M260.7,471.2l-0.5-7.1v-9.9h13.1v31.1h-12.8l-14.9-17l0.5,7.1v9.9H233v-31.1h12.8L260.7,471.2z"/>
			<path fill="#FFFFFF" d="M277.1,454.2h38.2v8.2H303v23h-13.7v-23h-12.3V454.2z"/>
			<path fill="#FFFFFF" d="M319,485.4v-31.1h36.1v7.3h-21.6v4.5h18.3v7.3h-18.3v4.9H356v7.3H319z"/>
			<path fill="#FFFFFF" d="M377.4,474.5v10.9H363v-31.1h20.8c14.7,0,19.5,2.8,19.5,8.9c0,3.6-2.3,6.6-7.4,7.6c4.6,1.2,7.5,2,7.5,8.3
				c0,4.1-0.2,5.5,1.5,5.5v1h-14.6c-0.4-0.7-0.7-2.7-0.7-5.5c0-4.1-1-5.4-7.7-5.4H377.4z M377.4,467.7h5.7c4.5,0,6.9-0.8,6.9-2.9
				c0-2.2-2.4-3.2-5.8-3.2h-6.7V467.7z"/>
			<path fill="#FFFFFF" d="M409.1,485.4l14.9-31.1H438l14.9,31.1h-13.6l-1.6-4.1h-13.6l-1.6,4.1H409.1z M430.9,463.6l-4.2,11.2h8.6
				L430.9,463.6z"/>
			<path fill="#FFFFFF" d="M483.9,466.1c-0.4-3.2-3.1-5.1-7.4-5.1c-4.8,0-7.7,3.1-7.7,9.1c0,4.4,1.3,8.5,8.2,8.5
				c4.4,0,6.5-2.3,7-5.3h13.1c-1.2,8-8.9,12.9-19.9,12.9c-13.8,0-22.1-6.3-22.1-16.4c0-10.1,9.2-16.3,20.8-16.3
				c12.7,0,19.9,4.7,21,12.7H483.9z"/>
			<path fill="#FFFFFF" d="M499.4,454.2h38.2v8.2h-12.3v23h-13.7v-23h-12.3V454.2z"/>
			<path fill="#FFFFFF" d="M541.7,485.4v-31.1h13.7v31.1H541.7z"/>
			<path fill="#FFFFFF" d="M559.9,454.2h13.8L581,475l7.6-20.7h13.8l-14.5,31.1h-13.7L559.9,454.2z"/>
			<path fill="#FFFFFF" d="M607.6,485.4v-31.1h35.5v7.3h-21.2v4.5h17.9v7.3h-17.9v4.9h22v7.3H607.6z"/>
		</g>
		<g>
			<path fill="#FFFFFF" d="M688.9,485.4v-31.1h18.8l8.4,19.4l8.4-19.4h18.8v31.1h-14v-9.5l0.2-4.8l0.8-5.6h-0.1l-8.6,20h-10.8
				l-8.6-20h-0.1l0.7,4.6l0.3,4.8v10.6H688.9z"/>
			<path fill="#FFFFFF" d="M753.2,453.8h13.9v18.6c0,3.1,0.8,5.7,6.5,5.7c5,0,6.5-2.3,6.5-5.7v-18.6h13.9v17.6
				c0,10-6.3,14.4-20.4,14.4c-13.2,0-20.5-3.7-20.5-14.4V453.8z"/>
			<path fill="#FFFFFF" d="M802.3,485.4v-31.1h13.9v23.9h19.1v7.3H802.3z"/>
			<path fill="#FFFFFF" d="M831.8,454.2h38.9v8.2h-12.5v23h-13.9v-23h-12.5V454.2z"/>
			<path fill="#FFFFFF" d="M874.2,485.4v-31.1h13.9v31.1H874.2z"/>
			<path fill="#FFFFFF" d="M897.8,485.4v-31.1h20.5c12.2,0,18.1,4.1,18.1,10.5c0,6.7-5.4,10.9-17.6,10.9h-7v9.7H897.8z M917.5,468.4
				c3.2,0,5.6-1,5.6-3.6c0-2.9-4.5-3.3-7.4-3.3h-4v6.9H917.5z"/>
			<path fill="#FFFFFF" d="M941.5,484.8v-31.1h13.9v23.9h19.1v7.3H941.5z"/>
			<path fill="#FFFFFF" d="M976.7,484.8l15.2-31.1h14.2l15.2,31.1h-13.9l-1.7-4.1h-13.9l-1.6,4.1H976.7z M998.9,463l-4.3,11.2h8.8
				L998.9,463z"/>
			<path fill="#FFFFFF" d="M1046.8,485.4h-13.9v-11.3l-15.8-19.8h15.6l7.3,10.6l7.3-10.6h15.3l-15.8,19.6V485.4z"/>
			<path fill="#FFFFFF" d="M1065,485.4v-31.1h34.6v7.3h-20.7v4.5h17.5v7.3h-17.5v4.9h21.5v7.3H1065z"/>
			<path fill="#FFFFFF" d="M1121.5,474.5v10.9h-14.4v-31.1h20.7c14.6,0,19.4,2.8,19.4,8.9c0,3.6-2.3,6.6-7.4,7.6
				c4.6,1.2,7.4,2,7.4,8.3c0,4.1-0.2,5.5,1.5,5.5v1h-14.5c-0.4-0.7-0.7-2.7-0.7-5.5c0-4.1-1-5.4-7.7-5.4H1121.5z M1121.5,467.7h5.7
				c4.4,0,6.8-0.8,6.8-2.9c0-2.2-2.4-3.2-5.8-3.2h-6.7V467.7z"/>
		</g>
	</g>
	<g>
		<g>
			<rect x="1237.3" y="28.2" fill="#FFFFFF" width="284.2" height="480"/>
			<g>
				<rect x="1248.5" y="391.1" width="261.6" height="107.7"/>
				<path fill="#888888" d="M1332.6,320.8c0-4.5,20.9-8.2,46.7-8.2s46.7,3.7,46.7,8.2c0,4.5-20.9,8.2-46.7,8.2
					S1332.6,325.4,1332.6,320.8z"/>
				<g>
					<path fill="#FFFFFF" d="M1292.2,439.8v0.2c7.9,0.1,13.7,1.7,17.4,4.7c3.8,3,5.6,6.6,5.6,10.8c0,4.7-2.1,8.6-6.4,11.7
						c-4.3,3.1-9.9,4.6-17,4.6c-6.1,0-10.8-1.2-14.2-3.7c-3.3-2.4-5-5.2-5-8.4c0-2.1,0.8-3.8,2.3-5c1.5-1.3,3.3-1.9,5.4-1.9
						c2,0,3.7,0.6,5.1,1.7c1.4,1.1,2.1,2.6,2.1,4.4c0,2.4-1.6,4.5-4.9,6.1c-0.6,0.3-1,0.7-1,1.1c0,0.7,0.9,1.4,2.8,2
						c1.8,0.6,3.7,0.8,5.6,0.8c6.3,0,9.4-4.6,9.4-13.9c0-9.1-3.8-13.7-11.3-13.7l-6.3,0.3c-1.3,0-1.9-0.5-1.9-1.4
						c0-1.1,0.7-1.6,2-1.6l4.6,0.2c4.7,0,7.8-1,9.4-3.1c1.6-2.1,2.4-5,2.4-8.8c0-3.9-0.6-6.8-1.8-8.7c-1.2-1.9-3.3-2.8-6.2-2.8
						c-1.6,0-3.1,0.3-4.5,0.8c-1.4,0.5-2.1,1.1-2.1,1.6c0,0.5,0.5,1,1.4,1.5c2.4,1.5,3.6,3.2,3.6,5c0,1.8-0.7,3.1-2,4.2
						c-1.3,1-2.9,1.6-4.5,1.6c-1.9,0-3.7-0.6-5.2-1.8c-1.5-1.2-2.3-2.7-2.3-4.4c0-3,1.7-5.6,5.1-7.8c3.4-2.2,7.7-3.3,13-3.3
						c5.9,0,10.8,1.2,14.8,3.7c4,2.5,6,5.7,6,9.5C1313.6,433.6,1306.5,438.2,1292.2,439.8z"/>
					<path fill="#FFFFFF" d="M1363.3,415.3v52.6h5.1c7.9,0,12.6-2.1,14.3-6.2c1.6-4.1,2.5-11.2,2.5-21.2c0-7.8-0.5-13.4-1.5-16.9
						c-1-3.4-2.5-5.7-4.6-6.7c-2-1.1-4.6-1.6-7.8-1.6H1363.3z M1347.3,467.9v-52.6h-8.3v-2.8h33.1c9.6,0,17.1,2.7,22.7,8.1
						c5.6,5.4,8.4,12.3,8.4,20.5c0,4.3-0.9,8.3-2.6,12.1c-1.7,3.8-4.3,7.2-7.8,10.3c-3.5,3.1-7.2,5.1-10.9,6
						c-3.7,0.9-8.3,1.3-13.7,1.3h-29.2v-2.8H1347.3z"/>
					<path fill="#FFFFFF" d="M1466.9,441.6c0-8.9-0.2-14.8-0.5-17.6c-0.4-2.8-1.3-5.1-2.9-6.9c-1.5-1.7-4.1-2.6-7.6-2.6
						c-3,0-5.3,0.7-7.1,2.1c-1.8,1.4-2.9,3.7-3.3,6.8c-0.4,3.1-0.6,9.2-0.6,18.2c0,8.9,0.2,14.8,0.6,17.7c0.4,2.9,1.4,5.2,3,6.9
						c1.6,1.7,4.1,2.6,7.5,2.6c2.8,0,5.2-0.7,7-2.1c1.8-1.4,2.9-3.6,3.4-6.7C1466.7,456.8,1466.9,450.7,1466.9,441.6z M1426.7,441.3
						c0-8.7,2.9-15.9,8.6-21.4c5.8-5.5,12.7-8.3,20.7-8.3c7.5,0,14.2,2.6,20.1,7.8c5.9,5.2,8.8,12.6,8.8,22.2c0,9-2.8,16.2-8.4,21.7
						c-5.6,5.4-12.4,8.2-20.4,8.2c-8.7,0-15.8-2.9-21.2-8.7C1429.5,457.1,1426.7,449.9,1426.7,441.3z"/>
				</g>
				<radialGradient id="SVGID_1_" cx="1384.8384" cy="235.7149" r="47.9513" gradientUnits="userSpaceOnUse">
					<stop  offset="0.5225" style="stop-color:#FFE41B"/>
					<stop  offset="0.8933" style="stop-color:#716A13"/>
					<stop  offset="1" style="stop-color:#49482E"/>
				</radialGradient>
				<path fill="url(#SVGID_1_)" d="M1339.6,243.6c0-22,17.8-39.8,39.7-39.8c21.9,0,39.7,17.8,39.7,39.8c0,22-17.8,39.8-39.7,39.8
					C1357.4,283.4,1339.6,265.5,1339.6,243.6z"/>
				<path fill="#0000A0" d="M1342.4,139.7c-5.8,3.9-7.4,26.5-7.4,26.5s1.6,22.6,7.4,26.5c5.8,3.9,37,6.2,37,6.2s31.1-2.3,37-6.2
					c5.8-3.9,7.4-26.5,7.4-26.5s-1.6-22.6-7.4-26.5c-5.8-3.9-37-6.2-37-6.2S1348.2,135.8,1342.4,139.7z"/>
				<polygon fill="#FF0000" points="1379.4,37.7 1425.9,84.3 1379.4,130.9 1332.8,84.3 				"/>
			</g>
		</g>
	</g>
	<g>
		<path fill-rule="evenodd" clip-rule="evenodd" fill="#FFFFFF" d="M292,139c0-27.9-3.3-50-58.7-50c-46.2,0-61.6,16.6-61.3,44l0,0
			h41.4l0,0c1.1-10,10.6-14.5,17-14.5c4.9,0,15.2,1.1,15.2,9.6c0,25.4-79.9,2-79.9,56c0,24.3,25.2,34.2,38.4,33.9
			c17.4-0.4,30.8-3.6,44-15.8l0,0l5.1,12.5h41l0,0C292.1,210.1,292,139,292,139L292,139L292,139L292,139z M224.1,191.2
			c-9.1,0-13.1-6.2-13-12.1c0.1-9.9,20.7-9.6,35.8-16.9C248,178.3,240.4,191.2,224.1,191.2L224.1,191.2L224.1,191.2L224.1,191.2z"/>
		<path fill-rule="evenodd" clip-rule="evenodd" fill="#FFFFFF" d="M1111.4,165.5c-1.3,9.1-6,20.5-18.1,20.5
			c-14.6,0-22.6-14.2-22.6-31.9c0-13.8,5.2-32.4,22.6-32.4c5.1,0,9.1,1.6,12,4.7c2.9,2.9,4.7,6.9,4.9,12.1l0,0h44.6l0,0
			c-3.3-34.6-30.4-48-61.6-48c-38.6,0-67.2,23-67.2,62.9c0,39.5,29.5,63.8,67.2,63.8c32.4,0,58.5-16.3,62.5-51.7l0,0H1111.4
			L1111.4,165.5L1111.4,165.5z"/>
		<polygon fill-rule="evenodd" clip-rule="evenodd" fill="#FFFFFF" points="976.5,214.7 1021.3,214.7 1021.3,94.5 976.5,94.5 
			976.5,214.7 976.5,214.7 		"/>
		<polygon fill-rule="evenodd" clip-rule="evenodd" fill="#FFFFFF" points="976.5,76.1 1021.3,76.1 1021.3,45.4 976.5,45.4 
			976.5,76.1 976.5,76.1 		"/>
		<path fill-rule="evenodd" clip-rule="evenodd" fill="#FFFFFF" d="M765.7,89.3c-39.5,0-66.7,23.7-66.7,64.3
			c0,40,29.4,63.6,66.9,63.6c37.5,0,66.9-23.1,66.9-65.9C832.9,115,807,89.3,765.7,89.3L765.7,89.3L765.7,89.3L765.7,89.3z
			 M765.9,186c-11.8,0-21-12.7-21-34.8c0-13.2,5.6-29.5,21.4-29.5c12.1-0.7,20.6,13.2,20.6,30.4C786.9,174.3,778.4,186,765.9,186
			L765.9,186L765.9,186L765.9,186z"/>
		<path fill-rule="evenodd" clip-rule="evenodd" fill="#FFFFFF" d="M617.7,123.7c0.1-5.8,6.4-8.5,14.5-8.5c3.6,0,8.6,0.9,11.1,2.9
			c1.2,1,4,4.4,4.5,8.5l0,0h42.2l0,0c-1.1-31.2-31.8-37.7-59.1-37.7c-24.3,0-55.9,9.6-55.9,39.5c-0.1,49.1,75,31.2,75,49.9
			c0,8.3-6.2,11.4-17.3,11.4c-4.5,0-9.3-3-12.2-5.2c-3.1-2.5-4.4-5.3-4.9-10.7l0,0h-41.7l0,0c0.8,32.7,30.7,45,57.5,45
			c49.7,0,64-21.6,64.2-45.9C695.7,125.8,617.4,140.5,617.7,123.7L617.7,123.7L617.7,123.7L617.7,123.7z"/>
		<path fill-rule="evenodd" clip-rule="evenodd" fill="#FFFFFF" d="M566.9,139c0-27.9-3.4-50-58.7-50c-46.2,0-61.6,16.6-61.3,44l0,0
			h41.4l0,0c1.1-10,10.6-14.5,17.1-14.5c4.9,0,15.2,1.1,15.2,9.6c0,25.4-79.9,2-79.9,56c0,24.3,25.2,34.2,38.4,33.9
			c17.4-0.4,30.8-3.6,44-15.8l0,0l5.1,12.5h41l0,0C567.1,210.1,566.9,139,566.9,139L566.9,139L566.9,139L566.9,139z M499,191.2
			c-9.1,0-13.1-6.2-13-12.1c0.1-9.9,20.7-9.6,35.8-16.9C522.9,178.3,515.3,191.2,499,191.2L499,191.2L499,191.2L499,191.2z"/>
		<path fill-rule="evenodd" clip-rule="evenodd" fill="#FFFFFF" d="M98.5,41.3H18.8v173.3h51.4v-53.7h30l0,0
			c46.2,0,68.7-24.8,68.7-59.4C169,68.4,144.7,41.3,98.5,41.3L98.5,41.3L98.5,41.3L98.5,41.3z M96.1,122.7H70.3V83.6h18.9l0,0
			c11.2,0,28.1,3,28.1,18C117.3,115.5,108.4,122.7,96.1,122.7L96.1,122.7L96.1,122.7L96.1,122.7z"/>
		<path fill-rule="evenodd" clip-rule="evenodd" fill="#FFFFFF" d="M923.1,89.3c-17.6,0-25.1,2.9-41.5,17.9l0,0l0.1-13.3l-42.5,0
			v120.8h42.5v-63.5l0,0c0-15,7.7-24.1,22-24.1c13.2,0,16.3,6.9,16.3,18.5l0,0v69h46.4v-73.9l0,0C966.4,108.6,953.9,89.3,923.1,89.3
			L923.1,89.3L923.1,89.3L923.1,89.3z"/>
		<path fill-rule="evenodd" clip-rule="evenodd" fill="#FFFFFF" d="M389.6,89.3c-17.6,0-25.1,2.9-41.5,17.9l0,0l0.1-13.3l-42.5,0
			v120.8h44.8v-63.5l0,0c0-15,5.9-25.8,20.2-25.8c13.2,0,15.8,8.6,15.8,20.2l0,0v69h46.4v-73.9l0,0
			C432.9,108.6,420.4,89.3,389.6,89.3L389.6,89.3L389.6,89.3L389.6,89.3z"/>
	</g>
</g>
</svg>
