<?xml version="1.0" encoding="UTF-8" standalone="no"?>
<svg
   xmlns:dc="http://purl.org/dc/elements/1.1/"
   xmlns:cc="http://creativecommons.org/ns#"
   xmlns:rdf="http://www.w3.org/1999/02/22-rdf-syntax-ns#"
   xmlns:svg="http://www.w3.org/2000/svg"
   xmlns="http://www.w3.org/2000/svg"
   xmlns:sodipodi="http://sodipodi.sourceforge.net/DTD/sodipodi-0.dtd"
   xmlns:inkscape="http://www.inkscape.org/namespaces/inkscape"
   width="498.27527"
   height="110.328"
   version="1.1"
   xml:space="preserve"
   style="clip-rule:evenodd;fill-rule:evenodd;stroke-linejoin:round;stroke-miterlimit:1.41420996"
   id="svg32"
   sodipodi:docname="download3.svg"
   inkscape:version="0.92.3 (2405546, 2018-03-11)"><metadata
   id="metadata38"><rdf:RDF><cc:Work
       rdf:about=""><dc:format>image/svg+xml</dc:format><dc:type
         rdf:resource="http://purl.org/dc/dcmitype/StillImage" /><dc:title></dc:title></cc:Work></rdf:RDF></metadata><defs
   id="defs36" /><sodipodi:namedview
   pagecolor="#ffffff"
   bordercolor="#666666"
   borderopacity="1"
   objecttolerance="10"
   gridtolerance="10"
   guidetolerance="10"
   inkscape:pageopacity="0"
   inkscape:pageshadow="2"
   inkscape:window-width="1366"
   inkscape:window-height="741"
   id="namedview34"
   showgrid="false"
   inkscape:zoom="1.4716578"
   inkscape:cx="309.95761"
   inkscape:cy="93.205887"
   inkscape:window-x="0"
   inkscape:window-y="27"
   inkscape:window-maximized="1"
   inkscape:current-layer="g30" />
    <g
   transform="translate(-13.005,-20)"
   id="g30">
        <g
   id="Layer-2">
            <rect
   x="74.886002"
   y="20"
   width="13.568"
   height="110.328"
   style="fill:#138ff2;fill-rule:nonzero"
   id="rect2" />
            <path
   d="M 60.137,54.855 V 20 h 8.761 v 49.275 c 0,60.393 -55.893,61.052 -55.893,61.052 V 112.96 c 0,0.001 47.132,-16.908 47.132,-58.105"
   style="fill:#138ff2;fill-rule:nonzero"
   id="path4"
   inkscape:connector-curvature="0" />
            <path
   d="M 103.202,54.855 V 20 h -8.764 v 49.275 c 0,60.393 55.895,61.052 55.895,61.052 V 112.96 c 0,0.001 -47.131,-16.908 -47.131,-58.105"
   style="fill:#138ff2;fill-rule:nonzero"
   id="path6"
   inkscape:connector-curvature="0" />
            <rect
   x="452.85199"
   y="23.218"
   width="19.148001"
   height="107.11"
   style="fill:#138ff2;fill-rule:nonzero"
   id="rect8" />
            <path
   d="M 228.685,41.537 V 23.308 h 66.829 v 18.229 h -23.773 l -0.071,88.791 H 252.526 V 41.627 Z"
   style="fill:#138ff2;fill-rule:nonzero"
   id="path10"
   inkscape:connector-curvature="0" />
            <path
   d="m 419.2,86.11 c 12.702,-4.682 21.714,-16.515 21.714,-30.376 0,-17.962 -15.14,-32.517 -33.818,-32.517 L 394,23.156 c -12.127,-0.047 -19.149,6.107 -19.149,18.415 V 129.71 H 394 V 41.014 h 11.807 c 8.994,0 16.278,7.007 16.278,15.656 0,7.698 -5.777,14.099 -13.389,15.405 -1.352,0.316 -2.704,0.701 -3.952,1.429 -6.672,3.867 -8.821,12.194 -4.801,18.602 l 24.058,38.221 h 20.234 l -26.162,-41.37 c -0.563,-0.896 -0.263,-2.067 0.669,-2.609 0.18,-0.094 0.368,-0.151 0.56,-0.195 z"
   style="fill:#138ff2;fill-rule:nonzero"
   id="path12"
   inkscape:connector-curvature="0" />
            <path
   d="m 188.029,87.591 9.721,-34.082 10.87,34.14 z m 23.243,-55.306 c -1.758,-5.688 -7.258,-9.823 -13.744,-9.823 -6.478,0 -11.95,4.142 -13.706,9.823 l -28.087,97.906 h 20.106 l 7.274,-25.491 30.935,0.044 8.072,25.447 19.962,0.137 -30.813,-98.043 z"
   style="fill:#138ff2;fill-rule:nonzero"
   id="path14"
   inkscape:connector-curvature="0" />
            <path
   d="m 314.221,87.591 9.722,-34.082 10.88,34.14 z m 23.247,-55.306 c -1.759,-5.688 -7.258,-9.823 -13.746,-9.823 -6.473,0 -11.943,4.142 -13.709,9.823 l -28.085,97.906 h 20.106 l 7.273,-25.491 30.937,0.044 8.073,25.447 19.964,0.137 z"
   style="fill:#138ff2;fill-rule:nonzero"
   id="path16"
   inkscape:connector-curvature="0" />
        </g>
        <g
   id="Layer-3"
   transform="matrix(0,-0.42988149,0.30869806,0,471.04826,360.44847)">
            <path
   d="m 588.133,38.561 c -2.413,0 -4.656,0.432 -6.73,1.296 -2.076,0.864 -3.885,2.017 -5.428,3.455 -1.544,1.442 -2.75,3.144 -3.618,5.112 -0.869,1.967 -1.303,4.102 -1.303,6.405 0,3.266 1.108,5.858 3.328,7.775 2.22,1.92 5.259,2.879 9.12,2.879 2.508,0 4.871,-0.432 7.092,-1.296 2.219,-0.864 4.149,-2.037 5.79,-3.525 1.639,-1.489 2.943,-3.239 3.908,-5.256 0.964,-2.015 1.447,-4.175 1.447,-6.48 0,-3.166 -1.229,-5.683 -3.69,-7.556 -2.461,-1.873 -5.767,-2.809 -9.916,-2.809 m -7.961,40.673 c -2.799,0 -5.405,0.579 -7.815,1.737 -2.413,1.158 -4.537,2.703 -6.369,4.631 -1.834,1.932 -3.257,4.248 -4.271,6.948 -1.012,2.703 -1.519,5.55 -1.519,8.54 0,3.379 1.278,6.152 3.836,8.323 2.556,2.171 5.91,3.256 10.06,3.256 2.797,0 5.377,-0.529 7.743,-1.592 2.364,-1.061 4.391,-2.533 6.08,-4.414 1.686,-1.882 3.015,-4.148 3.98,-6.803 0.963,-2.654 1.448,-5.523 1.448,-8.613 0,-3.666 -1.183,-6.585 -3.547,-8.756 -2.366,-2.172 -5.572,-3.257 -9.626,-3.257 m 21.712,-8.106 c 4.438,2.703 7.575,5.501 9.408,8.396 1.832,2.894 2.75,6.513 2.75,10.855 0,5.21 -1.183,10.399 -3.546,15.56 -2.365,5.163 -5.572,9.625 -9.625,13.389 -3.861,3.57 -8.396,6.296 -13.606,8.178 -5.21,1.881 -10.711,2.822 -16.501,2.822 -9.65,0 -17.273,-2.316 -22.869,-6.948 -5.598,-4.632 -8.395,-10.903 -8.395,-18.816 0,-4.053 0.746,-8.081 2.243,-12.086 1.496,-4.003 3.595,-7.599 6.297,-10.783 1.832,-2.122 3.835,-3.956 6.006,-5.501 2.172,-1.542 5.089,-3.232 8.757,-5.066 -3.378,-2.605 -5.79,-5.089 -7.237,-7.454 -1.448,-2.363 -2.171,-5.138 -2.171,-8.323 0,-4.534 1.013,-8.804 3.04,-12.81 2.026,-4.003 4.799,-7.526 8.323,-10.566 3.521,-3.039 7.622,-5.427 12.303,-7.165 4.679,-1.736 9.625,-2.605 14.836,-2.605 4.245,0 8.128,0.557 11.652,1.665 3.521,1.11 6.536,2.63 9.046,4.559 2.508,1.932 4.462,4.27 5.862,7.02 1.398,2.75 2.099,5.767 2.099,9.047 0,3.668 -0.796,7.214 -2.389,10.638 -1.591,3.427 -3.835,6.491 -6.73,9.192 -1.157,1.063 -2.438,2.123 -3.836,3.184 -1.399,1.062 -3.306,2.268 -5.717,3.618"
   style="fill:#138ff2;fill-rule:nonzero;fill-opacity:1"
   id="path19"
   inkscape:connector-curvature="0" />
            <path
   d="m 669.175,38.561 c -4.826,0 -8.926,2.553 -12.303,7.656 -1.353,2.121 -2.677,5.251 -3.981,9.392 -1.301,4.141 -2.726,9.678 -4.27,16.612 -0.578,2.601 -1.085,5.274 -1.519,8.017 -0.434,2.746 -0.846,5.369 -1.23,7.873 -0.387,2.506 -0.677,4.864 -0.869,7.078 -0.194,2.217 -0.289,4.047 -0.289,5.489 0,3.662 1.012,6.575 3.039,8.741 2.027,2.167 4.727,3.25 8.105,3.25 4.343,0 7.84,-1.588 10.494,-4.767 2.653,-3.178 5.042,-8.522 7.165,-16.035 0.964,-3.467 1.858,-7.126 2.679,-10.98 0.818,-3.851 1.542,-7.656 2.171,-11.412 0.626,-3.754 1.132,-7.269 1.52,-10.543 0.384,-3.275 0.578,-6.019 0.578,-8.235 0,-3.659 -1.012,-6.597 -3.039,-8.814 -2.027,-2.214 -4.777,-3.322 -8.251,-3.322 m 4.488,-16.356 c 8.489,0 15.198,2.558 20.118,7.671 4.922,5.117 7.383,12.111 7.383,20.988 0,3.764 -0.339,8.106 -1.013,13.027 -0.678,4.921 -1.571,9.868 -2.679,14.836 -1.11,4.971 -2.413,9.77 -3.907,14.402 -1.498,4.632 -3.018,8.589 -4.56,11.869 -3.958,8.203 -9.118,14.474 -15.488,18.816 -6.368,4.343 -13.558,6.514 -21.566,6.514 -8.782,0 -15.633,-2.511 -20.553,-7.527 -4.922,-5.016 -7.383,-12.061 -7.383,-21.132 0,-3.858 0.338,-8.225 1.014,-13.099 0.674,-4.872 1.567,-9.793 2.678,-14.764 1.108,-4.968 2.387,-9.745 3.835,-14.329 1.447,-4.582 2.99,-8.563 4.632,-11.942 4.053,-8.298 9.239,-14.594 15.56,-18.889 6.318,-4.292 13.629,-6.441 21.929,-6.441"
   style="fill:#138ff2;fill-rule:nonzero;fill-opacity:1"
   id="path21"
   inkscape:connector-curvature="0" />
            <path
   d="m 750.652,38.561 c -4.826,0 -8.926,2.553 -12.303,7.656 -1.353,2.121 -2.677,5.251 -3.981,9.392 -1.301,4.141 -2.726,9.678 -4.27,16.612 -0.578,2.601 -1.085,5.274 -1.519,8.017 -0.434,2.746 -0.846,5.369 -1.23,7.873 -0.387,2.506 -0.677,4.864 -0.869,7.078 -0.194,2.217 -0.289,4.047 -0.289,5.489 0,3.662 1.012,6.575 3.039,8.741 2.027,2.167 4.727,3.25 8.105,3.25 4.343,0 7.84,-1.588 10.494,-4.767 2.653,-3.178 5.042,-8.522 7.165,-16.035 0.964,-3.467 1.858,-7.126 2.679,-10.98 0.818,-3.851 1.542,-7.656 2.171,-11.412 0.626,-3.754 1.132,-7.269 1.52,-10.543 0.384,-3.275 0.578,-6.019 0.578,-8.235 0,-3.659 -1.012,-6.597 -3.039,-8.814 -2.027,-2.214 -4.777,-3.322 -8.251,-3.322 m 4.488,-16.356 c 8.489,0 15.198,2.558 20.118,7.671 4.922,5.117 7.383,12.111 7.383,20.988 0,3.764 -0.339,8.106 -1.014,13.027 -0.677,4.921 -1.57,9.868 -2.678,14.836 -1.11,4.971 -2.413,9.77 -3.907,14.402 -1.498,4.632 -3.018,8.589 -4.56,11.869 -3.958,8.203 -9.118,14.474 -15.488,18.816 -6.368,4.343 -13.558,6.514 -21.566,6.514 -8.782,0 -15.633,-2.511 -20.553,-7.527 -4.922,-5.016 -7.383,-12.061 -7.383,-21.132 0,-3.858 0.338,-8.225 1.014,-13.099 0.674,-4.872 1.567,-9.793 2.678,-14.764 1.108,-4.968 2.387,-9.745 3.835,-14.329 1.447,-4.582 2.99,-8.563 4.632,-11.942 4.053,-8.298 9.239,-14.594 15.56,-18.889 6.318,-4.292 13.629,-6.441 21.929,-6.441"
   style="fill:#138ff2;fill-rule:nonzero;fill-opacity:1"
   id="path23"
   inkscape:connector-curvature="0" />
            
            
        </g>
    </g>
</svg>