<?xml version="1.0" encoding="utf-8"?>
<!-- Generator: Adobe Illustrator 22.0.1, SVG Export Plug-In . SVG Version: 6.00 Build 0)  -->
<svg version="1.1" baseProfile="tiny"
	 id="svg2" xmlns:cc="http://creativecommons.org/ns#" xmlns:dc="http://purl.org/dc/elements/1.1/" xmlns:rdf="http://www.w3.org/1999/02/22-rdf-syntax-ns#" xmlns:svg="http://www.w3.org/2000/svg"
	 xmlns="http://www.w3.org/2000/svg" xmlns:xlink="http://www.w3.org/1999/xlink" x="0px" y="0px" viewBox="0 0 677.3 483.6"
	 xml:space="preserve">
<rect x="1" y="34" fill="#190803" width="677.3" height="415"/>
<rect x="15" y="163.8" fill="#463B37" width="650" height="150.9"/>
<path fill="#463B37" d="M659.1,43H20.9c-3.3,0-5.9,2.6-5.9,5.9v99.9c0,3.3,2.6,5.9,5.9,5.9h638.2c3.3,0,5.9-2.6,5.9-5.9V48.9
	C665,45.6,662.4,43,659.1,43z"/>
<g>
	<path fill="#190803" d="M305.7,228.7h-0.5c-1.5,0-2.8-1.2-2.8-2.8v-55.3c0-1.5,1.2-2.8,2.8-2.8h0.5c1.5,0,2.8,1.2,2.8,2.8V226
		C308.4,227.5,307.2,228.7,305.7,228.7z"/>
	<path fill="#190803" d="M315,228.7h-0.5c-1.5,0-2.8-1.2-2.8-2.8v-55.3c0-1.5,1.2-2.8,2.8-2.8h0.5c1.5,0,2.8,1.2,2.8,2.8V226
		C317.8,227.5,316.6,228.7,315,228.7z"/>
	<path fill="#190803" d="M324.4,228.7h-0.5c-1.5,0-2.8-1.2-2.8-2.8v-55.3c0-1.5,1.2-2.8,2.8-2.8h0.5c1.5,0,2.8,1.2,2.8,2.8V226
		C327.1,227.5,325.9,228.7,324.4,228.7z"/>
	<path fill="#190803" d="M333.7,228.7h-0.5c-1.5,0-2.8-1.2-2.8-2.8v-55.3c0-1.5,1.2-2.8,2.8-2.8h0.5c1.5,0,2.8,1.2,2.8,2.8V226
		C336.5,227.5,335.3,228.7,333.7,228.7z"/>
	<path fill="#190803" d="M343.1,228.3h-0.5c-1.5,0-2.8-1.2-2.8-2.8v-55.3c0-1.5,1.2-2.8,2.8-2.8h0.5c1.5,0,2.8,1.2,2.8,2.8v55.3
		C345.8,227.1,344.6,228.3,343.1,228.3z"/>
	<path fill="#190803" d="M352.4,228.3h-0.5c-1.5,0-2.8-1.2-2.8-2.8v-55.3c0-1.5,1.2-2.8,2.8-2.8h0.5c1.5,0,2.8,1.2,2.8,2.8v55.3
		C355.2,227.1,354,228.3,352.4,228.3z"/>
	<path fill="#190803" d="M361.8,228.3h-0.5c-1.5,0-2.8-1.2-2.8-2.8v-55.3c0-1.5,1.2-2.8,2.8-2.8h0.5c1.5,0,2.8,1.2,2.8,2.8v55.3
		C364.5,227.1,363.3,228.3,361.8,228.3z"/>
	<path fill="#190803" d="M371.1,228.7h-0.5c-1.5,0-2.8-1.2-2.8-2.8v-55.3c0-1.5,1.2-2.8,2.8-2.8h0.5c1.5,0,2.8,1.2,2.8,2.8V226
		C373.9,227.5,372.7,228.7,371.1,228.7z"/>
	<path fill="#190803" d="M380.5,228.7H380c-1.5,0-2.8-1.2-2.8-2.8v-55.3c0-1.5,1.2-2.8,2.8-2.8h0.5c1.5,0,2.8,1.2,2.8,2.8V226
		C383.2,227.5,382,228.7,380.5,228.7z"/>
	<path fill="#190803" d="M305.7,311h-0.5c-1.5,0-2.8-1.2-2.8-2.8V253c0-1.5,1.2-2.8,2.8-2.8h0.5c1.5,0,2.8,1.2,2.8,2.8v55.3
		C308.4,309.8,307.2,311,305.7,311z"/>
	<path fill="#190803" d="M315,311.4h-0.5c-1.5,0-2.8-1.2-2.8-2.8v-55.3c0-1.5,1.2-2.8,2.8-2.8h0.5c1.5,0,2.8,1.2,2.8,2.8v55.3
		C317.8,310.2,316.6,311.4,315,311.4z"/>
	<path fill="#190803" d="M324.4,311.4h-0.5c-1.5,0-2.8-1.2-2.8-2.8v-55.3c0-1.5,1.2-2.8,2.8-2.8h0.5c1.5,0,2.8,1.2,2.8,2.8v55.3
		C327.1,310.2,325.9,311.4,324.4,311.4z"/>
	<path fill="#190803" d="M333.7,311h-0.5c-1.5,0-2.8-1.2-2.8-2.8V253c0-1.5,1.2-2.8,2.8-2.8h0.5c1.5,0,2.8,1.2,2.8,2.8v55.3
		C336.5,309.8,335.3,311,333.7,311z"/>
	<path fill="#190803" d="M343.1,311.4h-0.5c-1.5,0-2.8-1.2-2.8-2.8v-55.3c0-1.5,1.2-2.8,2.8-2.8h0.5c1.5,0,2.8,1.2,2.8,2.8v55.3
		C345.8,310.2,344.6,311.4,343.1,311.4z"/>
	<path fill="#190803" d="M352.4,311.4h-0.5c-1.5,0-2.8-1.2-2.8-2.8v-55.3c0-1.5,1.2-2.8,2.8-2.8h0.5c1.5,0,2.8,1.2,2.8,2.8v55.3
		C355.2,310.2,354,311.4,352.4,311.4z"/>
	<path fill="#190803" d="M361.8,311.4h-0.5c-1.5,0-2.8-1.2-2.8-2.8v-55.3c0-1.5,1.2-2.8,2.8-2.8h0.5c1.5,0,2.8,1.2,2.8,2.8v55.3
		C364.5,310.2,363.3,311.4,361.8,311.4z"/>
	<path fill="#190803" d="M371.1,311.4h-0.5c-1.5,0-2.8-1.2-2.8-2.8v-55.3c0-1.5,1.2-2.8,2.8-2.8h0.5c1.5,0,2.8,1.2,2.8,2.8v55.3
		C373.9,310.2,372.7,311.4,371.1,311.4z"/>
	<path fill="#190803" d="M380.5,311.4H380c-1.5,0-2.8-1.2-2.8-2.8v-55.3c0-1.5,1.2-2.8,2.8-2.8h0.5c1.5,0,2.8,1.2,2.8,2.8v55.3
		C383.2,310.2,382,311.4,380.5,311.4z"/>
</g>
<path fill="#A59983" d="M648.5,47.4h-618c-5.7,0-10.4,4.6-10.4,10.4V140c0,5.7,4.6,10.4,10.4,10.4h617.9c5.7,0,10.4-4.6,10.4-10.4
	V57.7C658.8,52,654.2,47.4,648.5,47.4z"/>
<path fill="#463B37" d="M658.6,326H20.4c-3.3,0-5.9,2.6-5.9,5.9v99.9c0,3.3,2.6,5.9,5.9,5.9h638.2c3.3,0,5.9-2.6,5.9-5.9v-99.9
	C664.5,328.6,661.9,326,658.6,326z"/>
<path fill="#A59983" d="M648,330.4H30c-5.7,0-10.4,4.6-10.4,10.4V423c0,5.7,4.6,10.4,10.4,10.4h618c5.7,0,10.4-4.6,10.4-10.4v-82.3
	C658.3,335,653.7,330.4,648,330.4z"/>
<path fill="#332D24" d="M648,167.7H403.4c-5.7,0-10.4,4.6-10.4,10.4v120.6c0,5.7,4.6,10.4,10.4,10.4H648c5.7,0,10.4-4.6,10.4-10.4
	V178.1C658.3,172.3,653.7,167.7,648,167.7z"/>
<path fill="#332D24" d="M284,168.6H30.5c-5.7,0-10.4,4.6-10.4,10.4v120.6c0,5.7,4.6,10.4,10.4,10.4H284c5.7,0,10.4-4.6,10.4-10.4
	V178.9C294.3,173.2,289.7,168.6,284,168.6z"/>
<path fill="#332D24" d="M645.4,430H514v-33.4h141.6v23.2C655.6,425.5,651,430,645.4,430z"/>
<rect x="517.2" y="399.3" fill="#190803" width="58.3" height="28.7"/>
<path fill="#190803" d="M645.3,428h-36.8v-28.7h44.2v21.3C652.7,424.7,649.4,428,645.3,428z"/>
<rect x="629.3" y="399.3" fill="#050201" width="3.5" height="28.7"/>
<path id="path4733" inkscape:connector-curvature="0" d="M162,416.4c-0.1,0-0.1,0.1-0.1,0.1l0,1.4c0,0.1,0.1,0.1,0.1,0.1l0.6,0
	c0.1,0,0.1,0,0.1-0.1v-0.3c0-0.1-0.1-0.1-0.1-0.1l-0.4,0c-0.1,0-0.1,0-0.1-0.1v-0.9C162.1,416.5,162,416.4,162,416.4
	C162,416.4,162,416.4,162,416.4z M165.1,416.4C165.1,416.4,165,416.4,165.1,416.4c-0.1,0-0.1,0.1-0.1,0.1l0,1.4c0,0,0,0.1,0.1,0.1
	c0,0,0,0,0,0c0,0,0,0,0,0c0,0,0,0,0,0l0.6,0c0.1,0,0.1,0,0.1-0.1v-0.3c0-0.1-0.1-0.1-0.1-0.1l-0.4,0c-0.1,0-0.1,0-0.1-0.1l0-0.9
	C165.2,416.5,165.1,416.4,165.1,416.4L165.1,416.4z M155.1,416.4c-0.1,0-0.1,0-0.1,0.1l0,0.2l0,1.2c0,0.1,0,0.1,0.1,0.1c0,0,0,0,0,0
	c0.1,0,0.1-0.1,0.1-0.1V417c0-0.1,0.1-0.1,0.1-0.1h0.1c0.1,0,0.1,0,0.1,0.1l0.1,0.5c0,0.1,0,0.1,0.1,0.1h0.2c0,0,0,0,0,0
	c0.1,0,0.1-0.1,0.1-0.1c0,0,0.3-0.6,0.3-0.6c0-0.1,0.1,0,0.1,0v0.9l0,0.1c0,0.1,0,0.1,0.1,0.1l0.3,0c0,0,0,0,0,0c0,0,0,0,0,0
	c0,0,0-0.1,0.1-0.1l0.2-0.4c0-0.1,0.1-0.1,0.1-0.1h0.3c0.1,0,0.1,0,0.1,0.1l0,0.5c0,0,0,0.1,0.1,0.1c0,0,0,0,0,0c0.1,0,0.1,0,0.2,0
	c0.1,0,0.2,0,0.2-0.1l0-1.4c0-0.1-0.1-0.1-0.1-0.1h-0.7c-0.1,0-0.1,0-0.1,0.1c0,0-0.5,1.1-0.5,1.2c0,0,0,0,0,0c0,0,0,0,0,0
	c0,0-0.1,0-0.1,0c0-0.1,0-1.1,0-1.1c0-0.1,0-0.1-0.1-0.1h-0.2c-0.1,0-0.1,0-0.1,0.1c0,0-0.3,0.7-0.3,0.7c0,0,0,0,0,0c0,0,0,0,0,0
	c0,0,0,0,0,0c0,0-0.1-0.8-0.1-0.8c0-0.1-0.1-0.1-0.1-0.1L155.1,416.4C155.1,416.4,155.1,416.4,155.1,416.4z M167.6,416.4
	c-0.1,0-0.1,0-0.1,0.1l0,1.4c0,0,0,0,0,0.1c0,0,0,0,0.1,0c0,0,0,0,0,0c0,0,0,0,0,0l0.2,0v0h0.5c0,0,0,0,0,0c0,0,0,0,0,0
	c0,0,0.1,0,0.1-0.1c0-0.1-0.1-0.1-0.1-0.1h-0.5v0c-0.1,0-0.1,0-0.1-0.1l0-0.7c0-0.1,0.1-0.1,0.1-0.1h0.5c0.1,0,0.1,0,0.1-0.1v-0.2
	c0-0.1-0.1-0.1-0.1-0.1L167.6,416.4L167.6,416.4L167.6,416.4z M169.9,416.4C169.9,416.4,169.9,416.4,169.9,416.4
	c-0.1,0-0.1,0-0.1,0.1c0,0,0,0.1,0,0.1c0,0.4,0,0.8,0,1.2c0,0,0,0.1,0,0.1c0,0,0,0,0,0c0,0,0,0,0,0c0,0,0,0,0.1,0.1c0,0,0.1,0,0.1,0
	c0,0,0.1,0,0.1,0c0,0,0,0,0,0c0.1,0,0.1,0,0.1-0.1l0-0.5c0-0.1,0.1-0.1,0.1-0.1h0.3c0.1,0,0.1,0,0.1,0.1l0,0.4c0,0.1,0,0.1,0.1,0.1
	c0,0,0,0,0,0c0.1,0,0.1-0.1,0.1-0.1v-0.4v-0.2c0-0.1-0.1-0.1-0.2-0.2c0,0,0,0-0.1,0c0,0,0,0,0,0c0-0.1,0-0.6,0-0.6
	c0-0.1-0.1-0.1-0.1-0.1L169.9,416.4L169.9,416.4L169.9,416.4z M171.5,416.4C171.5,416.4,171.5,416.4,171.5,416.4
	c-0.1,0-0.1,0-0.1,0.1l0,1.4c0,0,0,0.1,0,0.1c0,0,0,0,0,0c0,0,0,0,0.1,0h0.9c0.1,0,0.1,0,0.1-0.1l0-1.4c0-0.1-0.1-0.1-0.1-0.1
	L171.5,416.4C171.5,416.4,171.5,416.4,171.5,416.4z M172.9,416.4C172.9,416.4,172.8,416.4,172.9,416.4
	C172.8,416.4,172.8,416.4,172.9,416.4c-0.1,0-0.1,0.1-0.1,0.1l0,0.2l0,1.2c0,0.1,0,0.1,0.1,0.1c0,0,0,0,0,0c0,0,0,0,0,0
	c0.1,0,0.1-0.1,0.1-0.1V417c0-0.1,0.1-0.1,0.1-0.1h0.5c0.1,0,0.1,0,0.1,0.1l0,0.9c0,0.1,0,0.1,0.1,0.1c0,0,0,0,0,0
	c0.1,0,0.1-0.1,0.1-0.1l0-1l0-0.4c0-0.1-0.1-0.1-0.1-0.1H172.9C172.9,416.4,172.9,416.4,172.9,416.4z M175.1,416.4
	c-0.1,0-0.1,0-0.1,0.1c0,0,0,0,0,0l0,1.4c0,0,0,0,0,0.1c0,0,0.1,0,0.1,0l0.8,0c0.1,0,0.1,0,0.1-0.1c0-0.1-0.1-0.1-0.1-0.1l-0.5,0
	c-0.1,0-0.1,0-0.1-0.1l0-0.7c0-0.1,0.1-0.1,0.1-0.1h0.5c0.1,0,0.1,0,0.1-0.1v-0.2c0-0.1-0.1-0.1-0.1-0.1L175.1,416.4L175.1,416.4
	L175.1,416.4z M174.4,416.4C174.4,416.4,174.4,416.5,174.4,416.4c-0.1,0.1-0.1,0.1-0.1,0.1c0,0,0,0,0,0l0,0.9c0,0.1,0,0.1-0.1,0.1
	c0,0,0,0,0,0c0,0,0,0,0,0h0c-0.1,0-0.1,0-0.1,0.1v0.2c0,0,0,0.1,0,0.1c0,0,0,0,0,0c0,0,0,0,0.1,0h0.4c0.1,0,0.1,0,0.1-0.1v-0.2
	c0,0,0,0,0,0c0-0.1-0.1-0.1-0.1-0.1c0,0,0,0,0,0c0,0,0,0,0-0.1v-0.9C174.5,416.5,174.5,416.4,174.4,416.4L174.4,416.4z M158.5,416.4
	c-0.1,0-0.1,0-0.1,0.1v0.2c0,0.1,0.1,0.1,0.1,0.1h0.2c0.1,0,0.1,0,0.1,0.1l0,0.9c0,0.1,0,0.1,0.1,0.1c0,0,0,0,0,0
	c0.1,0,0.1-0.1,0.1-0.1V417c0-0.1,0-0.1,0.1-0.1c0,0,0,0,0,0h0.4c0.1,0,0.1,0,0.1,0.1v0.9c0,0.1,0,0.1,0.1,0.1c0,0,0,0,0,0
	c0.1,0,0.1-0.1,0.1-0.1l0-0.9c0-0.1,0-0.1,0.1-0.1c0,0,0,0,0,0h0.2c0.1,0,0.1,0,0.1-0.1v-0.2c0-0.1-0.1-0.1-0.1-0.1H158.5
	L158.5,416.4L158.5,416.4z M168.8,416.4C168.7,416.4,168.7,416.4,168.8,416.4C168.7,416.4,168.7,416.4,168.8,416.4
	c-0.1,0-0.1,0.1-0.1,0.1v0.2c0,0.1,0.1,0.1,0.1,0.1h0.2c0.1,0,0.1,0,0.1,0.1l0,0.9c0,0,0,0.1,0,0.1c0,0,0,0,0,0c0,0,0,0,0,0
	c0,0,0,0,0,0c0,0,0,0,0,0c0.1,0,0.1-0.1,0.1-0.1V417c0-0.1,0-0.1,0.1-0.1c0,0,0,0,0,0h0.2c0.1,0,0.1,0,0.1-0.1v-0.2
	c0-0.1-0.1-0.1-0.1-0.1L168.8,416.4L168.8,416.4L168.8,416.4L168.8,416.4z M177.1,416.4l-0.8,0c0,0,0,0,0,0c-0.1,0-0.1,0-0.1,0.1
	l0,0.7c0,0.1,0.1,0.1,0.1,0.1l0.4,0c0.1,0,0.1,0,0.1,0.1l0,0.3c0,0,0,0,0,0c0,0,0,0-0.1,0.1c0,0,0,0,0,0c0,0,0,0,0,0l-0.5,0
	c0,0,0,0,0,0c-0.1,0-0.1,0-0.1,0.1c0,0,0,0.1,0,0.1c0,0,0.1,0,0.1,0h1c0,0,0.1,0,0.1,0c0,0,0,0,0-0.1l0-0.7c0-0.1-0.1-0.1-0.1-0.1
	h-0.6c-0.1,0-0.1,0-0.1-0.1l0-0.3c0-0.1,0.1-0.1,0.1-0.1l0.5,0c0.1,0,0.1,0,0.1-0.1C177.2,416.5,177.1,416.4,177.1,416.4
	C177.1,416.4,177.1,416.4,177.1,416.4z M160.8,416.4c-0.1,0-0.1,0-0.1,0.1v0.5c0,0.1,0,0.1-0.1,0.1l-0.1,0c-0.1,0-0.1,0-0.1,0.1
	l0,0.7c0,0.1,0,0.1,0.1,0.1c0,0,0,0,0,0c0,0,0,0,0,0l1,0c0.1,0,0.1,0,0.1-0.1s-0.1-0.1-0.1-0.1l-0.8,0c-0.1,0-0.1,0-0.1-0.1l0-0.2
	c0-0.1,0.1-0.1,0.1-0.1l0.8,0c0,0,0,0,0,0c0,0,0,0,0,0c0,0,0.1,0,0.1-0.1c0-0.1,0-0.1-0.1-0.1c0,0,0,0,0,0l-0.2,0c0,0,0,0,0,0
	c0,0-0.1,0-0.1,0c0,0,0,0,0-0.1l0-0.3c0-0.1,0.1-0.1,0.1-0.1h0.2c0.1,0,0.1,0,0.1-0.1c0-0.1-0.1-0.1-0.1-0.1L160.8,416.4
	C160.8,416.4,160.8,416.4,160.8,416.4z M163.9,416.4c0,0-0.1,0-0.1,0c0,0,0,0,0,0c0,0,0,0,0,0v0.5c0,0.1,0,0.1-0.1,0.1l-0.1,0
	c-0.1,0-0.1,0-0.1,0.1l0,0.7c0,0,0,0,0,0.1c0,0,0,0,0.1,0c0,0,0,0,0,0c0,0,0,0,0,0l1,0c0.1,0,0.1,0,0.1-0.1s-0.1-0.1-0.1-0.1l-0.8,0
	c-0.1,0-0.1,0-0.1-0.1l0-0.2c0-0.1,0.1-0.1,0.1-0.1l0.8,0c0,0,0,0,0,0c0,0,0,0,0,0c0,0,0.1,0,0.1-0.1c0-0.1,0-0.1-0.1-0.1
	c0,0,0,0,0,0l-0.2,0c0,0,0,0,0,0c0,0-0.1,0-0.1,0c0,0,0,0,0-0.1l0-0.3c0-0.1,0.1-0.1,0.1-0.1h0.2c0.1,0,0.1,0,0.1-0.1
	c0-0.1-0.1-0.1-0.1-0.1H163.9L163.9,416.4L163.9,416.4z M166.5,416.4c0,0-0.1,0-0.1,0c0,0,0,0,0,0c0,0,0,0,0,0l0,0.5
	c0,0.1,0,0.1-0.1,0.1l-0.1,0c-0.1,0-0.1,0-0.1,0.1l0,0.7c0,0,0,0,0,0.1c0,0,0,0,0.1,0c0,0,0,0,0,0c0,0,0,0,0,0l1,0
	c0.1,0,0.1,0,0.1-0.1s-0.1-0.1-0.1-0.1l-0.8,0c-0.1,0-0.1,0-0.1-0.1l0-0.2c0-0.1,0.1-0.1,0.1-0.1l0.8,0c0,0,0,0,0,0c0,0,0,0,0,0
	c0,0,0.1,0,0.1-0.1c0-0.1,0-0.1-0.1-0.1c0,0,0,0,0,0l-0.2,0c0,0,0,0,0,0c0,0-0.1,0-0.1,0c0,0,0,0,0-0.1l0-0.3c0-0.1,0.1-0.1,0.1-0.1
	h0.2c0.1,0,0.1,0,0.1-0.1c0-0.1-0.1-0.1-0.1-0.1H166.5L166.5,416.4L166.5,416.4z M157.6,416.7h0.3c0.1,0,0.1,0,0.1,0.1l0,0.3
	c0,0.1-0.1,0.1-0.1,0.1h-0.4c-0.1,0-0.1-0.1-0.1-0.1l0.1-0.3C157.5,416.7,157.5,416.7,157.6,416.7
	C157.6,416.7,157.6,416.7,157.6,416.7z M170.2,416.7h0.4c0.1,0,0.1,0,0.1,0.1l0,0.3c0,0.1-0.1,0.1-0.1,0.1h-0.4
	c-0.1,0-0.1,0-0.1-0.1l0-0.3C170,416.7,170.1,416.7,170.2,416.7z M171.7,416.7h0.5c0.1,0,0.1,0,0.1,0.1l0,0.7c0,0.1-0.1,0.1-0.1,0.1
	h-0.5c-0.1,0-0.1,0-0.1-0.1l0-0.7C171.6,416.7,171.6,416.7,171.7,416.7C171.7,416.7,171.7,416.7,171.7,416.7z"/>
<path id="path4762" d="M142.1,426l0,2.2l0,2.2l0.4,0l0-2.2l0-2.2L142.1,426z M142.8,426l0,2.2l0,2.2l0.4,0l0-2.2l0-2.2L142.8,426z
	 M143.7,426v0.7h0.4l0-0.7H143.7z M167.5,426l0,0.7h0.4l0-0.7H167.5z M170.9,426l0,0.7h0.4l0-0.7H170.9z M156.3,426
	c-0.3,0-0.6,0-0.6,0l0,0.4c0.2,0,1,0,1.5,0v2v2h0.2h0.2v-2v-2c0.5,0,1,0,1.5,0l0-0.4l-1.6,0C157.1,426,156.7,426,156.3,426z
	 M161.4,426l0,2.2l0,2.2l0.4,0l0-2.2l0-2.2L161.4,426z M133.9,426l0,2.2l0,2.2h0.2h0.2l0-2.2l0-2.2h-0.2H133.9z M138,426.3v0.5v0.5
	h-0.3h-0.3l0,0.4l0.6,0v1.2c0,1.4,0,1.5,0.4,1.6c0.2,0,0.3,0,0.5,0c0,0,0.1,0,0.2,0l0-0.3c0,0,0,0-0.2,0c-0.4,0-0.4,0-0.4-1.4v-1.1
	l0.7,0l0-0.4h-0.3h-0.3v-0.5v-0.5h-0.2H138z M153.5,426.3v0.5v0.5h-0.3H153l0,0.4l0.6,0v1.2c0,1.4,0,1.5,0.4,1.6c0.2,0,0.3,0,0.5,0
	c0,0,0.1,0,0.2,0l0-0.3c0,0,0,0-0.2,0c-0.4,0-0.4,0-0.4-1.4v-1.1l0.7,0l0-0.4h-0.3h-0.3v-0.5v-0.5h-0.2H153.5z M163.4,427.1
	c-0.8,0-1.4,0.7-1.4,1.7c0,0.9,0.4,1.5,1,1.6c0.3,0.1,0.8,0,1-0.1c0.3-0.1,0.6-0.5,0.7-0.9c0-0.1,0-0.1,0-0.1l-0.4,0
	c0,0,0,0.1-0.1,0.2c-0.2,0.3-0.4,0.5-0.8,0.5c-0.4,0-0.6,0-0.9-0.3c-0.2-0.2-0.3-0.5-0.3-0.8v-0.1h1.2h1.2l0-0.4
	c0-0.5-0.2-0.8-0.5-1.1C164,427.2,163.8,427.1,163.4,427.1z M140.5,427.2c-0.8,0-1.4,0.7-1.4,1.7c0,0.9,0.4,1.5,1,1.6
	c0.3,0.1,0.8,0,1-0.1c0.3-0.1,0.6-0.5,0.7-0.9c0-0.1,0-0.1,0-0.1l-0.4,0c0,0,0,0.1-0.1,0.2c-0.2,0.3-0.4,0.5-0.8,0.5
	c-0.4,0-0.6,0-0.9-0.3c-0.2-0.2-0.3-0.5-0.3-0.8v-0.1h1.2h1.2l0-0.4c0-0.5-0.2-0.8-0.5-1.1C141.1,427.2,140.9,427.1,140.5,427.2z
	 M148.8,427.2c-0.8,0-1.4,0.7-1.4,1.7c0,0.9,0.4,1.5,1,1.6c0.3,0.1,0.8,0,1-0.1c0.3-0.1,0.6-0.5,0.7-0.9c0-0.1,0-0.1,0-0.1l-0.4,0
	c0,0,0,0.1-0.1,0.2c-0.2,0.3-0.4,0.5-0.8,0.5c-0.4,0-0.6,0-0.9-0.3c-0.2-0.2-0.3-0.5-0.3-0.8v-0.1h1.2h1.2l0-0.4
	c0-0.5-0.2-0.8-0.5-1.1C149.4,427.2,149.2,427.1,148.8,427.2z M159.8,427.2c-0.8,0-1.4,0.7-1.4,1.7c0,0.9,0.4,1.5,1,1.6
	c0.3,0.1,0.8,0,1-0.1c0.3-0.1,0.6-0.5,0.7-0.9c0-0.1,0-0.1,0-0.1l-0.4,0c0,0,0,0.1-0.1,0.2c-0.2,0.3-0.4,0.5-0.8,0.5
	c-0.4,0-0.6,0-0.9-0.3c-0.2-0.2-0.3-0.5-0.3-0.8v-0.1h1.2h1.2l0-0.4c0-0.5-0.2-0.8-0.5-1.1C160.4,427.2,160.2,427.1,159.8,427.2z
	 M151.8,427.2c-0.3,0-0.4,0-0.7,0.2c-0.2,0.1-0.3,0.2-0.3,0.3c-0.1,0.1-0.1,0.2-0.1-0.1v-0.2l-0.4,0l0,3.2c0,0,0.1,0,0.2,0h0.2v-1
	c0-1,0-1.3,0.3-1.6c0.2-0.3,0.8-0.4,1.2-0.2c0.3,0.2,0.3,0.2,0.4,1.6l0,1.2h0.2h0.2l0-1.3c0-1.3,0-1.3-0.1-1.5
	c-0.2-0.3-0.4-0.4-0.9-0.5C151.9,427.2,151.8,427.2,151.8,427.2z M176.2,427.2c-0.3,0-0.4,0-0.7,0.2c-0.2,0.1-0.3,0.2-0.3,0.3
	c-0.1,0.1-0.1,0.2-0.1-0.1v-0.2l-0.4,0l0,3.2c0,0,0.1,0,0.2,0h0.2v-1c0-1,0-1.3,0.3-1.6c0.2-0.3,0.8-0.4,1.2-0.2
	c0.3,0.2,0.3,0.2,0.4,1.6l0,1.2h0.2h0.2l0-1.3c0-1.3,0-1.3-0.1-1.5c-0.2-0.3-0.4-0.4-0.9-0.5C176.3,427.2,176.2,427.2,176.2,427.2z
	 M145.7,427.2c0,0-0.1,0-0.1,0c-0.5,0-0.9,0.3-1.1,0.8c-0.1,0.3-0.1,1.1,0,1.5c0.2,0.8,1.3,1.2,1.9,0.7c0.1-0.1,0.3-0.2,0.3-0.3
	c0.1-0.2,0.2-0.1,0.1,0.3c-0.1,0.8-0.3,1.1-1,1.1c-0.4,0-0.7-0.1-0.9-0.4c-0.1-0.1-0.1-0.2-0.1-0.2l-0.4,0c0,0,0,0,0,0.1
	c0.1,0.3,0.4,0.7,0.8,0.8c0.3,0.1,0.8,0.1,1,0c0.3-0.1,0.6-0.3,0.7-0.6c0,0,0.1-0.2,0.1-0.4c0-0.1,0-1.6,0-1.6l0-1.7H147h-0.2v0.2
	c0,0.1,0,0.3,0,0.3c-0.1-0.1-0.1-0.1-0.2-0.2C146.3,427.3,146.1,427.2,145.7,427.2z M136.3,427.2c-0.3,0-0.4,0-0.7,0.2
	c-0.2,0.1-0.3,0.2-0.3,0.3c-0.1,0.1-0.1,0.2-0.1-0.1v-0.2l-0.4,0l0,3.2c0,0,0.1,0,0.2,0h0.2v-1c0-1,0-1.3,0.3-1.6
	c0.2-0.3,0.8-0.4,1.2-0.2c0.3,0.2,0.3,0.2,0.4,1.6l0,1.2h0.2h0.2l0-1.3c0-1.3,0-1.3-0.1-1.5c-0.2-0.3-0.4-0.4-0.9-0.5
	C136.4,427.2,136.3,427.2,136.3,427.2z M173,427.2c-0.8,0-1.5,0.7-1.5,1.7c0,0.9,0.7,1.6,1.5,1.6c0.8,0,1.5-0.7,1.5-1.6
	C174.5,427.9,173.9,427.2,173,427.2z M169.4,427.2c-0.3,0-0.5,0-0.7,0.1c-0.3,0.2-0.5,0.4-0.5,0.8c0,0.3,0,0.3,0.2,0.5
	c0.2,0.2,0.4,0.3,1,0.4c0.5,0.1,0.7,0.2,0.8,0.4c0.1,0.1,0,0.3,0,0.4c-0.2,0.3-0.4,0.4-0.9,0.4c-0.5,0-0.7-0.1-0.8-0.5
	c-0.1-0.2-0.1-0.3-0.1-0.3h-0.3l0,0.2c0.1,0.4,0.4,0.8,0.9,0.9c1,0.2,1.8-0.4,1.6-1.2c-0.1-0.3-0.4-0.5-1-0.7
	c-0.5-0.1-0.8-0.3-0.9-0.4c-0.1-0.1-0.1-0.4,0-0.5c0.1-0.2,0.4-0.3,0.7-0.3c0.4,0,0.6,0.1,0.8,0.4c0.1,0.1,0.1,0.2,0.1,0.2l0.4,0
	c0,0,0,0,0-0.1c0-0.3-0.3-0.7-0.7-0.8C169.7,427.2,169.6,427.2,169.4,427.2z M143.7,427.2l0,3.2l0.4,0v-3.2H143.7z M167.5,427.3
	l0,3.1l0.4,0v-3.1H167.5z M170.9,427.3l0,3.1l0.4,0v-3.1H170.9z M165.1,427.3l-0.4,0l1.2,3.1l0.4,0l1.1-3.1l-0.4,0l-1,2.7
	L165.1,427.3z M163.3,427.5c0.2,0,0.4,0,0.5,0.1c0.3,0.2,0.6,0.6,0.6,0.9v0.1h-1c-0.7,0-1,0-1,0c0-0.2,0-0.3,0.1-0.4
	c0.1-0.3,0.3-0.5,0.5-0.6C163.1,427.5,163.2,427.5,163.3,427.5z M145.8,427.5c0.4,0,0.6,0.1,0.8,0.4c0.3,0.4,0.3,1.2,0.1,1.6
	c-0.1,0.2-0.4,0.4-0.6,0.5c-0.2,0.1-0.3,0.1-0.6,0c-0.4-0.2-0.7-0.6-0.7-1.2c0-0.4,0-0.4,0.2-0.7
	C145.1,427.7,145.3,427.5,145.8,427.5z M140.4,427.5c0.2,0,0.4,0,0.5,0.1c0.3,0.2,0.6,0.6,0.6,0.9v0.1h-1c-0.7,0-1,0-1,0
	c0-0.2,0-0.3,0.1-0.4c0.1-0.3,0.3-0.5,0.5-0.6C140.2,427.5,140.3,427.5,140.4,427.5z M148.7,427.5c0.2,0,0.4,0,0.5,0.1
	c0.3,0.2,0.6,0.6,0.6,0.9v0.1h-1c-0.7,0-1,0-1,0c0-0.2,0-0.3,0.1-0.4c0.1-0.3,0.3-0.5,0.5-0.6C148.5,427.5,148.6,427.5,148.7,427.5z
	 M159.7,427.5c0.2,0,0.4,0,0.5,0.1c0.3,0.2,0.6,0.6,0.6,0.9v0.1h-1c-0.7,0-1,0-1,0c0-0.2,0-0.3,0.1-0.4c0.1-0.3,0.3-0.5,0.5-0.6
	C159.5,427.5,159.6,427.5,159.7,427.5z M173,427.5c0.6,0,1.1,0.6,1.1,1.3s-0.5,1.3-1.1,1.3c-0.6,0-1.1-0.6-1.1-1.3
	S172.4,427.5,173,427.5z"/>
<path id="path4177" inkscape:connector-curvature="0" d="M152.7,416.6c0,0-1.6,6.3-1.7,6.4c-0.1,0.2-0.2,0.2-0.3,0
	c-0.1-0.2-1.4-4.5-1.4-4.5H147c0,0,1.7,5.5,1.8,5.7c0.8,1.7,2.6,1,2.9-0.2c0.4-1.3,2-7.5,2-7.5L152.7,416.6L152.7,416.6L152.7,416.6
	z M129.3,417.1l-3.5,2.2c0-0.4,0-0.7,0-0.7h-1.1v3.1c0,0.1-0.1,0.2-0.3,0c0,0-1.5-2.1-2-2.8c-0.4-0.5-2-0.5-2,0.8c0,0.8,0,5.5,0,5.5
	h1.1v-3.9c0-0.2,0.2-0.1,0.3,0c0.1,0.1,2.4,3.7,2.6,3.9c0.2,0.3,1.5,0.6,1.5-0.7c0-0.9,0-3.5,0-5h1.1c0.1,0,0.3,0.1,0.3,0.1
	c0,0.1,0,3.5,0,4c0,1,0.8,1.7,1.7,1.7h2v-1h-0.9c-0.3,0-0.6-0.2-0.6-0.6V420c0-0.2,0.2-0.5,0.5-0.5c0.3,0,1,0,1,0v-0.8h-1.4
	c-0.1,0-0.2-0.1-0.2-0.2L129.3,417.1C129.3,417.1,129.3,417.1,129.3,417.1z M117.3,417.1c0,0,0,7.8,0,8.2l2.2,0v-8.2L117.3,417.1
	C117.3,417.1,117.3,417.1,117.3,417.1z M168,418.5c-1,0-2,0.4-2.6,1.1c0,0-0.1,0.1-0.1,0.1c-0.5,0.6-0.8,1.4-0.8,2.2
	c0,0.5,0.1,0.9,0.3,1.3c0,0.1,0,0.1,0.1,0.2c0.4,0.9,1.2,1.5,2.1,1.8c0.1,0,0.1,0,0.2,0c0.3,0.1,0.6,0.1,0.9,0.1
	c2,0,3.6-1.5,3.6-3.4C171.5,420.1,170,418.5,168,418.5L168,418.5L168,418.5z M158.5,418.6c-1.3,0-2.3,0.9-2.3,2.3
	c0,1.4,1.5,1.8,2.3,1.9c0.5,0.1,1,0.4,1,0.9c0,0.4-0.3,0.7-0.7,0.7l-2.3,0v1h2.6c0,0,0.1,0,0.1,0c1.2-0.1,2.2-1.1,2.2-2.3
	c0-0.2,0-0.4,0-0.5c0,0,0-0.1,0-0.1c-0.2-1-1-1.2-2.3-1.6c0,0-0.7-0.2-0.7-0.6c0-0.3,0.1-0.4,0.3-0.5c0,0,0,0,0.1,0
	c0.1,0,0.2-0.1,0.3-0.1l1.6,0v-1L158.5,418.6L158.5,418.6L158.5,418.6z M144.3,418.6c0,0,0,0.7,0,1.2l2.2,0v-1.1L144.3,418.6
	L144.3,418.6L144.3,418.6z M153.5,418.6c0,0,0,0.7,0,1.2l2.2,0v-1.1L153.5,418.6L153.5,418.6z M161.8,418.6c0,0,0,0.7,0,1.2l2.2,0
	v-1.1L161.8,418.6L161.8,418.6z M132.8,418.6c-0.6,0-1.1,0.3-1.3,0.9c0,0,0,0.1-0.1,0.1c-0.1,0.2-0.1,0.4-0.1,0.7v3.3
	c0,1,0.5,1.7,1.4,1.7h3.2v-1h-1.9c-0.3,0-0.6-0.3-0.6-0.6v-1.3h2.2v-1l-2.2,0l0-1.3c0-0.3,0.3-0.6,0.6-0.6h1.9v-1L132.8,418.6
	C132.8,418.6,132.8,418.6,132.8,418.6z M136.5,418.6c0,0,0,4.6,0,5c0,0.2,0,0.4,0.1,0.5c0,0.1,0,0.1,0.1,0.2c0.2,0.6,0.8,0.9,1.4,1
	c0.1,0,0.1,0,0.2,0h2v-1h-0.9c-0.3,0-0.6-0.2-0.6-0.6v-5.2H136.5L136.5,418.6L136.5,418.6z M140.3,418.6c0,0,0,4.6,0,5
	c0,0.9,0.7,1.6,1.5,1.7c0.1,0,0.1,0,0.2,0h2v-1H143c-0.3,0-0.6-0.2-0.6-0.6v-5.2H140.3L140.3,418.6L140.3,418.6z M176.2,418.6v3.1
	c0,0.1-0.1,0.2-0.3,0c0,0-1.5-2.1-2-2.8c-0.4-0.5-2-0.5-2,0.8c0,0.8,0,5.5,0,5.5h1.1v-3.9c0-0.2,0.2-0.1,0.3,0
	c0.1,0.1,2.5,3.7,2.6,3.9c0,0.1,0.1,0.1,0.2,0.2c0,0,0.1,0,0.1,0c0.4,0.1,1.1,0.1,1.1-0.9c0-1.2,0-5.9,0-5.9L176.2,418.6
	C176.2,418.6,176.2,418.6,176.2,418.6z M168,419.3c0.9,0,1.2,1.2,1.2,2.6c0,1.5-0.4,2.6-1.2,2.6c-0.2,0-0.4-0.1-0.6-0.2
	c0,0,0,0-0.1-0.1c-0.1-0.1-0.1-0.1-0.2-0.2c0,0,0,0,0-0.1c-0.3-0.5-0.4-1.3-0.4-2.1c0-0.1,0-0.2,0-0.3c0-0.8,0.1-1.5,0.4-1.9
	c0,0,0,0,0-0.1C167.4,419.5,167.6,419.3,168,419.3C168,419.3,168,419.3,168,419.3z M144.3,420.2c0,0,0,4.7,0,5.2l2.2,0v-5.2H144.3
	L144.3,420.2z M153.5,420.2c0,0,0,4.7,0,5.2l2.2,0v-5.2H153.5L153.5,420.2z M161.8,420.2c0,0,0,4.7,0,5.2l2.2,0v-5.2H161.8
	L161.8,420.2z"/>
<g>
	<line fill="none" stroke="#000000" stroke-miterlimit="10" x1="26.7" y1="420.3" x2="114.5" y2="420.3"/>
	<line fill="none" stroke="#000000" stroke-miterlimit="10" x1="26.7" y1="423.6" x2="114.5" y2="423.6"/>
</g>
<g>
	<line fill="none" stroke="#000000" stroke-miterlimit="10" x1="179.9" y1="420.3" x2="267.7" y2="420.3"/>
	<line fill="none" stroke="#000000" stroke-miterlimit="10" x1="179.9" y1="423.6" x2="267.7" y2="423.6"/>
</g>
</svg>
