<svg id="svg7148" xmlns="http://www.w3.org/2000/svg" viewBox="0 0 482 105.2"><title>logo</title><g id="Logo"><path id="path3002" d="M52.6,0a52.6,52.6,0,1,0,16,102.7V76.4a30.17,30.17,0,0,1-14.9,4c-16,0-28.9-12.5-28.9-27.8s13-27.8,28.9-27.8a29.6,29.6,0,0,1,14.9,4V2.5A52.54,52.54,0,0,0,52.6,0Z" transform="translate(0)" fill="#025"/><polygon id="polygon9367" points="69.1 32.6 69.1 32.6 108.3 32.6 90.7 50.9 69.1 50.9 69.1 32.6" fill="#025"/><polygon id="polygon9369" points="69.1 72.8 69.1 72.8 108.3 72.8 90.7 54.6 69.1 54.6 69.1 72.8" fill="red"/></g><g id="Commodore"><path id="path3067" d="M174.6,46.3a18.65,18.65,0,0,0,12.2-4c3.2-2.7,4.8-6.4,4.9-11.3-0.1-4.9-1.7-8.7-4.9-11.4s-7.2-4-12.2-4a18.65,18.65,0,0,0-12.2,4c-3.2,2.6-4.8,6.5-4.9,11.4,0.1,4.9,1.7,8.7,4.9,11.3A18.65,18.65,0,0,0,174.6,46.3Zm0-7.1a6.07,6.07,0,0,1-5.1-2.5,9.18,9.18,0,0,1-1.5-5.8,10.65,10.65,0,0,1,1.5-5.8c1-1.6,2.7-2.4,5.1-2.5a6.07,6.07,0,0,1,5.1,2.5,9.18,9.18,0,0,1,1.5,5.8,10.89,10.89,0,0,1-1.5,5.8A6.07,6.07,0,0,1,174.6,39.2Z" transform="translate(0)" fill="#025"/><path id="path3069" d="M195.8,45.6H206V33.2c0-3.1.5-5.5,1.5-7a4.73,4.73,0,0,1,4.2-2.2,3.34,3.34,0,0,1,3.1,1.7,8.68,8.68,0,0,1,1,4.2V45.7H226V33.3c0-3.1.5-5.5,1.5-7a4.73,4.73,0,0,1,4.2-2.2,3.34,3.34,0,0,1,3.1,1.7,8.68,8.68,0,0,1,1,4.2V45.8H246V28.5c0.1-4-.6-7.1-2-9.4s-4.2-3.4-8.4-3.4a13.07,13.07,0,0,0-5.9,1.3,10.88,10.88,0,0,0-4.5,4.3,9,9,0,0,0-3.6-4.3,11.34,11.34,0,0,0-5.6-1.4,13,13,0,0,0-6.3,1.5,10.33,10.33,0,0,0-4.4,4.6h-0.1V16.3h-9.3l-0.1,29.3h0Z" transform="translate(0)" fill="#025"/><path id="path3071" d="M251.5,45.6h10.2V33.2c0-3.1.5-5.5,1.5-7a4.73,4.73,0,0,1,4.2-2.2,3.34,3.34,0,0,1,3.1,1.7,8.68,8.68,0,0,1,1,4.2V45.7h10.2V33.3c0-3.1.5-5.5,1.5-7a4.73,4.73,0,0,1,4.2-2.2,3.34,3.34,0,0,1,3.1,1.7,8.68,8.68,0,0,1,1,4.2V45.8h10.2V28.5c0.1-4-.6-7.1-2-9.4s-4.2-3.4-8.4-3.4a13.07,13.07,0,0,0-5.9,1.3,10.88,10.88,0,0,0-4.5,4.3,9,9,0,0,0-3.6-4.3,11.34,11.34,0,0,0-5.6-1.4,12.76,12.76,0,0,0-6.3,1.5,10.33,10.33,0,0,0-4.4,4.6h-0.1V16.3h-9.3l-0.1,29.3h0Z" transform="translate(0)" fill="#025"/><path id="path3073" d="M322.8,46.3a18.65,18.65,0,0,0,12.2-4c3.2-2.7,4.8-6.4,4.9-11.3-0.1-4.9-1.7-8.7-4.9-11.4s-7.2-4-12.2-4a18.65,18.65,0,0,0-12.2,4c-3.2,2.6-4.8,6.5-4.9,11.4,0.1,4.9,1.7,8.7,4.9,11.3A18.84,18.84,0,0,0,322.8,46.3Zm0-7.1a6.07,6.07,0,0,1-5.1-2.5,9.18,9.18,0,0,1-1.5-5.8,10.65,10.65,0,0,1,1.5-5.8c1-1.6,2.7-2.4,5.1-2.5a6.07,6.07,0,0,1,5.1,2.5,9.89,9.89,0,0,1,1.6,5.8,10.11,10.11,0,0,1-1.6,5.8A5.94,5.94,0,0,1,322.8,39.2Z" transform="translate(0)" fill="#025"/><path id="path3075" d="M375.7,3.3H365.5V20h-0.1a10.65,10.65,0,0,0-4.5-3.5,14.67,14.67,0,0,0-5.6-1c-4.1.2-7.2,1.7-9.3,4.7a17.32,17.32,0,0,0-3.2,10.1,18.41,18.41,0,0,0,3.4,11.2c2.3,3,5.6,4.6,10,4.7a11.87,11.87,0,0,0,6.3-1.7,9,9,0,0,0,3.8-4.2h0.1v5.3h9.4L375.7,3.3h0ZM353.1,30.6a8,8,0,0,1,1.6-5.1,5.84,5.84,0,0,1,4.6-2.2,5.5,5.5,0,0,1,4.5,2.2,8.6,8.6,0,0,1,1.7,5.5,8.55,8.55,0,0,1-1.8,5.4,5.68,5.68,0,0,1-8.9-.1,9,9,0,0,1-1.7-5.7h0Z" transform="translate(0)" fill="#025"/><path id="path3077" d="M396.6,46.3a18.65,18.65,0,0,0,12.2-4c3.2-2.7,4.8-6.4,4.9-11.3-0.1-4.9-1.7-8.7-4.9-11.4s-7.2-4-12.2-4a18.65,18.65,0,0,0-12.2,4c-3.2,2.7-4.8,6.5-4.9,11.4,0.1,4.9,1.7,8.7,4.9,11.3A18.84,18.84,0,0,0,396.6,46.3Zm0-7.1a6.07,6.07,0,0,1-5.1-2.5,9.86,9.86,0,0,1-1.5-5.8,10.65,10.65,0,0,1,1.5-5.8c1-1.6,2.7-2.4,5.1-2.5a6.07,6.07,0,0,1,5.1,2.5,9.86,9.86,0,0,1,1.5,5.8,10.89,10.89,0,0,1-1.5,5.8C400.7,38.3,399,39.1,396.6,39.2Z" transform="translate(0)" fill="#025"/><path id="path3079" d="M439.4,15.9a8.81,8.81,0,0,0-1.7-.2,10.87,10.87,0,0,0-1.8-.1,8,8,0,0,0-5.3,1.7,12.65,12.65,0,0,0-3.4,4.4h-0.1V16.3h-9.3V45.7H428V33.3c0-2.9.6-5.2,1.9-6.8a6.64,6.64,0,0,1,5.5-2.4h1.7a5.08,5.08,0,0,1,1.7.3Z" transform="translate(0)" fill="#025"/><path id="path3081" d="M471.3,33.9V32A18.83,18.83,0,0,0,468,20.5c-2.3-3.2-6.1-4.8-11.5-5a16.23,16.23,0,0,0-11.3,4c-2.9,2.7-4.4,6.4-4.4,11.3s1.7,8.7,4.9,11.3,7.2,4,12.2,4.1a34.35,34.35,0,0,0,5.6-.4,28.35,28.35,0,0,0,5.2-1.4V37.2a17.17,17.17,0,0,1-4.6,1.7,17,17,0,0,1-4.4.5,11.61,11.61,0,0,1-6-1.3,5.66,5.66,0,0,1-2.7-4.3l20.3,0.1h0Zm-20.5-5.8a7.42,7.42,0,0,1,1.5-4.3,4.84,4.84,0,0,1,4.1-1.8c2,0,3.5.6,4.3,1.8a6.87,6.87,0,0,1,1.3,4.3H450.8Z" transform="translate(0)" fill="#025"/><path id="path3064" d="M135.8,45.9a21.13,21.13,0,0,1-10.6-6.3c-2.8-3.1-4.1-5.9-4.9-10.9C118.8,18.9,123,9.9,131.1,6a35.7,35.7,0,0,1,15.1-3,50.42,50.42,0,0,1,9.2,1.1l-0.9,8.8s-0.7-.2-2.7-0.7a22.24,22.24,0,0,0-5.7-.7c-3.8,0-7.5,1-9.9,2.9-5.7,4.4-5.7,15.9.2,20.7,3.6,3,10.1,4,15.9,2.5l2.7-.7,0.8,8.9a43.56,43.56,0,0,1-9.7,1.1C140.3,46.9,138.5,46.7,135.8,45.9Z" transform="translate(0)" fill="#025"/></g><rect id="Line" x="113" y="51" width="369" height="3" fill="#025"/><g id="Amiga"><path id="path6187" d="M173.7,99.1a1,1,0,0,0-.4-1,1.8,1.8,0,0,0-1.1-.3c-1.6-.3-2.5-0.9-2.8-1.8a13.07,13.07,0,0,1-.4-3.7l-1.6-30.8a11.43,11.43,0,0,0-.3-2.8c-0.2-.7-0.9-1.1-2.2-1.2a3,3,0,0,0-2.4,1c-0.5.6-1,1.4-1.6,2.2L141.1,88.5l-3.3,4.7c-0.7,1-1.4,1.9-2.1,2.8a4.93,4.93,0,0,1-3,1.6,10.62,10.62,0,0,0-1.9.4,1.58,1.58,0,0,0-1,1.5,0.85,0.85,0,0,0,.5.9,3.59,3.59,0,0,0,1.1.2c1.1,0,2.3-.1,3.5-0.2s2.3-.2,3.5-0.2a30.28,30.28,0,0,1,3.1.2c1,0.1,2.1.1,3.1,0.2a2.77,2.77,0,0,0,1.3-.3,1.15,1.15,0,0,0,.6-1.1,1.35,1.35,0,0,0-1.4-1.3,23.8,23.8,0,0,1-2.6-.5,1.79,1.79,0,0,1-1.4-1.9,14.23,14.23,0,0,1,2.2-4.7c1.3-2,2.2-3.5,2.8-4.3h12.3c0.1,1.3.1,2.6,0.2,3.9s0.1,2.6.1,3.9c-0.1,1.8-.5,2.9-1.4,3.2a8.51,8.51,0,0,1-2.6.5,1.34,1.34,0,0,0-1.4,1.5,1,1,0,0,0,.4.9,1.64,1.64,0,0,0,1,.2c1.7,0,3.4-.1,5.1-0.2s3.4-.2,5.1-0.2c1.1,0,2.3.1,3.4,0.1s2.3,0.1,3.4.1a4.44,4.44,0,0,0,1.3-.2,1.08,1.08,0,0,0,.7-1.1h0ZM158.5,83.3H148.2L158,69Z" transform="translate(0)" fill="red"/><path id="path4766" d="M263.1,59.9a0.81,0.81,0,0,0-.4-0.8,1.22,1.22,0,0,0-.9-0.3,8.08,8.08,0,0,0-1.6.1,8.75,8.75,0,0,0-1.6.2l-4.1.3c-1.4,0-2.8.1-4.2,0-1,0-2-.1-3.1-0.1s-2-.1-3.1-0.1a2,2,0,0,0-1.3.4,1.43,1.43,0,0,0-.6,1.2,1.73,1.73,0,0,0,2.1,1.3,1.78,1.78,0,0,1,2.1,1.6,3.75,3.75,0,0,1-.1,1c-0.1.3-.2,0.6-0.3,1l-7.8,27a18.65,18.65,0,0,1-1,3.3,3.29,3.29,0,0,1-2.5,1.8c-0.6.1-1.3,0.2-2.1,0.4a1.48,1.48,0,0,0-1.3,1.4,1.05,1.05,0,0,0,.5.9,2,2,0,0,0,1.1.3c1.3,0,2.7-.1,4-0.2s2.7-.2,4.1-0.2,2.9,0.1,4.4.2,2.9,0.1,4.4.1a16.23,16.23,0,0,0,2.1-.1,1.32,1.32,0,0,0,1.3-1.3A1.31,1.31,0,0,0,252,98a17,17,0,0,1-2.2-.4q-1-.3-1.2-2.1a7.72,7.72,0,0,1,.2-1.5c0.1-.5.3-1,0.4-1.5L257,65.4a6.88,6.88,0,0,1,1-2.4,3.81,3.81,0,0,1,2.3-1.1,7.67,7.67,0,0,0,1.9-.5,2.37,2.37,0,0,0,.9-1.5h0Z" transform="translate(0)" fill="red"/><path id="path4768" d="M303.7,60.2c-0.1-.7-0.8-1.1-2-1.4a25.73,25.73,0,0,0-4-.5c-1.4-.1-2.3-0.1-2.8-0.1a48.3,48.3,0,0,0-16.2,3.1,39.76,39.76,0,0,0-14.4,9.1,20.57,20.57,0,0,0-6.2,14.7,13.79,13.79,0,0,0,3.2,9.1,18.9,18.9,0,0,0,7.8,5.4,26.51,26.51,0,0,0,9.7,1.8,42.59,42.59,0,0,0,6.1-.4,42.09,42.09,0,0,0,6-1.1,5.31,5.31,0,0,0,1.9-.6,2.38,2.38,0,0,0,1.2-1.5c0.5-1.5,1-3.1,1.5-4.7s0.9-3.2,1.3-4.7c0.7-2.2,1.6-3.6,2.6-4a7.37,7.37,0,0,1,2.7-.6q1.2,0,1.2-1.5a1.05,1.05,0,0,0-.5-0.9,1.93,1.93,0,0,0-1-.3c-1.5,0-3.1.1-4.6,0.2s-3.1.2-4.7,0.2-3-.1-4.4-0.2-3-.2-4.4-0.2a3.19,3.19,0,0,0-1.4.3,1.08,1.08,0,0,0-.7,1.1,1.29,1.29,0,0,0,1.2,1.2,9.48,9.48,0,0,1,2.3.5,1.78,1.78,0,0,1,1.2,2,20.64,20.64,0,0,1-1.1,4.8c-0.6,2-1.2,3.6-1.6,4.9a4.16,4.16,0,0,1-1,2,2.93,2.93,0,0,1-2.1.6c-3.6-.1-6.4-1.2-8.2-3.5a12.9,12.9,0,0,1-2.8-8.6,23.69,23.69,0,0,1,2-9.4,27.21,27.21,0,0,1,5.3-8,31.42,31.42,0,0,1,8.2-5.7,23.67,23.67,0,0,1,9.7-2.5c1.5,0,2.4.3,2.8,0.9a6,6,0,0,1,.4,3,4.1,4.1,0,0,1-.1,1.1c0,0.4-.1.7-0.1,1.1a4.67,4.67,0,0,0,.3,1.7,1.39,1.39,0,0,0,1.4.8,2,2,0,0,0,1.7-1.1,10.4,10.4,0,0,0,.8-2c0.2-.5.5-1.5,1-3.1s0.7-2.6.8-3h0Z" transform="translate(0)" fill="red"/><path id="path4770" d="M339.1,99.1a1,1,0,0,0-.4-1,1.8,1.8,0,0,0-1.1-.3c-1.6-.3-2.5-0.9-2.8-1.8a13.07,13.07,0,0,1-.4-3.7l-1.6-30.8a11.43,11.43,0,0,0-.3-2.8c-0.2-.7-0.9-1.1-2.2-1.2a3,3,0,0,0-2.4,1c-0.5.6-1,1.4-1.6,2.2L306.5,88.5l-3.3,4.7c-0.7,1-1.4,1.9-2.1,2.8a4.93,4.93,0,0,1-3,1.6,10.62,10.62,0,0,0-1.9.4,1.58,1.58,0,0,0-1,1.5,0.85,0.85,0,0,0,.5.9,3.59,3.59,0,0,0,1.1.2c1.1,0,2.3-.1,3.5-0.2s2.3-.2,3.5-0.2a30.28,30.28,0,0,1,3.1.2c1.1,0.1,2.1.1,3.1,0.2a2.77,2.77,0,0,0,1.3-.3,1.15,1.15,0,0,0,.6-1.1,1.35,1.35,0,0,0-1.4-1.3,23.81,23.81,0,0,1-2.6-.5,1.79,1.79,0,0,1-1.4-1.9,14.23,14.23,0,0,1,2.2-4.7c1.3-2,2.2-3.5,2.8-4.3h12.4c0.1,1.3.1,2.6,0.2,3.9s0.1,2.6.1,3.9c-0.1,1.8-.5,2.9-1.4,3.2a8.51,8.51,0,0,1-2.6.5,1.34,1.34,0,0,0-1.4,1.5,1,1,0,0,0,.4.9,1.64,1.64,0,0,0,1,.2c1.7,0,3.4-.1,5.1-0.2s3.4-.2,5.1-0.2c1.1,0,2.3.1,3.4,0.1s2.3,0.1,3.4.1a4.44,4.44,0,0,0,1.3-.2,1.15,1.15,0,0,0,.6-1.1h0ZM323.8,83.3H313.5L323.3,69Z" transform="translate(0)" fill="red"/><path id="path4764" d="M236.9,60.1a1,1,0,0,0-.4-0.9,1.22,1.22,0,0,0-.9-0.3c-1.3,0-2.6,0-3.9.1s-2.6.1-3.9,0.1c-0.7,0-1.7-.1-3.1-0.1a4.77,4.77,0,0,0-2.8.5,0.76,0.76,0,0,0-.2.4,1.42,1.42,0,0,0-.2.4L204.5,86l-0.7-25.3a4.12,4.12,0,0,0-.1-1.2,0.91,0.91,0,0,0-.9-0.6c-1.4,0-2.9,0-4.3.1h-4.3c-0.8,0-1.6-.1-2.4-0.1a19.27,19.27,0,0,0-2.4-.1,7.72,7.72,0,0,0-1.5.2,1.21,1.21,0,0,0-.8,1.1c0.2,1,1,1.5,2.3,1.4s2.1,0.5,2.3,1.4a7.79,7.79,0,0,1-.4,2.1c-0.3.7-.5,1.4-0.7,2-1.5,4.2-3,8.3-4.5,12.5s-3,8.3-4.6,12.5a11.44,11.44,0,0,1-1.8,3.7c-0.6.7-1.8,1.2-3.7,1.5a3.36,3.36,0,0,0-1.4.5,1.21,1.21,0,0,0-.6,1.2,1.1,1.1,0,0,0,.5,1,3.73,3.73,0,0,0,1.2.2c1.1,0,2.2,0,3.3-.1s2.2-.1,3.3-0.1,2,0.1,3,.2,2,0.1,3,.2a2,2,0,0,0,1.3-.4,1.44,1.44,0,0,0,.7-1.1,1.37,1.37,0,0,0-1.4-1.4,25.13,25.13,0,0,1-2.7-.4c-0.9-.2-1.4-1-1.4-2.4a37.1,37.1,0,0,1,2.1-8.7c1.3-3.8,2.6-7.6,4.1-11.2s2.4-6,2.9-7.3l0.7,29.4a6.87,6.87,0,0,0,.3,2.2,1.75,1.75,0,0,0,1.8.8,3,3,0,0,0,2.4-1.1,17.68,17.68,0,0,0,1.6-2.2l19.8-29.1L214,92a19.16,19.16,0,0,1-.9,3.2,3.11,3.11,0,0,1-2.3,2,19.2,19.2,0,0,0-2.2.3,1.7,1.7,0,0,0-1.4,1.5,1.1,1.1,0,0,0,.5,1,2,2,0,0,0,1.1.3c1.4,0,2.9-.1,4.3-0.2s2.9-.2,4.3-0.2,3,0.1,4.4.2,3,0.2,4.4.2a3.65,3.65,0,0,0,1.5-.3,1.27,1.27,0,0,0,.7-1.2,1.3,1.3,0,0,0-1.1-1.3,16,16,0,0,1-2.1-.5,1.69,1.69,0,0,1-1.1-1.9,9.69,9.69,0,0,1,.3-2.3c0.2-.8.3-1.5,0.5-2.2l6.3-25.3a7.14,7.14,0,0,1,.9-2.6,3.17,3.17,0,0,1,2.3-1.2,5.84,5.84,0,0,0,1.8-.4c0.3,0.2.7-.3,0.7-1h0Z" transform="translate(0)" fill="red"/></g><path d="M365.2,64.12l0.37-2.68h23.72c0.42,0,.59.1,0.56,0.54a14.07,14.07,0,0,0,0,1.6c0,0.42-.1.56-0.55,0.56-4.48,0-9,0-13.46,0H365.2Z" transform="translate(0)" fill="#025"/><path d="M363.49,76.41h25a0.75,0.75,0,0,1,.75.42c0.35,0.64.72,1.26,1.13,2h-27.2Z" transform="translate(0)" fill="#025"/><path d="M397,91h9.53a1.12,1.12,0,0,1,.61.16,4,4,0,0,0,4.63.12,2.05,2.05,0,0,1,1-.27c3.12,0,6.24,0,9.36,0h0.64c-0.53.85-1,1.62-1.49,2.37a0.73,0.73,0,0,1-.51.12H400.88c-0.77,0-1.54,0-2.3,0a0.52,0.52,0,0,1-.39-0.16C397.8,92.59,397.45,91.84,397,91Z" transform="translate(0)" fill="#025"/><path d="M457.33,91c-0.53.85-1,1.6-1.47,2.32a0.74,0.74,0,0,1-.53.16H441.88c-2.87,0-5.74,0-8.6,0a0.63,0.63,0,0,1-.69-0.41c-0.29-.67-0.62-1.33-1-2.05,0.19,0,.31,0,0.42,0h9.12a1,1,0,0,1,.56.15,4,4,0,0,0,4.67.1,1.84,1.84,0,0,1,.87-0.25c3.15,0,6.3,0,9.45,0h0.6Z" transform="translate(0)" fill="#025"/><path d="M365.77,60.07c0.1-.74.19-1.41,0.26-2.07,0-.33.26-0.32,0.5-0.32h7.95c4.94,0,9.88,0,14.81,0,0.44,0,.58.13,0.55,0.55s0,1,0,1.5a0.29,0.29,0,0,1-.36.35,3,3,0,0,0-.33,0H365.77Z" transform="translate(0)" fill="#025"/><path d="M363.69,75c0.09-.73.17-1.43,0.29-2.12a0.49,0.49,0,0,1,.33-0.33c2.82,0,5.65,0,8.47,0a0.69,0.69,0,0,1,.16,0l-0.08.85c0.53-.25,1-0.5,1.48-0.69a2.87,2.87,0,0,1,1-.21q4.23,0,8.47,0a2.13,2.13,0,0,1,.85.19A10.36,10.36,0,0,1,387.77,75H363.69Z" transform="translate(0)" fill="#025"/><path d="M435.47,64c0.76-.8,1.52-1.61,2.3-2.4a0.65,0.65,0,0,1,.43-0.13h16.61a0.62,0.62,0,0,1,.42.13c0.67,0.79,1.33,1.61,2.07,2.52H435.57Z" transform="translate(0)" fill="#025"/><path d="M422.55,64.11H400.93c0.17-.22.29-0.41,0.44-0.57,0.57-.62,1.14-1.25,1.74-1.85a0.89,0.89,0,0,1,.57-0.23q8.28,0,16.56,0a0.67,0.67,0,0,1,.46.15c0.67,0.78,1.31,1.59,2,2.39Z" transform="translate(0)" fill="#025"/><path d="M459,67.7h-9.42a1.1,1.1,0,0,1-.6-0.17,4,4,0,0,0-4.83-.13,2,2,0,0,1-1,.29c-3.14,0-6.27,0-9.41,0h-0.62c0.45-.75.83-1.43,1.26-2.08a0.72,0.72,0,0,1,.5-0.12h18.68c1.35,0,2.7,0,4,0a0.49,0.49,0,0,1,.53.33C458.43,66.42,458.7,67,459,67.7Z" transform="translate(0)" fill="#025"/><path d="M424.44,67.68l-0.48,0H415a1,1,0,0,1-.56-0.15,4,4,0,0,0-4.9-.11,1.72,1.72,0,0,1-.86.26c-3.18,0-6.36,0-9.55,0h-0.56c0.44-.74.83-1.42,1.25-2.07a0.71,0.71,0,0,1,.5-0.13h10.35c4.09,0,8.18,0,12.27,0a0.64,0.64,0,0,1,.71.44C423.9,66.5,424.17,67.06,424.44,67.68Z" transform="translate(0)" fill="#025"/><path d="M364,94.86h24.87c-0.53.67-1,1.27-1.48,1.84a0.53,0.53,0,0,1-.35.07H365.76a0.58,0.58,0,0,1-.39-0.09c-0.49-.56-1-1.14-1.43-1.71Z" transform="translate(0)" fill="#025"/><path d="M365,65.49h0.52q11.86,0,23.72,0c0.48,0,.62.13,0.6,0.6,0,1,0,1-1,1H373.72c0.07,0.69-.35.67-0.83,0.66-2.54,0-5.08,0-7.62,0H364.7Z" transform="translate(0)" fill="#025"/><path d="M399.06,94.88h21.15c-0.64.66-1.2,1.26-1.78,1.83a0.64,0.64,0,0,1-.4.07q-8.54,0-17.08,0a0.88,0.88,0,0,1-.59-0.27C399.94,96,399.55,95.48,399.06,94.88Z" transform="translate(0)" fill="#025"/><path d="M454.76,94.89c-0.6.63-1.12,1.2-1.66,1.74a0.72,0.72,0,0,1-.47.15q-8.56,0-17.12,0a0.89,0.89,0,0,1-.59-0.27c-0.43-.49-0.82-1-1.29-1.6h21.12Z" transform="translate(0)" fill="#025"/><path d="M367,98.17h18.8c-0.13.11-.21,0.2-0.3,0.26a12.51,12.51,0,0,1-5.78,2.19,22.28,22.28,0,0,1-8.53-.45,11.86,11.86,0,0,1-3.75-1.68Z" transform="translate(0)" fill="#025"/><path d="M375.25,93.49h-1c-3.56,0-7.11,0-10.67,0a0.57,0.57,0,0,1-.63-0.41c-0.25-.67-0.53-1.33-0.82-2.06l0.51,0c3.16,0,6.33,0,9.49,0a0.7,0.7,0,0,1,.7.4A5,5,0,0,0,375.25,93.49Z" transform="translate(0)" fill="#025"/><path d="M436.63,98.17h14.5c-0.63.92-4.2,2.39-6.09,2.57A11.32,11.32,0,0,1,436.63,98.17Z" transform="translate(0)" fill="#025"/><path d="M402.11,98.17h14.51A11.36,11.36,0,0,1,402.11,98.17Z" transform="translate(0)" fill="#025"/><path d="M390.68,91c-0.35.82-.65,1.57-1,2.31a0.43,0.43,0,0,1-.33.17H378.09a5.16,5.16,0,0,0,2.49-2.3,0.45,0.45,0,0,1,.33-0.18h9.77Z" transform="translate(0)" fill="#025"/><path d="M391.52,83.78v2.34h-9.93l-0.19-2.34h10.13Z" transform="translate(0)" fill="#025"/><path d="M391.39,82.38h-9.93A0.52,0.52,0,0,1,380.9,82c-0.29-.62-0.64-1.21-1-1.83a1.93,1.93,0,0,1,.26,0c3.42,0,6.83,0,10.25,0a0.45,0.45,0,0,1,.54.41C391.09,81.16,391.24,81.73,391.39,82.38Z" transform="translate(0)" fill="#025"/><path d="M453.53,60.06H439.77A11.26,11.26,0,0,1,453.53,60.06Z" transform="translate(0)" fill="#025"/><path d="M418.9,60H405.21A11.17,11.17,0,0,1,418.9,60Z" transform="translate(0)" fill="#025"/><path d="M396,75c0.19-.73.37-1.44,0.57-2.14a0.46,0.46,0,0,1,.34-0.27c2.88,0,5.76,0,8.69,0-0.28.81-.54,1.58-0.83,2.35a0.33,0.33,0,0,1-.26.13h-8.4Z" transform="translate(0)" fill="#025"/><path d="M430.58,75c0.19-.71.37-1.43,0.57-2.15a0.43,0.43,0,0,1,.31-0.25c2.89,0,5.79,0,8.72,0-0.28.8-.53,1.57-0.81,2.33a0.37,0.37,0,0,1-.29.15h-8.36A0.48,0.48,0,0,1,430.58,75Z" transform="translate(0)" fill="#025"/><path d="M417.63,75l-0.4-2.42h8.5L426,75h-8.4Z" transform="translate(0)" fill="#025"/><path d="M460.29,72.57L460.58,75h-8.39l-0.4-2.45h8.51Z" transform="translate(0)" fill="#025"/><path d="M450.42,86.14c0.27-.77.52-1.49,0.79-2.21a0.36,0.36,0,0,1,.27-0.18h8.45c-0.21.78-.4,1.51-0.61,2.23a0.37,0.37,0,0,1-.29.15h-8.61Z" transform="translate(0)" fill="#025"/><path d="M425.38,83.75c-0.2.73-.39,1.37-0.53,2a0.43,0.43,0,0,1-.52.38h-8.46c0.27-.77.53-1.51,0.8-2.24a0.37,0.37,0,0,1,.29-0.15h8.42Z" transform="translate(0)" fill="#025"/><path d="M391.43,87.55c-0.12.64-.23,1.26-0.36,1.86a0.38,0.38,0,0,1-.3.21H381.2l0.32-2.08h9.91Z" transform="translate(0)" fill="#025"/><path d="M404.39,76.43L404,78.78h-8.52l0.29-2.35h8.63Z" transform="translate(0)" fill="#025"/><path d="M430,78.78l0.29-2.33h8.63l-0.39,2.33H430Z" transform="translate(0)" fill="#025"/><path d="M438.87,86.12H430.3L430,83.78l0.48,0c2.52,0,5,0,7.57,0a0.42,0.42,0,0,1,.51.46C438.62,84.84,438.76,85.47,438.87,86.12Z" transform="translate(0)" fill="#025"/><path d="M395.74,86.11l-0.29-2.33,0.48,0c2.51,0,5,0,7.53,0a0.45,0.45,0,0,1,.55.49c0.06,0.62.19,1.23,0.3,1.88h-8.57Z" transform="translate(0)" fill="#025"/><path d="M452.24,78.78V76.44h8.35v2.34h-8.35Z" transform="translate(0)" fill="#025"/><path d="M407.69,69.07c-0.44.69-.84,1.32-1.27,1.94a0.47,0.47,0,0,1-.34.17h-9c0.29-.71.56-1.36,0.84-2a0.37,0.37,0,0,1,.28-0.1h9.49Z" transform="translate(0)" fill="#025"/><path d="M442.22,69.11c-0.41.64-.82,1.29-1.25,1.92a0.42,0.42,0,0,1-.31.14h-8.8a0.88,0.88,0,0,1-.19-0.07c0.26-.63.5-1.25,0.78-1.86a0.43,0.43,0,0,1,.33-0.17h9.36A0.22,0.22,0,0,1,442.22,69.11Z" transform="translate(0)" fill="#025"/><path d="M417.69,76.43H426v2.34h-8.36V76.43Z" transform="translate(0)" fill="#025"/><path d="M458.82,87.58c-0.27.64-.51,1.25-0.78,1.84a0.42,0.42,0,0,1-.31.2h-9.41c0.46-.7.89-1.36,1.33-2a0.4,0.4,0,0,1,.29-0.09h8.7Z" transform="translate(0)" fill="#025"/><path d="M424.3,87.51c-0.29.69-.52,1.29-0.79,1.86a0.51,0.51,0,0,1-.38.24h-9.38a8.81,8.81,0,0,0,.91-1.33,1.32,1.32,0,0,1,1.48-.79c2.52,0,5,0,7.56,0h0.61Z" transform="translate(0)" fill="#025"/><path d="M373.43,69.09l-0.28,2.06h-8.93l0.29-2.06h8.92Z" transform="translate(0)" fill="#025"/><path d="M396,87.51h8.34a0.5,0.5,0,0,1,.55.36c0.23,0.58.52,1.13,0.81,1.73l-0.39,0c-2.76,0-5.51,0-8.27,0a0.52,0.52,0,0,1-.61-0.46C396.33,88.64,396.18,88.12,396,87.51Z" transform="translate(0)" fill="#025"/><path d="M430.57,87.51h2.95c1.8,0,3.6,0,5.4,0a0.5,0.5,0,0,1,.55.36c0.24,0.57.52,1.13,0.8,1.74l-0.36,0c-2.77,0-5.54,0-8.31,0a0.48,0.48,0,0,1-.58-0.43C430.91,88.66,430.73,88.13,430.57,87.51Z" transform="translate(0)" fill="#025"/><path d="M425.95,80.17l-0.31,2.18h-8.53c0.09-.48.16-0.95,0.25-1.41,0.15-.77.15-0.77,1-0.77h7.63Z" transform="translate(0)" fill="#025"/><path d="M460.5,80.2l-0.3,2.16h-8.54L452,80.2h8.45Z" transform="translate(0)" fill="#025"/><path d="M415.85,69.07h8.75a0.48,0.48,0,0,1,.37.24c0.19,0.59.33,1.2,0.51,1.86H425c-2.57,0-5.14,0-7.71,0a0.54,0.54,0,0,1-.61-0.41C416.42,70.21,416.13,69.68,415.85,69.07Z" transform="translate(0)" fill="#025"/><path d="M460,71.18h-0.49c-2.59,0-5.17,0-7.76,0a0.52,0.52,0,0,1-.59-0.38c-0.23-.58-0.51-1.13-0.79-1.74H451c2.68,0,5.36,0,8,0a0.46,0.46,0,0,1,.55.4C459.71,70,459.87,70.55,460,71.18Z" transform="translate(0)" fill="#025"/><path d="M438.37,80.2v2.15H430V80.2h8.41Z" transform="translate(0)" fill="#025"/><path d="M395.4,82.35V80.21h8.41v2.15H395.4Z" transform="translate(0)" fill="#025"/><path d="M371.67,87.86L372,89.6l-0.44,0h-9.4c-0.33,0-.57,0-0.45-0.49Z" transform="translate(0)" fill="#025"/><path d="M372.85,80.23c-0.45.51-.88,1-1.35,1.54a0.55,0.55,0,0,1-.42.06l-5.91-1-1.94-.33a0.49,0.49,0,0,1-.31-0.2,1,1,0,0,1,.32-0.12h9.58A0.11,0.11,0,0,1,372.85,80.23Z" transform="translate(0)" fill="#025"/></svg>