<svg xmlns="http://www.w3.org/2000/svg" viewBox="0 0 160.6 89.9"><path fill="#353535" d="M16.1 88.6l-12.3-.5c-1.9 0-3.8-2.2-3.8-3.7V2.8C0 1.3 1.2.1 2.7.1h94.7c1.5 0 2.7 1.2 2.7 2.7v81.6c0 1.5-1.9 3.7-3.8 3.7l-12.3.5-13.8.6-20.1.2-20.1-.2-13.9-.6z"/><path fill="#201B1D" d="M50.1 89.9L30 89.7l-13.8-.6c-3.1 0-3.7-4.4-3.9-6.5V.1h1v82.4c.4 2.6 1 5.6 3 5.6l13.7.6 20.1.2 20.1-.2 13.8-.6c2 0 2.6-3 3-5.6V.1h1v82.4c-.3 2.2-.9 6.6-4 6.6 0 0-1 0-2.1.1l-11.7.5-20.1.2zM0 50.4h12.1v1H0zM88 50.4h12.1v1H88z"/><path fill="#ABB0AB" d="M47.8 33.9l-.6.3c-.4.2-.7.5-.9.8-.2.3-.3.7-.1 1 .2.3.5.4.8.4.3 0 .6-.1 1-.2.7-.2 1.6-.6 2.4-.9s1.7-.7 2.3-.8c.3-.1.6-.1.7-.1h.1c0 .1 0 .2-.1.3s-.2.3-.5.4c-.1.1-.2.1-.3.2 0 .4-.2.8-.3.9.3-.1.6-.3.9-.5.3-.2.5-.4.7-.6.2-.2.2-.6.1-.8 0-.2-.1-.3-.3-.4-.1-.1-.3-.1-.4-.2-.3 0-.6 0-.9.1-.7.2-1.5.5-2.4.8-.9.3-1.7.7-2.4.9-.3.1-.6.1-.8.1h-.2c0-.1 0-.1.1-.3.1-.2.4-.4.7-.6.2-.4.2-.6.4-.8z"/><path fill="#ABB0AB" d="M50 32.5c.1.2.2.3.3.4.1.1.6.6.8.7.1.1.4.4.6.5.1.1.1 0 .2.2l.7.7v-.2c-.1-.2-.3-.3-.5-.4-.1-.1-.2-.1-.2-.2l-.2-.2-1.4-1.4-.3-.1zm-.2 0h-.3c.2.2.5.4.6.5.1.1.6.5.8.7.1.1.4.3.5.5l.3.3c.3.3.5.6.9.9l.1.1v-.3c-.3-.2-.5-.5-.8-.7-.1-.1-.2-.1-.2-.2l-.2-.2c-.2 0-1.2-1-1.7-1.6zm.7 0l.9.9c.1.1.5.4.6.6.1.1 0 0 .2.1l.3.3-.1-.2c-.1-.1-.2-.1-.2-.2v-.1s-.8-.8-1.3-1.4c-.2.1-.3.1-.4 0zm-1.1.1l-.2.1c.3.2.6.5.7.6.1.1.6.5.8.7l.4.4.3.3c.3.3.6.6 1 .9l.2.2.1-.2c-.3-.3-.7-.6-1-.9-.1-.1-.1-.2-.2-.2l-.3-.2c-.1 0-1.3-1.2-1.8-1.7zm-.4.1l-.2.1c.3.3.7.6.8.7.1.1.6.6.8.7.1.1.1.1.3.2l.4.4c.3.3.6.7.9 1 .1.1.2.2.3.4 0-.1.1-.2.1-.3-.3-.3-.8-.7-1.2-1-.1-.1-.1-.2-.2-.2l-.3-.2s-1.3-1.3-1.7-1.8zm2.3.1l.5.5.4.4c-.2-.4-.5-.7-.9-.9zm-2.6.1l-.2.1c.3.3.6.5.7.6.1.1.7.6.8.7l.2.2c.1.1.3.2.5.4.3.3.6.7.9 1l.5.5.1-.2c-.4-.3-1.2-1.2-1.6-1.6l-.3-.2c.1.2-1.3-1.2-1.6-1.5zm-.3.2l-.2.2.1.1c.2.2.6.5.7.6.1.1.7.6.8.7l.2.2c.4.3 1 1 1.4 1.4.2.2.4.4.5.4l.2-.2c-.1-.1-1.4-1.2-1.9-1.7l-.3-.3c0 .1-1.1-1-1.5-1.4zm-.2.2l-.2.2c.2.2.7.6.8.7.1.1.4.4.6.5l.4.4c.4.3 1 1 1.4 1.4.2.2.4.4.4.5l.2-.2c-.2-.1-1.5-1.5-2-2l-.1-.1c0 .1-1.2-1.1-1.5-1.4zm-.2.3l-.1.2c.2.2.7.6.8.8l.3.3.2.2.2.2c.6.5 1.9 1.9 2.1 2l.2-.1c-.2-.2-1.5-1.5-2-1.9l-.3-.3-1.4-1.4zm-.2.2c-.1.1-.1.2-.1.3.2.2.7.7.9.8.1.1.2.1.2.2.1.1.2.2.3.2.6.5 1.9 1.9 2 2 .1 0 .2-.1.3-.1-.2-.2-1.8-1.6-2.2-2.1l-.4-.4c-.1.1-.8-.6-1-.9zm-.2.4c0 .1-.1.2-.1.3l.9.9c.2.1 0 .1.1.1v-.1c.1.1.2.3.4.4.6.5 1.7 1.6 1.8 1.8l.2-.1c-.2-.2-1.7-1.7-2.2-2.1l-.1-.1c.1-.1-.7-.9-1-1.1zm-.1.3c0 .2-.1.4-.1.6 0 1.3.9 2.4 2.2 2.5-.5-.4-1.3-1.2-1.6-1.6h-.3c0-.3-.1-.4 0-.4l.2.2 1.8 1.8h.5c-.4-.4-1.4-1.3-1.7-1.7l-.5-.3-.5-.6c.1 0 .3.3.5.4.2.1.2.2.3.3l.2.2c.1.1.2.3.4.4.5.4 1.1 1.1 1.4 1.4.1 0 .2 0 .3-.1-.3-.2-1.8-1.6-2.2-2.1l-.2-.1c.1-.1-.4-.6-.7-.9z"/><path fill="#ABB0AB" d="M48.5 36.7c-.9.1-1.4.1-1.4.1-.2 0-.3.1-.4.3s.1.3.3.3c0 0 .8 0 1.9-.2 0 0-.2-.2-.4-.5zM52.2 32.7c-.3 0-.6 0-1 .1.3.2.4.4.7.6H53c.2 0 .4-.1.4-.3 0-.2-.1-.4-.3-.4 0 .1-.3 0-.9 0zM52.8 36.7h-.2v.4h-.1v-.4h-.2v-.1h.5zM53.5 37.1h-.1v-.4l-.1.4h-.2l-.1-.4v.4h-.1v-.5h.2l.1.4.1-.4h.2z"/><circle fill="#3D3B3B" cx="2.3" cy="3.1" r=".4"/><path fill="#282828" d="M2.3 3.5c-.2 0-.4-.2-.4-.4s.2-.4.4-.4.4.2.4.4-.1.4-.4.4zm0-.7c-.2 0-.3.1-.3.3s.2.3.3.3.3-.2.3-.3-.1-.3-.3-.3z"/><path fill="#3D3B3B" d="M6.8 3.2c0 .2-.2.4-.4.4S6 3.4 6 3.2s.2-.4.4-.4.4.2.4.4z"/><path fill="#282828" d="M6.4 3.6c-.2 0-.4-.2-.4-.4s.2-.4.4-.4.4.2.4.4-.2.4-.4.4zm0-.7c-.2 0-.4.1-.4.3s.2.3.3.3.3-.2.3-.3 0-.3-.2-.3z"/><path fill="#3D3B3B" d="M10.8 3.3c0 .2-.2.4-.4.4s-.4-.2-.4-.4.2-.4.4-.4.4.2.4.4z"/><path fill="#282828" d="M10.4 3.7c-.2 0-.4-.2-.4-.4s.2-.4.4-.4.4.2.4.4-.2.4-.4.4zm0-.7c-.2 0-.3.2-.3.3s.2.3.3.3.3-.2.3-.3-.1-.3-.3-.3z"/><circle fill="#3D3B3B" cx="2.3" cy="9.7" r=".4"/><path fill="#282828" d="M2.3 10.2c-.2 0-.4-.2-.4-.4s.2-.4.4-.4.4.2.4.4-.1.4-.4.4zm0-.8c-.2 0-.3.1-.3.3s.2.3.3.3.3-.2.3-.3-.1-.3-.3-.3z"/><path fill="#3D3B3B" d="M6.8 9.8c0 .2-.2.4-.4.4S6 10 6 9.8s.2-.4.4-.4.4.2.4.4z"/><path fill="#282828" d="M6.4 10.3c-.2 0-.4-.2-.4-.4s.2-.4.4-.4.4.2.4.4-.2.4-.4.4zm0-.8c-.2 0-.4.1-.4.3 0 .2.2.3.3.3s.4-.1.4-.3c0-.2-.1-.3-.3-.3z"/><path fill="#3D3B3B" d="M10.8 9.9c0 .2-.2.4-.4.4s-.4-.2-.4-.4.2-.4.4-.4.4.2.4.4z"/><path fill="#282828" d="M10.4 10.4c-.2 0-.4-.2-.4-.4s.2-.4.4-.4.4.2.4.4-.2.4-.4.4zm0-.8c-.2 0-.3.2-.3.3s.2.3.3.3.3-.2.3-.3-.1-.3-.3-.3z"/><path fill="#3D3B3B" d="M2.7 16.3c0 .2-.2.4-.4.4s-.4-.2-.4-.4.2-.3.4-.3.4.1.4.3z"/><path fill="#282828" d="M2.3 16.8c-.2 0-.4-.2-.4-.4s.2-.4.4-.4.4.2.4.4-.1.4-.4.4zm0-.8c-.2 0-.3.2-.3.3s.2.3.3.3.3-.2.3-.3-.1-.3-.3-.3z"/><path fill="#3D3B3B" d="M6.8 16.4c0 .2-.2.4-.4.4s-.4-.1-.4-.4.2-.4.4-.4.4.2.4.4z"/><path fill="#282828" d="M6.4 16.9c-.2 0-.4-.2-.4-.4s.1-.5.4-.5.4.2.4.4-.2.5-.4.5zm0-.8c-.2 0-.3.2-.3.3s.2.3.3.3.3-.2.3-.3-.1-.3-.3-.3z"/><path fill="#3D3B3B" d="M10.8 16.5c0 .2-.2.4-.4.4s-.4-.1-.4-.4.2-.4.4-.4.4.2.4.4z"/><path fill="#282828" d="M10.4 17c-.2 0-.4-.2-.4-.4s.2-.4.4-.4.4.2.4.4-.2.4-.4.4zm0-.8c-.2 0-.3.2-.3.3s.2.3.3.3.3-.2.3-.3-.1-.3-.3-.3z"/><path fill="#3D3B3B" d="M2.7 23c0 .2-.2.4-.4.4s-.4-.2-.4-.4.2-.4.4-.4.4.1.4.4z"/><path fill="#282828" d="M2.3 23.4c-.2 0-.4-.2-.4-.4s.2-.4.4-.4.4.2.4.4-.1.4-.4.4zm0-.8c-.2 0-.3.2-.3.4s.2.3.3.3.3-.2.3-.3-.1-.4-.3-.4z"/><path fill="#3D3B3B" d="M6.8 23.1c0 .2-.2.4-.4.4s-.4-.2-.4-.4.2-.4.4-.4.4.1.4.4z"/><path fill="#282828" d="M6.4 23.5c-.2 0-.4-.2-.4-.4s.2-.4.4-.4.4.2.4.4-.2.4-.4.4zm0-.8c-.2 0-.3.2-.3.3s.2.3.3.3.3-.2.3-.3-.1-.3-.3-.3z"/><circle fill="#3D3B3B" cx="2.3" cy="29.6" r=".4"/><path fill="#282828" d="M2.3 30.1c-.2 0-.4-.2-.4-.4s.2-.4.4-.4.4.2.4.4-.1.4-.4.4zm0-.8c-.2 0-.3.2-.3.3s.1.4.3.4.3-.2.3-.3-.1-.4-.3-.4z"/><circle fill="#3D3B3B" cx="97.8" cy="3.1" r=".4"/><path fill="#282828" d="M97.3 3.1c0-.2.2-.4.4-.4s.4.2.4.4-.1.4-.3.4-.5-.2-.5-.4zm.1 0c0 .2.2.3.3.3.2 0 .3-.2.3-.3s0-.3-.2-.3-.4.1-.4.3z"/><path fill="#3D3B3B" d="M93.4 3.2c0 .2.2.4.4.4s.4-.2.4-.4-.2-.4-.5-.4-.3.2-.3.4z"/><path fill="#282828" d="M93.3 3.2c0-.2.2-.4.4-.4s.4.2.4.4-.1.4-.4.4-.4-.2-.4-.4zm.1 0c0 .2.2.3.3.3.2 0 .3-.2.3-.3s-.2-.3-.3-.3c-.1 0-.3.1-.3.3z"/><path fill="#3D3B3B" d="M89.3 3.3c0 .2.2.4.4.4s.4-.2.4-.4-.2-.4-.4-.4-.4.2-.4.4z"/><path fill="#282828" d="M89.3 3.3c0-.2.2-.4.4-.4s.4.2.4.4-.2.4-.4.4-.4-.2-.4-.4zm.1 0c0 .2.2.3.3.3.2 0 .3-.2.3-.3s-.1-.3-.3-.3c-.2 0-.3.1-.3.3z"/><path fill="#3D3B3B" d="M97.4 9.7c0 .2.2.4.4.4s.4-.2.4-.4-.2-.4-.4-.4-.4.2-.4.4z"/><path fill="#282828" d="M97.3 9.7c0-.2.2-.4.4-.4s.4.2.4.4-.2.4-.4.4-.4-.1-.4-.4zm.1 0c0 .2.2.3.3.3.2 0 .3-.2.3-.3s0-.3-.2-.3-.4.1-.4.3z"/><path fill="#3D3B3B" d="M93.4 9.8c0 .2.2.4.4.4s.4-.2.4-.4-.2-.4-.5-.4-.3.2-.3.4z"/><path fill="#282828" d="M93.3 9.8c0-.2.2-.4.4-.4s.4.2.4.4-.2.4-.4.4-.4-.1-.4-.4zm.1 0c0 .2.2.3.3.3.2 0 .3-.2.3-.3s-.2-.3-.3-.3c-.1 0-.3.1-.3.3z"/><path fill="#3D3B3B" d="M89.3 9.9c0 .2.2.4.4.4s.4-.2.4-.4-.2-.4-.4-.4-.4.2-.4.4z"/><path fill="#282828" d="M89.3 9.9c0-.2.2-.4.4-.4s.4.2.4.4-.2.4-.4.4-.4-.1-.4-.4zm.1 0c0 .2.2.3.3.3.2 0 .3-.2.3-.3s-.2-.3-.3-.3c-.2 0-.3.1-.3.3z"/><path fill="#3D3B3B" d="M97.4 16.3c0 .2.2.4.4.4s.4-.2.4-.4-.2-.3-.4-.3-.4.1-.4.3z"/><path fill="#282828" d="M97.3 16.3c0-.2.2-.4.4-.4s.4.2.4.4-.2.4-.4.4-.4-.1-.4-.4zm.1 0c0 .2.2.3.3.3.2 0 .3-.2.3-.3s0-.3-.2-.3-.4.2-.4.3z"/><path fill="#3D3B3B" d="M93.4 16.4c0 .2.2.4.4.4s.4-.2.4-.4-.2-.4-.5-.4-.3.2-.3.4z"/><path fill="#282828" d="M93.3 16.4c0-.2.2-.4.4-.4s.4.2.4.4-.2.4-.4.4-.4-.1-.4-.4zm.1 0c0 .2.2.3.3.3.2 0 .3-.2.3-.3s-.2-.3-.3-.3c-.1 0-.3.2-.3.3z"/><path fill="#3D3B3B" d="M89.3 16.5c0 .2.2.4.4.4s.4-.2.4-.4-.2-.4-.4-.4-.4.2-.4.4z"/><path fill="#282828" d="M89.3 16.5c0-.2.2-.4.4-.4s.4.2.4.4-.2.5-.4.5-.4-.2-.4-.5zm.1 0c0 .2.2.3.3.3.2 0 .3-.2.3-.3s-.2-.3-.3-.3c-.2 0-.3.2-.3.3z"/><path fill="#3D3B3B" d="M97.4 23c0 .2.2.4.4.4s.4-.2.4-.4-.2-.4-.4-.4-.4.1-.4.4z"/><path fill="#282828" d="M97.3 23c0-.2.2-.4.4-.4s.4.2.4.4-.2.4-.4.4-.4-.2-.4-.4zm.1 0c0 .2.2.3.3.3.2 0 .3-.2.3-.3s-.2-.3-.3-.3c-.1-.1-.3.1-.3.3z"/><path fill="#3D3B3B" d="M93.4 23.1c0 .2.2.4.4.4s.4-.2.4-.4-.2-.4-.4-.4-.4.1-.4.4z"/><path fill="#282828" d="M93.3 23.1c0-.2.2-.4.4-.4s.4.2.4.4-.2.4-.4.4-.4-.2-.4-.4zm.1 0c0 .2.2.3.3.3.2 0 .3-.2.3-.3s-.2-.3-.3-.3c-.1-.1-.3.1-.3.3z"/><circle fill="#3D3B3B" cx="97.8" cy="29.6" r=".4"/><path fill="#282828" d="M97.3 29.6c0-.2.2-.4.4-.4s.4.2.4.4-.2.4-.4.4-.4-.1-.4-.4zm.1 0c0 .2.2.3.3.3.2 0 .3-.2.3-.3s-.2-.3-.3-.3c-.1 0-.3.1-.3.3z"/><path fill="#191517" d="M50 78.9h-3.5c-1.1 0-2.2-.1-3.3-.3C32 76.4 21 72.9 20.7 55.9l-1-13.8c-.6-16.9 2.3-18.5 8-19.4.5-.1 10-2.1 19.4-2.1H53c9.4 0 18.9 2 19.4 2.1 5.6.8 8.6 2.4 8 19.4l-1 13.8C79 72.9 68 76.4 56.8 78.6c-1 .2-2.2.3-3.3.3H50M29.5 24c-5.8 1.1-9.3-.5-8.7 18l1 13.9c.3 15.3 9.2 19.2 21.7 21.6 1 .2 2 .3 3.1.3h6.9c1 0 2.1-.1 3.1-.3 12.5-2.4 21.4-6.3 21.7-21.6l1-13.9c.6-18.5-2.9-16.9-8.7-18 0 0-9.8-1.1-20.5-1.4-10.2 0-20.6 1.4-20.6 1.4z"/><path fill="#201B1D" d="M50.1 81.6c-15.4 0-26.6-4.3-36.9-8.7v-.8c10.2 4.4 21.6 8.7 36.9 8.7 15.3 0 26.7-4.4 36.9-8.7v.9c-10.3 4.4-21.5 8.6-36.9 8.6z"/><path fill="#232323" d="M13.1 73c10.3 4.4 21.5 8.7 36.9 8.7 15.4 0 26.6-4.3 36.9-8.7v9.6c-.4 2.6-1 5.6-3 5.6l-13.8.6L50 89l-20-.3-13.8-.6c-2 0-2.6-3-3-5.6V73z"/><path fill="#7CBA1C" d="M34.5 86.6H32.2v-.9l.1-.1h2.2l.1.1v.9z"/><path fill="#F98B38" d="M67.8 86.6H65.5v-.9l.1-.1h2.2l.1.1v.9z"/><path fill="#ABB0AB" d="M6.6 83.9c-.2 0-.3-.1-.3-.3v-1c0-.2.1-.3.3-.3h1.1V82H6.6c-.4 0-.7.3-.7.7v1c0 .4.3.7.7.7h1.1v-1.5h-.9v.1h.6v.9h-.8M2.1 84.2h1c.4 0 .8-.3.8-.8 0-.4-.3-.8-.8-.8h-.3 1v-.3h-1c-.2 0-.4.2-.4.4s.3.3.5.3h.3c.2 0 .4.2.4.4s-.2.4-.4.4h-1l-.1.4"/><path fill="#ABB0AB" d="M2.1 83.8h1c.2 0 .4-.2.4-.4s-.2-.4-.4-.4h-.3c-.2 0-.4-.2-.4-.4s.2-.4.4-.4h1v-.3h-1c-.4 0-.8.3-.8.8s.3.8.8.8h.3-1v.3M4.7 83.9c-.2 0-.3-.1-.3-.3v-1c0-.2.1-.3.3-.3h1.1V82H4.7c-.4 0-.7.3-.7.7v1c0 .4.3.7.7.7h1.1v-.3l-1.1-.2"/><path fill="#ABB0AB" d="M4.5 82.5c0-.1.1-.2.2-.2h1.1v.3h-1l-.1.1h.8v.3h-1v-.5M4.7 83.8c-.1 0-.2-.1-.2-.2v-.5h1.1v.3h-.8l.1.1h1v.3H4.7M6.4 83.6c0 .1.1.3.2.3h.7v-.7h-.5v.3H7v.1h-.2l-.1-.1v-.7l.1-.1h.9v-.3H6.6c-.1 0-.2.1-.2.2v1M8.7 82.3l.1-.1.1.1.5 1.5h-.7v-.4h.2l-.1-.3-.4 1.1h-.3l.6-1.9"/><path fill="#ABB0AB" d="M9.5 83.9h-.8v.3H10l-.7-2c-.1-.2-.3-.4-.5-.4s-.4.1-.5.3l-.7 2H8l.7-2 .2-.1.1.2.5 1.7M10.3 82.1h-.1v.4h-.1v-.4h-.2v-.2h.4zM10.9 82.5h-.1V82l-.1.5h-.1l-.1-.5v.5h-.1v-.6h.1l.1.4.1-.4h.2zM39.9 60.1l.1-.1.1-.2v-.1c0-.1-.1-.1-.2-.1h-.6c-.2 0-.4-.1-.5-.2-.1-.1-.2-.3-.2-.5s.1-.4.2-.5c.1-.1.2-.2.4-.2h.7c.1 0 .2 0 .4.1l.1.1v.2l-.1.2h-.2c-.1 0-.2-.1-.3-.1h-.7l-.1.2c0 .1 0 .2.1.2h.8c.2 0 .3.1.4.2.1.1.2.3.2.5s-.1.4-.2.5c-.1.1-.3.2-.4.2h-.7c-.1 0-.2 0-.4-.1l-.1-.1v-.2l.1-.2h.2c.2 0 .3.1.4.1s.3.1.5.1zM40.9 60.6c-.2 0-.3-.1-.3-.3v-1.8c0-.2.1-.3.3-.3H42l.1.1.1.2-.1.2H41v.4h.6l.1.1.1.2-.1.2-.1.1H41v.5h1l.1.1.1.2-.1.2-.1-.1h-1.1zM42.4 59.4c0-.4.1-.7.3-.9.2-.2.5-.3.8-.3.3 0 .5.1.7.2s.3.2.3.3c0 .1 0 .2-.2.2-.1 0-.2 0-.3-.1-.1-.1-.3-.1-.5-.1s-.4.1-.5.2-.2.3-.2.6c0 .2.1.4.2.5s.3.2.5.2.3 0 .5-.1c.1-.1.2-.1.2-.2s0-.1-.1-.1h-.4l-.1-.1-.1-.2.1-.2.1-.1h.7c.2 0 .3.1.3.3v.3c0 .1 0 .2-.1.3-.1.1-.2.2-.3.4-.1.1-.4.2-.7.2-.3 0-.6-.1-.8-.3-.3-.3-.4-.6-.4-1zM45.3 58.7c.1-.1.1-.3.2-.4s.2-.1.3-.1c.1 0 .2 0 .3.1s.2.2.2.4c.2.4.3.8.4 1.2.1.3.1.5.1.6l-.1.1h-.2c-.1 0-.1-.1-.1-.2s-.1-.2-.1-.4h-1.1c0 .1-.1.3-.1.4 0 .1-.1.2-.1.2h-.2l-.1-.1c0-.1 0-.3.1-.6.2-.4.3-.8.5-1.2zm.5 0c-.1 0-.2.3-.4.8h.8c-.1-.6-.2-.8-.4-.8zM48.8 60.1l.2-.1.1-.2v-.1c0-.1-.1-.1-.2-.1h-.5c-.2 0-.4-.1-.5-.2-.1-.1-.1-.3-.1-.5s.1-.4.2-.5.2-.2.4-.2h.7c.1 0 .2 0 .3.1l.1.1v.2l-.1.2h-.2c-.1 0-.2-.1-.3-.1h-.2-.4l-.3.2c0 .1 0 .2.1.2h.8c.2 0 .3.1.4.2s.2.3.2.5-.1.4-.2.5-.2.2-.4.2h-.7c-.1 0-.2 0-.3-.1l-.1-.1v-.2l.1-.2h.1c.2 0 .3.1.4.1s.2.1.4.1zM50.2 58.7c.1-.1.1-.3.2-.4.1-.1.2-.1.3-.1.1 0 .2 0 .3.1s.2.2.2.4c.2.4.3.8.4 1.2.1.3.1.5.1.6l-.1.1h-.1s-.1-.1-.1-.2-.1-.2-.1-.4h-1c0 .1-.1.3-.1.4 0 .1-.1.2-.1.2H50l-.1-.1c0-.1 0-.3.1-.6 0-.4.1-.8.2-1.2zm.5 0c-.1 0-.2.3-.4.8h.7c0-.6-.1-.8-.3-.8zM53.1 58.2l.1.1.1.2-.1.2h-.6v1.7l-.1.2h-.2l-.1-.2v-1.7h-.6l-.1-.2.1-.2.1-.1zM53.6 58.4l.1-.2.1-.1.1.1.1.2v1.3c0 .1.1.2.2.2.1.1.2.1.4.1s.3 0 .4-.1l.2-.2v-1.3l.1-.2.1-.1.1.1.1.2v1.4c0 .1 0 .2-.1.3 0 .1-.1.2-.2.3-.1.1-.3.2-.6.2s-.5-.1-.6-.2c-.1-.1-.2-.2-.2-.3 0-.1-.1-.2-.1-.3v-1.4zM56.5 59.6c0-.1 0-.2.1-.2h.2c.1 0 .2 0 .3-.1.1 0 .2-.1.2-.2l-.1-.2-.2-.1h-.7c-.1 0-.2.1-.2.2v1.3l-.1.2v.1l-.1-.1-.1-.2v-1.8c0-.2.1-.3.2-.3h.3c.1 0 .4 0 .6.1s.5.1.6.3.2.3.2.5-.1.4-.2.5-.2.2-.4.2l.5.4.1.2v.2l-.1.1h-.1l-.7-.7-.3-.4zM57.8 58.5l.1-.1.1-.1.2.1 1.1 1.4V58.4l.1-.1.2.1v2.1l-.2.1-.1-.1-1.1-1.4V60.5l-.2.1-.1-.1-.1-.1zM60.7 58.4h-.2v.6h-.2v-.6H60v-.2h.7zM61.5 59h-.1v-.7l-.2.7h-.1l-.2-.7v.7h-.1v-.8h.2l.2.6.1-.6h.2z"/><path fill="#303030" d="M50 82.8h7.2v1.5c0 1.1-.9 1.8-2 1.8l-5.2.3-5.2-.3c-1.1 0-2-.6-2-1.8v-1.5H50"/><path fill="#110D0E" d="M50.1 86.7l-5.2-.3c-1.4 0-2.3-.8-2.3-2v-1.8h14.9v1.8c0 1.2-.9 2-2.3 2l-5.1.3zm-7-3.7v1.3c0 1.1.9 1.5 1.8 1.5l5.2.3 5.1-.3c.9 0 1.8-.4 1.8-1.5V83H43.1z"/><path fill="#191718" d="M48.9 84.4c0 .4-.2.7-.6.7-.4 0-.6-.3-.6-.7 0-.3.2-.7.6-.7.4 0 .6.3.6.7zm-1 0c0 .3.1.5.4.5.3 0 .4-.2.4-.5s-.1-.5-.4-.5c-.3 0-.4.2-.4.5zM49.1 83.7h.5c.3 0 .5.1.5.4 0 .3-.2.4-.5.4h-.2v.6h-.2v-1.4zm.2.7h.2c.2 0 .3-.1.3-.2s-.1-.2-.3-.2h-.2v.4zM51.1 84.5h-.6v.4h.7v.2h-.9v-1.4h.8v.2h-.6v.4h.6zM51.4 85.1v-1.4h.3c.5.9.5 1 .5 1.1v-1.1h.2v1.4h-.3c-.5-1-.5-1.1-.6-1.1v1.2h-.1z"/><path fill="#191517" d="M22.6 85.7c.3.3.8.5 1.3.5 1.1 0 1.9-.9 1.9-1.9 0-.3-.1-.5-.2-.8.2-.2.4-.5.6-.8.9-1.3.6-2 .4-2.4-.2-.3-.6-.7-1.5-.7-1.1 0-2.5.5-3.9 1.4-2 1.4-3.7 3.4-2.8 4.7.2.3.6.7 1.5.7.8.1 1.8-.2 2.7-.7z"/><path fill="#110D0E" d="M20 86.6c-1 0-1.4-.4-1.6-.7-.9-1.4.8-3.5 2.9-4.9 1.4-.9 2.9-1.5 3.9-1.5s1.4.4 1.6.7c.2.4.5 1.2-.4 2.5-.2.2-.3.5-.6.7.1.2.1.5.1.7 0 1.1-.9 2.1-2.1 2.1-.5 0-.9-.2-1.3-.5-.8.6-1.8.9-2.5.9zm5.1-6.8c-1 0-2.5.5-3.8 1.4-2 1.3-3.6 3.3-2.8 4.5.2.3.6.6 1.4.6.7 0 1.7-.3 2.6-.7h.1l.1.1c.3.3.8.4 1.2.4 1 0 1.8-.8 1.8-1.8 0-.3-.1-.5-.2-.7v-.1l.1-.1c.2-.2.4-.5.6-.7.8-1.2.6-1.9.4-2.3-.2-.3-.6-.6-1.5-.6z"/><g fill="#ABB0AB"><path d="M30.3 84.1c0 .1-.1.1-.2.1h-.4v.5h-.3v-1.3h.7c.1 0 .2 0 .2.1v.6zM30 84v-.5h-.3v.5h.3zM31.9 84.5c0 .1-.1.1-.2.1h-.6c-.1 0-.2 0-.2-.1v-1c0-.1.1-.1.2-.1h.6c.1 0 .2 0 .2.1v1zm-.3 0v-.9h-.4v.9h.4zM33.9 83.4l-.3 1.3h-.3l-.2-.7v-.1.1l-.1.6h-.3l-.3-1.3h.3l.1.7v0l.2-.7h.2l.2.7v0l.1-.7h.4zM35.3 84.6h-.7v-1.3h.7v.2h-.5v.4h.4v.2h-.4v.4h.5v.1zM36.9 84.6h-.3l-.3-.6v-.1h.3v-.4h-.3v1.1H36v-1.3h.7c.1 0 .2 0 .2.1v.6c0 .1 0 .1-.1.1h-.2l.3.5z"/></g><g fill="#ABB0AB"><path d="M63.8 84.6h-.3l-.1-.2h-.3l-.1.2h-.3l.3-1.2h.3l.5 1.2zm-.4-.4l-.1-.6-.1.6h.2zM65.3 84.5c0 .1-.1.1-.2.1h-.6c-.1 0-.2 0-.2-.1v-1c0-.1.1-.1.2-.1h.6c.1 0 .2 0 .2.1v.3H65v-.2h-.3v.9h.3v-.3h.3v.3zM66.9 84.5c0 .1-.1.1-.2.1h-.6c-.1 0-.2 0-.2-.1v-1c0-.1.1-.1.2-.1h.6c.1 0 .2 0 .2.1v.3h-.3v-.2h-.3v.9h.3v-.3h.3v.3zM68.3 84.6h-.7v-1.3h.7v.2h-.5v.4h.4v.2h-.4v.4h.5v.1zM69.8 84.5c0 .1-.1.1-.2.1h-.5c-.1 0-.2 0-.2-.1v-.3h.3v.3h.3v-.2l-.5-.4-.1-.1v-.3c0-.1.1-.1.2-.1h.5c.1 0 .2 0 .2.1v.3h-.3v-.2h-.3v.2l.5.4.1.1v.2zM71.4 84.5c0 .1-.1.1-.2.1h-.5c-.1 0-.2 0-.2-.1v-.3h.3v.3h.3v-.2l-.5-.4-.1-.1v-.3c0-.1.1-.1.2-.1h.5c.1 0 .2 0 .2.1v.3h-.3v-.2h-.3v.2l.5.4.1.1v.2z"/></g><path fill="#191517" d="M77.6 85.7c.3.3.8.5 1.3.5 1.1 0 1.9-.9 1.9-1.9 0-.3-.1-.5-.2-.8.2-.2.4-.5.6-.8.9-1.3.6-2 .4-2.4-.2-.3-.6-.7-1.5-.7-1.1 0-2.5.5-3.9 1.4-2 1.3-3.7 3.4-2.8 4.7.2.3.6.7 1.5.7.8 0 1.8-.2 2.7-.7z"/><path fill="#110D0E" d="M75 86.6c-1 0-1.4-.4-1.6-.7-.9-1.4.8-3.5 2.9-4.9 1.4-.9 2.9-1.5 3.9-1.5s1.4.4 1.6.7c.2.4.5 1.2-.4 2.5-.2.2-.3.5-.6.7.1.2.1.5.1.7 0 1.1-.9 2.1-2.1 2.1-.5 0-.9-.2-1.3-.5-.8.6-1.8.9-2.5.9zm5.1-6.8c-1 0-2.5.5-3.8 1.4-2 1.3-3.6 3.3-2.8 4.5.2.3.6.6 1.4.6.7 0 1.7-.3 2.6-.7h.1l.1.1c.3.3.8.4 1.2.4 1 0 1.8-.8 1.8-1.8 0-.3-.1-.5-.2-.7v-.1l.1-.1c.2-.2.4-.5.6-.7.8-1.2.6-1.9.4-2.3-.2-.3-.6-.6-1.5-.6z"/><path fill="#303030" d="M23.5 84.5c-2 1.3-4.1 1.7-4.6.9-.5-.8.6-2.6 2.7-3.9 2-1.3 4.1-1.7 4.6-.9.5.9-.6 2.6-2.7 3.9z"/><path fill="#191718" d="M21 83.9l.1.2-.1.2-.2.2.2.3-.1.2-.7-.9.4-.3.2-.1.2.2zm-.1.1h-.2l-.2.1.2.3.2-.1V84zM22 83.5c.1.1.2.3.2.4 0 .1-.1.2-.2.3-.1.1-.2.1-.4.1-.1 0-.2-.1-.3-.2-.1-.1-.2-.3-.2-.4 0-.1 0-.3.2-.4.1-.1.2-.1.4-.1 0 .1.2.2.3.3zm-.2.1c-.1-.1-.1-.2-.2-.2h-.2l-.1.2c0 .1 0 .2.1.3l.2.2h.2l.1-.2-.1-.3zM22.6 82.3l.5 1-.2.1-.6-.6.4.8-.1.1-.9-.7.1-.1.7.5-.4-.7.1-.1.6.5-.4-.7zM23.9 82.6l-.5.5-.7-.9.5-.4.2.1-.4.3.1.2.4-.3.1.2-.4.3.2.2.4-.3zM24.7 82.1l-.2.1-.1-.1-.1-.1-.1-.1h-.1l-.1.2.3.3-.2.1-.7-.9.4-.3h.2l.2.1c.1.1.1.2.1.3h.2l.2.2v.2zm-.7-.5h-.2l-.2.2.2.2.2-.2v-.2z"/><path fill="#303030" d="M78.5 84.5c-2 1.3-4.1 1.7-4.6.9-.5-.8.6-2.6 2.7-3.9 2-1.3 4.1-1.7 4.6-.9.5.9-.6 2.6-2.7 3.9z"/><path fill="#191718" d="M76.9 84.2l-.2.1-.1-.1-.1-.1-.1-.1h-.1l-.2.1.3.3-.2.1-.7-.9.4-.3h.2l.2.1c.1.1.1.2.1.3h.2l.2.2.1.3zm-.6-.5h-.2l-.2.2.2.2.2-.2v-.2zM77.6 83.7l-.6.4-.7-.8.6-.5.1.2-.4.3.2.2.3-.3.1.1-.3.3.2.3.4-.4z"/><path fill="#191718" d="M78.1 82.9c.1.1.1.2.1.3 0 .1-.1.2-.2.3-.1.1-.2.1-.3.1-.1 0-.2-.1-.3-.1l.1-.1c.1.1.2.1.3 0l.1-.1v-.1h-.2l-.2.1h-.2l-.1-.3-.1-.3.2-.2c.1-.1.2-.1.3-.1l.2.1-.1.1-.1-.1-.1.1v.2h.2l.2-.1h.2v.2z"/><path fill="#191718" d="M79 82.6l-.6.5-.7-.9.6-.4.1.1-.4.3.1.2.4-.3.1.2-.3.3.1.2.4-.3z"/><path fill="#191718" d="M79 81.4l-.2.2.6.7-.2.1-.5-.7-.3.2-.1-.2.6-.5z"/><path fill="#232323" d="M50.1 4.5H32.3v1.3h-4.7v4.5c0 .6.5 1.2 1.2 1.2h42.5c.6 0 1.2-.5 1.2-1.2V5.8h-4.7V4.5H50.1"/><path fill="#191517" d="M71.4 11.7H28.7c-.8 0-1.4-.6-1.4-1.4V5.5H32V4.3h36.1v1.3h4.7v4.8c0 .7-.6 1.3-1.4 1.3zM27.8 6v4.3c0 .5.4.9.9.9h42.7c.5 0 .9-.4.9-.9V6h-4.7V4.8H32.5V6h-4.7z"/><path fill="#2D2D2D" d="M32.5 4.8h35.1v6.4H32.5z"/><path fill="#282627" d="M62.6 9.5H37.5c-.9 0-1.6-.7-1.6-1.6s.7-1.6 1.6-1.6h25.1c.9 0 1.6.7 1.6 1.6s-.7 1.6-1.6 1.6z"/><path fill="#191718" d="M43 8.1c0 .2-.1.3-.2.4-.1.1-.2.1-.4.1s-.3-.1-.4-.2c-.1-.1-.2-.3-.2-.5s.1-.4.2-.5c.1-.1.3-.2.4-.2.2 0 .3 0 .4.1.1.1.2.2.2.3h-.3l-.1-.2-.2-.1c-.1 0-.2 0-.3.1-.1.1-.1.2-.1.3 0 .1 0 .3.1.3.1.1.1.1.2.1l.2-.1.1-.2h.4zM44.3 8.5H44l-.1-.3h-.5l-.1.3H43l.5-1.3h.3l.5 1.3zm-.4-.5l-.2-.5-.2.5h.4zM45.5 8.5h-.3v-.4l-.1-.1h-.3v.5h-.3V7.2h.7l.2.1c.1.1.1.2.1.3 0 .1-.1.2-.2.3.1 0 .2.1.2.1v.5zm-.2-.9c0-.1-.1-.2-.2-.2h-.4v.3h.4l.1-.1h.1zM46.7 7.4h-.4v1.1H46V7.4h-.3v-.2h1zM47.9 8.5h-.3v-.4l-.1-.1h-.3v.5h-.3V7.2h.7l.2.1c.1.1.1.2.1.3 0 .1-.1.2-.2.3.1 0 .2.1.2.1v.5zm-.2-.9c0-.1-.1-.2-.2-.2h-.4v.3h.4l.1-.1h.1zM48.1 7.2h.3v1.3h-.3zM49.8 7.8c0 .2 0 .4-.1.5-.1.1-.2.2-.3.2h-.6V7.2h.6c.1 0 .2 0 .3.1 0 .2.1.3.1.5zm-.3 0c0-.1 0-.2-.1-.3l-.2-.1h-.3v.9h.2l.2-.1c.2-.1.2-.2.2-.4zM51.1 8.5h-.2v-.2c-.1.1-.2.2-.4.2s-.3-.1-.4-.2c-.1-.1-.2-.3-.2-.5s.1-.4.2-.5c.1-.1.3-.2.5-.2s.3 0 .4.1c.1.1.2.2.2.3H51c0-.1-.2-.2-.3-.2-.1 0-.2 0-.3.1-.1.1-.1.2-.1.3 0 .1 0 .3.1.3.1.1.2.1.3.1l.2-.1h-.3v-.2h.5v.7zM52.3 8.5h-.9V7.2h.9v.2h-.7v.3h.7v.2h-.7v.4h.7zM53 7.2h.3v1.3H53zM54.6 8.5h-.2l-.6-.9v.9h-.2V7.2h.2l.5.9v-.9h.3zM55.9 7.6c0 .1 0 .2-.1.3-.1.1-.2.1-.3.1h-.4v.5h-.3V7.2h.6c.1 0 .2 0 .3.1.1.1.2.2.2.3zm-.3 0v-.1h-.4v.4h.3l.1-.1v-.2zM57.1 8.1c0 .1 0 .2-.1.3-.1.1-.2.1-.4.1-.1 0-.3 0-.4-.1-.1-.1-.1-.2-.1-.3v-.9h.3v.9l.1.1.2.1c.2 0 .3-.1.3-.2v-.9h.3v.9zM58.3 7.4h-.4v1.1h-.2V7.4h-.4v-.2h1z"/><path fill="#191919" d="M50.1 15.2c8.9 0 17.2.7 23.4 2 .2 0 .4 0 .5-.2.8-1.6 1.1-3.5 1.5-5.6.7-5.2 2.3-9.5 3.5-11.4-1.2 1.9-2.3 6.3-3.1 11.5-.3 2.2-.7 4.3-1.6 6-.1.2-.4.4-.6.4h-.2c-6.2-1.4-14.6-2.1-23.5-2.1-9 0-17.3.8-23.5 2.1h-.1c-.3 0-.5-.1-.6-.4-.8-1.7-1.2-3.8-1.6-6-.8-5.2-1.9-9.6-3.1-11.5 1.2 1.9 2.8 6.2 3.6 11.4.3 2.1.7 4 1.5 5.6.1.2.3.3.5.2 6.2-1.3 14.4-2 23.4-2z"/><ellipse fill="#232323" cx="50.1" cy="47.6" rx="25.9" ry="3.2"/><path fill="#1C1C1C" d="M48.3 50.9c.8-.5 7.9-6.4 15.5-6 7.3.6 12.1 1.6 12.1 2.7 0 1.8-11.6 3.2-25.9 3.2-.6.1-1.2.1-1.7.1z"/><path fill="#191718" d="M47.4 74.4c-.7.8-1.4 1.3-1.6 1.1-.2-.2.2-.9.9-1.7.7-.8 1.4-1.3 1.6-1.1.2.1-.2.9-.9 1.7zM50.4 74.4c-.7.8-1.4 1.3-1.6 1.1-.2-.2.2-.9.9-1.7.7-.8 1.4-1.3 1.6-1.1.2.1-.2.9-.9 1.7zM53.4 74.4c-.7.8-1.4 1.3-1.6 1.1-.2-.2.2-.9.9-1.7.7-.8 1.4-1.3 1.6-1.1.2.1-.2.9-.9 1.7z"/><g><path fill="#6975AF" d="M134.8 89.9c-14.3 0-25.8-11.6-25.8-25.8s11.6-25.8 25.8-25.8c14.3 0 25.8 11.6 25.8 25.8S149 89.9 134.8 89.9zm3.8-25.8c0-2.1-1.7-3.8-3.8-3.8-2.1 0-3.8 1.7-3.8 3.8 0 2.1 1.7 3.8 3.8 3.8s3.8-1.7 3.8-3.8z"/><path fill="#D6D7D8" d="M134.8 57.3c-3.7 0-6.8 3-6.8 6.8s3 6.8 6.8 6.8 6.8-3 6.8-6.8-3.1-6.8-6.8-6.8zm0 10.6c-2.1 0-3.8-1.7-3.8-3.8s1.7-3.8 3.8-3.8 3.8 1.7 3.8 3.8c0 2.1-1.7 3.8-3.8 3.8z"/><path fill="#3B3A3C" d="M134.8 57.3V57c-2 0-3.7.8-5 2.1-1.3 1.3-2.1 3.1-2.1 5 0 2 .8 3.7 2.1 5 1.3 1.3 3.1 2.1 5 2.1 2 0 3.7-.8 5-2.1 1.3-1.3 2.1-3.1 2.1-5 0-2-.8-3.7-2.1-5-1.3-1.3-3.1-2.1-5-2.1v.6c3.6 0 6.5 2.9 6.5 6.5s-2.9 6.5-6.5 6.5-6.5-2.9-6.5-6.5 2.9-6.5 6.5-6.5v-.3zm0 10.6v-.3c-1.9 0-3.5-1.5-3.5-3.5s1.5-3.5 3.5-3.5 3.5 1.6 3.5 3.5c0 2-1.6 3.5-3.5 3.5v.6c1.1 0 2.2-.5 2.9-1.2.7-.7 1.2-1.8 1.2-2.9 0-1.1-.5-2.2-1.2-2.9-.7-.7-1.8-1.2-2.9-1.2-1.1 0-2.2.5-2.9 1.2-.7.7-1.2 1.8-1.2 2.9 0 1.1.5 2.2 1.2 2.9.7.7 1.8 1.2 2.9 1.2v-.3z"/><path fill="#BBBDBF" d="M134.8 56.3c-4.3 0-7.8 3.5-7.8 7.8s3.5 7.8 7.8 7.8 7.8-3.5 7.8-7.8-3.5-7.8-7.8-7.8zm0 15c-4 0-7.2-3.3-7.2-7.2 0-4 3.3-7.2 7.2-7.2 4 0 7.2 3.3 7.2 7.2 0 4-3.2 7.2-7.2 7.2z"/><path fill="#D6D7D8" d="M134.8 38.7c-14 0-25.4 11.4-25.4 25.4s11.4 25.4 25.4 25.4c14 0 25.4-11.4 25.4-25.4s-11.4-25.4-25.4-25.4zm19.3 40.2c-4.4 5.8-11.4 9.5-19.3 9.5s-14.8-3.7-19.3-9.5c-3.2-4.1-5-9.2-5-14.8 0-13.4 10.9-24.3 24.3-24.3s24.3 10.9 24.3 24.3c0 5.5-1.9 10.7-5 14.8z"/><path fill="#5F6690" d="M131.6 57V40c.4-.1.8-.1 1.3-.1v16.7c-.4 0-.9.2-1.3.4zM136.7 56.5V39.9c.4 0 .9.1 1.3.1v17c-.4-.2-.9-.4-1.3-.5zM116.5 48.1v32c.4.5.9.9 1.3 1.4V46.7c-.4.4-.9.9-1.3 1.4M121.6 84.5c.4.3.8.5 1.3.8V42.9c-.4.2-.9.5-1.3.8v40.8zM126.6 87c.4.2.9.3 1.3.4V67.7c-.6-1.1-.9-2.3-.9-3.7s.3-2.6.9-3.7V40.6c-.4.1-.9.3-1.3.4v46zM131.6 88.2v-17c.4.2.8.3 1.3.4v16.7c-.4 0-.8-.1-1.3-.1zM136.7 88.3V71.7c.4-.1.9-.3 1.3-.5v17c-.5 0-.9.1-1.3.1zM141.7 87.4c.4-.1.9-.3 1.3-.4V41.2c-.4-.1-.8-.3-1.3-.4v19.7c.6 1.1.9 2.3.9 3.6s-.3 2.5-.9 3.6v19.7zM146.7 85.3V42.9c.4.3.9.5 1.3.8v40.7c-.4.3-.8.6-1.3.9zM153.1 48.1v32c-.4.5-.8.9-1.3 1.3V46.7c.4.5.8.9 1.3 1.4z"/><path fill="#525252" d="M122.8 45.2h3.7v3.4h-3.7zM122.8 52h3.7v3.4h-3.7zM122.8 58.9h3.7v3.4h-3.7zM122.8 65.8h3.7v3.4h-3.7zM122.8 72.7h3.7v3.4h-3.7zM122.8 79.6h3.7V83h-3.7zM127.9 83h3.7v3.4h-3.7zM138 83h3.7v3.4H138zM143 79.6h3.7V83H143zM138 76.1h3.7v3.4H138zM127.9 76.1h3.7v3.4h-3.7zM117.8 76.1h3.7v3.4h-3.7zM117.8 69.3h3.7v3.4h-3.7zM117.8 62.4h3.7v3.4h-3.7zM117.8 55.5h3.7v3.4h-3.7zM117.8 48.6h3.7V52h-3.7zM132.9 72.7h3.7v3.4h-3.7zM143 72.7h3.7v3.4H143zM143 65.8h3.7v3.4H143zM143 58.9h3.7v3.4H143zM143 52h3.7v3.4H143zM148 55.5h3.7v3.4H148zM148 62.4h3.7v3.4H148zM148 69.3h3.7v3.4H148zM148 76.1h3.7v3.5H148zM112.8 65.8h3.7v3.4h-3.7zM112.8 58.9h3.7v3.4h-3.7zM132.9 45.2h3.7v3.4h-3.7zM143 45.2h3.7v3.4H143zM132.9 52h3.7v3.4h-3.7zM138 48.6h3.7V52H138zM148 48.6h3.7V52H148zM138 41.7h3.7v3.4H138zM127.9 41.7h3.7v3.4h-3.7zM153.1 58.9h3.7v3.4h-3.7zM153.1 65.8h3.7v3.4h-3.7zM138 57c1 .5 1.9 1.1 2.7 2h1.1v-3.4H138V57zM140.6 69.3c-.7.8-1.6 1.5-2.7 2v1.5h3.8v-3.4h-1.1zM131.6 71.2c-1-.5-2-1.1-2.7-2h-1.1v3.4h3.7v-1.4zM128.9 58.9c.7-.8 1.7-1.5 2.7-2v-1.5h-3.7v3.4h1zM143 87c.4-.2.9-.3 1.3-.5H143v.5zM148 84.4c.7-.4 1.3-.9 2-1.4h-2v1.4zM153.1 80.1c.1-.2.3-.3.4-.5h-.4v.5zM155.9 76.1c.3-.6.6-1.1.9-1.7v-1.7h-3.7v3.4h2.8zM156.8 53.8l-.9-1.8h-2.8v3.4h3.7v-1.6zM153.5 48.6c-.1-.2-.3-.4-.4-.5v.5h.4zM150 45.2c-.6-.5-1.3-1-2-1.4v1.4h2M144.3 41.7c-.4-.2-.9-.3-1.3-.5v.5h1.3zM136.7 39.9c-.6 0-1.2-.1-1.9-.1s-1.3 0-1.9.1v1.8h3.7v-1.8zM126.6 41.2c-.4.2-.9.3-1.3.5h1.3v-.5zM121.6 43.7c-.7.5-1.4.9-2 1.5h2v-1.5zM116.5 48.1c-.2.2-.3.3-.4.5h.4v-.5zM113.7 52l-.9 1.8v1.7h3.7V52h-2.8zM112.8 74.4c.3.6.6 1.1.9 1.7h2.9v-3.4h-3.7l-.1 1.7M116.1 79.6c.1.2.3.3.4.5v-.5h-.4zM119.6 83c.6.5 1.3 1 2 1.5V83h-2zM125.3 86.5c.4.2.8.3 1.3.5v-.5h-1.3zM132.9 88.3c.6 0 1.2.1 1.9.1.6 0 1.3 0 1.9-.1v-1.8H133v1.8zM127.9 48.6h3.7V52h-3.7z"/><radialGradient id="a" cx="-247.969" cy="466.131" r="1" gradientTransform="matrix(6.0235 0 0 -6.0235 1614.5 2883.644)" gradientUnits="userSpaceOnUse"><stop offset="0" stop-color="#fff"/><stop offset="1" stop-color="#1d1d1b"/></radialGradient><path fill="url(#a)" d="M120.5 77.5c.1-.1.3-.2.5-.3l.6-.3c.2-.1.5-.2.7-.2.3-.1.5-.1.8-.2.3 0 .5-.1.7-.1h.8l.1-.1v-.1l-.2-.1h-.7c-.2 0-.5 0-.8.1-.3 0-.5.1-.8.2-.3.1-.5.2-.8.2-.3.1-.5.2-.7.3-.2.1-.4.2-.5.3-.2.1-.2.2-.3.4-.1.2-.1.4-.1.5.2.3.8.2 1 .2.2 0 .4-.1.7-.2.2-.1.5-.1.8-.3l.8-.3c.3-.1.5-.2.7-.2.2-.1.6-.2.8-.1 0 .1-.2.5-.9.8l-.9.3c-.3.1-.5.1-.8.2-.3.1-.5.1-.7.1h-1c-.2 0-.3.1-.3.2s0 .2.3.2h1c.3 0 .5-.1.8-.1.3-.1.5-.1.8-.2.3-.1.6-.2.9-.4.6-.3.8-.5 1-.8s.2-.5 0-.7c-.2-.2-.5-.1-.6-.1-.2 0-.4.1-.6.1-.2.1-.4.1-.7.2l-.8.3c-.3.1-.6.2-.8.2-.3.1-.5.1-.7.2-.4.1-.6 0-.6 0 .3 0 .4-.2.5-.2z"/><path fill="#333" d="M120.9 79.1h-.5c-.3 0-.3-.2-.3-.2 0-.1.1-.2.3-.2h1c.3 0 .5-.1.7-.1.3-.1.5-.1.8-.2l.9-.3c.6-.3.8-.6.9-.7h-.1c-.2 0-.5.1-.7.1-.2 0-.4.1-.7.2l-.8.3c-.3.1-.5.2-.8.3-.2.1-.5.1-.7.2-.2 0-.4.1-.5.1-.3 0-.5-.1-.6-.2-.1-.1 0-.3.1-.5s.2-.2.4-.4c.1-.1.3-.2.5-.3.1-.1.4-.2.7-.3.3-.1.5-.2.8-.2.3-.1.6-.1.8-.2.3-.1.5-.1.8-.1h.7l.2.1v.2l-.1.1h-.2-.5c-.2 0-.5 0-.7.1-.2 0-.5.1-.8.2-.2.1-.5.1-.7.2-.3.1-.5.2-.6.3-.2.1-.4.2-.5.3-.1.1-.2.2-.2.3h.1c.1 0 .3 0 .4-.1.2 0 .4-.1.7-.2.2-.1.5-.1.8-.2l.8-.3c.3-.1.5-.2.7-.2.3-.1.6-.1.6-.1h.2c.2 0 .4 0 .5.1.2.2.1.5 0 .7-.2.2-.4.5-1 .8-.3.1-.6.3-.9.4-.2.1-.5.2-.8.2-.3.1-.4.1-.8.1-.5-.4-.7-.3-.9-.3zm-.3-.5c-.2 0-.3.1-.3.2s0 .2.2.2h1.1c.3 0 .5-.1.8-.1.3-.1.5-.1.8-.2.3-.1.6-.2.9-.4.6-.3.8-.5 1-.7.1-.2.2-.5.1-.6-.1-.1-.2-.1-.4-.1h-.2c-.1 0-.4 0-.6.1-.2.1-.5.1-.7.2l-.8.3c-.3.1-.6.2-.8.2-.3.1-.5.1-.7.2-.2 0-.3.1-.4.1h-.1c0-.1.2-.3.3-.4.1-.1.2-.2.5-.3l.6-.3c.2-.1.5-.2.7-.2.3-.1.5-.1.8-.2.2 0 .5-.1.7-.1h.7l.1-.1v-.1l-.2-.1h-.7c-.2 0-.5 0-.8.1-.2 0-.5.1-.8.2-.3.1-.5.2-.8.2-.3.1-.5.2-.7.3-.2.1-.4.2-.5.3-.2.1-.2.2-.3.4-.1.2-.1.4-.1.5.1.1.3.2.5.2.1 0 .3 0 .5-.1.2 0 .5-.1.7-.2.2-.1.5-.2.8-.3l.8-.3c.3-.1.5-.2.7-.2.1 0 .5-.1.7-.1h.1s-.1.4-.9.8c-.2.1-.5.2-.9.3-.2.1-.5.1-.8.2-.2.1-.5.1-.7.1H120.6z"/><radialGradient id="b" cx="-247.969" cy="466.131" r="1" gradientTransform="translate(504 -639.83) scale(1.5373)" gradientUnits="userSpaceOnUse"><stop offset="0" stop-color="#fff"/><stop offset=".04" stop-color="#fff"/><stop offset=".04" stop-color="#fff"/><stop offset=".23" stop-color="#ababab"/><stop offset="1" stop-color="#646363"/></radialGradient><path fill="url(#b)" d="M122.5 75.8c.9 0 1.7.8 1.7 1.7s-.8 1.7-1.7 1.7-1.7-.8-1.7-1.7.8-1.7 1.7-1.7z"/><radialGradient id="c" cx="-247.969" cy="466.131" r="1" gradientTransform="translate(3420.714 -6126.315) scale(13.3184)" gradientUnits="userSpaceOnUse"><stop offset="0" stop-color="#fff"/><stop offset="1" stop-color="#1d1d1b"/></radialGradient><path fill="url(#c)" d="M120.9 78.2c.2 0 .4-.1.7-.2.2-.1.8-.3.8-.3l.8-.3c.3-.1.5-.2.7-.2l.3-.1c0-.2-.1-.4-.1-.4-.1 0-.2 0-.3.1-.2.1-.4.1-.7.2l-.8.3c-.3.1-.6.2-.8.2-.4.1-.7.2-.7.2 0 .1 0 .3.1.5z"/><path fill="#333" d="M120.4 77.9h-.1s.1.1.5 0c.2 0 .4-.1.7-.2.2-.1.5-.1.8-.2l.8-.3c.3-.1.5-.2.7-.2.3-.1.6-.1.6-.1-.1 0-.4 0-.6.1-.2.1-.5.1-.7.2l-.8.3c-.3.1-.6.2-.8.2-.3.1-.5.1-.7.2-.2-.1-.3 0-.4 0z"/><path fill="#333" d="M120.4 78.2c-.2 0-.5-.1-.6-.2.2.3.7.2 1 .1.2 0 .5-.1.7-.2.2-.1.8-.3.8-.3l.8-.3c.3-.1.5-.2.7-.2 0 0 .1 0 .3-.1.2 0 .4-.1.5 0h-.5c-.2 0-.3.1-.3.1-.2 0-.4.1-.7.2l-.8.3s-.6.2-.8.3c-.2.1-.5.1-.7.2 0 .1-.2.1-.4.1z"/><linearGradient id="d" gradientUnits="userSpaceOnUse" x1="-247.969" y1="466.131" x2="-246.969" y2="466.131" gradientTransform="scale(3.1233 -3.1233) rotate(45 489.285 568.511)"><stop offset="0" stop-color="#b2b2b2"/><stop offset=".98" stop-color="#f6f6f6"/><stop offset="1" stop-color="#f6f6f6"/></linearGradient><path fill="url(#d)" d="M128.2 76.7l-.1-.1c-1-.3-1.6-.2-1.8.1-.1.1-.2.2-.2.3v.3l.2.2.2.1H127.7l.2.2v.1l-.1.1-.2.1h-.8c-.1 0-.3 0-.4-.1h-.2l-.1.1v.2l.1.1c.1 0 .3.1.5.1h.5c.2 0 .3 0 .5-.1.2 0 .3-.1.4-.2l.1-.2v-.4s0-.1-.1-.2-.2-.2-.4-.2H126.6l-.1-.1-.1-.1v-.1l.1-.1c.2-.2.7-.2 1.4 0h.2l.1-.1z"/><linearGradient id="e" gradientUnits="userSpaceOnUse" x1="-247.969" y1="466.131" x2="-246.969" y2="466.131" gradientTransform="scale(3.0408 -3.0408) rotate(45 490.966 570.457)"><stop offset="0" stop-color="#b2b2b2"/><stop offset=".98" stop-color="#f6f6f6"/><stop offset="1" stop-color="#f6f6f6"/></linearGradient><path fill="url(#e)" d="M130.3 76.5l-.2-.1h-1.4l-.1.1-.1.1v1.8l.1.1.1.1h1.4l.2-.1V78.2h-1.4v-.5h1.1V77.4l-.2-.1h-.9v-.5h1.4v-.2z"/><linearGradient id="f" gradientUnits="userSpaceOnUse" x1="-247.969" y1="466.131" x2="-246.969" y2="466.131" gradientTransform="scale(3.347 -3.347) rotate(45 486.567 567.673)"><stop offset="0" stop-color="#b2b2b2"/><stop offset=".98" stop-color="#f6f6f6"/><stop offset="1" stop-color="#f6f6f6"/></linearGradient><path fill="url(#f)" d="M132.7 76.7l-.1-.1c-.4-.3-.8-.3-1.2-.3-.2 0-.2 0-.4.1s-.3.2-.3.2c-.1.1-.1.2-.2.3-.1.1-.1.2-.1.4s0 .3.1.5.1.3.2.4c.1.1.2.2.4.3.1.1.3.1.5.1.4 0 .7-.1.9-.3.2-.2.3-.5.3-.9l-.1-.1-.1-.1h-.9l-.1.1-.1.2.1.2.1.1h.7c0 .1-.1.2-.1.3-.1.1-.3.2-.6.2-.1 0-.2 0-.3-.1-.1 0-.2-.1-.2-.2-.1-.1-.1-.2-.1-.3v-.3-.3l-.1-.1s.1-.1.2-.1c.1-.1.2-.1.3-.1.3-.1.6 0 .9.2h.2l.1-.1v-.2z"/><linearGradient id="g" gradientUnits="userSpaceOnUse" x1="-247.969" y1="466.131" x2="-246.969" y2="466.131" gradientTransform="scale(3.277 -3.277) rotate(45 488.052 569.423)"><stop offset="0" stop-color="#b2b2b2"/><stop offset=".98" stop-color="#f6f6f6"/><stop offset="1" stop-color="#f6f6f6"/></linearGradient><path fill="url(#g)" d="M135.3 78.6v-.2c-.2-1.4-.6-2.2-1.2-2.1-.6 0-1 .6-1.2 2.1v.2l.1.1h.2l.1-.1c0-.2.1-.3.1-.5h1.4c0 .2.1.4.1.6l.1.1h.2l.1-.2zm-1.7-1.1c.2-.5.3-.8.6-.8.2 0 .4.3.6.8h-1.2z"/><path fill="#484848" d="M127.3 78.7h-.4c-.2 0-.3-.1-.5-.1l-.1-.1v-.2l.1-.2h.2c.1 0 .2.1.4.1h.8l.1-.1-.1-.1h-.8c-.2 0-.3 0-.4-.1l-.2-.1-.2-.2c0-.1-.1-.2 0-.3 0-.1.1-.2.2-.4.2-.2.4-.3.8-.3.3 0 .6.1 1.1.2l.2.1v.2l-.1.2h-.2c-.7-.2-1.2-.2-1.4 0l-.1.1.1.1.1.1h1.1c.2.1.4.1.4.3 0 .1.1.1.1.2v.4l-.1.2c-.1.1-.2.2-.4.2-.3-.2-.5-.2-.7-.2zm-.9-.5l-.1.1v.1l.1.1c.1 0 .3.1.4.1h.5c.2 0 .3 0 .5-.1.2 0 .3-.1.3-.2l.1-.2V77.8s0-.1-.1-.2c0-.1-.2-.2-.4-.2H126.6l-.1-.1-.1-.1v-.1l.1-.2c.2-.2.7-.2 1.5 0h.1l.1-.1v-.1l-.1-.1c-.4-.1-.8-.2-1-.2-.4 0-.6.1-.7.3-.1.1-.1.2-.2.3v.3l.1.2.2.1H127.7l.3.4v.1l-.1.1-.2.1h-.8c-.2 0-.3 0-.5-.1z"/><path fill="#484848" d="M130.1 78.6h-1.4l-.2-.1-.1-.2v-1.7l.1-.2.2-.1h1.4l.2.1.1.2-.1.2-.2.1H129v.4h.8l.2.1.1.2-.1.2-.2.1h-.8v.4h1.1l.2.1.1.2-.1.2-.2-.2zm-1.4-2.1h-.1V78.4h1.6v-.2h-1.3l-.1-.1v-.5l.1-.1h1v-.2h-1.1v-.5l.1-.1h1.3v-.2h-1.5z"/><path fill="#484848" d="M131.6 78.8c-.2 0-.4 0-.5-.1-.1-.1-.3-.2-.4-.3-.1-.1-.2-.3-.3-.4-.1-.2-.1-.3-.1-.5s0-.2.1-.4.1-.3.2-.4c0 0 .1-.2.3-.3.1-.1.2-.1.3-.1h.4c.3 0 .6.1.9.3l.1.2v.2l-.2.1h-.2c-.3-.2-.5-.3-.8-.2-.1 0-.2 0-.2.1-.1 0-.1.1-.1.1l-.1.1v.6c0 .1.1.2.1.2l.2.2c.1 0 .2.1.3.1.3 0 .5-.1.6-.2l.1-.2h-.6l-.2-.1-.1-.2.1-.2.2-.1h.9l.2.1.1.2c0 .4-.1.7-.3.9-.2.2-.5.3-1 .3zm-.8-.5c.1.1.2.2.4.3.1.1.3.1.5.1.4 0 .7-.1.9-.3.2-.2.3-.5.3-.8l-.1-.1h-1.1v.2l.1.1h.7c0 .1-.1.2-.1.3-.1.1-.4.2-.7.2-.1 0-.2 0-.4-.1-.1 0-.2-.1-.2-.2-.1-.1-.1-.2-.2-.3 0-.1-.1-.2 0-.4V77h.1l.2-.2c.1 0 .2-.1.3-.1h.1c.3-.1.6 0 .9.2h.1l.1-.1v-.1l-.1-.1c-.3-.2-.7-.3-1.2-.2h-.1c-.1 0-.2 0-.3.1-.2.1-.3.2-.3.2-.1.1-.1.2-.2.3 0 .1-.1.2-.1.4s0 .3.1.5.2.3.3.4zM135.1 78.7l-.1-.1-.1-.2c0-.2-.1-.4-.1-.5h-1.3c0 .1-.1.3-.1.4l-.1.2h-.2l-.2-.1v-.2c.2-1.4.6-2.1 1.2-2.1s1 .7 1.2 2.2l-.1.2-.1.2zm-1.6-.8h1.4c0 .2.1.4.1.6l.1.1h.1l.1-.1v-.1c-.2-1.4-.6-2.1-1.1-2.1-.5 0-.9.7-1.1 2v.1l.1.1h.1l.1-.1c0-.2 0-.3.1-.5zm1.2-.3h-1.1c.2-.5.4-.8.6-.8.2-.1.4.2.5.8zm-1-.1h1c-.1-.4-.3-.7-.5-.7s-.4.2-.5.7z"/><linearGradient id="h" gradientUnits="userSpaceOnUse" x1="-247.969" y1="466.131" x2="-246.969" y2="466.131" gradientTransform="scale(3.209 -3.209) rotate(45 489.568 571.45)"><stop offset="0" stop-color="#b2b2b2"/><stop offset=".98" stop-color="#f6f6f6"/><stop offset="1" stop-color="#f6f6f6"/></linearGradient><path fill="url(#h)" d="M138.6 76.6l-.1-.1c-1-.3-1.6-.2-1.9.1-.1.1-.2.2-.2.3v.3l.2.2.2.1H138l.2.2v.1l-.1.1-.2.1h-.8c-.1 0-.3 0-.4-.1h-.2l-.1.1v.2l.1.1c.1 0 .3.1.5.1h.5c.2 0 .3 0 .5-.1.2 0 .3-.1.4-.2l.1-.2v-.4s0-.1-.1-.2-.2-.2-.4-.2H136.9l-.1-.1-.1-.1v-.1l.1-.1c.2-.2.7-.2 1.4 0h.2l.1-.1h.1z"/><linearGradient id="i" gradientUnits="userSpaceOnUse" x1="-247.969" y1="466.131" x2="-246.969" y2="466.131" gradientTransform="scale(3.47 -3.47) rotate(45 486.203 569.368)"><stop offset="0" stop-color="#b2b2b2"/><stop offset=".98" stop-color="#f6f6f6"/><stop offset="1" stop-color="#f6f6f6"/></linearGradient><path fill="url(#i)" d="M139.2 78.7l.1-.1c0-.2.1-.3.1-.5h1.4c0 .2.1.4.1.6l.1.1h.2l.1-.1v-.2c-.2-1.5-.6-2.2-1.2-2.1-.6 0-1 .7-1.2 2.1v.2l.1.1.2-.1zm.3-1.1c.2-.5.3-.8.6-.8.2 0 .4.3.6.8h-1.2z"/><linearGradient id="j" gradientUnits="userSpaceOnUse" x1="-247.969" y1="466.131" x2="-246.969" y2="466.131" gradientTransform="scale(3.2448 -3.2448) rotate(45 489.556 572.648)"><stop offset="0" stop-color="#b2b2b2"/><stop offset=".98" stop-color="#f6f6f6"/><stop offset="1" stop-color="#f6f6f6"/></linearGradient><path fill="url(#j)" d="M143.1 76.6l-.2-.1h-1.8l-.2.1V76.9l.2.1h.7v1.6l.1.1.1.1.2-.1v-1.8H143.1v-.2z"/><linearGradient id="k" gradientUnits="userSpaceOnUse" x1="-247.969" y1="466.131" x2="-246.969" y2="466.131" gradientTransform="scale(3.2805 -3.2805) rotate(45.001 489.445 573.048)"><stop offset="0" stop-color="#b2b2b2"/><stop offset=".98" stop-color="#f6f6f6"/><stop offset="1" stop-color="#f6f6f6"/></linearGradient><path fill="url(#k)" d="M145.5 76.5l-.2-.1-.1.1-.1.1v1.2l-.1.2-.2.1h-.7l-.2-.1-.1-.2v-1.2l-.1-.1-.2-.1-.1.1-.1.1v1c0 .1 0 .3.1.4 0 .1.1.2.2.3.1.1.2.2.3.2.1.1.3.1.4.1h.3c.1 0 .3 0 .4-.1.1-.1.2-.1.3-.2.1-.1.2-.2.2-.3.1-.1.1-.3.1-.4v-1l-.1-.1z"/><linearGradient id="l" gradientUnits="userSpaceOnUse" x1="-247.969" y1="466.131" x2="-246.969" y2="466.131" gradientTransform="scale(3.3039 -3.3039) rotate(45 489.536 573.738)"><stop offset="0" stop-color="#b2b2b2"/><stop offset=".98" stop-color="#f6f6f6"/><stop offset="1" stop-color="#f6f6f6"/></linearGradient><path fill="url(#l)" d="M145.8 76.5l-.1.1v1.8l.1.1.2.1.2-.1.1-.1v-1.6c.5 0 .9 0 1.1.1.2.1.3.2.3.3 0 .1 0 .2-.1.2-.1.1-.4.1-.7 0h-.1l-.1.1v.1l.1.1 1.1.8h.2l.1-.1v-.2l-.1-.1-.6-.4.2-.1c.3-.1.4-.3.4-.6s-.2-.6-.6-.7c-.3-.1-.8-.1-1.5-.1l-.2.3z"/><linearGradient id="m" gradientUnits="userSpaceOnUse" x1="-247.969" y1="466.131" x2="-246.969" y2="466.131" gradientTransform="scale(3.209 -3.209) rotate(45 491.433 575.924)"><stop offset="0" stop-color="#b2b2b2"/><stop offset=".98" stop-color="#f6f6f6"/><stop offset="1" stop-color="#f6f6f6"/></linearGradient><path fill="url(#m)" d="M148.4 76.6v2.1H148.7l.1-.2v-1.3l1.4 1.5h.2l.1-.1.1-.1v-1.8l-.1-.1-.1-.1-.2.1-.1.1V78l-1.3-1.4-.2-.1h-.1z"/><path fill="#484848" d="M137.7 78.7h-.4c-.2 0-.3-.1-.5-.1l-.2-.1v-.2l.1-.2h.2c.1 0 .2.1.4.1h.8l.1-.1-.1-.1h-.8c-.2 0-.3 0-.4-.1l-.2-.1-.2-.2c-.1-.1-.1-.2 0-.3 0-.1.1-.2.2-.4.2-.2.4-.3.8-.3.3 0 .7.1 1.1.2l.2.1v.2l-.1.2h-.2c-.7-.2-1.2-.2-1.4 0l-.1.1.1.1.1.1h1.1c.2.1.4.1.5.3 0 .1.1.1.1.2v.4l-.1.2c-.1.1-.2.2-.4.2-.3-.2-.5-.2-.7-.2zm-.8-.5l-.2.1v.1l.1.1c.1 0 .3.1.4.1h.5c.2 0 .3 0 .5-.1.2 0 .3-.1.3-.2l.1-.2v-.4s0-.1-.1-.2c0-.1-.2-.2-.4-.2H137l-.1-.1-.1-.1V77l.1-.2c.2-.2.7-.2 1.5 0h.1l.1-.1v-.1l-.1-.1c-.4-.1-.8-.2-1-.2-.4 0-.6.1-.8.3-.1.1-.2.2-.2.3v.3l.1.2.2.1H138l.2.2v.1l-.1.1-.2.1h-.9c.1.3 0 .3-.1.2zM141.1 78.9l-.1-.1-.1-.2c0-.2-.1-.4-.1-.5h-1.3c0 .1-.1.3-.1.4l-.1.2-.2.1-.2-.1v-.2c.2-1.5.6-2.1 1.2-2.1s1 .7 1.2 2.2l-.1.2-.1.1zm-1.7-.9h1.4c0 .2.1.4.1.6l.1.1h.1l.1-.1v-.1c-.2-1.4-.6-2.1-1.1-2.1-.5 0-.9.7-1.1 2v.1l.1.1h.1l.1-.1c0-.1 0-.3.1-.5zm1.3-.3h-1.2c.2-.5.4-.8.6-.8.2-.1.4.2.6.8zm-1.1-.1h1c-.1-.4-.3-.7-.5-.7s-.4.3-.5.7z"/><path fill="#484848" d="M142 78.8l-.2-.1-.1-.2V77h-.7l-.2-.1-.1-.2.1-.2.2-.1h1.8l.2.1.1.2-.1.2-.2.1h-.7v1.6l-.1.2zm-.9-2.2h-.1v.2H141.8l.1.1V78.6h.2V76.9l.1-.1H143v-.2H141.1zM144.6 78.8h-.3c-.2 0-.3 0-.4-.1-.1-.1-.2-.1-.3-.2-.1-.1-.2-.2-.2-.3-.1-.1-.1-.3-.1-.4v-1l.1-.2.2-.1.2.1.1.2V78l.1.2.2.1h.7l.2-.1.1-.2v-1.2l.1-.2.2-.1.2.1.1.2v1c0 .1 0 .3-.1.4-.1.1-.1.2-.2.3-.1.1-.2.2-.3.2-.3.1-.5.1-.6.1zm-1.2-.7c.1.1.1.2.2.3.1.1.2.2.3.2.1 0 .2.1.4.1h.3c.1 0 .3 0 .4-.1.1 0 .2-.1.3-.2.1-.1.2-.2.2-.3 0-.1.1-.2.1-.4v-1.1h-.2l-.1.1v1.2l-.1.2-.2.1h-.7l-.2-.1-.1-.2v-1.3h-.2v1.1c-.5.2-.5.3-.4.4z"/><path fill="#484848" d="M146 78.8l-.2-.1-.1-.2v-1.8l.1-.2.2-.1c.7-.1 1.2 0 1.5.1.5.1.7.4.7.7 0 .3-.1.5-.4.6h-.1l.5.3.1.2-.1.2-.2.1-.2-.1-1.1-.8-.1-.1v-.2l.1-.1h.8l.1-.2c0-.1-.1-.2-.3-.2-.2-.1-.6-.1-1-.1v1.6l-.1.2-.2.2zm.6-2.3h-.6l-.1.1v2h.2l.1-.1V76.8c.5 0 .9 0 1.1.1.2.1.3.2.3.3 0 .1-.1.2-.2.3-.2.1-.4.1-.7.1h-.1l-.1.1v.1l.1.1 1.1.8h.1l.1-.1v-.1l-.1-.1-.6-.4v-.1l.2-.1c.2-.1.4-.3.4-.6s-.2-.5-.6-.6c0-.1-.3-.1-.6-.1zM150.4 78.8l-.2-.1-1.3-1.4v1.2l-.1.2-.2.1-.2-.1-.1-.2V76.6l.1-.1h.1l.1.1 1.3 1.4v-1.2l.1-.2.2-.1.2.1.1.2V78.7l-.1.1zm-1.6-1.6l1.4 1.5h.2l.1-.1v-2h-.2V78h-.1l-1.4-1.4h-.2l-.1.1v2h.2v-.1l.1-1.4z"/><path fill="#383A38" d="M151.3 76.6h-.2v.3h-.1v-.3h-.1v-.2h.4zM151.8 76.9h-.1v-.4l-.1.4h-.1l-.1-.4v.4h-.1v-.5h.2v.4l.1-.4h.2zM124.6 78.6h-.1v.4h-.1v-.4h-.1v-.1h.3zM125.2 79h-.1v-.4l-.1.4h-.1l-.1-.4v.4h-.1v-.5h.1l.1.4.1-.4h.2z"/><path fill="#1B1C1B" d="M140 80.1h3.4v4.8H140z"/><path fill="#848374" d="M143.2 83.9h-2.9v-3h2.9v3zm-3-3.6l.1.2.1-.2h.1l-.1.2.1.3h-.1l-.1-.2v.2h-.1v-.5zm.3 0l.1.5h-.1v-.5zm.1 0h.2v.5h-.1v-.5zm.1.1v.3V80.4zm.2.2l.1.1-.1-.1v-.4h.2v.1h-.1.1v.4h-.2v-.1zm.3-.3h.3v.1h-.1v.4h-.1v-.4h-.1v-.1z"/><path fill="#848374" d="M141.4 80.5v-.2l.1-.1.1.1v.4h-.2v-.2zm.1 0v.1-.2.1zm.5.2l-.1.1h-.1l.1-.5h.1v.4zm0-.1v-.2.2zM142.1 80.3h.2v.5h-.1v-.5zm.1.1v.3V80.4zm.3-.1l.1.3v.2h-.1v-.5l-.1.3v.1-.4zm.1 0l.1.4h.1v.1h-.2v-.5zm.2 0h.3v.1h-.1v.4h-.1v-.4h-.1v-.1zm.3.3l.1.1-.1-.1v-.4h.2v.1h-.1.1v.4h-.2v-.1zm-2.7 3.6v.1h-.1v-.2h.2l-.1.1v-.1.1zm.1-.1V84h.1v.2h-.1v-.1zm0 0h.1-.1zm.2.2V84l.1.2V84v.3l-.1-.2v.2zm.3 0V84h-.1.2-.1v.3zm.1 0V84h.2-.1v.1h.1-.1l-.1.2h.2-.2zm.2 0V84l.1.2V84v.3l-.1-.2v.2zm.3 0V84h-.1.2-.1v.3zm.2 0V84h.1v.1h-.1V84v.3l.1-.1-.1.1zm0-.2zm.4.2l-.1-.1v.1l.1-.3v.3zm-.1-.2zm.1.2V84h-.1.2-.1v.3zm.2 0V84h.2-.1v.1h.1-.1l-.1.2h.2-.2zm.2-.3h.1v.2h-.1V84zm0 0v.2-.2zm.2 0h.1-.2zm.1 0zm0 .1zm.2.2v-.1l-.1-.2v.1-.1l-.1.2.2.1zm-2.8 0h.6v.1h-.4v.1h.3v.1h-.3v.1h.4v.1h-.6v-.5zm.7.3h.4-.1c-.1 0-.2-.1-.3 0V84.3h.5l.1.1h-.4.4v.2l-.1.1h-.4l-.1-.1zm.8.1v-.4h.5v.2h-.2.1l.1.1h-.2l-.1-.1h-.1v.2h-.1zm.2-.2h.1-.1zm.6-.2H143.2l.1.1v.1h-.1.1v.2H142.6v-.4zm.2.2h.2-.2zm0 .1h.2-.2z"/><path fill="#1B1C1B" d="M140.4 81.1h.2-.1v.1h-.1v-.1zm.2 0l.1.1v-.1h.1v.2-.1.1l-.2-.2v.2-.2zm1.7.2l-1.9.6.5 1.8 2.4-.7v-.1l-1-1.6z"/><path fill="#848374" d="M140.4 81.9l.3-.1.2.6.2-.7.5-.1-.3.7.8.9-.5.1-.4-.6-.1.3.1.4-.3.1z"/><path fill="#848374" d="M142.7 82.7l-.4.1v.3l-.3.1-.1-1.8.4-.1.9 1.5-.4.1-.1-.2zm-.2-.3l-.3-.6.1.6h.2z"/><path fill="#848374" d="M141.3 82.3l.3.3.5-.2-.1-.3z"/><path fill="#1B1C1B" d="M141.3 82.3v.3l.2-.1-.2-.2zm.6.2l.2-.1-.1-.3h-.1v.4zm-.5 1zm1.3-.2zm.4-.1zm-.1-.2zm-.2.1zm.1-.8zm.3.2zM143 83.1zm.3-.2zm-.1-.2zm-.6-1zM142.5 81.6zm.7 1.5zm-.7.1zm.4-1zm-.2-.3zM143.1 83zm-.1-.6zm.2.6zm0-.4zm-.3.5zm.2-.6zM143.2 82.6zm0 .5zm-.4.2zm-.3 0zm-.2 0zM142.3 83.3zm-.1 0zm.8-.1zm-.1-.1zM142.9 83.2zm.1-.7zm.1-.1zm-.1-.1zM142.9 82.3zm-.1-.2zm0-.1zm0-.1zm-.1-.1zM142.9 82.1zm-.2 0zm.4.4zm-.7-1.1zm.3 1.8zM142.5 81.4zm.1 0zM142.6 81.5zm.1 0zm-.3-.2zm0 .1zm.1.2zm.3.3zm-.3-.6zm.5 2zm.2-.1zM142.6 81.4zm.5.9zm-.1-.2zm-.2-.4zm-.2-.2zm-.1 0zm.1.4zM142.585 81.81l.096-.029.028.096-.096.028z"/><path fill="#1B1C1B" d="M142.498 81.815l.096-.029.028.096-.096.029zM142.7 81.8zm.2.2zm0-.2zm-.2-.2zm.3.6zm-.5 1.3zm-.4-.1zM142.088 83.303l.096-.028.028.096-.096.028zM142.2 83.4zm-.1.1zm.5-.3zm-.2.1zM142.6 83.2zm0 .2zm.5-.3zm-1.2.3zM141.9 83.4zm.1 0zm1.1-.3zm-1.7.6zm0-.1zM141.4 83.7zm.2 0zm0 .1zm.4-.3zm-.3.1zM141.9 83.5zm-.2 0zM141.8 83.5zm-.3 0zM141.8 83.5zm-.2 0zm-.1.1zm.2-.2zm-1.2-.2zm.1.4zm.1-.1zm0-.2zM140.7 83.5zm0 .1zm-.1-.6zM140.8 83.6zm0 .1zm-.1-.3zm0 .3zm.1.1zm-.3-.6zm0-.3zm0-.1zM140.5 82.8zm0-.2zm.1.8zm.1-.1zM140.6 83.3zm0-.2zm-.1.4zm0 .2zm-.2-.8zm.1-.3zM140.4 82.605l.097-.028.028.096-.096.028zM140.4 82.7zm-.1-.2zm.2.5zm0-.1zM140.6 83zm-.2.1zm.2.5zm-.2-1.2zM140.3 82.3zm.1.1zm.3 1.1zM140.3 82.4zm0-.2zM140.3 82.3zm0-.3zm.1.2zm.2 1.6zm1.6-2.6zm-1.3.2zm-.4.1zm.1.2zm.2-.1zM140.6 81.6zm-.2.1zm.7-.1zM140.5 81.7zm-.1.1zm.3-.1zm-.3-.1zm.4-.1zm.3-.1zm.2.1zM141.3 81.4zm.1.1zm-.8.1zm.1.1zM140.7 81.6zm.2 0zm-.3-.2zm-.2.1zm.7-.2zm.4.1zM141.396 81.413l.096-.028.028.096-.096.028zM141.4 81.4zm.1-.1zm-.5.2zm.2 0zM141 81.6zm0-.3zm-.5.3zm1.2-.3zM141.7 81.3zm-.1.1zm-1.1.3zm1.7-.7zm0 .2zM142.2 81.1zm-.2-.1zm-.4.2zm.3-.1zM141.7 81.3zm.2 0zM141.8 81.2zm.3.1zM141.8 81.2zm.2 0zm.1-.1zm-.2.2zm-1 2.4zm0 .2zM140.899 83.694l.096-.028.028.096-.096.028zM140.9 83.8zm.3 0zm.1 0zm-.1-.2zm-.2 0zM141.3 83.7zm-.2 0zm-.1.1zm.3-.2zM134.9 82.4c-.2 0-.3-.1-.3-.3v-.9c0-.2.1-.3.3-.3h.9v-.3h-.9c-.3 0-.6.3-.6.6v.9c0 .3.3.6.6.6h.9v-1.3h-.8v.3h.5v.8h-.6M131 82.7h.9c.4 0 .7-.3.7-.7 0-.4-.3-.7-.7-.7h-.2.9V81h-.9c-.2 0-.3.1-.3.3s.1.3.3.3h.2c.2 0 .4.2.4.4s-.2.4-.4.4h-.9v.3"/><path fill="#1B1C1B" d="M131 82.4h.9c.2 0 .3-.1.3-.3 0-.2-.1-.3-.3-.3h-.2c-.2 0-.4-.2-.4-.4s.2-.4.4-.4h.9v-.3h-.9c-.4 0-.7.3-.7.7s.3.7.7.7h.2-.9v.3M133.2 82.4c-.2 0-.3-.1-.3-.3v-.9c0-.2.1-.3.3-.3h1v-.3h-1c-.3 0-.6.3-.6.6v.9c0 .3.3.6.6.6h1v-.3h-1"/><path fill="#1B1C1B" d="M133 81.2c0-.1.1-.2.2-.2h1v.3h-.8l-.1.1h.7v.3h-1v-.5M133.2 82.4c-.1 0-.2-.1-.2-.2v-.4h1v.2h-.7l.1.1h.8v.3h-1M134.7 82.2c0 .1.1.2.2.2h.6v-.6h-.5v.2h.2v.1h-.2v-.7l.1-.1h.8V81h-.9c-.1 0-.2.1-.2.2v1M136.7 81h.2l.4 1.4h-.6v-.3h.2l-.1-.3-.3.9h-.4l.6-1.7"/><path fill="#1B1C1B" d="M137.4 82.4h-.8v.3h1.2l-.6-1.8c-.1-.2-.2-.3-.4-.3s-.4.1-.4.3l-.6 1.8h.3l.6-1.7.1-.1.1.1.5 1.4M138.1 80.9h-.1v.3h-.1v-.3h-.1v-.2h.3zM138.6 81.2h-.1v-.4l-.1.4h-.1v-.4.4h-.1v-.5h.1l.1.4.1-.4h.1z"/></g></svg>