<svg baseProfile="tiny" xmlns="http://www.w3.org/2000/svg" viewBox="0 0 100.1 89.9"><path fill="#353535" d="M16.1 88.6l-12.3-.5c-1.9 0-3.8-2.2-3.8-3.7V2.8C0 1.3 1.2.1 2.7.1h94.7c1.5 0 2.7 1.2 2.7 2.7v81.6c0 1.5-1.9 3.7-3.8 3.7l-12.3.5-13.8.6-20.1.2-20.1-.2-13.9-.6z"/><path fill="#201B1D" d="M50.1 89.9L30 89.7l-13.8-.6c-3.1 0-3.7-4.4-3.9-6.5V.1h1v82.4c.4 2.6 1 5.6 3 5.6l13.7.6 20.1.2 20.1-.2 13.8-.6c2 0 2.6-3 3-5.6V.1h1v82.4c-.3 2.2-.9 6.6-4 6.6 0 0-1 0-2.1.1l-11.7.5-20.1.2zM0 50.4h12.1v1H0zM88 50.4h12.1v1H88z"/><path fill="#ABB0AB" d="M47.8 33.9l-.6.3c-.4.2-.7.5-.9.8-.2.3-.3.7-.1 1 .2.3.5.4.8.4.3 0 .6-.1 1-.2.7-.2 1.6-.6 2.4-.9s1.7-.7 2.3-.8c.3-.1.6-.1.7-.1h.1c0 .1 0 .2-.1.3s-.2.3-.5.4c-.1.1-.2.1-.3.2 0 .4-.2.8-.3.9.3-.1.6-.3.9-.5.3-.2.5-.4.7-.6.2-.2.2-.6.1-.8 0-.2-.1-.3-.3-.4-.1-.1-.3-.1-.4-.2-.3 0-.6 0-.9.1-.7.2-1.5.5-2.4.8-.9.3-1.7.7-2.4.9-.3.1-.6.1-.8.1h-.2c0-.1 0-.1.1-.3.1-.2.4-.4.7-.6.2-.4.2-.6.4-.8z"/><path fill="#ABB0AB" d="M50 32.5c.1.2.2.3.3.4.1.1.6.6.8.7.1.1.4.4.6.5.1.1.1 0 .2.2l.7.7v-.2c-.1-.2-.3-.3-.5-.4-.1-.1-.2-.1-.2-.2l-.2-.2-1.4-1.4-.3-.1zm-.2 0h-.3c.2.2.5.4.6.5.1.1.6.5.8.7.1.1.4.3.5.5l.3.3c.3.3.5.6.9.9l.1.1v-.3c-.3-.2-.5-.5-.8-.7-.1-.1-.2-.1-.2-.2l-.2-.2c-.2 0-1.2-1-1.7-1.6zm.7 0l.9.9c.1.1.5.4.6.6.1.1 0 0 .2.1l.3.3-.1-.2c-.1-.1-.2-.1-.2-.2v-.1s-.8-.8-1.3-1.4c-.2.1-.3.1-.4 0zm-1.1.1l-.2.1c.3.2.6.5.7.6.1.1.6.5.8.7l.4.4.3.3c.3.3.6.6 1 .9l.2.2.1-.2c-.3-.3-.7-.6-1-.9-.1-.1-.1-.2-.2-.2l-.3-.2c-.1 0-1.3-1.2-1.8-1.7zm-.4.1l-.2.1c.3.3.7.6.8.7.1.1.6.6.8.7.1.1.1.1.3.2l.4.4c.3.3.6.7.9 1 .1.1.2.2.3.4 0-.1.1-.2.1-.3-.3-.3-.8-.7-1.2-1-.1-.1-.1-.2-.2-.2l-.3-.2s-1.3-1.3-1.7-1.8zm2.3.1l.5.5.4.4c-.2-.4-.5-.7-.9-.9zm-2.6.1l-.2.1c.3.3.6.5.7.6.1.1.7.6.8.7l.2.2c.1.1.3.2.5.4.3.3.6.7.9 1l.5.5.1-.2c-.4-.3-1.2-1.2-1.6-1.6l-.3-.2c.1.2-1.3-1.2-1.6-1.5zm-.3.2l-.2.2.1.1c.2.2.6.5.7.6.1.1.7.6.8.7l.2.2c.4.3 1 1 1.4 1.4.2.2.4.4.5.4l.2-.2c-.1-.1-1.4-1.2-1.9-1.7l-.3-.3c0 .1-1.1-1-1.5-1.4zm-.2.2l-.2.2c.2.2.7.6.8.7.1.1.4.4.6.5l.4.4c.4.3 1 1 1.4 1.4.2.2.4.4.4.5l.2-.2c-.2-.1-1.5-1.5-2-2l-.1-.1c0 .1-1.2-1.1-1.5-1.4zm-.2.3l-.1.2c.2.2.7.6.8.8l.3.3.2.2.2.2c.6.5 1.9 1.9 2.1 2l.2-.1c-.2-.2-1.5-1.5-2-1.9l-.3-.3-1.4-1.4zm-.2.2c-.1.1-.1.2-.1.3.2.2.7.7.9.8.1.1.2.1.2.2.1.1.2.2.3.2.6.5 1.9 1.9 2 2 .1 0 .2-.1.3-.1-.2-.2-1.8-1.6-2.2-2.1l-.4-.4c-.1.1-.8-.6-1-.9zm-.2.4c0 .1-.1.2-.1.3l.9.9c.2.1 0 .1.1.1v-.1c.1.1.2.3.4.4.6.5 1.7 1.6 1.8 1.8l.2-.1c-.2-.2-1.7-1.7-2.2-2.1l-.1-.1c.1-.1-.7-.9-1-1.1zm-.1.3c0 .2-.1.4-.1.6 0 1.3.9 2.4 2.2 2.5-.5-.4-1.3-1.2-1.6-1.6h-.3c0-.3-.1-.4 0-.4l.2.2 1.8 1.8h.5c-.4-.4-1.4-1.3-1.7-1.7l-.5-.3-.5-.6c.1 0 .3.3.5.4.2.1.2.2.3.3l.2.2c.1.1.2.3.4.4.5.4 1.1 1.1 1.4 1.4.1 0 .2 0 .3-.1-.3-.2-1.8-1.6-2.2-2.1l-.2-.1c.1-.1-.4-.6-.7-.9z"/><path fill="#ABB0AB" d="M48.5 36.7c-.9.1-1.4.1-1.4.1-.2 0-.3.1-.4.3s.1.3.3.3c0 0 .8 0 1.9-.2 0 0-.2-.2-.4-.5zM52.2 32.7c-.3 0-.6 0-1 .1.3.2.4.4.7.6H53c.2 0 .4-.1.4-.3 0-.2-.1-.4-.3-.4 0 .1-.3 0-.9 0zM52.8 36.7h-.2v.4h-.1v-.4h-.2v-.1h.5zM53.5 37.1h-.1v-.4l-.1.4h-.2l-.1-.4v.4h-.1v-.5h.2l.1.4.1-.4h.2z"/><circle fill="#3D3B3B" cx="2.3" cy="3.1" r=".4"/><path fill="#282828" d="M2.3 3.5c-.2 0-.4-.2-.4-.4s.2-.4.4-.4.4.2.4.4-.1.4-.4.4zm0-.7c-.2 0-.3.1-.3.3s.2.3.3.3.3-.2.3-.3-.1-.3-.3-.3z"/><path fill="#3D3B3B" d="M6.8 3.2c0 .2-.2.4-.4.4S6 3.4 6 3.2s.2-.4.4-.4.4.2.4.4z"/><path fill="#282828" d="M6.4 3.6c-.2 0-.4-.2-.4-.4s.2-.4.4-.4.4.2.4.4-.2.4-.4.4zm0-.7c-.2 0-.4.1-.4.3s.2.3.3.3.3-.2.3-.3 0-.3-.2-.3z"/><path fill="#3D3B3B" d="M10.8 3.3c0 .2-.2.4-.4.4s-.4-.2-.4-.4.2-.4.4-.4.4.2.4.4z"/><path fill="#282828" d="M10.4 3.7c-.2 0-.4-.2-.4-.4s.2-.4.4-.4.4.2.4.4-.2.4-.4.4zm0-.7c-.2 0-.3.2-.3.3s.2.3.3.3.3-.2.3-.3-.1-.3-.3-.3z"/><circle fill="#3D3B3B" cx="2.3" cy="9.7" r=".4"/><path fill="#282828" d="M2.3 10.2c-.2 0-.4-.2-.4-.4s.2-.4.4-.4.4.2.4.4-.1.4-.4.4zm0-.8c-.2 0-.3.1-.3.3s.2.3.3.3.3-.2.3-.3-.1-.3-.3-.3z"/><path fill="#3D3B3B" d="M6.8 9.8c0 .2-.2.4-.4.4S6 10 6 9.8s.2-.4.4-.4.4.2.4.4z"/><path fill="#282828" d="M6.4 10.3c-.2 0-.4-.2-.4-.4s.2-.4.4-.4.4.2.4.4-.2.4-.4.4zm0-.8c-.2 0-.4.1-.4.3 0 .2.2.3.3.3s.4-.1.4-.3c0-.2-.1-.3-.3-.3z"/><path fill="#3D3B3B" d="M10.8 9.9c0 .2-.2.4-.4.4s-.4-.2-.4-.4.2-.4.4-.4.4.2.4.4z"/><path fill="#282828" d="M10.4 10.4c-.2 0-.4-.2-.4-.4s.2-.4.4-.4.4.2.4.4-.2.4-.4.4zm0-.8c-.2 0-.3.2-.3.3s.2.3.3.3.3-.2.3-.3-.1-.3-.3-.3z"/><path fill="#3D3B3B" d="M2.7 16.3c0 .2-.2.4-.4.4s-.4-.2-.4-.4.2-.3.4-.3.4.1.4.3z"/><path fill="#282828" d="M2.3 16.8c-.2 0-.4-.2-.4-.4s.2-.4.4-.4.4.2.4.4-.1.4-.4.4zm0-.8c-.2 0-.3.2-.3.3s.2.3.3.3.3-.2.3-.3-.1-.3-.3-.3z"/><path fill="#3D3B3B" d="M6.8 16.4c0 .2-.2.4-.4.4s-.4-.1-.4-.4.2-.4.4-.4.4.2.4.4z"/><path fill="#282828" d="M6.4 16.9c-.2 0-.4-.2-.4-.4s.1-.5.4-.5.4.2.4.4-.2.5-.4.5zm0-.8c-.2 0-.3.2-.3.3s.2.3.3.3.3-.2.3-.3-.1-.3-.3-.3z"/><path fill="#3D3B3B" d="M10.8 16.5c0 .2-.2.4-.4.4s-.4-.1-.4-.4.2-.4.4-.4.4.2.4.4z"/><path fill="#282828" d="M10.4 17c-.2 0-.4-.2-.4-.4s.2-.4.4-.4.4.2.4.4-.2.4-.4.4zm0-.8c-.2 0-.3.2-.3.3s.2.3.3.3.3-.2.3-.3-.1-.3-.3-.3z"/><path fill="#3D3B3B" d="M2.7 23c0 .2-.2.4-.4.4s-.4-.2-.4-.4.2-.4.4-.4.4.1.4.4z"/><path fill="#282828" d="M2.3 23.4c-.2 0-.4-.2-.4-.4s.2-.4.4-.4.4.2.4.4-.1.4-.4.4zm0-.8c-.2 0-.3.2-.3.4s.2.3.3.3.3-.2.3-.3-.1-.4-.3-.4z"/><path fill="#3D3B3B" d="M6.8 23.1c0 .2-.2.4-.4.4s-.4-.2-.4-.4.2-.4.4-.4.4.1.4.4z"/><path fill="#282828" d="M6.4 23.5c-.2 0-.4-.2-.4-.4s.2-.4.4-.4.4.2.4.4-.2.4-.4.4zm0-.8c-.2 0-.3.2-.3.3s.2.3.3.3.3-.2.3-.3-.1-.3-.3-.3z"/><circle fill="#3D3B3B" cx="2.3" cy="29.6" r=".4"/><path fill="#282828" d="M2.3 30.1c-.2 0-.4-.2-.4-.4s.2-.4.4-.4.4.2.4.4-.1.4-.4.4zm0-.8c-.2 0-.3.2-.3.3s.1.4.3.4.3-.2.3-.3-.1-.4-.3-.4z"/><circle fill="#3D3B3B" cx="97.8" cy="3.1" r=".4"/><path fill="#282828" d="M97.3 3.1c0-.2.2-.4.4-.4s.4.2.4.4-.1.4-.3.4-.5-.2-.5-.4zm.1 0c0 .2.2.3.3.3.2 0 .3-.2.3-.3s0-.3-.2-.3-.4.1-.4.3z"/><path fill="#3D3B3B" d="M93.4 3.2c0 .2.2.4.4.4s.4-.2.4-.4-.2-.4-.5-.4-.3.2-.3.4z"/><path fill="#282828" d="M93.3 3.2c0-.2.2-.4.4-.4s.4.2.4.4-.1.4-.4.4-.4-.2-.4-.4zm.1 0c0 .2.2.3.3.3.2 0 .3-.2.3-.3s-.2-.3-.3-.3c-.1 0-.3.1-.3.3z"/><path fill="#3D3B3B" d="M89.3 3.3c0 .2.2.4.4.4s.4-.2.4-.4-.2-.4-.4-.4-.4.2-.4.4z"/><path fill="#282828" d="M89.3 3.3c0-.2.2-.4.4-.4s.4.2.4.4-.2.4-.4.4-.4-.2-.4-.4zm.1 0c0 .2.2.3.3.3.2 0 .3-.2.3-.3s-.1-.3-.3-.3c-.2 0-.3.1-.3.3z"/><path fill="#3D3B3B" d="M97.4 9.7c0 .2.2.4.4.4s.4-.2.4-.4-.2-.4-.4-.4-.4.2-.4.4z"/><path fill="#282828" d="M97.3 9.7c0-.2.2-.4.4-.4s.4.2.4.4-.2.4-.4.4-.4-.1-.4-.4zm.1 0c0 .2.2.3.3.3.2 0 .3-.2.3-.3s0-.3-.2-.3-.4.1-.4.3z"/><path fill="#3D3B3B" d="M93.4 9.8c0 .2.2.4.4.4s.4-.2.4-.4-.2-.4-.5-.4-.3.2-.3.4z"/><path fill="#282828" d="M93.3 9.8c0-.2.2-.4.4-.4s.4.2.4.4-.2.4-.4.4-.4-.1-.4-.4zm.1 0c0 .2.2.3.3.3.2 0 .3-.2.3-.3s-.2-.3-.3-.3c-.1 0-.3.1-.3.3z"/><path fill="#3D3B3B" d="M89.3 9.9c0 .2.2.4.4.4s.4-.2.4-.4-.2-.4-.4-.4-.4.2-.4.4z"/><path fill="#282828" d="M89.3 9.9c0-.2.2-.4.4-.4s.4.2.4.4-.2.4-.4.4-.4-.1-.4-.4zm.1 0c0 .2.2.3.3.3.2 0 .3-.2.3-.3s-.2-.3-.3-.3c-.2 0-.3.1-.3.3z"/><path fill="#3D3B3B" d="M97.4 16.3c0 .2.2.4.4.4s.4-.2.4-.4-.2-.3-.4-.3-.4.1-.4.3z"/><path fill="#282828" d="M97.3 16.3c0-.2.2-.4.4-.4s.4.2.4.4-.2.4-.4.4-.4-.1-.4-.4zm.1 0c0 .2.2.3.3.3.2 0 .3-.2.3-.3s0-.3-.2-.3-.4.2-.4.3z"/><path fill="#3D3B3B" d="M93.4 16.4c0 .2.2.4.4.4s.4-.2.4-.4-.2-.4-.5-.4-.3.2-.3.4z"/><path fill="#282828" d="M93.3 16.4c0-.2.2-.4.4-.4s.4.2.4.4-.2.4-.4.4-.4-.1-.4-.4zm.1 0c0 .2.2.3.3.3.2 0 .3-.2.3-.3s-.2-.3-.3-.3c-.1 0-.3.2-.3.3z"/><path fill="#3D3B3B" d="M89.3 16.5c0 .2.2.4.4.4s.4-.2.4-.4-.2-.4-.4-.4-.4.2-.4.4z"/><path fill="#282828" d="M89.3 16.5c0-.2.2-.4.4-.4s.4.2.4.4-.2.5-.4.5-.4-.2-.4-.5zm.1 0c0 .2.2.3.3.3.2 0 .3-.2.3-.3s-.2-.3-.3-.3c-.2 0-.3.2-.3.3z"/><path fill="#3D3B3B" d="M97.4 23c0 .2.2.4.4.4s.4-.2.4-.4-.2-.4-.4-.4-.4.1-.4.4z"/><path fill="#282828" d="M97.3 23c0-.2.2-.4.4-.4s.4.2.4.4-.2.4-.4.4-.4-.2-.4-.4zm.1 0c0 .2.2.3.3.3.2 0 .3-.2.3-.3s-.2-.3-.3-.3c-.1-.1-.3.1-.3.3z"/><path fill="#3D3B3B" d="M93.4 23.1c0 .2.2.4.4.4s.4-.2.4-.4-.2-.4-.4-.4-.4.1-.4.4z"/><path fill="#282828" d="M93.3 23.1c0-.2.2-.4.4-.4s.4.2.4.4-.2.4-.4.4-.4-.2-.4-.4zm.1 0c0 .2.2.3.3.3.2 0 .3-.2.3-.3s-.2-.3-.3-.3c-.1-.1-.3.1-.3.3z"/><circle fill="#3D3B3B" cx="97.8" cy="29.6" r=".4"/><path fill="#282828" d="M97.3 29.6c0-.2.2-.4.4-.4s.4.2.4.4-.2.4-.4.4-.4-.1-.4-.4zm.1 0c0 .2.2.3.3.3.2 0 .3-.2.3-.3s-.2-.3-.3-.3c-.1 0-.3.1-.3.3z"/><path fill="#191517" d="M50 78.9h-3.5c-1.1 0-2.2-.1-3.3-.3C32 76.4 21 72.9 20.7 55.9l-1-13.8c-.6-16.9 2.3-18.5 8-19.4.5-.1 10-2.1 19.4-2.1H53c9.4 0 18.9 2 19.4 2.1 5.6.8 8.6 2.4 8 19.4l-1 13.8C79 72.9 68 76.4 56.8 78.6c-1 .2-2.2.3-3.3.3H50M29.5 24c-5.8 1.1-9.3-.5-8.7 18l1 13.9c.3 15.3 9.2 19.2 21.7 21.6 1 .2 2 .3 3.1.3h6.9c1 0 2.1-.1 3.1-.3 12.5-2.4 21.4-6.3 21.7-21.6l1-13.9c.6-18.5-2.9-16.9-8.7-18 0 0-9.8-1.1-20.5-1.4-10.2 0-20.6 1.4-20.6 1.4z"/><path fill="#201B1D" d="M50.1 81.6c-15.4 0-26.6-4.3-36.9-8.7v-.8c10.2 4.4 21.6 8.7 36.9 8.7 15.3 0 26.7-4.4 36.9-8.7v.9c-10.3 4.4-21.5 8.6-36.9 8.6z"/><path fill="#232323" d="M13.1 73c10.3 4.4 21.5 8.7 36.9 8.7 15.4 0 26.6-4.3 36.9-8.7v9.6c-.4 2.6-1 5.6-3 5.6l-13.8.6L50 89l-20-.3-13.8-.6c-2 0-2.6-3-3-5.6V73z"/><path fill="#7CBA1C" d="M34.5 86.6H32.2v-.9l.1-.1h2.2l.1.1v.9z"/><path fill="#F98B38" d="M67.8 86.6H65.5v-.9l.1-.1h2.2l.1.1v.9z"/><path fill="#ABB0AB" d="M6.6 83.9c-.2 0-.3-.1-.3-.3v-1c0-.2.1-.3.3-.3h1.1V82H6.6c-.4 0-.7.3-.7.7v1c0 .4.3.7.7.7h1.1v-1.5h-.9v.1h.6v.9h-.8M2.1 84.2h1c.4 0 .8-.3.8-.8 0-.4-.3-.8-.8-.8h-.3 1v-.3h-1c-.2 0-.4.2-.4.4s.3.3.5.3h.3c.2 0 .4.2.4.4s-.2.4-.4.4h-1l-.1.4"/><path fill="#ABB0AB" d="M2.1 83.8h1c.2 0 .4-.2.4-.4s-.2-.4-.4-.4h-.3c-.2 0-.4-.2-.4-.4s.2-.4.4-.4h1v-.3h-1c-.4 0-.8.3-.8.8s.3.8.8.8h.3-1v.3M4.7 83.9c-.2 0-.3-.1-.3-.3v-1c0-.2.1-.3.3-.3h1.1V82H4.7c-.4 0-.7.3-.7.7v1c0 .4.3.7.7.7h1.1v-.3l-1.1-.2"/><path fill="#ABB0AB" d="M4.5 82.5c0-.1.1-.2.2-.2h1.1v.3h-1l-.1.1h.8v.3h-1v-.5M4.7 83.8c-.1 0-.2-.1-.2-.2v-.5h1.1v.3h-.8l.1.1h1v.3H4.7M6.4 83.6c0 .1.1.3.2.3h.7v-.7h-.5v.3H7v.1h-.2l-.1-.1v-.7l.1-.1h.9v-.3H6.6c-.1 0-.2.1-.2.2v1M8.7 82.3l.1-.1.1.1.5 1.5h-.7v-.4h.2l-.1-.3-.4 1.1h-.3l.6-1.9"/><path fill="#ABB0AB" d="M9.5 83.9h-.8v.3H10l-.7-2c-.1-.2-.3-.4-.5-.4s-.4.1-.5.3l-.7 2H8l.7-2 .2-.1.1.2.5 1.7M10.3 82.1h-.1v.4h-.1v-.4h-.2v-.2h.4zM10.9 82.5h-.1V82l-.1.5h-.1l-.1-.5v.5h-.1v-.6h.1l.1.4.1-.4h.2zM39.9 60.1l.1-.1.1-.2v-.1c0-.1-.1-.1-.2-.1h-.6c-.2 0-.4-.1-.5-.2-.1-.1-.2-.3-.2-.5s.1-.4.2-.5c.1-.1.2-.2.4-.2h.7c.1 0 .2 0 .4.1l.1.1v.2l-.1.2h-.2c-.1 0-.2-.1-.3-.1h-.7l-.1.2c0 .1 0 .2.1.2h.8c.2 0 .3.1.4.2.1.1.2.3.2.5s-.1.4-.2.5c-.1.1-.3.2-.4.2h-.7c-.1 0-.2 0-.4-.1l-.1-.1v-.2l.1-.2h.2c.2 0 .3.1.4.1s.3.1.5.1zM40.9 60.6c-.2 0-.3-.1-.3-.3v-1.8c0-.2.1-.3.3-.3H42l.1.1.1.2-.1.2H41v.4h.6l.1.1.1.2-.1.2-.1.1H41v.5h1l.1.1.1.2-.1.2-.1-.1h-1.1zM42.4 59.4c0-.4.1-.7.3-.9.2-.2.5-.3.8-.3.3 0 .5.1.7.2s.3.2.3.3c0 .1 0 .2-.2.2-.1 0-.2 0-.3-.1-.1-.1-.3-.1-.5-.1s-.4.1-.5.2-.2.3-.2.6c0 .2.1.4.2.5s.3.2.5.2.3 0 .5-.1c.1-.1.2-.1.2-.2s0-.1-.1-.1h-.4l-.1-.1-.1-.2.1-.2.1-.1h.7c.2 0 .3.1.3.3v.3c0 .1 0 .2-.1.3-.1.1-.2.2-.3.4-.1.1-.4.2-.7.2-.3 0-.6-.1-.8-.3-.3-.3-.4-.6-.4-1zM45.3 58.7c.1-.1.1-.3.2-.4s.2-.1.3-.1c.1 0 .2 0 .3.1s.2.2.2.4c.2.4.3.8.4 1.2.1.3.1.5.1.6l-.1.1h-.2c-.1 0-.1-.1-.1-.2s-.1-.2-.1-.4h-1.1c0 .1-.1.3-.1.4 0 .1-.1.2-.1.2h-.2l-.1-.1c0-.1 0-.3.1-.6.2-.4.3-.8.5-1.2zm.5 0c-.1 0-.2.3-.4.8h.8c-.1-.6-.2-.8-.4-.8zM48.8 60.1l.2-.1.1-.2v-.1c0-.1-.1-.1-.2-.1h-.5c-.2 0-.4-.1-.5-.2-.1-.1-.1-.3-.1-.5s.1-.4.2-.5.2-.2.4-.2h.7c.1 0 .2 0 .3.1l.1.1v.2l-.1.2h-.2c-.1 0-.2-.1-.3-.1h-.2-.4l-.3.2c0 .1 0 .2.1.2h.8c.2 0 .3.1.4.2s.2.3.2.5-.1.4-.2.5-.2.2-.4.2h-.7c-.1 0-.2 0-.3-.1l-.1-.1v-.2l.1-.2h.1c.2 0 .3.1.4.1s.2.1.4.1zM50.2 58.7c.1-.1.1-.3.2-.4.1-.1.2-.1.3-.1.1 0 .2 0 .3.1s.2.2.2.4c.2.4.3.8.4 1.2.1.3.1.5.1.6l-.1.1h-.1s-.1-.1-.1-.2-.1-.2-.1-.4h-1c0 .1-.1.3-.1.4 0 .1-.1.2-.1.2H50l-.1-.1c0-.1 0-.3.1-.6 0-.4.1-.8.2-1.2zm.5 0c-.1 0-.2.3-.4.8h.7c0-.6-.1-.8-.3-.8zM53.1 58.2l.1.1.1.2-.1.2h-.6v1.7l-.1.2h-.2l-.1-.2v-1.7h-.6l-.1-.2.1-.2.1-.1zM53.6 58.4l.1-.2.1-.1.1.1.1.2v1.3c0 .1.1.2.2.2.1.1.2.1.4.1s.3 0 .4-.1l.2-.2v-1.3l.1-.2.1-.1.1.1.1.2v1.4c0 .1 0 .2-.1.3 0 .1-.1.2-.2.3-.1.1-.3.2-.6.2s-.5-.1-.6-.2c-.1-.1-.2-.2-.2-.3 0-.1-.1-.2-.1-.3v-1.4zM56.5 59.6c0-.1 0-.2.1-.2h.2c.1 0 .2 0 .3-.1.1 0 .2-.1.2-.2l-.1-.2-.2-.1h-.7c-.1 0-.2.1-.2.2v1.3l-.1.2v.1l-.1-.1-.1-.2v-1.8c0-.2.1-.3.2-.3h.3c.1 0 .4 0 .6.1s.5.1.6.3.2.3.2.5-.1.4-.2.5-.2.2-.4.2l.5.4.1.2v.2l-.1.1h-.1l-.7-.7-.3-.4zM57.8 58.5l.1-.1.1-.1.2.1 1.1 1.4V58.4l.1-.1.2.1v2.1l-.2.1-.1-.1-1.1-1.4V60.5l-.2.1-.1-.1-.1-.1zM60.7 58.4h-.2v.6h-.2v-.6H60v-.2h.7zM61.5 59h-.1v-.7l-.2.7h-.1l-.2-.7v.7h-.1v-.8h.2l.2.6.1-.6h.2z"/><path fill="#303030" d="M50 82.8h7.2v1.5c0 1.1-.9 1.8-2 1.8l-5.2.3-5.2-.3c-1.1 0-2-.6-2-1.8v-1.5H50"/><path fill="#110D0E" d="M50.1 86.7l-5.2-.3c-1.4 0-2.3-.8-2.3-2v-1.8h14.9v1.8c0 1.2-.9 2-2.3 2l-5.1.3zm-7-3.7v1.3c0 1.1.9 1.5 1.8 1.5l5.2.3 5.1-.3c.9 0 1.8-.4 1.8-1.5V83H43.1z"/><path fill="#191718" d="M48.9 84.4c0 .4-.2.7-.6.7-.4 0-.6-.3-.6-.7 0-.3.2-.7.6-.7.4 0 .6.3.6.7zm-1 0c0 .3.1.5.4.5.3 0 .4-.2.4-.5s-.1-.5-.4-.5c-.3 0-.4.2-.4.5zM49.1 83.7h.5c.3 0 .5.1.5.4 0 .3-.2.4-.5.4h-.2v.6h-.2v-1.4zm.2.7h.2c.2 0 .3-.1.3-.2s-.1-.2-.3-.2h-.2v.4zM51.1 84.5h-.6v.4h.7v.2h-.9v-1.4h.8v.2h-.6v.4h.6zM51.4 85.1v-1.4h.3c.5.9.5 1 .5 1.1v-1.1h.2v1.4h-.3c-.5-1-.5-1.1-.6-1.1v1.2h-.1z"/><path fill="#191517" d="M22.6 85.7c.3.3.8.5 1.3.5 1.1 0 1.9-.9 1.9-1.9 0-.3-.1-.5-.2-.8.2-.2.4-.5.6-.8.9-1.3.6-2 .4-2.4-.2-.3-.6-.7-1.5-.7-1.1 0-2.5.5-3.9 1.4-2 1.4-3.7 3.4-2.8 4.7.2.3.6.7 1.5.7.8.1 1.8-.2 2.7-.7z"/><path fill="#110D0E" d="M20 86.6c-1 0-1.4-.4-1.6-.7-.9-1.4.8-3.5 2.9-4.9 1.4-.9 2.9-1.5 3.9-1.5s1.4.4 1.6.7c.2.4.5 1.2-.4 2.5-.2.2-.3.5-.6.7.1.2.1.5.1.7 0 1.1-.9 2.1-2.1 2.1-.5 0-.9-.2-1.3-.5-.8.6-1.8.9-2.5.9zm5.1-6.8c-1 0-2.5.5-3.8 1.4-2 1.3-3.6 3.3-2.8 4.5.2.3.6.6 1.4.6.7 0 1.7-.3 2.6-.7h.1l.1.1c.3.3.8.4 1.2.4 1 0 1.8-.8 1.8-1.8 0-.3-.1-.5-.2-.7v-.1l.1-.1c.2-.2.4-.5.6-.7.8-1.2.6-1.9.4-2.3-.2-.3-.6-.6-1.5-.6z"/><g fill="#ABB0AB"><path d="M30.3 84.1c0 .1-.1.1-.2.1h-.4v.5h-.3v-1.3h.7c.1 0 .2 0 .2.1v.6zM30 84v-.5h-.3v.5h.3zM31.9 84.5c0 .1-.1.1-.2.1h-.6c-.1 0-.2 0-.2-.1v-1c0-.1.1-.1.2-.1h.6c.1 0 .2 0 .2.1v1zm-.3 0v-.9h-.4v.9h.4zM33.9 83.4l-.3 1.3h-.3l-.2-.7v-.1.1l-.1.6h-.3l-.3-1.3h.3l.1.7v0l.2-.7h.2l.2.7v0l.1-.7h.4zM35.3 84.6h-.7v-1.3h.7v.2h-.5v.4h.4v.2h-.4v.4h.5v.1zM36.9 84.6h-.3l-.3-.6v-.1h.3v-.4h-.3v1.1H36v-1.3h.7c.1 0 .2 0 .2.1v.6c0 .1 0 .1-.1.1h-.2l.3.5z"/></g><g fill="#ABB0AB"><path d="M63.8 84.6h-.3l-.1-.2h-.3l-.1.2h-.3l.3-1.2h.3l.5 1.2zm-.4-.4l-.1-.6-.1.6h.2zM65.3 84.5c0 .1-.1.1-.2.1h-.6c-.1 0-.2 0-.2-.1v-1c0-.1.1-.1.2-.1h.6c.1 0 .2 0 .2.1v.3H65v-.2h-.3v.9h.3v-.3h.3v.3zM66.9 84.5c0 .1-.1.1-.2.1h-.6c-.1 0-.2 0-.2-.1v-1c0-.1.1-.1.2-.1h.6c.1 0 .2 0 .2.1v.3h-.3v-.2h-.3v.9h.3v-.3h.3v.3zM68.3 84.6h-.7v-1.3h.7v.2h-.5v.4h.4v.2h-.4v.4h.5v.1zM69.8 84.5c0 .1-.1.1-.2.1h-.5c-.1 0-.2 0-.2-.1v-.3h.3v.3h.3v-.2l-.5-.4-.1-.1v-.3c0-.1.1-.1.2-.1h.5c.1 0 .2 0 .2.1v.3h-.3v-.2h-.3v.2l.5.4.1.1v.2zM71.4 84.5c0 .1-.1.1-.2.1h-.5c-.1 0-.2 0-.2-.1v-.3h.3v.3h.3v-.2l-.5-.4-.1-.1v-.3c0-.1.1-.1.2-.1h.5c.1 0 .2 0 .2.1v.3h-.3v-.2h-.3v.2l.5.4.1.1v.2z"/></g><path fill="#191517" d="M77.6 85.7c.3.3.8.5 1.3.5 1.1 0 1.9-.9 1.9-1.9 0-.3-.1-.5-.2-.8.2-.2.4-.5.6-.8.9-1.3.6-2 .4-2.4-.2-.3-.6-.7-1.5-.7-1.1 0-2.5.5-3.9 1.4-2 1.3-3.7 3.4-2.8 4.7.2.3.6.7 1.5.7.8 0 1.8-.2 2.7-.7z"/><path fill="#110D0E" d="M75 86.6c-1 0-1.4-.4-1.6-.7-.9-1.4.8-3.5 2.9-4.9 1.4-.9 2.9-1.5 3.9-1.5s1.4.4 1.6.7c.2.4.5 1.2-.4 2.5-.2.2-.3.5-.6.7.1.2.1.5.1.7 0 1.1-.9 2.1-2.1 2.1-.5 0-.9-.2-1.3-.5-.8.6-1.8.9-2.5.9zm5.1-6.8c-1 0-2.5.5-3.8 1.4-2 1.3-3.6 3.3-2.8 4.5.2.3.6.6 1.4.6.7 0 1.7-.3 2.6-.7h.1l.1.1c.3.3.8.4 1.2.4 1 0 1.8-.8 1.8-1.8 0-.3-.1-.5-.2-.7v-.1l.1-.1c.2-.2.4-.5.6-.7.8-1.2.6-1.9.4-2.3-.2-.3-.6-.6-1.5-.6z"/><path fill="#303030" d="M23.5 84.5c-2 1.3-4.1 1.7-4.6.9-.5-.8.6-2.6 2.7-3.9 2-1.3 4.1-1.7 4.6-.9.5.9-.6 2.6-2.7 3.9z"/><path fill="#191718" d="M21 83.9l.1.2-.1.2-.2.2.2.3-.1.2-.7-.9.4-.3.2-.1.2.2zm-.1.1h-.2l-.2.1.2.3.2-.1V84zM22 83.5c.1.1.2.3.2.4 0 .1-.1.2-.2.3-.1.1-.2.1-.4.1-.1 0-.2-.1-.3-.2-.1-.1-.2-.3-.2-.4 0-.1 0-.3.2-.4.1-.1.2-.1.4-.1 0 .1.2.2.3.3zm-.2.1c-.1-.1-.1-.2-.2-.2h-.2l-.1.2c0 .1 0 .2.1.3l.2.2h.2l.1-.2-.1-.3zM22.6 82.3l.5 1-.2.1-.6-.6.4.8-.1.1-.9-.7.1-.1.7.5-.4-.7.1-.1.6.5-.4-.7zM23.9 82.6l-.5.5-.7-.9.5-.4.2.1-.4.3.1.2.4-.3.1.2-.4.3.2.2.4-.3zM24.7 82.1l-.2.1-.1-.1-.1-.1-.1-.1h-.1l-.1.2.3.3-.2.1-.7-.9.4-.3h.2l.2.1c.1.1.1.2.1.3h.2l.2.2v.2zm-.7-.5h-.2l-.2.2.2.2.2-.2v-.2z"/><path fill="#303030" d="M78.5 84.5c-2 1.3-4.1 1.7-4.6.9-.5-.8.6-2.6 2.7-3.9 2-1.3 4.1-1.7 4.6-.9.5.9-.6 2.6-2.7 3.9z"/><path fill="#191718" d="M76.9 84.2l-.2.1-.1-.1-.1-.1-.1-.1h-.1l-.2.1.3.3-.2.1-.7-.9.4-.3h.2l.2.1c.1.1.1.2.1.3h.2l.2.2.1.3zm-.6-.5h-.2l-.2.2.2.2.2-.2v-.2zM77.6 83.7l-.6.4-.7-.8.6-.5.1.2-.4.3.2.2.3-.3.1.1-.3.3.2.3.4-.4z"/><path fill="#191718" d="M78.1 82.9c.1.1.1.2.1.3 0 .1-.1.2-.2.3-.1.1-.2.1-.3.1-.1 0-.2-.1-.3-.1l.1-.1c.1.1.2.1.3 0l.1-.1v-.1h-.2l-.2.1h-.2l-.1-.3-.1-.3.2-.2c.1-.1.2-.1.3-.1l.2.1-.1.1-.1-.1-.1.1v.2h.2l.2-.1h.2v.2z"/><path fill="#191718" d="M79 82.6l-.6.5-.7-.9.6-.4.1.1-.4.3.1.2.4-.3.1.2-.3.3.1.2.4-.3z"/><path fill="#191718" d="M79 81.4l-.2.2.6.7-.2.1-.5-.7-.3.2-.1-.2.6-.5z"/><path fill="#232323" d="M50.1 4.5H32.3v1.3h-4.7v4.5c0 .6.5 1.2 1.2 1.2h42.5c.6 0 1.2-.5 1.2-1.2V5.8h-4.7V4.5H50.1"/><path fill="#191517" d="M71.4 11.7H28.7c-.8 0-1.4-.6-1.4-1.4V5.5H32V4.3h36.1v1.3h4.7v4.8c0 .7-.6 1.3-1.4 1.3zM27.8 6v4.3c0 .5.4.9.9.9h42.7c.5 0 .9-.4.9-.9V6h-4.7V4.8H32.5V6h-4.7z"/><path fill="#2D2D2D" d="M32.5 4.8h35.1v6.4H32.5z"/><path fill="#282627" d="M62.6 9.5H37.5c-.9 0-1.6-.7-1.6-1.6s.7-1.6 1.6-1.6h25.1c.9 0 1.6.7 1.6 1.6s-.7 1.6-1.6 1.6z"/><path fill="#191718" d="M43 8.1c0 .2-.1.3-.2.4-.1.1-.2.1-.4.1s-.3-.1-.4-.2c-.1-.1-.2-.3-.2-.5s.1-.4.2-.5c.1-.1.3-.2.4-.2.2 0 .3 0 .4.1.1.1.2.2.2.3h-.3l-.1-.2-.2-.1c-.1 0-.2 0-.3.1-.1.1-.1.2-.1.3 0 .1 0 .3.1.3.1.1.1.1.2.1l.2-.1.1-.2h.4zM44.3 8.5H44l-.1-.3h-.5l-.1.3H43l.5-1.3h.3l.5 1.3zm-.4-.5l-.2-.5-.2.5h.4zM45.5 8.5h-.3v-.4l-.1-.1h-.3v.5h-.3V7.2h.7l.2.1c.1.1.1.2.1.3 0 .1-.1.2-.2.3.1 0 .2.1.2.1v.5zm-.2-.9c0-.1-.1-.2-.2-.2h-.4v.3h.4l.1-.1h.1zM46.7 7.4h-.4v1.1H46V7.4h-.3v-.2h1zM47.9 8.5h-.3v-.4l-.1-.1h-.3v.5h-.3V7.2h.7l.2.1c.1.1.1.2.1.3 0 .1-.1.2-.2.3.1 0 .2.1.2.1v.5zm-.2-.9c0-.1-.1-.2-.2-.2h-.4v.3h.4l.1-.1h.1zM48.1 7.2h.3v1.3h-.3zM49.8 7.8c0 .2 0 .4-.1.5-.1.1-.2.2-.3.2h-.6V7.2h.6c.1 0 .2 0 .3.1 0 .2.1.3.1.5zm-.3 0c0-.1 0-.2-.1-.3l-.2-.1h-.3v.9h.2l.2-.1c.2-.1.2-.2.2-.4zM51.1 8.5h-.2v-.2c-.1.1-.2.2-.4.2s-.3-.1-.4-.2c-.1-.1-.2-.3-.2-.5s.1-.4.2-.5c.1-.1.3-.2.5-.2s.3 0 .4.1c.1.1.2.2.2.3H51c0-.1-.2-.2-.3-.2-.1 0-.2 0-.3.1-.1.1-.1.2-.1.3 0 .1 0 .3.1.3.1.1.2.1.3.1l.2-.1h-.3v-.2h.5v.7zM52.3 8.5h-.9V7.2h.9v.2h-.7v.3h.7v.2h-.7v.4h.7zM53 7.2h.3v1.3H53zM54.6 8.5h-.2l-.6-.9v.9h-.2V7.2h.2l.5.9v-.9h.3zM55.9 7.6c0 .1 0 .2-.1.3-.1.1-.2.1-.3.1h-.4v.5h-.3V7.2h.6c.1 0 .2 0 .3.1.1.1.2.2.2.3zm-.3 0v-.1h-.4v.4h.3l.1-.1v-.2zM57.1 8.1c0 .1 0 .2-.1.3-.1.1-.2.1-.4.1-.1 0-.3 0-.4-.1-.1-.1-.1-.2-.1-.3v-.9h.3v.9l.1.1.2.1c.2 0 .3-.1.3-.2v-.9h.3v.9zM58.3 7.4h-.4v1.1h-.2V7.4h-.4v-.2h1z"/><path fill="#191919" d="M50.1 15.2c8.9 0 17.2.7 23.4 2 .2 0 .4 0 .5-.2.8-1.6 1.1-3.5 1.5-5.6.7-5.2 2.3-9.5 3.5-11.4-1.2 1.9-2.3 6.3-3.1 11.5-.3 2.2-.7 4.3-1.6 6-.1.2-.4.4-.6.4h-.2c-6.2-1.4-14.6-2.1-23.5-2.1-9 0-17.3.8-23.5 2.1h-.1c-.3 0-.5-.1-.6-.4-.8-1.7-1.2-3.8-1.6-6-.8-5.2-1.9-9.6-3.1-11.5 1.2 1.9 2.8 6.2 3.6 11.4.3 2.1.7 4 1.5 5.6.1.2.3.3.5.2 6.2-1.3 14.4-2 23.4-2z"/><ellipse fill="#232323" cx="50.1" cy="47.6" rx="25.9" ry="3.2"/><path fill="#1C1C1C" d="M48.3 50.9c.8-.5 7.9-6.4 15.5-6 7.3.6 12.1 1.6 12.1 2.7 0 1.8-11.6 3.2-25.9 3.2-.6.1-1.2.1-1.7.1z"/><path fill="#191718" d="M47.4 74.4c-.7.8-1.4 1.3-1.6 1.1-.2-.2.2-.9.9-1.7.7-.8 1.4-1.3 1.6-1.1.2.1-.2.9-.9 1.7zM50.4 74.4c-.7.8-1.4 1.3-1.6 1.1-.2-.2.2-.9.9-1.7.7-.8 1.4-1.3 1.6-1.1.2.1-.2.9-.9 1.7zM53.4 74.4c-.7.8-1.4 1.3-1.6 1.1-.2-.2.2-.9.9-1.7.7-.8 1.4-1.3 1.6-1.1.2.1-.2.9-.9 1.7z"/></svg>