<svg xmlns="http://www.w3.org/2000/svg" viewBox="0 0 200 200"><path fill="#6975AF" d="M100 200C44.8 200 0 155.2 0 100S44.8 0 100 0s100 44.8 100 100-44.8 100-100 100zm14.7-100c0-8.1-6.6-14.7-14.7-14.7S85.3 92 85.3 100c0 8.1 6.5 14.7 14.7 14.7s14.7-6.6 14.7-14.7z"/><path fill="#D6D7D8" d="M100 73.7c-14.5 0-26.3 11.7-26.3 26.3 0 14.6 11.7 26.3 26.3 26.3s26.3-11.7 26.3-26.3c0-14.6-11.8-26.3-26.3-26.3zm0 41c-8.1 0-14.7-6.5-14.7-14.7s6.5-14.7 14.7-14.7 14.7 6.6 14.7 14.7c0 8.2-6.6 14.7-14.7 14.7z"/><path fill="#3B3A3C" d="M100 73.7v-1.1c-7.6 0-14.4 3.1-19.4 8-5 5-8.1 11.8-8.1 19.4 0 7.6 3.1 14.5 8 19.4 5 5 11.8 8 19.4 8 7.6 0 14.5-3.1 19.4-8 5-5 8-11.8 8-19.4 0-7.6-3.1-14.5-8.1-19.4-5-5-11.8-8-19.4-8v2.2C113.7 74.8 125 86 125 100s-11.2 25.1-25.2 25.2c-14 0-25.1-11.2-25.2-25.2 0-14 11.3-25.1 25.2-25.2v-1.1zm0 41v-1.1c-7.5 0-13.5-6-13.6-13.6 0-3.8 1.5-7.2 3.9-9.6 2.4-2.4 5.8-3.9 9.6-3.9 7.6 0 13.5 6.1 13.6 13.6 0 7.6-6.1 13.5-13.6 13.6v2.1c4.4 0 8.3-1.8 11.2-4.6 2.9-2.9 4.7-6.8 4.7-11.2 0-4.4-1.8-8.3-4.6-11.2-2.9-2.9-6.8-4.7-11.2-4.7-4.4 0-8.4 1.8-11.2 4.6-2.9 2.9-4.6 6.8-4.6 11.2 0 4.4 1.8 8.4 4.7 11.2 2.9 2.9 6.8 4.6 11.2 4.6v-1z"/><path fill="#BBBDBF" d="M100 69.8c-16.7 0-30.2 13.6-30.2 30.2s13.5 30.2 30.2 30.2 30.2-13.6 30.2-30.2-13.5-30.2-30.2-30.2zm0 58.2c-15.5 0-28-12.6-28-28s12.6-28 28-28 28 12.6 28 28-12.5 28-28 28z"/><path fill="#D6D7D8" d="M100 1.6C45.7 1.6 1.6 45.7 1.6 100c0 54.3 44.1 98.4 98.4 98.4 54.3 0 98.4-44.1 98.4-98.4 0-54.3-44.1-98.4-98.4-98.4zm74.7 155.6c-17.2 22.4-44.2 36.9-74.7 36.9s-57.4-14.4-74.7-36.9C13.1 141.4 5.9 121.5 5.9 100 5.9 48 48 5.9 100 5.9c52 0 94.1 42.1 94.1 94.1 0 21.5-7.2 41.4-19.4 57.2z"/><path fill="#5F6690" d="M87.8 72.4V6.7c1.6-.2 3.3-.4 4.9-.5v64.5c-1.7.4-3.3 1-4.9 1.7zM107.3 70.7V6.2c1.7.1 3.4.3 5.1.5v65.7c-1.6-.7-3.4-1.3-5.1-1.7zM29.2 38v124c1.6 1.9 3.3 3.6 5.1 5.4V32.6c-1.8 1.7-3.5 3.5-5.1 5.4M48.8 179c1.6 1.1 3.3 2.1 4.9 3V18c-1.7.9-3.3 1.9-4.9 3v158zM68.2 188.6c1.7.6 3.4 1.2 5.1 1.7v-76.1c-2.2-4.2-3.5-9-3.5-14.1s1.3-9.9 3.5-14.1V9.9c-1.7.5-3.4 1.1-5.1 1.7v177zM87.8 193.3v-65.7c1.6.7 3.2 1.3 4.9 1.7v64.5c-1.6-.1-3.2-.3-4.9-.5zM107.3 193.8v-64.5c1.7-.4 3.5-1 5.1-1.8v65.7c-1.7.3-3.4.5-5.1.6zM126.8 190.2c1.7-.5 3.3-1 4.9-1.6V11.4c-1.6-.6-3.3-1.1-4.9-1.6v76.4c2.1 4.1 3.4 8.9 3.4 13.8s-1.2 9.7-3.4 13.8v76.4zM146.3 181.9V18c1.7 1 3.4 2 5.1 3.1v157.7c-1.7 1.1-3.4 2.2-5.1 3.1zM170.8 38v124c-1.6 1.8-3.2 3.5-4.9 5.2V32.8c1.7 1.6 3.3 3.4 4.9 5.2z"/><path fill="#525252" d="M53.7 26.7h14.5V40H53.7zM53.7 53.3h14.5v13.3H53.7zM53.7 80h14.5v13.3H53.7zM53.7 106.7h14.5V120H53.7zM53.7 133.3h14.5v13.1H53.7zM53.7 160h14.5v13.3H53.7zM73.3 173.3h14.5v13.3H73.3zM112.3 173.3h14.5v13.3h-14.5zM131.8 160h14.5v13.3h-14.5zM112.3 146.7h14.5V160h-14.5zM73.3 146.7h14.5V160H73.3zM34.3 146.7h14.5V160H34.3zM34.3 120h14.5v13.3H34.3zM34.3 93.3h14.5v13.3H34.3zM34.3 66.7h14.5V80H34.3zM34.3 40h14.5v13.3H34.3zM92.7 133.3h14.5v13.3H92.7zM131.8 133.3h14.5v13.3h-14.5zM131.8 106.7h14.5V120h-14.5zM131.8 80h14.5v13.3h-14.5zM131.8 53.3h14.5v13.3h-14.5zM151.4 66.7h14.5V80h-14.5zM151.4 93.3h14.5v13.3h-14.5zM151.4 120h14.5v13.3h-14.5zM151.4 146.5h14.5V160h-14.5zM14.7 106.7h14.5V120H14.7zM14.7 80h14.5v13.3H14.7zM92.7 26.7h14.5V40H92.7zM131.8 26.7h14.5V40h-14.5zM92.7 53.3h14.5v13.3H92.7zM112.3 40h14.5v13.3h-14.5zM151.4 40h14.5v13.3h-14.5zM112.3 13.3h14.5v13.3h-14.5zM73.3 13.3h14.5v13.3H73.3zM170.8 80h14.5v13.3h-14.5zM170.8 106.7h14.5V120h-14.5zM112.3 72.4c3.9 1.8 7.4 4.4 10.3 7.6h4.2V66.7h-14.5v5.7zM122.6 120c-2.8 3.2-6.4 5.8-10.3 7.6v5.8h14.6V120h-4.3zM87.8 127.6c-4-1.8-7.6-4.4-10.4-7.6h-4.1v13.3h14.5v-5.7zM77.4 80c2.9-3.2 6.4-5.9 10.4-7.6v-5.7H73.3V80h4.1zM131.8 188.6c1.7-.6 3.3-1.2 4.9-1.9h-4.9v1.9zM151.4 178.8c2.6-1.7 5.1-3.5 7.6-5.5h-7.6v5.5zM170.8 162c.6-.6 1.1-1.3 1.7-2h-1.7v2zM181.8 146.5c1.2-2.2 2.4-4.4 3.4-6.6v-6.5h-14.5v13.1h11.1zM185.3 60.2c-1.1-2.3-2.3-4.6-3.5-6.8h-11v13.3h14.5v-6.5zM172.5 40c-.6-.7-1.1-1.4-1.7-2v2h1.7zM159 26.7c-2.4-2-5-3.8-7.6-5.5v5.5h7.6M136.7 13.3c-1.6-.7-3.3-1.3-5-1.9v1.9h5zM107.3 6.2c-2.4-.2-4.8-.3-7.3-.3s-4.9.1-7.3.3v7.2h14.5V6.2zM68.2 11.4c-1.7.6-3.3 1.3-5 1.9h5v-1.9zM48.8 21c-2.7 1.8-5.3 3.6-7.8 5.7h7.8V21zM29.2 38c-.6.7-1.2 1.3-1.7 2h1.7v-2zM18.3 53.3c-1.3 2.2-2.4 4.5-3.5 6.8v6.5h14.5V53.3h-11zM14.7 139.9c1.1 2.2 2.2 4.4 3.4 6.6h11.1v-13.1H14.7v6.5M27.5 160c.5.7 1.1 1.3 1.7 2v-2h-1.7zM41.1 173.3c2.5 2 5.1 3.9 7.7 5.6v-5.6h-7.7zM63.3 186.7c1.6.7 3.3 1.3 5 1.9v-1.9h-5zM92.7 193.8a89.08 89.08 0 0 0 14.6 0v-7.1H92.7v7.1zM73.3 40h14.5v13.3H73.3z"/><radialGradient id="a" cx="9.387" cy="200" r="1" gradientTransform="matrix(23.3304 0 0 -23.3304 -172.94 4811.806)" gradientUnits="userSpaceOnUse"><stop offset="0" stop-color="#fff"/><stop offset="1" stop-color="#1d1d1b"/></radialGradient><path fill="url(#a)" d="M44.7 151.7c.4-.3 1.1-.7 1.8-1.1.7-.4 1.5-.7 2.4-1.1.9-.3 1.8-.6 2.8-.9 1-.3 2-.5 3-.7 1-.2 1.9-.3 2.8-.4.9-.1 2 0 2.3 0 .3 0 .6 0 .8-.2.2-.1.3-.3.3-.5s0-.4-.2-.6c-.1-.2-.5-.3-.7-.3-.8-.1-1.6-.1-2.6 0s-2 .2-3 .4-2.1.4-3.1.7c-1 .3-2 .6-2.9 1-1 .4-2 .8-2.6 1.1-.6.3-1.4.7-2 1.3-.6.5-.9.8-1.4 1.5-.4.7-.5 1.4-.3 1.9.7 1.2 3.1.8 4.1.6.7-.2 1.7-.4 2.8-.7.8-.2 1.8-.6 3.1-1l3.1-1c1.1-.4 2-.7 2.7-.9.9-.3 2.4-.6 3.2-.5 0 .5-.7 1.8-3.4 3-1 .5-2.2.9-3.4 1.3-1 .3-2 .6-3 .8-1 .2-1.9.4-2.8.5-1.4.2-3.4 0-3.8.1-.8.1-1 .5-1 .8 0 .2 0 .7 1 .8 1 .1 2 .2 4-.1 1.2-.2 1.9-.3 2.9-.6 1.1-.3 2.1-.5 3.1-.9 1.3-.4 2.5-.9 3.6-1.4 2.4-1.1 3.3-2.1 3.8-2.9.6-.8.8-2 .2-2.6-.7-.6-1.9-.5-2.4-.5-.6.1-1.6.2-2.5.5-.7.2-1.7.5-2.8.9l-3.1 1c-1.2.4-2.2.7-3 1-1 .3-1.9.5-2.6.7-1.6.4-2.2.2-2.2.2.1-.2.6-.8 1-1.2z"/><path fill="#333" d="M46.4 158c-.5 0-1 0-1.5-.1h-.2c-1.1-.1-1.1-.7-1.1-.9 0-.3.2-.8 1.1-.8H46.8c.7 0 1.3 0 1.7-.1 1-.2 1.9-.3 2.7-.5 1.1-.3 2.1-.5 3-.8 1.3-.4 2.4-.9 3.4-1.3 2.4-1.1 3.2-2.3 3.3-2.9h-.3c-.8 0-1.9.3-2.7.5-.7.2-1.6.5-2.7.9l-3.1 1c-1.1.4-2.1.7-3.1 1-.9.3-1.8.5-2.8.7-.7.1-1.4.2-1.9.2-1.1 0-1.9-.3-2.2-.9-.3-.5-.2-1.3.3-2 .4-.7.7-.9 1.4-1.5.5-.4 1.2-.9 2-1.3.6-.3 1.6-.8 2.6-1.2 1-.4 2-.7 2.9-1 1.1-.3 2.1-.5 3.1-.7 1.1-.2 2.1-.3 3-.4h1.3c.5 0 .9 0 1.4.1.2 0 .6.1.7.3.2.2.2.4.2.6 0 .2-.1.4-.3.6-.2.2-.6.2-.9.2h-2.2c-.9.1-1.9.2-2.8.4-.9.2-1.9.4-2.9.7-.9.3-1.9.6-2.8.9-1 .4-1.7.7-2.4 1.1-.8.4-1.5.9-1.8 1.1-.4.3-.9.9-.9 1.3h.4c.4 0 1-.1 1.6-.2.7-.1 1.5-.3 2.6-.7.8-.2 1.8-.6 3-1l3.1-1c1-.3 2-.6 2.8-.9 1.1-.3 2.1-.4 2.5-.5h.7c.8 0 1.4.2 1.8.5.6.6.4 1.8-.2 2.7-.6.9-1.5 1.9-3.9 2.9-1.1.5-2.3 1-3.6 1.4-1 .3-2 .6-3.1.9-1.1.2-1.7.4-2.9.6-1 0-1.7.1-2.4.1zm-1.5-1.7h-.2c-.7 0-.9.5-.9.7 0 .2 0 .6.9.7h.2c.4 0 .9.1 1.5.1.7 0 1.4 0 2.3-.2 1.2-.2 1.9-.3 2.9-.6 1.1-.3 2.1-.6 3.1-.9 1.3-.4 2.5-.9 3.6-1.4 2.4-1.1 3.2-2 3.8-2.9.5-.8.7-1.9.2-2.4-.3-.3-.9-.5-1.7-.5H60c-.4 0-1.4.2-2.5.5-.8.2-1.8.5-2.8.9l-3.1 1c-1.2.4-2.2.7-3 1-1.2.3-2 .6-2.6.7-.7.2-1.2.2-1.7.2-.4 0-.5-.1-.6-.1l-.1-.1c0-.6.6-1.2 1-1.5.3-.2 1-.7 1.8-1.1.7-.3 1.4-.7 2.4-1.1.9-.3 1.8-.6 2.8-.9 1-.3 2-.5 3-.7 1-.2 1.9-.3 2.9-.4H59.8c.3 0 .5-.1.7-.2.1-.1.2-.3.2-.5s0-.4-.1-.5c-.1-.1-.4-.2-.6-.3-.8-.1-1.5-.1-2.6 0-1 .1-1.9.2-3 .4-.9.2-2 .4-3.1.7-1 .3-2 .6-2.9 1-1 .4-2 .9-2.6 1.1-.8.4-1.5.8-2 1.3-.6.5-.9.8-1.3 1.4-.4.6-.5 1.4-.3 1.8.3.5 1 .8 2.1.8.6 0 1.2-.1 1.9-.2.9-.2 1.8-.4 2.8-.7 1-.3 2-.6 3.1-1l3.1-1c1.1-.4 2-.7 2.8-.9.4-.1 1.8-.5 2.8-.5h.4l.1.1c0 .2-.2 1.7-3.4 3.1-1 .4-2.1.9-3.4 1.3-.9.3-1.9.6-3 .8-.9.2-1.8.4-2.8.5-.5.1-1 .1-1.7.1h-1.2c-.5.4-.7.4-.9.4z"/><radialGradient id="b" cx="9.387" cy="200" r="1" gradientTransform="translate(-2.326 -1041.802) scale(5.9544)" gradientUnits="userSpaceOnUse"><stop offset="0" stop-color="#fff"/><stop offset=".04" stop-color="#fff"/><stop offset=".04" stop-color="#fff"/><stop offset=".23" stop-color="#ababab"/><stop offset="1" stop-color="#646363"/></radialGradient><path fill="url(#b)" d="M52.5 145.3c3.6 0 6.6 2.9 6.6 6.6 0 3.6-2.9 6.6-6.6 6.6-3.6 0-6.6-2.9-6.6-6.6 0-3.6 3-6.6 6.6-6.6z"/><radialGradient id="c" cx="9.387" cy="200" r="1" gradientTransform="translate(-448.6 -10148.423) scale(51.5852)" gradientUnits="userSpaceOnUse"><stop offset="0" stop-color="#fff"/><stop offset="1" stop-color="#1d1d1b"/></radialGradient><path fill="url(#c)" d="M46.3 154.5c.7-.2 1.7-.4 2.8-.7.8-.2 3.1-1 3.1-1l3.1-1c1.1-.4 2-.7 2.7-.9 0 0 1.1-.3 1.2-.3-.1-.7-.4-1.5-.4-1.5l-1.2.3c-.7.2-1.7.5-2.8.9l-3.1 1c-1.2.4-2.2.7-3 1-1.6.5-2.7.7-2.8.7-.1 0 .1 1 .4 1.5z"/><path fill="#333" d="M44.3 153.3c-.4 0-.6-.1-.6-.1l-.1-.1h.1s.5.2 2.1-.2c.7-.1 1.5-.3 2.6-.7.8-.2 1.8-.6 3-1l3.1-1c1-.3 2-.6 2.8-.9 1.1-.3 2.1-.4 2.5-.5l.1.1-.1.1c-.4 0-1.4.2-2.5.5-.8.2-1.8.5-2.8.9l-3.1 1c-1.2.4-2.2.7-3 1-1.2.3-2 .6-2.6.7-.6.1-1.1.2-1.5.2z"/><path fill="#333" d="M44.4 154.8c-.9 0-1.9-.2-2.2-.9v-.1h.1c.6 1 2.7.8 4 .6.9-.2 1.8-.4 2.8-.7.8-.2 3-1 3.1-1l3.1-1c1.1-.4 2-.7 2.8-.9l1.2-.3c.8-.2 1.4-.2 1.8-.2l.1.1-.1.1c-.3 0-.8 0-1.7.2l-1.2.3c-.7.2-1.6.5-2.7.8l-3.1 1s-2.3.7-3.1 1c-.9.3-1.8.5-2.8.7-.7.2-1.4.3-2.1.3z"/><linearGradient id="d" gradientUnits="userSpaceOnUse" x1="9.387" y1="200" x2="10.387" y2="200" gradientTransform="scale(12.0971 -12.0971) rotate(45 264.482 88.811)"><stop offset="0" stop-color="#b2b2b2"/><stop offset=".98" stop-color="#f6f6f6"/><stop offset="1" stop-color="#f6f6f6"/></linearGradient><path fill="url(#d)" d="M74.6 148.7c-.1-.2-.3-.3-.5-.4-3.7-1-6.1-.9-7.1.5-.4.4-.6.9-.7 1.3-.1.4 0 .9.2 1.3.1.3.4.6.7.8.2.2.5.4.8.5.2.1.7.2 1.4.2h1.8c.7 0 1.4.1 1.6.1.2.1.6.5.6.6 0 .2 0 0 0 0 0 .1.1.1 0 .4 0 .3-.1.2-.2.4-.1.1-.3.2-.6.3-.4.1-.9.2-1.5.2s-1.1 0-1.7-.1c-.6-.1-1-.2-1.4-.3-.2-.1-.4-.1-.6.1-.2.1-.3.3-.4.5-.1.2 0 .4.1.6.1.2.3.3.5.4.5.2 1.1.3 1.7.3.7.1 1.3.1 2 .1s1.3-.1 1.8-.2c.7-.2 1.2-.4 1.4-.8.2-.3.4-.5.5-.7.1-.3.2-.5.2-.8 0-.2 0-.5-.1-.8 0-.1-.1-.2-.3-.7-.2-.5-.7-.8-1.6-1-.4-.1-1.1-.1-1.9-.2H69.6c-.4 0-.7 0-.8-.1-.1-.1-.3-.1-.4-.2l-.3-.3c-.1-.1-.1-.2 0-.3 0-.2.1-.4.3-.5.8-.8 2.6-.8 5.4 0 .2.1.4 0 .6-.1.2-.1.3-.3.4-.5-.1-.2-.1-.4-.2-.6z"/><linearGradient id="e" gradientUnits="userSpaceOnUse" x1="9.387" y1="200" x2="10.387" y2="200" gradientTransform="scale(11.7778 -11.7778) rotate(45 265.288 89.776)"><stop offset="0" stop-color="#b2b2b2"/><stop offset=".98" stop-color="#f6f6f6"/><stop offset="1" stop-color="#f6f6f6"/></linearGradient><path fill="url(#e)" d="M82.6 148c-.2-.1-.4-.2-.6-.2h-5.4c-.2 0-.4.1-.6.2-.2.2-.2.3-.2.6v6.7c0 .2.1.4.2.6.1.2.4.2.6.2H82c.2 0 .4-.1.6-.2.1-.1.2-.3.2-.6 0-.2-.1-.4-.2-.6-.2-.1-.4-.2-.6-.2h-4.6v-1.7h3.4c.2 0 .4-.1.6-.2.1-.1.2-.3.2-.6 0-.2-.1-.4-.2-.6-.2-.1-.4-.2-.6-.2h-3.4v-1.7H82c.2 0 .4-.1.6-.2.1-.1.2-.3.2-.6s-.1-.5-.2-.7z"/><linearGradient id="f" gradientUnits="userSpaceOnUse" x1="9.387" y1="200" x2="10.387" y2="200" gradientTransform="scale(12.9635 -12.9635) rotate(45 263.924 90.38)"><stop offset="0" stop-color="#b2b2b2"/><stop offset=".98" stop-color="#f6f6f6"/><stop offset="1" stop-color="#f6f6f6"/></linearGradient><path fill="url(#f)" d="M91.9 149c0-.2-.2-.4-.3-.6-1.5-1.1-3.1-1.3-4.7-1-.6.1-.8.1-1.5.5-.7.3-1.1 1-1.1 1-.3.4-.5.8-.7 1.3-.2.6-.2.8-.2 1.5s.1 1.3.3 2c.2.6.5 1.2.9 1.6.4.5.9.8 1.5 1.1.6.2 1.2.4 1.9.4 1.6 0 2.8-.4 3.5-1.1.8-.7 1.2-1.9 1.1-3.4 0-.2-.1-.4-.3-.6-.2-.1-.3-.2-.6-.2h-3.5c-.2 0-.4.1-.6.2-.2.2-.2.4-.2.6 0 .2.1.5.2.6.2.2.4.3.6.3h2.7c-.1.4-.2.8-.5 1.1-.5.5-1.3.7-2.5.7-.5 0-.9-.1-1.3-.2s-.6-.4-.9-.6c-.3-.3-.4-.6-.6-1-.1-.4-.2-.8-.2-1.3s.1-.8.2-1.1c.1-.2.2-.5.3-.6 0 0 .2-.4.6-.6.4-.2.7-.3 1.2-.4 1.2-.3 2.3 0 3.4.8.2.1.4.2.6.1.2-.1.4-.2.5-.4.2-.3.2-.5.2-.7z"/><linearGradient id="g" gradientUnits="userSpaceOnUse" x1="9.387" y1="200" x2="10.387" y2="200" gradientTransform="scale(12.6915 -12.6915) rotate(45 264.756 91.406)"><stop offset="0" stop-color="#b2b2b2"/><stop offset=".98" stop-color="#f6f6f6"/><stop offset="1" stop-color="#f6f6f6"/></linearGradient><path fill="url(#g)" d="M102.1 156.1c.1-.2.2-.4.2-.6-.9-5.6-2.4-8.3-4.6-8.2-2.2-.1-3.8 2.5-4.6 7.9 0 .2 0 .4.1.6.1.2.3.3.5.3s.4 0 .6-.1c.2-.1.3-.3.3-.5.1-.7.2-1.3.3-1.9h5.2c.1.6.3 1.4.4 2.1 0 .2.1.4.3.5.2.1.4.2.6.1.4 0 .6-.1.7-.2zm-6.7-4.1c.6-2 1.3-3 2.2-3.1.9.1 1.6 1.1 2.2 3.1h-4.4z"/><path fill="#484848" d="M70.9 156.7c-.5 0-1.1 0-1.6-.1-.8-.1-1.3-.2-1.8-.4-.2-.1-.4-.2-.6-.5-.1-.3-.1-.5-.1-.8.1-.3.3-.5.5-.6.2-.1.5-.1.8-.1.4.1.9.2 1.4.3.5.1 1.1.1 1.7.1.5 0 1-.1 1.4-.2.3-.1.4-.1.5-.2l.1-.1.1-.1v-.4c0-.1-.3-.4-.5-.5-.2-.1-.8-.1-1.5-.1h-1.9c-.8 0-1.3-.1-1.5-.2-.3-.1-.5-.3-.8-.5-.3-.3-.6-.6-.7-.9v-.1c-.2-.4-.2-.8-.2-1.3.1-.5.3-.9.7-1.4.6-.8 1.7-1.2 3.2-1.2 1.1 0 2.5.2 4.1.7.3.1.5.2.6.5.1.3.2.5.1.8-.1.2-.2.5-.5.6-.1.1-.3.1-.5.1h-.3c-2.7-.8-4.5-.8-5.3-.1-.1.1-.2.3-.3.4v.2c0 .1.1.2.2.2.1.1.2.1.3.2h2.6c.7 0 1.4.1 1.9.2.9.2 1.5.5 1.7 1.1v.1c.2.4.2.5.3.6.1.2.1.5.1.7v.1c0 .3-.1.6-.2.9-.1.2-.3.5-.5.8-.3.4-.8.6-1.5.8-.5.1-1.2.2-1.9.2.1.2 0 .2-.1.2zm-3.2-2c-.1 0-.2 0-.3.1-.2.1-.3.2-.3.4-.1.2 0 .4 0 .5.1.1.2.2.4.3.4.1 1 .3 1.7.3.7.1 1.3.1 1.9.1.7 0 1.3-.1 1.8-.2.7-.2 1.1-.4 1.3-.7h.1c.2-.2.3-.4.4-.6.1-.2.1-.5.1-.7v-.1c0-.2 0-.4-.1-.6 0-.1-.1-.2-.3-.6v-.1c-.2-.4-.6-.7-1.4-.8-.3-.1-.9-.1-1.8-.2h-1.8c-.5 0-.7 0-.9-.1-.2-.1-.3-.2-.4-.3-.2-.1-.3-.3-.3-.4-.1-.1-.1-.3 0-.4.1-.2.2-.4.4-.6.9-.8 2.8-.8 5.6 0 .2 0 .3 0 .4-.1.2-.1.3-.2.3-.4.1-.2 0-.3 0-.5-.1-.1-.2-.2-.4-.3-1.6-.4-2.9-.7-4-.7-1.4 0-2.3.4-2.9 1.1-.4.4-.6.8-.6 1.2-.1.4 0 .8.2 1.1v.1c.1.2.3.5.6.7.2.2.5.3.8.5.1.1.4.2 1.4.2H71.4c.7 0 1.4.1 1.6.2.3.1.7.5.8.8 0 .1.1.2 0 .5 0 .2-.1.3-.2.4l-.1.1-.1.1c-.1.1-.3.2-.6.3-.5.1-1 .2-1.5.2h-.4c-.5 0-.9 0-1.4-.1-.6-.1-1.1-.2-1.5-.3l-.3-.4zM82 156.3h-5.4c-.3 0-.5-.1-.7-.3-.2-.2-.3-.4-.3-.7v-6.7c0-.3.1-.5.3-.7.2-.2.4-.3.7-.3H82c.3 0 .5.1.7.3.2.2.3.5.3.7 0 .3-.1.5-.3.7-.2.2-.4.3-.7.3h-4.4v1.4h3.2c.3 0 .5.1.7.3.2.2.3.5.3.7s-.1.5-.3.7c-.2.2-.4.3-.7.3h-3.2v1.4H82c.3 0 .5.1.7.3.2.2.3.5.3.7 0 .3-.1.5-.3.7-.2.1-.5.2-.7.2zm-5.4-8.3c-.2 0-.3.1-.4.2-.1.1-.2.3-.2.4v6.7c0 .2.1.3.2.4.1.1.3.2.4.2H82c.2 0 .3-.1.4-.2.1-.1.2-.3.2-.4 0-.2-.1-.3-.2-.4-.1-.1-.3-.2-.4-.2h-4.6c-.1 0-.2-.1-.2-.2v-1.7c0-.1.1-.2.2-.2h3.4c.2 0 .3-.1.4-.2.1-.1.2-.3.2-.4 0-.2-.1-.3-.2-.4-.1-.1-.3-.2-.4-.2h-3.4c-.1 0-.2-.1-.2-.2v-1.7c0-.1.1-.2.2-.2H82c.2 0 .3-.1.4-.2.1-.1.2-.3.2-.4 0-.2-.1-.3-.2-.4-.1-.1-.3-.2-.4-.2h-5.4zM87.9 156.9c-.7 0-1.4-.1-2-.4-.6-.2-1.1-.6-1.5-1.1-.4-.5-.8-1-1-1.7-.2-.7-.3-1.3-.3-2v-.1c0-.6 0-.9.3-1.5.2-.6.4-1 .8-1.4 0 0 .5-.6 1.2-1 .5-.3.8-.3 1.2-.4.1 0 .2 0 .4-.1.4-.1.9-.1 1.3-.1 1.3 0 2.5.4 3.6 1.1.2.2.4.4.4.7 0 .3 0 .6-.1.8-.1.2-.3.4-.6.5h-.2c-.2 0-.4-.1-.6-.2-1-.8-2.1-1-3.3-.7h-.2c-.4.1-.6.2-1 .3-.4.2-.6.5-.6.5-.1.1-.2.3-.3.5-.1.3-.1.6-.2 1.1 0 .5 0 .9.2 1.2.1.4.3.7.5.9.2.3.5.5.8.6.4.1.8.2 1.2.2 1.1 0 1.9-.2 2.3-.6.2-.2.3-.4.4-.7h-2.5c-.3 0-.5-.1-.7-.3-.2-.2-.3-.4-.3-.7 0-.3.1-.5.3-.8.2-.2.4-.3.7-.3h3.5c.3 0 .5.1.7.3.2.2.3.4.3.7.1 1.6-.2 2.7-1.1 3.5-.8.8-2 1.2-3.6 1.2zm-3.3-1.8c.4.5.9.8 1.5 1.1.6.2 1.2.4 1.8.4 1.6 0 2.7-.3 3.4-1 .8-.7 1.1-1.8 1-3.2 0-.2-.1-.3-.2-.5-.1-.1-.2-.2-.4-.2h-3.5c-.2 0-.3.1-.4.2-.1.1-.2.3-.2.5s.1.4.2.5c.1.1.3.2.4.2h2.7l.1.1v.2c-.1.5-.2.9-.6 1.2-.6.5-1.4.7-2.6.7-.5 0-1-.1-1.4-.3-.4-.2-.7-.4-.9-.7-.3-.3-.5-.6-.6-1-.1-.4-.2-.9-.2-1.4 0-.5.1-.8.2-1.1.1-.3.2-.5.4-.7.1-.1.3-.4.7-.6.4-.2.6-.3 1-.4l.2-.1c1.2-.3 2.4 0 3.6.8.1.1.2.1.3.1h.1c.2 0 .3-.1.4-.3.1-.2.1-.3.1-.5s-.1-.3-.3-.4c-1.3-.9-2.8-1.3-4.5-1-.1 0-.2.1-.4.1-.4.1-.6.1-1.1.4-.6.3-1.1.9-1.1.9-.3.3-.5.7-.7 1.3-.2.5-.2.8-.2 1.4v.1c0 .7.1 1.3.3 1.9.2.4.5.9.9 1.3zM101.4 156.6c-.2 0-.4-.1-.6-.2-.2-.2-.3-.4-.4-.6-.1-.7-.2-1.4-.3-2h-4.9c-.1.5-.2 1.1-.3 1.7 0 .3-.2.5-.4.6-.2.2-.5.2-.8.2-.3 0-.5-.2-.6-.4-.2-.2-.2-.5-.2-.7.8-5.5 2.4-8.3 4.8-8.1h.1c2.3 0 3.8 2.7 4.6 8.4 0 .3 0 .5-.2.7-.2.2-.4.4-.7.4h-.1zm-6.4-3.2h5.2c.1 0 .2.1.2.2.1.7.3 1.4.4 2.1 0 .2.1.3.2.4.1.1.3.1.4.1.2 0 .3-.1.4-.2.1-.1.1-.3.1-.5-.8-5.5-2.3-8.2-4.4-8h-.2c-2 0-3.4 2.6-4.2 7.8 0 .2 0 .3.1.4.1.1.2.2.4.2h.1c.1 0 .2 0 .4-.1.1-.1.2-.2.2-.4.1-.7.2-1.3.3-1.9.3-.1.3-.1.4-.1zm4.9-1.3h-4.4l-.2-.1v-.2c.6-2.1 1.4-3.1 2.4-3.2 1 .1 1.8 1.1 2.4 3.2v.2l-.2.1zm-4.2-.3h3.9c-.5-1.7-1.2-2.6-1.9-2.7-.8 0-1.5.9-2 2.7z"/><linearGradient id="h" gradientUnits="userSpaceOnUse" x1="9.387" y1="200" x2="10.387" y2="200" gradientTransform="scale(12.4287 -12.4287) rotate(45 265.619 92.7)"><stop offset="0" stop-color="#b2b2b2"/><stop offset=".98" stop-color="#f6f6f6"/><stop offset="1" stop-color="#f6f6f6"/></linearGradient><path fill="url(#h)" d="M115 148.6c-.1-.2-.3-.3-.5-.4-3.7-1-6.1-.9-7.2.5-.4.4-.6.9-.7 1.3-.1.4 0 .9.2 1.3.2.3.4.6.7.9.2.2.5.4.8.5.2.1.7.2 1.4.2h1.8c.7 0 1.4.1 1.6.1.2.1.6.5.6.7 0 .2 0 0 0 0 0 .1.1.1 0 .4 0 .3-.1.2-.2.4-.1.1-.3.2-.6.3-.4.1-.9.2-1.5.2s-1.1 0-1.7-.1c-.6-.1-1-.2-1.5-.3-.2-.1-.4-.1-.6.1-.2.1-.3.3-.4.5-.1.2 0 .4.1.6.1.2.3.3.5.4.5.2 1.1.3 1.8.4.7.1 1.3.1 2 .1s1.3-.1 1.8-.2c.7-.2 1.2-.4 1.5-.8.2-.3.4-.5.5-.7.1-.3.2-.5.2-.8 0-.2 0-.5-.1-.8 0-.1-.1-.2-.3-.7-.2-.5-.7-.8-1.6-1-.4-.1-1.1-.1-1.9-.2h-1.8c-.4 0-.7 0-.8-.1-.2-.1-.3-.1-.4-.2l-.3-.3c-.1-.1-.1-.2 0-.3 0-.2.1-.4.3-.5.8-.8 2.6-.8 5.5 0 .2.1.4 0 .6-.1.2-.1.3-.3.4-.5-.1-.5-.1-.7-.2-.9z"/><linearGradient id="i" gradientUnits="userSpaceOnUse" x1="9.387" y1="200" x2="10.387" y2="200" gradientTransform="scale(13.4419 -13.4419) rotate(45 264.624 93.266)"><stop offset="0" stop-color="#b2b2b2"/><stop offset=".98" stop-color="#f6f6f6"/><stop offset="1" stop-color="#f6f6f6"/></linearGradient><path fill="url(#i)" d="M117.2 156.5c.2-.1.3-.3.3-.5.1-.7.2-1.3.3-1.9h5.3c.1.7.3 1.4.4 2.2 0 .2.1.4.3.5.2.1.4.2.6.1.2 0 .4-.1.5-.3.1-.2.2-.4.2-.6-.9-5.7-2.4-8.4-4.6-8.3-2.2-.1-3.8 2.5-4.6 8 0 .2 0 .4.1.6.1.2.3.3.5.3.3.1.5.1.7-.1zm1.1-4c.6-2 1.4-3 2.3-3.1.9.1 1.6 1.1 2.2 3.1h-4.5z"/><linearGradient id="j" gradientUnits="userSpaceOnUse" x1="9.387" y1="200" x2="10.387" y2="200" gradientTransform="scale(12.5676 -12.5676) rotate(45 265.964 94.296)"><stop offset="0" stop-color="#b2b2b2"/><stop offset=".98" stop-color="#f6f6f6"/><stop offset="1" stop-color="#f6f6f6"/></linearGradient><path fill="url(#j)" d="M132.1 148.4c-.2-.1-.4-.2-.6-.2h-7.1c-.2 0-.4.1-.6.2-.2.2-.2.4-.2.6 0 .2.1.4.2.6.2.2.4.2.6.2h2.7v6.2c0 .2.1.4.2.6.2.2.4.2.6.2.2 0 .4-.1.6-.2.2-.1.2-.4.2-.6v-6.2h2.7c.2 0 .4-.1.6-.2.2-.1.2-.4.2-.6.2-.2.1-.4-.1-.6z"/><linearGradient id="k" gradientUnits="userSpaceOnUse" x1="9.387" y1="200" x2="10.387" y2="200" gradientTransform="scale(12.706 -12.706) rotate(45 266.189 95.084)"><stop offset="0" stop-color="#b2b2b2"/><stop offset=".98" stop-color="#f6f6f6"/><stop offset="1" stop-color="#f6f6f6"/></linearGradient><path fill="url(#k)" d="M141.7 148.2c-.2-.2-.4-.2-.6-.2-.2 0-.4.1-.6.2-.2.1-.2.4-.2.6v4c0 .3-.1.6-.2.9-.1.3-.3.5-.5.7-.2.2-.4.4-.7.5-.3.1-.6.2-.9.2h-1.2c-.3 0-.6-.1-.9-.2-.3-.1-.5-.3-.7-.5-.2-.2-.4-.4-.5-.7-.1-.3-.2-.6-.2-.9v-4c0-.2-.1-.4-.2-.6-.2-.2-.4-.2-.6-.2-.2 0-.4.1-.6.2-.2.1-.2.4-.2.6v4c0 .5.1 1 .3 1.5.2.5.5.9.8 1.2.4.4.8.6 1.3.8.5.2 1 .3 1.5.3h1.2c.5 0 1-.1 1.5-.3.5-.2.9-.5 1.3-.8.4-.4.6-.8.8-1.2.2-.5.3-1 .3-1.5v-4c0-.2-.1-.4-.2-.6z"/><linearGradient id="l" gradientUnits="userSpaceOnUse" x1="9.387" y1="200" x2="10.387" y2="200" gradientTransform="scale(12.797 -12.797) rotate(45 266.485 95.989)"><stop offset="0" stop-color="#b2b2b2"/><stop offset=".98" stop-color="#f6f6f6"/><stop offset="1" stop-color="#f6f6f6"/></linearGradient><path fill="url(#l)" d="M142.8 148.2c-.1.1-.2.3-.2.5v7c0 .2.1.4.2.6.2.2.4.2.6.2.2 0 .4-.1.6-.2.2-.1.3-.4.3-.6v-6.2c1.9-.1 3.3 0 4.3.3.8.2 1.2.6 1.2 1.1 0 .4-.2.7-.5.9-.6.2-1.4.3-2.6.2-.2 0-.4 0-.6.1-.2.1-.3.2-.4.4-.1.2-.1.3 0 .5s.2.3.3.4l4.3 3c.2.1.4.2.6.1.2 0 .4-.1.6-.3.1-.2.2-.4.2-.6 0-.2-.2-.4-.3-.5l-2.3-1.6.9-.3c1-.5 1.5-1.2 1.5-2.3.1-1.3-.8-2.2-2.4-2.7-1.3-.4-3.2-.5-5.8-.3-.2.1-.4.2-.5.3z"/><linearGradient id="m" gradientUnits="userSpaceOnUse" x1="9.387" y1="200" x2="10.387" y2="200" gradientTransform="scale(12.4288 -12.4288) rotate(45 267.48 97.168)"><stop offset="0" stop-color="#b2b2b2"/><stop offset=".98" stop-color="#f6f6f6"/><stop offset="1" stop-color="#f6f6f6"/></linearGradient><path fill="url(#m)" d="M152.9 148.4c-.1.1-.2.3-.2.5v7c0 .2.1.4.2.6.1.2.4.2.6.2.2 0 .4-.1.6-.2.2-.1.2-.4.2-.6v-5l5.4 5.6c.1.1.3.2.4.2h.5c.2-.1.3-.2.4-.3.1-.1.1-.3.1-.4v-7c0-.2-.1-.4-.2-.6-.2-.1-.4-.2-.6-.2-.2 0-.4.1-.6.2-.2.2-.2.4-.2.6v5l-5.4-5.6c-.1-.1-.3-.2-.4-.2-.2 0-.3 0-.5.1-.1-.1-.3 0-.3.1z"/><path fill="#484848" d="M111.2 156.7c-.5 0-1.1 0-1.7-.1-.8-.1-1.3-.2-1.8-.4-.2-.1-.5-.3-.6-.5-.1-.3-.2-.5-.1-.8.1-.3.3-.5.5-.6.2-.1.5-.1.8-.1.4.1.9.2 1.4.3.5.1 1.1.1 1.7.1.5 0 1-.1 1.4-.2.2-.1.4-.1.5-.2l.1-.1.1-.1v-.4c0-.1-.3-.4-.5-.5-.2-.1-.8-.1-1.5-.1h-1.9c-.8 0-1.3-.1-1.5-.2-.3-.1-.6-.3-.8-.5-.3-.3-.6-.6-.7-.9v-.1c-.2-.4-.2-.9-.2-1.3.1-.5.3-.9.7-1.4.6-.8 1.7-1.2 3.2-1.2 1.1 0 2.5.2 4.2.7.3.1.5.2.6.5.1.3.2.5.1.8-.1.3-.2.5-.5.6-.1.1-.3.1-.5.1h-.3c-2.7-.8-4.6-.8-5.3-.1-.1.1-.2.3-.3.4v.2c0 .1.1.2.2.2.1.1.2.1.3.2h2.6c.7 0 1.4.1 1.9.2.9.2 1.5.5 1.7 1.1v.1c.2.4.2.5.3.6.1.2.1.5.1.7v.1c0 .3-.1.6-.2.9-.1.2-.3.5-.5.8-.3.4-.8.6-1.5.8-.5.1-1.2.2-1.9.2.1.2 0 .2-.1.2zm-3.2-2c-.1 0-.2 0-.3.1-.2.1-.3.2-.3.4-.1.2 0 .4 0 .5.1.1.2.2.4.3.4.1 1 .3 1.7.3.7.1 1.3.1 1.9.1.7 0 1.3-.1 1.8-.2.7-.2 1.1-.4 1.3-.7h.1c.2-.2.3-.4.4-.6.1-.3.2-.5.2-.8v-.2c0-.2 0-.4-.1-.6 0-.1-.1-.2-.3-.6v-.1c-.2-.4-.7-.7-1.5-.9-.3-.1-.9-.1-1.8-.2h-1.9c-.5 0-.7 0-.9-.1-.2-.1-.3-.2-.4-.3-.2-.1-.3-.3-.3-.4-.1-.1-.1-.3 0-.4.1-.2.2-.4.4-.6.9-.9 2.8-.9 5.7 0 .2 0 .3 0 .5-.1s.3-.2.3-.4c.1-.2 0-.3 0-.5-.1-.1-.2-.2-.4-.3-1.6-.4-3-.7-4-.7-1.4 0-2.4.4-2.9 1.1-.4.4-.6.8-.6 1.2-.1.4 0 .8.2 1.2v.1c.1.2.3.5.6.7.2.2.5.3.8.5.1.1.4.2 1.4.2h1.9c.2 0 1.5.1 1.7.2.3.1.7.5.8.8 0 .1.1.2 0 .5 0 .2-.1.3-.2.4l-.1.1-.1.1c-.1.1-.3.2-.6.3-.5.1-1 .2-1.5.2h-.4c-.5 0-.9 0-1.4-.1-.6-.1-1.1-.2-1.5-.3l-.6-.2zM124.3 157.2c-.2 0-.4-.1-.6-.2-.2-.2-.3-.4-.4-.6-.1-.7-.2-1.4-.3-2h-5c-.1.5-.2 1.1-.3 1.7 0 .3-.2.5-.4.7-.2.1-.4.2-.6.2h-.2c-.3 0-.5-.2-.7-.4-.2-.2-.2-.5-.2-.7.9-5.6 2.5-8.3 4.8-8.2h.1c2.3 0 3.8 2.8 4.7 8.5 0 .3 0 .5-.2.8-.2.2-.4.4-.7.4v-.2zm-6.4-3.3h5.3c.1 0 .2.1.2.2.1.6.3 1.4.4 2.2 0 .2.1.3.2.4.1.1.3.1.5.1s.3-.1.4-.2c.1-.1.1-.3.1-.5-.8-5.5-2.3-8.2-4.4-8.1h-.2c-2 0-3.5 2.6-4.3 7.8 0 .2 0 .3.1.4.1.2.2.2.4.3h.1c.1 0 .2 0 .4-.1.1-.1.2-.2.2-.4.1-.7.2-1.3.3-1.9.1-.1.2-.2.3-.2zm4.8-1.2h-4.5l-.2-.1v-.2c.6-2.1 1.4-3.2 2.4-3.3 1 .1 1.8 1.1 2.4 3.3v.2l-.1.1zm-4.2-.4h3.9c-.5-1.7-1.2-2.7-2-2.7-.7.1-1.3 1-1.9 2.7z"/><path fill="#484848" d="M128 157c-.3 0-.5-.1-.7-.3-.2-.2-.3-.4-.3-.7v-6h-2.5c-.3 0-.5-.1-.7-.3-.2-.2-.3-.4-.3-.7 0-.3.1-.5.3-.7.2-.2.4-.3.7-.3h7.1c.3 0 .5.1.7.3.2.2.3.5.3.7 0 .3-.1.5-.3.7-.2.2-.4.3-.7.3H129v6c0 .3-.1.5-.3.7-.2.2-.4.3-.7.3zm-3.5-8.6c-.2 0-.3.1-.4.2-.1.1-.2.3-.2.4 0 .2.1.3.2.4.1.1.3.2.4.2h2.7c.1 0 .2.1.2.2v6.2c0 .2.1.3.2.4.1.1.3.2.4.2.2 0 .3-.1.4-.2.1-.1.2-.3.2-.4v-6.2c0-.1.1-.2.2-.2h2.7c.2 0 .3-.1.4-.2.1-.1.2-.3.2-.4 0-.2-.1-.3-.2-.5-.1-.1-.3-.2-.4-.2h-7zM138 156.9h-1.2c-.6 0-1.1-.1-1.6-.3-.5-.2-.9-.5-1.3-.9s-.7-.8-.9-1.3v-.1c-.2-.5-.3-1.1-.3-1.6v-4c0-.3.1-.5.3-.7.2-.2.4-.3.7-.3.3 0 .5.1.7.3.2.2.3.4.3.7v4c0 .3.1.5.2.8.1.2.2.4.4.6.2.2.4.4.7.4.3.1.5.2.8.2h1.2c.3 0 .6-.1.8-.2.2-.1.4-.2.7-.5.2-.2.4-.4.4-.7.1-.2.2-.5.2-.8v-4c0-.3.1-.5.3-.7.2-.2.4-.3.7-.3.3 0 .5.1.7.3.2.2.3.4.3.7v4c0 .6-.1 1.1-.3 1.6-.2.5-.5.9-.9 1.3s-.8.7-1.3.9c-.5.5-1 .6-1.6.6zm-4.7-2.7c.2.5.5.9.8 1.2.4.3.8.6 1.2.8.4.2.9.3 1.4.3h1.2c.5 0 1-.1 1.4-.3.4-.2.8-.4 1.2-.8.4-.4.6-.8.8-1.2.2-.4.3-.9.3-1.4v-4c0-.2-.1-.3-.2-.4-.1-.1-.3-.2-.4-.2-.2 0-.3.1-.4.2-.1.1-.2.3-.2.4v4c0 .4-.1.7-.2 1-.1.3-.3.5-.5.8-.2.2-.5.4-.8.5-.3.1-.6.2-1 .2h-1.2c-.3 0-.7-.1-1-.2-.3-.1-.6-.3-.8-.5-.2-.3-.4-.5-.5-.8v-.1c-.1-.3-.2-.6-.2-.9v-4c0-.2-.1-.3-.2-.4-.1-.1-.3-.2-.4-.2-.2 0-.3.1-.4.2-.2.1-.2.3-.2.4v4c.1.5.1 1 .3 1.4zM143.4 156.8c-.3 0-.5-.1-.8-.3-.2-.2-.3-.4-.3-.7v-7c0-.3.1-.5.3-.7.2-.2.4-.3.7-.3 2.6-.2 4.6-.1 5.9.3 1.7.5 2.6 1.5 2.5 2.9 0 1.2-.6 2-1.6 2.5-.1.1-.3.1-.5.2l2 1.3c.2.2.4.4.4.7 0 .3 0 .5-.2.7-.2.2-.4.4-.7.4h-.2c-.2 0-.4-.1-.6-.2l-4.3-3c-.2-.1-.3-.3-.4-.5-.1-.2 0-.5 0-.7.1-.2.2-.4.4-.5.2-.1.4-.2.7-.1 1.1.1 1.9.1 2.5-.2.3-.1.4-.4.4-.7 0-.4-.4-.7-1.1-.9-.9-.3-2.3-.4-4-.3v6.1c0 .3-.1.5-.3.7-.2.2-.5.3-.8.3zm2.3-8.7c-.7 0-1.5 0-2.4.1-.2 0-.3.1-.4.2-.1.1-.2.2-.2.4v7c0 .2.1.3.2.4.1.1.3.2.5.2s.3-.1.5-.2c.1-.1.2-.3.2-.4v-6.2c0-.1.1-.2.2-.2 1.9-.1 3.3 0 4.4.3.8.3 1.3.7 1.3 1.3 0 .5-.2.9-.6 1.1-.6.3-1.5.3-2.7.2h-.1c-.1 0-.2 0-.4.1l-.3.3c-.1.1-.1.2 0 .4 0 .1.1.2.3.3l4.3 3c.2.1.3.1.5.1s.3-.1.5-.3c.1-.1.1-.3.1-.4 0-.2-.1-.3-.3-.4l-2.3-1.6-.1-.2.1-.2c.3-.1.6-.2.8-.3.9-.4 1.4-1.1 1.4-2.2.1-1.2-.7-2-2.3-2.5-.7-.2-1.8-.3-3.2-.3zM160.3 156.9h-.2c-.2 0-.4-.1-.5-.3l-5.1-5.2v4.5c0 .3-.1.5-.3.7-.2.2-.4.3-.7.3s-.5-.1-.7-.3c-.2-.2-.3-.4-.3-.7v-7c0-.2.1-.4.2-.6.1-.2.3-.3.5-.4.2-.1.4-.1.6-.1.2 0 .4.1.5.3l5.1 5.3v-4.5c0-.3.1-.5.3-.7.2-.2.4-.3.7-.3s.5.1.7.3c.2.2.3.5.3.7v7c0 .2-.1.4-.2.6-.1.2-.3.3-.4.4h-.5zm-6-6.2l.1.1 5.4 5.6c.1.1.2.2.3.2h.4c.1-.1.2-.1.3-.2.1-.1.1-.2.1-.3v-7c0-.2-.1-.3-.2-.4-.1-.1-.3-.2-.4-.2-.2 0-.3.1-.4.2-.1.1-.2.3-.2.4v5l-.1.2h-.2l-5.4-5.6c-.1-.1-.2-.1-.3-.2H153.4c-.1 0-.2.1-.3.2-.1.1-.1.2-.1.4v7c0 .2.1.3.2.4.1.1.3.2.4.2.2 0 .3-.1.4-.2.1-.1.2-.3.2-.4v-5l.1-.4z"/><path fill="#383A38" d="M163.8 148.4h-.5v1.4h-.4v-1.5h-.6v-.5h1.5zM165.9 149.8h-.4v-1.6l-.4 1.6h-.3l-.4-1.6v1.6h-.4v-2h.6l.3 1.5.4-1.5h.6zM60.7 156.3h-.5v1.4h-.4v-1.4h-.6v-.5h1.5zM62.8 157.7h-.4v-1.6l-.3 1.6h-.4l-.4-1.6v1.6h-.4v-1.9h.6l.4 1.5.3-1.5h.6z"/><path fill="#1B1C1B" d="M120.4 162.1h13.3v18.5h-13.3z"/><path fill="#848374" d="M132.7 176.8h-11.3v-11.6h11.3v11.6zm-11.6-14h.3v.7l.3-.7h.4l-.4.7.4 1.2h-.4l-.2-.8-.2.3v.5h-.3v-1.9zm1.1 0h.3v1.9h-.3v-1.9zm.5 0h.5c.1 0 .2 0 .2.1l.1.2c0 .1.1.2.1.3v.9c0 .1-.1.2-.1.3l-.1.1-.2.1h-.5v-2zm.3.4v1h.2l.1-.1v-.3c0-.2 0-.3-.1-.4l-.2-.2zm.6.8h.3v.2l.1.1.1-.1v-.2l-.2-.1c-.1-.1-.2-.1-.3-.2-.1-.1-.1-.2-.1-.4v-.3l.1-.2c.1 0 .1-.1.3-.1.1 0 .2 0 .3.1.1.1.1.2.1.4h-.3l-.1-.2-.1-.1h-.1v.2l.1.1c.1.1.2.1.3.2l.1.2v.3c0 .1 0 .2-.1.3 0 .1-.1.2-.2.2-.1.1-.1.1-.3.1-.2 0-.3-.1-.4-.2s.4-.1.4-.3zm1.3-1.2h1v.5h-.3v1.4h-.3v-1.4h-.3v-.5z"/><path fill="#848374" d="M125.8 163.7c0-.3 0-.5.1-.7.1-.2.2-.3.4-.3s.3.1.4.3c.1.2.1.4.1.7 0 .2 0 .4-.1.5s-.1.3-.2.3-.2.1-.3.1c-.1 0-.2 0-.3-.1-.1-.1-.1-.2-.2-.3.2-.1.1-.3.1-.5zm.3 0c0 .2 0 .3.1.4l.2.1.2-.1c0-.1.1-.2.1-.4s0-.3-.1-.4l-.2-.1-.2.1c0 .1-.1.2-.1.4zm1.9.6h-.4l-.1.3h-.3l.4-1.9h.4l.4 1.9h-.4v-.3zm-.1-.4l-.1-.7-.1.7h.2zM128.4 162.8h.5c.1 0 .2 0 .2.1l.1.2c0 .1.1.2.1.3v.9c0 .1-.1.2-.1.3l-.1.1-.2.1h-.5v-2zm.3.4v1h.2l.1-.1v-.3c0-.2 0-.3-.1-.4l-.2-.2zm1.4-.4h.3V164.2l-.1.3-.1.2-.2.1h-.2l-.1-.1-.1-.2-.1-.2V162.9h.3v1.3l.1.1.1-.1v-1.4zm.4 0h.3v1.4h.5v.5h-.8v-1.9zm.7 0h1v.5h-.3v1.4h-.3v-1.4h-.3v-.5zm.9 1.2h.3v.2l.1.1.1-.1v-.2l-.2-.1c-.1-.1-.2-.1-.3-.2-.1-.1-.1-.2-.1-.4v-.3l.1-.2c.1 0 .1-.1.3-.1.1 0 .2 0 .3.1.1.1.1.2.1.4h-.3v-.2l-.1-.1h-.1v.2l.1.1c.1.1.2.1.3.2l.1.2v.3c0 .1 0 .2-.1.3 0 .1-.1.2-.2.2-.1.1-.1.1-.3.1-.2 0-.3-.1-.4-.2.4.1.4-.1.3-.3zm-10.2 13.7l.2.1c0 .1-.1.2-.1.3l-.2.1c-.1 0-.2 0-.3-.1-.1-.1-.1-.2-.1-.4s0-.3.1-.4c.1-.1.2-.1.3-.1.1 0 .2 0 .2.1l.1.2-.2.1-.1-.1h-.1l-.1.1c0 .1-.1.1-.1.3 0 .1 0 .2.1.3l.1.1.1-.1.1-.5zm.2-.1v-.3l.1-.1.1-.1h.2c.1 0 .2 0 .3.1.1.1.1.2.1.4s0 .3-.1.4c-.1.1-.2.1-.3.1-.1 0-.2 0-.3-.1s-.1-.3-.1-.4zm.2 0c0 .1 0 .2.1.3l.2.1.2-.1c0-.1.1-.2.1-.3 0-.1 0-.2-.1-.3l-.2-.1-.2.1c-.1.1-.1.1-.1.3zm.8.5v-1h.2l.3.7v-.8h.2v1h-.2l-.3-.7v.7h-.2zm1 0v-.9h-.2v-.2h.6v.2h-.2v.9h-.2zm.5 0v-1h.6v.2h-.4v.2h.4v.2h-.4v.3h.5v.2h-.7zm.7 0v-1h.2l.3.7v-.8h.2v1h-.2l-.3-.7v.7h-.2zm1 0v-.9h-.2v-.2h.6v.2h-.2v.9h-.2zm.8 0v-1h.5l.1.1v.2l-.1.2-.2.1.1.1.1.2.1.2h-.2l-.1-.2-.1-.2h-.1v.4h-.1zm.2-.6h.2v-.2H127.2v.2zm1.4.6h-.2l-.1-.2h-.3l-.1.2h-.2l.3-1h.2l.4 1zm-.3-.4l-.1-.4-.1.4h.2zm.5.4v-.9h-.2v-.2h.6v.2h-.3v.9h-.1zm.5 0v-1h.6v.2h-.4v.2h.4v.2h-.4v.3h.5v.2h-.7zm.7-1.1h.5l.1.1.1.2v.4l-.1.2-.1.1h-.4v-1zm.2.2v.7H130.6v-.6h-.1l-.2-.1zm1-.2h.5l.1.1v.2l-.1.1.1.1V177.8l-.1.1H131.2l.1-.9zm.1.2v.2H131.7v-.2H131.4zm0 .4v.3h.4v-.2h-.4zm.9.5v-.4l-.3-.7h.2l.2.4.2-.4h.2l-.3.6v.4h-.2zm-11 .2h2.2v.3h-1.4v.3h1.3v.3h-1.3v.3h1.4v.4h-2.2v-1.6zm2.8 1.1h.8l.1.2c.1.1.2.1.4.1.1 0 .2 0 .3-.1l.1-.1-.1-.1c-.1 0-.2-.1-.4-.1-.4 0-.6-.1-.8-.2-.2-.1-.2-.2-.2-.3l.1-.2c.1-.1.2-.1.4-.2.2 0 .4-.1.6-.1.3 0 .6 0 .8.1.2.1.3.2.3.4h-.8l-.1-.2h-.5l-.1.1.1.1s.1 0 .3.1c.4 0 .6.1.8.1.2 0 .3.1.3.2l.1.2c0 .1 0 .2-.1.3-.1.1-.2.2-.4.2s-.4.1-.6.1c-.4 0-.8-.1-.9-.2-.4-.1-.5-.2-.5-.4zm3.1.6v-1.6h2c.1 0 .2.1.3.1s.1.2.1.3c0 .1 0 .2-.1.2-.1.1-.1.1-.3.2-.1 0-.2 0-.3.1.1 0 .2 0 .2.1l.1.1.1.1.4.5h-.9l-.4-.5-.1-.1H128v.7h-.8zm.8-1h.5l.1-.1.1-.1-.1-.1h-.6v.3zm2.3-.7h1.5c.3 0 .4 0 .6.1.1.1.2.2.2.3 0 .1 0 .2-.1.2s-.2.1-.3.1c.2 0 .3.1.4.1.1.1.1.2.1.3l-.1.2c-.1.1-.2.1-.3.2-.1 0-.2 0-.3.1H130.2v-1.6zm.8.7h.7l.1-.1-.1-.1h-.7v.2zm0 .6h.7l.1-.1-.1-.1h-.7v.2z"/><path fill="#1B1C1B" d="M121.8 165.7h.6v.2h-.2v.5h-.2v-.5h-.2v-.2zm.7 0h.3l.1.4.1-.4h.3v.7h-.2v-.5l-.1.5h-.1l-.1-.5v.5h-.2v-.7zm6.5.9l-7.5 2.2 2 6.8 9.2-2.7-.1-.3-3.6-6z"/><path fill="#848374" d="M121.8 168.9l1.3-.4.7 2.5.7-2.9 1.8-.5-.9 2.9 2.8 3.5-1.6.5-1.7-2.4-.4 1.3.5 1.5-1.3.4z"/><path fill="#848374" d="M130.5 172.2l-1.5.4.1 1.1-1.4.4-.3-6.9 1.4-.4 3.5 5.9-1.4.4-.4-.9zm-.7-1.3l-1.1-2.2.2 2.4.9-.2z"/><path fill="#848374" d="M125.4 170.5l.8 1.1 2.1-.6-.3-1.2z"/><path fill="#1B1C1B" d="M125.4 170.5l-.3.1.4 1.2.8-.2-.9-1.1zm2.2.7l.8-.2-.4-1.2-.5.1.1 1.3zm-2 4.1l-.2.1-.1-.2.2-.1.1.2zm5.2-.8l-.2.1-.1-.2.2-.1.1.2zm1.4-.4l-.2.1-.1-.2.2-.1.1.2zm-.2-.7l-.2.1-.1-.2.2-.1.1.2zm-.9.3l-.2.1-.1-.2.2-.1.1.2zm.5-3.1l-.2.1-.1-.2.2-.1.1.2zm1 .7l-.2.1-.1-.2.2-.1.1.2zM131.8 173.7l-.2.1-.1-.2.2-.1.1.2zm1-.8l-.2.1-.1-.2.2-.1.1.2zm-.2-.7l-.2.1-.1-.2.2-.1.1.2zm-2.4-4.2l-.2.1-.1-.2.2-.1.1.2zM129.9 167.9l-.2.1-.1-.2.2-.1.1.2zm2.6 5.6l-.2.1-.1-.2.2-.1.1.2zm-2.6.5l-.2.1-.1-.2.2-.1.1.2zm1.4-3.8l-.2.1-.1-.3.2-.1.1.3zm-.6-1.1l-.2.1-.1-.2.2-.1.1.2z"/><path fill="#1B1C1B" d="M132.2 173.4l-.2.1-.1-.2.2-.1.1.2zm-.4-2.4l-.2.1-.1-.2.2-.1.1.2zm.9 2.2l-.2.1-.1-.2.2-.1.1.2zm-.2-1.4l-.2.1-.1-.2.2-.1.1.2zm-1 1.7l-.2.1-.1-.2.2-.1.1.2zm.8-2.4l-.2.1-.1-.2.2-.1.1.2z"/><path fill="#1B1C1B" d="M132.4 171.6l-.2.1-.1-.2.2-.1.1.2zm.4 2.1l-.2.1-.1-.2.2-.1.1.2zm-1.8.5l-.2.1-.1-.2.2-.1.1.2zm-1.2.3l-.2.1-.1-.2.2-.1.1.2zm-.6-.3l-.2.1-.1-.2.2-.1.1.2zM129.1 174.5l-.2.1-.1-.2.2-.1.1.2zm-.5-.1l-.2.1-.1-.2.2-.1.1.2zm3.1-.4l-.2.1-.1-.2.2-.1.1.2zm-.4-.4l-.2.1-.1-.2.2-.1.1.2zM131.4 173.8l-.2.1-.1-.2.2-.1.1.2zm.4-2.6l-.2.1-.1-.2.2-.1.1.2zm.4-.3l-.2.1-.1-.2.2-.1.1.2zm-.3-.4l-.2.1-.1-.2.2-.1.1.2zM131.6 170.3l-.2.1-.1-.2.2-.1.1.2zm-.5-.6l-.2.1-.1-.2.2-.1.1.2zm-.1-.4l-.2.1-.1-.2.2-.1.1.2zm-.1-.5l-.2.1-.1-.2.2-.1.1.2zm-.4-.4l-.2.1-.1-.2.2-.1.1.2z"/><path fill="#1B1C1B" d="M131.4 169.7l-.2.1-.1-.2.2-.1.1.2zm-.5-.1l-.2.1-.1-.2.2-.1.1.2zm1.2 1.8l-.2.1-.1-.2.2-.1.1.2zm-2.4-4.2l-.2.1-.1-.2.2-.1.1.2zm.9 6.6l-.2.1-.1-.2.2-.1.1.2zM129.8 166.9l-.2.1-.1-.2.2-.1.1.2zm.6.3l-.2.1-.1-.2.2-.1.1.2zM130.2 167.3l-.2.1-.1-.2.2-.1.1.2zm.6.3l-.2.1-.1-.2.2-.1.1.2zm-1.3-1.1l-.2.1-.1-.2.2-.1.1.2zm-.1.5l-.2.1-.1-.2.2-.1.1.2zm.7.8l-.2.1-.1-.2.2-.1.1.2zm1.1 1.2l-.2.1-.1-.2.2-.1.1.2zm-1.2-2.4l-.2.1-.1-.2.2-.1.1.2zm1.8 7.9l-.2.1-.1-.2.2-.1.1.2zm.9-.3l-.2.1-.1-.2.2-.1.1.2z"/><path fill="#1B1C1B" d="M130.1 167.1l-.2.1-.1-.2.2-.1.1.2zm2.2 3.3l-.2.1-.1-.2.2-.1.1.2zm-.4-.7l-.2.1-.1-.2.2-.1.1.2zm-1-1.6l-.2.1-.1-.2.2-.1.1.2zm-.6-.6l-.2.1-.1-.2.2-.1.1.2zm-.6-.1l-.2.1-.1-.2.2-.1.1.2zm.7 1.5l-.2.1-.1-.2.2-.1.1.2zM130.39 168.726l.287-.085.084.288-.287.085z"/><path fill="#1B1C1B" d="M130.066 168.539l.288-.084.084.287-.288.085z"/><path fill="#1B1C1B" d="M130.6 168.6l-.2.1-.1-.2.2-.1.1.2zm.9.8l-.2.1-.1-.2.2-.1.1.2zm-.2-1l-.2.1-.1-.2.2-.1.1.2zm-.7-.5l-.2.1-.1-.2.2-.1.1.2zm1.1 2.1l-.2.1-.1-.2.2-.1.1.2zm-2 5.1l-.2.1-.1-.2.2-.1.1.2zm-1.3-.4l-.2.1-.1-.2.2-.1.1.2z"/><path fill="#1B1C1B" d="M128.26 174.457l.288-.083.083.288-.288.084zM128.9 174.8l-.2.1-.1-.2.2-.1.1.2zm-.7.2l-.2.1-.1-.2.2-.1.1.2zm2-.8l-.2.1-.1-.2.2-.1.1.2zm-.7.2l-.2.1-.1-.2.2-.1.1.2zM130.2 173.9l-.2.1-.1-.2.2-.1.1.2zm.2 1l-.2.1-.1-.2.2-.1.1.2zm1.9-1.1l-.2.1-.1-.2.2-.1.1.2zm-4.6 1.1l-.2.1-.1-.2.2-.1.1.2z"/><path fill="#1B1C1B" d="M127.5 175l-.2.1-.1-.2.2-.1.1.2zm.4-.4l-.2.1-.1-.2.2-.1.1.2zm4.1-1l-.2.1-.1-.2.2-.1.1.2zm-6.4 2.4l-.2.1-.1-.2.2-.1.1.2zm.1-.5l-.2.1-.1-.2.2-.1.1.2z"/><path fill="#1B1C1B" d="M125.5 175.8l-.2.1-.1-.2.2-.1.1.2zm1.1.2l-.2.1-.1-.2.2-.1.1.2zm-.1.5l-.2.1-.1-.2.2-.1.1.2zm1.4-1.1l-.2.1-.1-.2.2-.1.1.2zm-1 .2l-.2.1-.1-.2.2-.1.1.2zM127.6 175.2l-.2.1-.1-.2.2-.1.1.2zm-.8 0l-.2.1-.1-.2.2-.1.1.2zM127.3 175.3l-.2.1-.1-.2.2-.1.1.2zm-1.2-.2l-.2.1-.1-.2.2-.1.1.2z"/><path fill="#1B1C1B" d="M127.1 175.3l-.2.1-.1-.2.2-.1.1.2zm-.7 0l-.2.1-.1-.2.2-.1.1.2zm-.4.4l-.2.1-.1-.2.2-.1.1.2zm1-.8l-.2.1-.1-.2.2-.1.1.2zm-5-.9l-.1-.2.2-.1.1.2-.2.1zm.4 1.4l-.1-.2.2-.1.1.2-.2.1zm.7-.2l-.1-.2.2-.1.1.2-.2.1zm-.3-.9l-.1-.2.2-.1.1.2-.2.1zM122.8 175l-.1-.2.2-.1.1.2-.2.1zm.2.7l-.1-.2.2-.1.1.2-.2.1zm-.5-2.6l-.1-.2.2-.1.1.2-.2.1z"/><path fill="#1B1C1B" d="M123.1 175.4l-.1-.2.2-.1.1.2-.2.1zm.2.4l-.1-.2.2-.1.1.2-.2.1zm-.4-1.1l-.1-.2.2-.1.1.2-.2.1zm-.1 1.3l-.1-.2.2-.1.1.2-.2.1zm.4.4l-.1-.2.2-.1.1.2-.2.1zm-.9-2.2l-.1-.2.2-.1.1.2-.2.1zm-.3-1.2l-.1-.2.2-.1.1.2-.2.1zm.3-.6l-.1-.2.2-.1.1.2-.2.1z"/><path fill="#1B1C1B" d="M122 172.3l-.1-.2.2-.1.1.2-.2.1zm.1-.5l-.1-.2.2-.1.1.2-.2.1zm.4 3l-.1-.2.2-.1.1.2-.2.1zm.4-.3l-.1-.2.2-.1.1.2-.2.1z"/><path fill="#1B1C1B" d="M122.7 174.6l-.1-.2.2-.1.1.2-.2.1zm0-.8l-.1-.2.2-.1.1.2-.2.1zm-.7 1.2l-.1-.2.2-.1.1.2-.2.1zm.3.9l-.1-.2.2-.1.1.2-.2.1zm-.9-3l-.1-.2.2-.1.1.2-.2.1zm.4-1.3l-.1-.2.2-.1.1.2-.2.1zM121.9 171.8l-.1-.2.2-.1.1.3zM121.7 172.1l-.1-.2.2-.1.1.2-.2.1zm-.2-.7l-.1-.2.2-.1.1.2-.2.1zm.8 2l-.1-.2.2-.1.1.2-.2.1zm-.2-.7l-.1-.2.2-.1.1.2-.2.1z"/><path fill="#1B1C1B" d="M122.5 173.3l-.1-.2.2-.1.1.2-.2.1zm-.9.3l-.1-.2.2-.1.1.2-.2.1zm1.1 1.9l-.1-.2.2-.1.1.2-.2.1zm-1.1-4.6l-.1-.2.2-.1.1.2-.2.1zM121.5 170.7l-.1-.2.2-.1.1.2-.2.1zm.4.4l-.1-.2.2-.1.1.2-.2.1zm1 4.1l-.1-.2.2-.1.1.2-.2.1zM121.3 170.8l-.1-.2.2-.1.1.2-.2.1zm0-.8l-.1-.2.2-.1.1.2-.2.1zM121.2 170.5l-.1-.2.2-.1.1.2-.2.1zm.2-1.2l-.1-.2.2-.1.1.2-.2.1zm.2.9l-.1-.2.2-.1.1.2-.2.1zm1.1 6.3l-.1-.2.2-.1.1.2-.2.1zm6.1-10.1l.2-.1.1.2-.2.1-.1-.2zm-5.2.8l.2-.1.1.2-.2.1-.1-.2zm-1.4.4l.2-.1.1.2-.2.1-.1-.2zm.2.6l.2-.1.1.2-.2.1-.1-.2zm.9-.2l.2-.1.1.2-.2.1-.1-.2zM122.6 167.9l.2-.1.1.2-.2.1-.1-.2zm-.7.2l.2-.1.1.2-.2.1-.1-.2zm2.6-.5l.2-.1.1.2-.2.1-.1-.2z"/><path fill="#1B1C1B" d="M122.2 168.3l.2-.1.1.2-.2.1-.1-.2zm-.5.1l.2-.1.1.2-.2.1-.1-.2zm1.2-.3l.2-.1.1.2-.2.1-.1-.2zm-1.3-.1l.2-.1.1.2-.2.1-.1-.2zm1.8-.6l.2-.1.1.2-.2.1-.1-.2zm1.2-.3l.2-.1.1.2-.2.1-.1-.2zm.5.3l.2-.1.1.2-.2.1-.1-.2z"/><path fill="#1B1C1B" d="M125.3 167.1l.2-.1.1.2-.2.1-.1-.2zm.5.1l.2-.1.1.2-.2.1-.1-.2zm-3.1.4l.2-.1.1.2-.2.1-.1-.2zm.4.4l.2-.1.1.2-.2.1-.1-.2zM123 167.8l.2-.1.1.2-.2.1-.1-.2zm.8 0l.2-.1.1.2-.2.1-.1-.2zm-1.2-.6l.2-.1.1.2-.2.1-.1-.2zm-.9.3l.2-.1.1.2-.2.1-.1-.2zm2.9-.9l.2-.1.1.2-.2.1-.1-.2zm1.4.3l.2-.1.1.2-.2.1-.1-.2z"/><path fill="#1B1C1B" d="M125.8 167l.2-.1.1.3-.3.1zM125.5 166.9l.2-.1.1.2-.2.1-.1-.2zm.6-.2l.2-.1.1.2-.2.1-.1-.2zm-1.9.8l.2-.1.1.2-.2.1-.1-.2zm.6-.2l.2-.1.1.2-.2.1-.1-.2z"/><path fill="#1B1C1B" d="M124.2 167.7l.2-.1.1.2-.2.1-.1-.2zm-.2-.9l.2-.1.1.2-.3.1v-.2zm-1.9 1l.2-.1.1.2-.2.1-.1-.2zm4.6-1.1l.2-.1.1.2-.2.1-.1-.2z"/><path fill="#1B1C1B" d="M126.9 166.7l.2-.1.1.2-.2.1-.1-.2zm-.4.3l.2-.1.1.2-.2.1-.1-.2zm-4.2 1l.2-.1.1.2-.2.1-.1-.2zm6.5-2.4l.2-.1.1.2-.2.1-.1-.2zm-.1.6l.2-.1.1.2-.2.1-.1-.2zM128.9 165.9l.2-.1.1.2-.2.1-.1-.2zm-1.1-.2l.2-.1.1.2-.2.1-.1-.2zm-1.3.6l.2-.1.1.2-.2.1-.1-.2zm.9-.3l.2-.1.1.2-.2.1-.1-.2zM126.8 166.5l.2-.1.1.2-.2.1-.1-.2zm.8 0l.2-.1.1.2-.2.1-.1-.2zM127.1 166.4l.2-.1.1.2-.2.1-.1-.2zm1.2.1l.2-.1.1.2-.2.1-.1-.2z"/><path fill="#1B1C1B" d="M127.3 166.3l.2-.1.1.2-.2.1-.1-.2zm.7.1l.2-.1.1.2-.2.1-.1-.2zm.4-.4l.2-.1.1.2-.2.1-.1-.2zm-1 .8l.2-.1.1.2-.2.1-.1-.2zm-3.6 9l-.2.1-.1-.2.2-.1.1.2zm0 .7l-.2.1-.1-.2.2-.1.1.2z"/><path fill="#1B1C1B" d="M123.558 175.843l.288-.084.084.289-.288.083zM123.7 176.3l-.2.1-.1-.2.2-.1.1.2zm1.1.2l-.2.1-.1-.2.2-.1.1.2zm.3-.4l-.2.1-.1-.2.2-.1.1.2zm-.1-.4l-.2.1-.1-.2.2-.1.1.2zm-.7 0l-.2.1-.1-.2.2-.1.1.2zM125.3 175.9l-.2.1-.1-.2.2-.1.1.2zm-.7-.1l-.2.1-.1-.2.2-.1.1.2zm-.4.4l-.2.1-.1-.2.2-.1.1.2zm1-.8l-.2.1-.1-.2.2-.1.1.2zM100.4 171.1c-.6 0-1.1-.5-1.1-1.1v-3.5c0-.6.5-1.1 1.1-1.1h3.6v-1.1h-3.6c-1.2 0-2.2 1-2.2 2.2v3.5c0 1.2 1 2.2 2.2 2.2h3.6V167h-3v1.1h2v3h-2.6M85.2 172.2h3.5c1.4 0 2.6-1.2 2.6-2.6 0-1.4-1.2-2.6-2.6-2.6h-.9l-.1-.1.1-.1h3.5v-1.1h-3.5c-.7 0-1.2.5-1.2 1.2s.6 1.2 1.2 1.2h.9c.8 0 1.5.7 1.5 1.5s-.7 1.5-1.5 1.5h-3.5v1.1"/><path fill="#1B1C1B" d="M85.2 170.8h3.5c.7 0 1.2-.6 1.2-1.2 0-.7-.6-1.2-1.2-1.2h-.9c-.8 0-1.5-.7-1.5-1.5s.7-1.5 1.5-1.5h3.5v-1.1h-3.5c-1.4 0-2.6 1.2-2.6 2.6 0 1.4 1.2 2.6 2.6 2.6h.9l.1.1-.1.1h-3.5v1.1M94.1 171.1c-.6 0-1.1-.5-1.1-1.1v-3.5c0-.6.5-1.1 1.1-1.1h3.8v-1.1h-3.8c-1.2 0-2.2 1-2.2 2.2v3.5c0 1.2 1 2.2 2.2 2.2h3.7v-1.1h-3.7"/><path fill="#1B1C1B" d="M93.2 166.4c0-.5.4-.8.8-.8h3.8v1.1h-3.2l-.3.3H97v1.1h-3.8v-1.7M94.1 170.8c-.5 0-.8-.4-.8-.8v-1.6H97v1.1h-2.7l.3.3h3.2v1.1h-3.7M99.6 169.9c0 .5.4.8.8.8h2.3v-2.5H101v1.1h.7v.3h-.7l-.3-.3v-2.5l.3-.3h3.1v-1.1h-3.6c-.5 0-.8.4-.8.8v3.7M107.5 165.6l.3-.3.4.3 1.7 5.2h-2.6v-1.2h.9l-.4-1.2-1.2 3.8h-1.3l2.2-6.6"/><path fill="#1B1C1B" d="M110.3 171.1h-2.9v1.1h4.5l-2.3-6.9c-.2-.7-.9-1.2-1.7-1.2-.8 0-1.5.5-1.7 1.2l-2.3 6.9h1.2l2.3-6.7.6-.4.6.4 1.7 5.6M112.9 164.9h-.5v1.3h-.3v-1.3h-.6v-.5h1.4zM114.8 166.2h-.4v-1.4l-.3 1.4h-.3l-.3-1.4v1.4h-.4v-1.8h.5l.3 1.4.4-1.4h.5z"/></svg>