<?xml version="1.0" encoding="UTF-8" standalone="no"?>
<!-- Generator: Adobe Illustrator 13.0.0, SVG Export Plug-In . SVG Version: 6.00 Build 14948)  -->

<svg
   xmlns:dc="http://purl.org/dc/elements/1.1/"
   xmlns:cc="http://creativecommons.org/ns#"
   xmlns:rdf="http://www.w3.org/1999/02/22-rdf-syntax-ns#"
   xmlns:svg="http://www.w3.org/2000/svg"
   xmlns="http://www.w3.org/2000/svg"
   xmlns:sodipodi="http://sodipodi.sourceforge.net/DTD/sodipodi-0.dtd"
   xmlns:inkscape="http://www.inkscape.org/namespaces/inkscape"
   version="1.2"
   id="Ebene_1"
   x="0px"
   y="0px"
   width="567.0495"
   height="143.65517"
   viewBox="0 0 567.04951 143.65517"
   xml:space="preserve"
   inkscape:version="0.91 r13725"
   sodipodi:docname="logo.svg"><metadata
     id="metadata4183"><rdf:RDF><cc:Work
         rdf:about=""><dc:format>image/svg+xml</dc:format><dc:type
           rdf:resource="http://purl.org/dc/dcmitype/StillImage" /><dc:title /></cc:Work></rdf:RDF></metadata><defs
     id="defs4181"><inkscape:perspective
       sodipodi:type="inkscape:persp3d"
       inkscape:vp_x="0 : 44.667001 : 1"
       inkscape:vp_y="0 : 1000 : 0"
       inkscape:vp_z="566.93 : 44.667001 : 1"
       inkscape:persp3d-origin="283.465 : 29.778001 : 1"
       id="perspective4790" /></defs><sodipodi:namedview
     pagecolor="#ffffff"
     bordercolor="#666666"
     borderopacity="1"
     objecttolerance="10"
     gridtolerance="10"
     guidetolerance="10"
     inkscape:pageopacity="0"
     inkscape:pageshadow="2"
     inkscape:window-width="1680"
     inkscape:window-height="975"
     id="namedview4179"
     showgrid="false"
     inkscape:zoom="1.8028069"
     inkscape:cx="285.57811"
     inkscape:cy="30.164013"
     inkscape:window-x="1671"
     inkscape:window-y="-9"
     inkscape:window-maximized="1"
     inkscape:current-layer="Ebene_1"
     showguides="true"
     inkscape:guide-bbox="true"
     fit-margin-top="0"
     fit-margin-left="0"
     fit-margin-right="0"
     fit-margin-bottom="0"><sodipodi:guide
       position="-29.794673,320.70455"
       orientation="0,1"
       id="guide4768" /><sodipodi:guide
       position="509.99603,383.13944"
       orientation="0,1"
       id="guide4802" /><sodipodi:guide
       position="709.06857,383.83523"
       orientation="0,1"
       id="guide4814" /><inkscape:grid
       type="xygrid"
       id="grid4822"
       originx="-0.00024"
       originy="58.338664" /><sodipodi:guide
       position="659.24953,385.32877"
       orientation="0,1"
       id="guide4167" /></sodipodi:namedview><path
     d="m 421.7721,0 c -0.636,0 -0.999,0.541 -0.999,1.212 l -0.132,13.085004 c 0,0.636 0.541,0.966 1.212,0.966 l 6.011,-0.049 c 0.672,0 1.213,-0.362 1.213,-0.999 l 0,-2.424 c 0,-0.637 -0.541,-0.982 -1.213,-0.982 l -3.881,0.016 c -0.671,0 -1.229,-0.33 -1.229,-0.967 l 0,-8.646004 c 0,-0.671 -0.344,-1.212 -0.982,-1.212 l 0,0 z m 29.396,0 c -0.079,0 -0.157,0.017 -0.229,0.033 -0.496,0.113 -0.771,0.591 -0.771,1.179 l -0.146,13.085004 c 0,0.398 0.218,0.665 0.54,0.818 0.063,0.031 0.142,0.061 0.213,0.082 0.073,0.021 0.15,0.039 0.229,0.049 0.078,0.01 0.161,0.017 0.245,0.017 l 5.993,-0.049 c 0.672,0 1.212,-0.362 1.212,-0.999 l 0,-2.424 c 0,-0.636 -0.54,-0.982 -1.212,-0.982 l -3.882,0.016 c -0.671,0 -1.212,-0.33 -1.212,-0.966 L 452.1311,1.212 C 452.1331,0.541 451.8041,0 451.1681,0 l 0,0 z m -94,0.017 c -0.673,0 -1.229,0.378 -1.229,1.015 l 0.065,1.965 -0.065,10.988004 c 0,0.672 0.346,1.212 0.981,1.212 0.079,0 0.143,0 0.214,-0.016 0.496,-0.113 0.786,-0.608 0.786,-1.196 l 0,-8.646004 c 0,-0.636 0.54,-0.999 1.211,-0.999 l 0.836,0 c 0.671,0 1.212,0.363 1.212,0.999 l 0.817,4.602004 c 0,0.672 0.33,1.212 0.968,1.212 l 2.146,0 c 0.078,0 0.157,-0.002 0.229,-0.016 0.491,-0.098 0.77,-0.527 1.079,-1.13 0,0 2.47,-5.901004 2.57,-6.125004 0.223,-0.483 0.836,-0.403 0.836,0.065 l 0,8.793004 0.033,1.294 c 0,0.672 0.328,1.229 0.965,1.229 l 2.475,0.016 c 0.079,0 0.146,-0.001 0.213,-0.016 0.065,-0.015 0.127,-0.037 0.181,-0.066 0.323,-0.168 0.471,-0.574 0.786,-1.13 l 1.852,-4.045 c 0.302,-0.585001 0.704,-0.987001 1.211,-0.999001 l 3.063,0 c 0.672,0 1.212,0.362 1.212,0.999001 l 0.164,4.308 c -0.009,0.436 0.219,0.678 0.573,0.818 0.118,0.047 0.252,0.089 0.394,0.115 0.565,0.105 1.291,0.065 1.884,0.082 0.563,0.015 1.44,-0.358 1.44,-0.981 L 386.3021,1.001 c 0,-0.637 -0.54,-0.982 -1.212,-0.982 l -6.484,0 c -0.671,0 -1.021,0.34 -1.212,0.982 0,0 -4.267,10.776004 -4.372,11.021004 -0.014,0.03 -0.035,0.055 -0.064,0.082 -0.063,0.052 -0.164,0.092 -0.264,0.115 -0.244,0.055 -0.539,-0.002 -0.539,-0.312 0,-0.496 -0.018,-10.546004 -0.018,-10.546004 0,-0.672 -0.279,-1.294 -0.917,-1.294 l -2.293,0 c -0.638,0 -0.871,0.426 -1.326,1.212 0,0 -2.704,6.669002 -2.866,6.977002 -0.039,0.077 -0.108,0.146 -0.181,0.196 -0.069,0.051 -0.136,0.087 -0.212,0.098 -0.154,0.022 -0.304,-0.047 -0.347,-0.262 -0.081,-0.429 -1.323,-7.254002 -1.323,-7.254002 0,-0.636 -0.541,-1.015 -1.213,-1.015 l -4.291,-0.002 0,0 z m 118.383,0 c -0.672,0 -1.229,0.345 -1.229,0.982 l -0.063,13.232004 c 0,0.238 0.081,0.432 0.212,0.59 0.132,0.157 0.307,0.277 0.523,0.343 0.071,0.021 0.149,0.038 0.229,0.049 0.078,0.011 0.161,0.017 0.245,0.017 l 2.063,0.016 0,0.017 5.044,0 c 0.084,0 0.168,-0.006 0.246,-0.017 0.078,-0.01 0.156,-0.028 0.229,-0.049 0.437,-0.124 0.736,-0.423 0.736,-0.9 0,-0.636 -0.541,-1.016 -1.213,-1.016 l -5.044,0 0,0.033 c -0.646,-0.017 -1.161,-0.395 -1.161,-1.015 L 476.4501,5.322 c 0,-0.636 0.539,-0.966 1.212,-0.966 l 4.979,0 c 0.672,0 1.229,-0.33 1.229,-0.966 l 0,-2.326 c 0,-0.637 -0.558,-0.999 -1.229,-0.999 l -7.09,-0.048 0,0 z m 21.633,0 c -0.084,0 -0.166,0.006 -0.245,0.017 -0.555,0.072 -0.981,0.408 -0.981,0.966 -0.002,0.332 0.003,0.651 0,0.982 -0.023,3.76 -0.104,7.540003 -0.049,11.299004 0.003,0.23 -0.037,0.477 -0.051,0.721 -0.007,0.123 -0.002,0.245 0.018,0.361 0.02,0.116 0.055,0.225 0.114,0.327 0.158,0.269 0.388,0.44 0.64,0.541 0.252,0.1 0.536,0.123 0.818,0.115 0.442,-0.012 0.862,0.034 1.261,0.016 0.133,-0.006 0.271,-0.027 0.394,-0.049 0.495,-0.088 0.906,-0.331 1.181,-0.982 l 0.163,-4.308 c 0,-0.636001 0.54,-0.999001 1.212,-0.999001 l 3.274,0 c 0.672,0 1.212,0.362 1.212,0.999001 l 0.05,4.045 c 0,0.672 0.328,1.212 0.966,1.212 0.079,0 0.158,0 0.229,-0.016 0.496,-0.113 0.785,-0.608 0.785,-1.196 l 0,-3.537 0,-2.014002 c 0,-0.955 -0.838,-1.264001 -1.457,-1.573001 -0.188,-0.092 -0.354,-0.187 -0.477,-0.294 -0.12,-0.107 -0.181,-0.234 -0.181,-0.393001 0,-0.842 -0.017,-5.257 -0.017,-5.257 0,-0.637 -0.542,-0.982 -1.212,-0.982 l -7.647,-10e-4 0,0 z m 14.528,0 c -0.084,0 -0.168,0.006 -0.246,0.017 -0.555,0.072 -0.982,0.408 -0.982,0.966 l -0.064,13.232004 c 0,0.318 0.142,0.565 0.359,0.736 0.057,0.043 0.115,0.082 0.182,0.115 0.192,0.099 0.421,0.148 0.672,0.148 l 8.435,0 c 0.67,0 1.211,-0.363 1.211,-0.999 L 521.2161,1 c 0,-0.637 -0.54,-0.982 -1.213,-0.982 l -8.291,-10e-4 0,0 z m 13.116,0 c -0.084,0 -0.167,0.005 -0.245,0.017 -0.158,0.022 -0.297,0.065 -0.428,0.13 -0.322,0.163 -0.539,0.47 -0.539,0.868 l 0.064,1.965 -0.064,10.988004 c 0,0.588 0.264,1.083 0.754,1.196 0.068,0.016 0.133,0.016 0.213,0.016 0.079,0 0.158,0 0.229,-0.016 0.496,-0.113 0.786,-0.608 0.786,-1.196 l 0,-8.646004 c 0,-0.636 0.542,-0.999 1.212,-0.999 l 4.438,0 c 0.671,0 1.212,0.363 1.212,0.999 l 0.05,8.614004 c 0,0.672 0.33,1.212 0.966,1.212 0.079,0 0.158,0 0.229,-0.016 0.496,-0.113 0.786,-0.608 0.786,-1.196 l -0.018,-9.580004 0.018,-3.341 c 0,-0.637 -0.559,-1.015 -1.229,-1.015 l -8.434,0 0,0 z m 20.831,0 c -0.505,0 -0.945,0.193 -1.131,0.557 -0.063,0.121 -0.082,0.267 -0.082,0.426 l -0.081,13.232004 c 0,0.238 0.081,0.432 0.213,0.59 0.219,0.262 0.58,0.409 0.999,0.409 l 7.105,0.033 c 0.671,0 1.212,-0.329 1.212,-0.966 0,-0.636 -0.541,-1.015 -1.212,-1.015 l -4.979,0.033 c -0.671,0 -1.229,-0.38 -1.229,-1.016 L 546.5561,5.323 c 0,-0.636 0.54,-0.966 1.212,-0.966 l 4.979,0 c 0.673,0 1.229,-0.33 1.229,-0.966 l 0,-2.326 c 0,-0.637 -0.557,-0.999 -1.229,-0.999 l -7.088,-0.049 0,0 z m -5.961,0.017 c -0.396,0 -0.682,0.2 -0.834,0.524 -0.063,0.128 -0.109,0.284 -0.133,0.442 -0.01,0.079 -0.016,0.161 -0.016,0.245 l 0.063,8.729004 c 0,0.478 -0.25,0.793 -0.653,0.918 -0.068,0.02 -0.14,0.038 -0.215,0.049 -0.074,0.011 -0.16,0 -0.244,0 l -0.459,0 c -0.672,0 -1.326,0.329 -1.326,0.966 l 0,2.325 c 0,0.319 0.163,0.565 0.408,0.737 0.063,0.042 0.127,0.082 0.196,0.114 0.213,0.099 0.47,0.148 0.722,0.148 l 3.995,0 c 0.671,0 1.212,-0.363 1.212,-0.999 l 0,-2.325 c 0,-0.1 -0.004,-0.184 -0.018,-0.263 -0.088,-0.551 -0.473,-0.62 -0.852,-0.687 -0.162,-0.029 -0.319,-0.062 -0.458,-0.131 -0.232,-0.116 -0.396,-0.336 -0.396,-0.852 l 0,-8.729004 c 0.006,-0.671 -0.355,-1.211 -0.992,-1.211 z m -150.449,0.032 c -0.672,0 -1.229,0.361 -1.229,0.999 l 0,2.326 c 0,0.636 0.558,0.966 1.229,0.966 l 1.521,0 c 0.671,0 1.212,0.33 1.212,0.966 l -0.064,8.729004 c 0,0.671 0.347,1.212 0.982,1.212 0.079,0 0.143,0 0.212,-0.017 0.497,-0.113 0.786,-0.607 0.786,-1.195 l 0,-8.729004 c 0,-0.557 0.412,-0.877 0.967,-0.949 0.079,-0.011 0.162,-0.017 0.245,-0.017 l 4.193,0 c 0.669,0 1.211,0.33 1.211,0.966 l 0,8.729004 c 0,0.671 0.361,1.212 0.999,1.212 0.08,0 0.159,0 0.229,-0.017 0.49,-0.113 0.735,-0.607 0.735,-1.195 L 402.4131,5.323 c 0,-0.557 0.431,-0.877 0.981,-0.949 0.079,-0.011 0.162,-0.017 0.246,-0.017 l 1.521,0 c 0.672,0 1.212,-0.33 1.212,-0.966 l 0,-2.326 c 0,-0.637 -0.539,-0.999 -1.212,-0.999 l -15.912,0 0,0 z m 96.767,0 c -0.168,0 -0.329,0.021 -0.476,0.064 -0.072,0.022 -0.147,0.049 -0.213,0.082 -0.323,0.163 -0.54,0.454 -0.54,0.852 l 0,2.326 c 0,0.636 0.558,0.966 1.229,0.966 l 1.522,0 c 0.671,0 1.212,0.33 1.212,0.966 l -0.064,8.729004 c 0,0.335 0.082,0.648 0.246,0.868 0.04,0.055 0.097,0.104 0.146,0.146 0.103,0.088 0.221,0.148 0.359,0.18 0.07,0.017 0.148,0.017 0.229,0.017 0.079,0 0.143,0 0.214,-0.017 0.495,-0.113 0.784,-0.607 0.784,-1.195 l 0,-8.729004 c 0,-0.557 0.414,-0.877 0.968,-0.949 0.078,-0.011 0.161,-0.017 0.244,-0.017 l 1.523,0 c 0.67,0 1.211,-0.33 1.211,-0.966 l 0,-2.326 c 0,-0.637 -0.541,-0.999 -1.211,-0.999 l -7.385,0 0,0.002 0.002,0 z m 78.426,0 -7.188,0.049 c -0.084,0 -0.168,0.005 -0.245,0.015 -0.556,0.08 -0.968,0.427 -0.968,0.983 l 0.082,6.681002 c 0,0.637 0.541,0.982001 1.212,0.982001 l 3.521,0.065 c 0.671,0 1.212,0.379 1.212,1.015001 l -0.082,2.44 c 0,0.159 -0.036,0.305 -0.099,0.426 -0.122,0.242 -0.349,0.409 -0.64,0.491 -0.071,0.021 -0.149,0.022 -0.229,0.033 -0.079,0.011 -0.162,0.016 -0.246,0.016 l -5.011,0.017 c -0.085,0 -0.167,0.007 -0.246,0.016 -0.554,0.074 -0.966,0.409 -0.966,0.967 0,0.318 0.124,0.565 0.344,0.736 0.221,0.172 0.532,0.263 0.868,0.263 l 9.448,0 c 0.335,0 0.633,-0.083 0.853,-0.246 0.22,-0.163 0.36,-0.401 0.36,-0.72 l 0.082,-6.567002 c 0,-0.636001 -0.559,-0.966001 -1.229,-0.966001 l -5.829,0 c -0.673,0 -1.213,-0.33 -1.213,-0.967001 l -0.082,-2.768 c 0,-0.636 0.559,-0.999 1.229,-0.999 l 5.061,0.017 c 0.673,0 1.213,-0.363 1.213,-0.999 0,-0.634 -0.54,-0.981 -1.212,-0.98 l 0,0 z M 410.9151,0.18 c -0.671,0 -1.212,0.33 -1.212,0.967 l 0,4.603 c 0,0.670001 -0.329,1.212001 -0.967,1.212001 l -1.311,0.033 c -0.671,0 -1.212,0.33 -1.212,0.966001 l -0.082,6.271002 c 0,0.479 0.317,0.8 0.754,0.933 0.071,0.022 0.134,0.038 0.213,0.049 0.079,0.011 0.162,0.017 0.245,0.017 l 9.843,0.033 c 0.671,0 1.212,-0.33 1.212,-0.966 0,-0.636 -0.541,-1.015 -1.212,-1.015 l -7.713,0.033 c -0.672,0 -1.212,-0.38 -1.212,-1.016 l 0.063,-2.342 c 0,-0.636001 0.541,-0.966001 1.213,-0.966001 l 7.647,0.016 c 0.084,0 0.167,-0.006 0.245,-0.016 0.079,-0.011 0.141,-0.029 0.213,-0.049 0.438,-0.124 0.754,-0.439001 0.754,-0.917001 0,-0.557 -0.413,-0.904001 -0.967,-0.982001 -0.078,-0.012 -0.161,-0.017 -0.245,-0.017 l -1.703,-0.017 c -0.084,0 -0.167,-0.005 -0.246,-0.016 -0.315,-0.045 -0.577,-0.167 -0.753,-0.377 C 414.3511,6.46 414.2691,6.25 414.2691,6.011 l 0.064,-2.866 c 0,-0.636 0.558,-0.982 1.229,-0.982 l 1.621,0 c 0.671,0 1.212,-0.346 1.212,-0.982 0,-0.637 -0.541,-0.999 -1.212,-0.999 l -6.268,-0.002 0,0 z m 29.381,0 c -0.421,0 -0.781,0.124 -1,0.377 -0.044,0.05 -0.085,0.119 -0.114,0.179 -0.063,0.121 -0.099,0.25 -0.099,0.41 l 0,4.602 c 0,0.670001 -0.328,1.212001 -0.966,1.212001 l -1.312,0.033 c -0.671,0 -1.212,0.33 -1.212,0.966001 l -0.082,6.271002 c 0,0.238 0.082,0.432 0.213,0.59 0.131,0.157 0.321,0.277 0.54,0.343 0.072,0.022 0.149,0.038 0.229,0.049 0.079,0.011 0.161,0.017 0.245,0.017 l 9.825,0.033 c 0.672,0 1.212,-0.33 1.212,-0.966 0,-0.636 -0.54,-1.015 -1.212,-1.015 l -7.713,0.033 c -0.671,0 -1.212,-0.38 -1.212,-1.016 l 0.064,-2.342 c 0,-0.636001 0.559,-0.966001 1.229,-0.966001 l 7.63,0.016 c 0.085,0 0.167,-0.006 0.246,-0.016 0.08,-0.011 0.156,-0.029 0.229,-0.049 0.437,-0.124 0.735,-0.439001 0.735,-0.917001 0,-0.557 -0.411,-0.904001 -0.967,-0.982001 -0.079,-0.012 -0.161,-0.017 -0.246,-0.017 l -1.702,-0.017 c -0.084,0 -0.166,-0.005 -0.246,-0.016 -0.314,-0.045 -0.577,-0.167 -0.753,-0.377001 -0.132,-0.157 -0.213,-0.367 -0.213,-0.606 l 0.082,-2.866 c 0,-0.636 0.541,-0.982 1.211,-0.982 l 1.622,0 c 0.672,0 1.212,-0.346 1.212,-0.982 0,-0.637 -0.54,-0.999 -1.212,-0.999 l -6.263,0 0,0 z m 24.382,0 c -0.42,0 -0.797,0.124 -1.017,0.377 -0.044,0.05 -0.083,0.119 -0.113,0.179 -0.063,0.121 -0.1,0.25 -0.1,0.41 l 0.018,4.602 c 0,0.670001 -0.348,1.212001 -0.982,1.212001 l -1.294,0.033 c -0.672,0 -1.212,0.33 -1.212,0.966001 l -0.082,6.271002 c 0,0.238 0.082,0.432 0.214,0.59 0.132,0.157 0.306,0.277 0.523,0.343 0.071,0.022 0.149,0.038 0.229,0.049 0.077,0.011 0.16,0.017 0.244,0.017 l 9.826,0.033 c 0.671,0 1.229,-0.33 1.229,-0.966 0,-0.636 -0.559,-1.015 -1.229,-1.015 l -7.696,0.033 c -0.672,0 -1.229,-0.38 -1.229,-1.016 l 0.081,-2.342 c 0,-0.636001 0.54,-0.966001 1.212,-0.966001 l 7.632,0.016 c 0.084,0 0.166,-0.006 0.246,-0.016 0.078,-0.011 0.155,-0.029 0.229,-0.049 0.438,-0.124 0.754,-0.439001 0.754,-0.917001 0,-0.557 -0.431,-0.904001 -0.981,-0.982001 -0.08,-0.012 -0.162,-0.017 -0.246,-0.017 l -1.688,-0.017 c -0.083,0 -0.166,-0.005 -0.245,-0.016 -0.315,-0.045 -0.595,-0.167 -0.771,-0.377001 -0.131,-0.157 -0.195,-0.367 -0.195,-0.606 l 0.064,-2.866 c 0,-0.636 0.54,-0.982 1.212,-0.982 l 1.621,0 c 0.671,0 1.229,-0.346 1.229,-0.982 0,-0.637 -0.559,-0.999 -1.229,-0.999 l -6.254,0 0,0 z m -84.452,2.015 2.702,0 c 0.67,0 1.212,0.33 1.212,0.966 l 0.082,2.849 c 0,0.637001 -0.542,0.999001 -1.212,0.999001 l -4.014,0 c -1.378,-0.019 -1.196,-0.984001 -1.112,-1.310001 l 1.13,-2.539 c 0.326,-0.554 0.54,-0.965 1.212,-0.965 l 0,0 z m 119.104,0 3.343,0 c 0.671,0 1.212,0.33 1.212,0.966 l 0.082,2.849 c 0,0.637001 -0.56,0.999001 -1.229,0.999001 l -3.472,0 c -0.672,0 -1.212,-0.362 -1.212,-0.999001 l 0.064,-2.849 c 10e-4,-0.636 0.542,-0.966 1.212,-0.966 z m 14.314,0 4.404,0 c 0.671,0 1.212,0.33 1.212,0.966 l 0.063,6.993004 c 0,0.636 -0.541,0.999 -1.212,0.999 l -4.534,0 c -0.672,0 -1.213,-0.362 -1.213,-0.999 L 512.4291,3.161 c 0.003,-0.636 0.544,-0.966 1.215,-0.966 l 0,0 z"
     id="path4733"
     inkscape:connector-curvature="0"
     style="fill:#646464;stroke:none;stroke-opacity:1;fill-opacity:1" /><path
     style="fill:#646464;fill-opacity:1"
     d="M 234.50781 90.289062 L 234.5293 111.12891 L 234.49414 131.91797 L 238.03711 131.91406 L 238.07031 111.12891 L 238.04102 90.298828 L 234.50781 90.289062 z M 241.35352 90.289062 L 241.37305 111.12891 L 241.33984 131.91797 L 244.88086 131.91406 L 244.91602 111.12891 L 244.88672 90.298828 L 241.35352 90.289062 z M 249.28516 90.298828 L 249.28516 96.486328 L 252.89258 96.486328 L 252.89453 90.298828 L 249.28516 90.298828 z M 474.17383 90.308594 L 474.17188 96.496094 L 477.78125 96.496094 L 477.7832 90.308594 L 474.17383 90.308594 z M 506.19531 90.308594 L 506.19336 96.496094 L 509.80273 96.496094 L 509.80469 90.308594 L 506.19531 90.308594 z M 368.66602 90.421875 C 365.39741 90.43083 363.18359 90.449219 363.18359 90.449219 L 363.18555 93.916016 C 365.04678 93.907036 372.82946 93.855849 377.64648 93.943359 L 377.64648 113.0293 L 377.64648 131.91016 L 379.53516 131.91016 L 381.42383 131.91016 L 381.42383 113.01758 L 381.42383 93.949219 C 386.32362 93.949219 391.08068 93.933594 395.98047 93.933594 L 395.99023 90.470703 L 380.48047 90.449219 C 376.25898 90.412928 371.93462 90.41292 368.66602 90.421875 z M 416.34961 90.578125 L 416.36914 111.41797 L 416.33594 132.20898 L 419.87695 132.20508 L 419.91211 111.41797 L 419.88281 90.589844 L 416.34961 90.578125 z M 157.30273 90.582031 L 157.17969 111.24609 L 157.05664 131.91016 L 159.19141 131.91016 L 161.32617 131.91016 L 161.20312 111.24609 L 161.08008 90.582031 L 159.19141 90.582031 L 157.30273 90.582031 z M 195.79688 93.179688 L 195.79688 97.666016 L 195.79688 102.1543 L 193.16992 102.1543 L 190.54102 102.1543 L 190.55273 105.47266 L 195.79688 105.50977 L 195.79688 116.59961 C 195.79687 130.11909 196.03775 131.0449 199.77148 131.9375 C 201.7423 132.40864 202.44011 132.34244 204.20117 132.18555 C 204.20117 132.18555 204.90406 132.08933 205.62695 131.95508 L 205.67773 129.0957 C 205.67773 129.0957 205.63773 129.07617 203.38086 129.07617 C 199.62781 129.07617 199.57617 128.90111 199.57617 116.24219 L 199.57617 105.50586 L 205.82031 105.47266 L 205.77539 102.1543 L 202.67578 102.1543 L 199.57617 102.1543 L 199.57617 97.666016 L 199.57617 93.179688 L 197.6875 93.179688 L 195.79688 93.179688 z M 342.26367 93.179688 L 342.26367 97.666016 L 342.26367 102.1543 L 339.63672 102.1543 L 337.00781 102.1543 L 337.01953 105.47266 L 342.26367 105.50977 L 342.26367 116.59961 C 342.26367 130.11909 342.50455 131.0449 346.23828 131.9375 C 348.2091 132.40864 348.90692 132.34244 350.66797 132.18555 C 350.66797 132.18555 351.37085 132.08933 352.09375 131.95508 L 352.14453 129.0957 C 352.14453 129.0957 352.10453 129.07617 349.84766 129.07617 C 346.09461 129.07617 346.04297 128.90111 346.04297 116.24219 L 346.04297 105.50586 L 352.28711 105.47266 L 352.24219 102.1543 L 349.14258 102.1543 L 346.04297 102.1543 L 346.04297 97.666016 L 346.04297 93.179688 L 344.15234 93.179688 L 342.26367 93.179688 z M 435.50586 101.17969 C 427.5069 101.2449 422.35664 107.36947 422.33984 116.83984 C 422.32513 125.14315 425.74464 130.60662 431.91992 132.14453 C 434.733 132.84511 439.21299 132.57163 441.69922 131.54688 C 444.6324 130.33791 447.73484 126.55013 448.50195 123.24023 C 448.78948 121.99947 448.72266 121.95117 448.72266 121.95117 L 445.20312 121.96094 C 445.20312 121.96094 444.91091 122.6522 444.1582 124.29297 C 442.64586 127.58954 440.4369 129.15578 436.94727 129.4082 C 433.20622 129.6788 431.00205 129.05116 428.58398 126.82227 C 426.46484 124.86891 426.11328 122.07868 426.11328 119.49609 L 426.11328 118.16211 L 437.51172 118.16211 L 448.73047 118.16211 L 448.68359 114.73828 C 448.38266 110.18761 446.91201 106.88245 444.04492 104.30469 C 441.48204 102.00044 439.15976 101.14989 435.50586 101.17969 z M 219.35938 101.23047 C 211.36042 101.29568 206.21211 107.42025 206.19531 116.89062 C 206.1806 125.19393 209.60011 130.6574 215.77539 132.19531 C 218.58847 132.89589 223.06846 132.62241 225.55469 131.59766 C 228.48787 130.38869 231.58836 126.60092 232.35547 123.29102 C 232.643 122.05026 232.57812 122.00195 232.57812 122.00195 L 229.05859 122.01172 C 229.05859 122.01172 228.76444 122.70298 228.01172 124.34375 C 226.49939 127.64033 224.29236 129.20852 220.80273 129.46094 C 217.06168 129.73154 214.85752 129.10389 212.43945 126.875 C 210.32031 124.92164 209.9668 122.12946 209.9668 119.54688 L 209.9668 118.21289 L 221.36523 118.21289 L 232.58398 118.21289 L 232.53711 114.78906 C 232.23618 110.23839 230.76748 106.93323 227.90039 104.35547 C 225.33751 102.05122 223.01327 101.20067 219.35938 101.23047 z M 297.37891 101.24219 C 289.37994 101.3074 284.22969 107.43392 284.21289 116.9043 C 284.19818 125.20761 287.61963 130.67107 293.79492 132.20898 C 296.608 132.90957 301.088 132.63608 303.57422 131.61133 C 306.50741 130.40236 309.60788 126.6146 310.375 123.30469 C 310.66253 122.06393 310.59766 122.01562 310.59766 122.01562 L 307.07812 122.02344 C 307.07812 122.02344 306.78397 122.71665 306.03125 124.35742 C 304.51892 127.65399 302.31189 129.22024 298.82227 129.47266 C 295.08121 129.74326 292.8751 129.11562 290.45703 126.88672 C 288.33788 124.93337 287.98633 122.14119 287.98633 119.55859 L 287.98633 118.22656 L 299.38477 118.22656 L 310.60352 118.22656 L 310.55664 114.80078 C 310.25571 110.25011 308.78701 106.94495 305.91992 104.36719 C 303.35704 102.06294 301.03281 101.21239 297.37891 101.24219 z M 401.20508 101.24219 C 393.20611 101.3074 388.05586 107.43392 388.03906 116.9043 C 388.02435 125.20761 391.4458 130.67107 397.62109 132.20898 C 400.43418 132.90957 404.91417 132.63608 407.40039 131.61133 C 410.33358 130.40236 413.43406 126.6146 414.20117 123.30469 C 414.4887 122.06393 414.42383 122.01562 414.42383 122.01562 L 410.90234 122.02344 C 410.90234 122.02344 410.61013 122.71665 409.85742 124.35742 C 408.34509 127.65399 406.1361 129.22024 402.64648 129.47266 C 398.90542 129.74326 396.70127 129.11562 394.2832 126.88672 C 392.16405 124.93337 391.8125 122.14119 391.8125 119.55859 L 391.8125 118.22656 L 403.21094 118.22656 L 414.42969 118.22656 L 414.38281 114.80078 C 414.08188 110.25011 412.61317 106.94495 409.74609 104.36719 C 407.1832 102.06294 404.85897 101.21239 401.20508 101.24219 z M 325.78125 101.26367 C 323.27752 101.21957 321.62571 101.65426 319.54883 102.70508 C 318.09384 103.44123 317.01849 104.38242 316.5293 105.07812 C 315.74982 106.18666 315.8125 106.83934 315.8125 104.25 L 315.8125 102.09766 L 312.27148 102.10352 L 312.25391 131.91797 C 312.25391 131.91797 313.22714 131.91016 314.14453 131.91016 L 315.8125 131.91016 L 315.8125 122.78516 C 315.8125 113.04196 316.28045 110.10088 318.21875 107.63672 C 320.57731 104.6383 326.22751 103.52506 329.36719 105.43945 C 332.47395 107.33375 332.56428 107.74042 332.72852 120.43359 L 332.87891 131.91016 L 334.77148 131.91016 L 336.66602 131.91016 L 336.51367 119.74805 C 336.36428 107.90108 336.33012 107.53946 335.23828 105.7832 C 333.42545 102.8672 331.02184 101.57638 326.91016 101.3125 C 326.51396 101.28707 326.13893 101.26997 325.78125 101.26367 z M 556.16406 101.26367 C 553.66033 101.21957 552.00852 101.65426 549.93164 102.70508 C 548.47665 103.44123 547.40129 104.38242 546.91211 105.07812 C 546.13263 106.18665 546.19727 106.83934 546.19727 104.25 L 546.19727 102.09766 L 542.6543 102.10352 L 542.63672 131.91797 C 542.63672 131.91797 543.6119 131.91016 544.5293 131.91016 L 546.19727 131.91016 L 546.19727 122.78516 C 546.19727 113.04196 546.66326 110.10088 548.60156 107.63672 C 550.96012 104.6383 556.61032 103.52506 559.75 105.43945 C 562.85676 107.33375 562.94904 107.74042 563.11328 120.43359 L 563.26172 131.91016 L 565.15625 131.91016 L 567.04883 131.91016 L 566.89648 119.74805 C 566.7471 107.90108 566.71293 107.53946 565.62109 105.7832 C 563.80826 102.8672 561.40465 101.57638 557.29297 101.3125 C 556.89677 101.28707 556.52174 101.26997 556.16406 101.26367 z M 268.77734 101.26953 C 268.32604 101.26732 267.85855 101.28525 267.37305 101.32422 C 262.44211 101.72003 258.75351 104.41798 256.55273 109.23828 C 255.36529 111.83907 255.17057 119.51085 256.20117 123.05859 C 258.27654 130.20283 268.2226 134.04307 274.27344 130.03516 C 275.4393 129.26293 276.67986 128.09408 277.03125 127.4375 C 278.20837 125.23796 278.60755 126.08069 278.29688 130.10938 C 277.73228 137.4309 275.05718 140.39095 268.99023 140.40625 C 264.95542 140.4164 262.05189 139.03211 260.82227 136.51562 C 260.19038 135.22243 260 134.77344 260 134.77344 L 256.22461 134.74414 C 256.22461 134.74414 256.24934 134.79716 256.53711 136.04492 C 257.27431 139.24136 260.71971 142.37444 264.48633 143.27539 C 266.94631 143.8638 271.57961 143.75335 273.91406 143.05078 C 277.15164 142.07642 279.32839 140.20238 280.75586 137.1582 C 280.75586 137.1582 281.5682 135.11027 281.82617 133.69141 C 282.11634 132.56278 282.15039 118.33203 282.15039 118.33203 L 282.30078 102.1543 L 280.37891 102.1543 L 278.45508 102.1543 L 278.45508 104.2793 C 278.45508 105.44833 278.43945 106.8418 278.43945 106.8418 C 277.23012 105.55736 277.22391 105.56692 276.29883 104.54297 C 274.29132 102.32091 271.9365 101.28498 268.77734 101.26953 z M 179.32422 101.29688 C 176.82049 101.25277 175.16869 101.68747 173.0918 102.73828 C 171.63681 103.47444 170.56145 104.41563 170.07227 105.11133 C 169.29279 106.21986 169.35742 106.87254 169.35742 104.2832 L 169.35742 102.13086 L 165.81445 102.13672 L 165.79688 131.95312 C 165.79688 131.95312 166.77206 131.94336 167.68945 131.94336 L 169.35742 131.94336 L 169.35742 122.82031 C 169.35742 113.07711 169.82342 110.13408 171.76172 107.66992 C 174.12028 104.6715 179.77048 103.55827 182.91016 105.47266 C 186.01692 107.36696 186.1092 107.77559 186.27344 120.46875 L 186.42188 131.94336 L 188.31641 131.94336 L 190.20898 131.94336 L 190.05664 119.78125 C 189.90726 107.93428 189.87309 107.57267 188.78125 105.81641 C 186.96842 102.90041 184.56482 101.60957 180.45312 101.3457 C 180.05693 101.32028 179.68189 101.30318 179.32422 101.29688 z M 526.31836 101.39258 C 518.43231 101.39258 512.03906 108.41628 512.03906 117.08008 C 512.03906 125.74388 518.36787 132.63478 526.25391 132.63477 C 534.13995 132.63477 540.26953 125.74387 540.26953 117.08008 C 540.26953 108.41629 534.2044 101.39258 526.31836 101.39258 z M 492.3457 101.45117 C 489.87987 101.4224 487.15952 101.83187 485.45508 102.70898 C 482.29 104.33774 481.02934 106.53498 481.08594 109.85352 C 481.12836 112.33928 481.54456 112.99861 482.96875 114.48047 C 484.76911 116.35374 486.50793 116.9409 492.75586 118.42969 C 497.44104 119.54611 499.49681 120.69853 500.2832 122.57227 C 500.83882 123.89608 500.48651 125.47459 500.07422 126.13086 C 498.53595 128.57936 496.07085 129.65573 491.66992 129.45508 C 487.39779 129.26029 485.03658 128.24034 483.89844 124.6875 C 483.19787 122.5006 483.17188 121.99219 483.17188 121.99219 L 480.03711 121.99219 L 480.26562 124.16992 C 480.74122 128.38944 484.06549 131.5217 488.97852 132.37695 C 498.30876 134.00114 506.06115 128.25733 503.79688 121.39648 C 502.75237 118.23163 499.86644 116.37371 494.18164 115.20508 C 489.76931 114.29804 486.28179 112.71652 485.31836 111.82031 C 484.39434 110.96076 484.64096 108.46885 485.10938 107.33594 C 485.99463 105.19485 488.86954 104.51562 491.86133 104.51562 C 495.32744 104.51562 497.67458 105.90181 499.00391 108.76367 C 499.61471 110.07865 499.51367 110.58789 499.51367 110.58789 L 502.91211 110.65625 C 502.91211 110.65625 502.91211 110.49754 502.91211 109.45703 C 502.91211 106.4056 499.94173 103.15966 496.23438 101.9707 C 495.21357 101.64333 493.8252 101.46844 492.3457 101.45117 z M 249.28516 102.1543 L 249.28125 131.92578 L 252.89844 131.91797 L 252.89844 102.1543 L 249.28516 102.1543 z M 474.17383 102.51562 L 474.16992 131.93555 L 477.78516 131.92773 L 477.78516 102.51562 L 474.17383 102.51562 z M 506.19531 102.51562 L 506.19141 131.93555 L 509.80664 131.92773 L 509.80664 102.51562 L 506.19531 102.51562 z M 451.46875 102.53516 L 447.51953 102.53906 L 458.85352 131.9375 L 462.71484 131.92773 L 473.55664 102.53906 L 469.80859 102.54688 L 460.73242 127.71484 L 451.46875 102.53516 z M 434.72656 104.47461 C 436.47941 104.4216 438.5183 104.74903 439.80273 105.4043 C 442.65445 106.85914 445.00586 110.63054 445.00586 113.74609 L 445.00586 114.85547 L 435.56055 114.85547 C 428.59822 114.85547 426.06055 114.83398 426.06055 114.83398 C 426.26387 112.67139 426.51398 112.40351 427.05664 110.95312 C 427.97945 108.4867 430.04144 106.0515 432.10352 104.99414 C 432.72519 104.67537 433.67485 104.50641 434.72656 104.47461 z M 268.81445 104.51758 C 272.14767 104.51969 274.01018 105.49412 276.03906 108.29492 C 278.60437 111.83622 278.99837 119.16532 276.8457 123.32812 C 275.83446 125.28364 273.09831 127.52896 271.0293 128.10352 C 268.73265 128.74131 267.76255 128.7088 265.53906 127.91602 C 261.34372 126.42017 259.1027 122.45378 259.0957 116.51758 C 259.09168 113.18924 259.27757 112.32136 260.54492 109.78516 C 262.44248 105.98781 264.75407 104.51558 268.81445 104.51758 z M 218.58008 104.52539 C 220.33293 104.47238 222.37181 104.79981 223.65625 105.45508 C 226.50797 106.90992 228.86133 110.68133 228.86133 113.79688 L 228.86133 114.90625 L 219.41406 114.90625 C 212.45173 114.90625 209.91406 114.88477 209.91406 114.88477 C 210.11738 112.72218 210.3675 112.4543 210.91016 111.00391 C 211.83297 108.53748 213.8969 106.10228 215.95898 105.04492 C 216.58066 104.72615 217.52837 104.55719 218.58008 104.52539 z M 296.59961 104.53711 C 298.35246 104.4841 300.39134 104.81348 301.67578 105.46875 C 304.52749 106.92359 306.88086 110.69304 306.88086 113.80859 L 306.88086 114.91992 L 297.43359 114.91992 C 290.47125 114.91992 287.93359 114.89844 287.93359 114.89844 C 288.13691 112.73586 288.38703 112.46601 288.92969 111.01562 C 289.8525 108.54919 291.91643 106.11399 293.97852 105.05664 C 294.60019 104.73787 295.5479 104.56891 296.59961 104.53711 z M 400.42578 104.53711 C 402.17863 104.4841 404.21752 104.81348 405.50195 105.46875 C 408.35367 106.92359 410.70508 110.69304 410.70508 113.80859 L 410.70508 114.91992 L 401.25977 114.91992 C 394.29743 114.91992 391.75977 114.89844 391.75977 114.89844 C 391.96309 112.73586 392.2132 112.46601 392.75586 111.01562 C 393.67867 108.54919 395.7426 106.11399 397.80469 105.05664 C 398.42636 104.73787 399.37407 104.56891 400.42578 104.53711 z M 526.33594 104.58984 C 532.34993 104.58984 536.97461 110.17323 536.97461 117.06055 C 536.97461 123.94785 532.29915 129.42578 526.28516 129.42578 C 520.27117 129.42579 515.44531 123.94786 515.44531 117.06055 C 515.44531 110.17323 520.32196 104.58984 526.33594 104.58984 z "
     id="path4762" /><path
     style="fill:#646464;fill-opacity:1"
     inkscape:connector-curvature="0"
     id="path4177"
     d="m 333.959,1.807492 c 0,0 -15.496,59.529 -15.91,60.881 -0.542,1.758 -2.217,2.334 -3.094,0.304 -1.082,-2.165 -12.816,-42.374 -12.816,-42.374 l -21.38,0 c 0,0 15.962,52.369 16.685,53.92 7.577,16.234 24.275,9.75 27.705,-2.154 3.527,-12.254 18.618,-70.576 18.618,-70.576 l -9.808,0 0,-10e-4 z m -220.761,4.447 -33.175,21.159 c -10e-4,-4.093 0,-6.685 0,-6.685 l -10.552,0 0,29.198 c 0,0.729 -1.371,2.065 -2.597,0.275 0,0 -14.051,-20.15 -19.144,-26.242 -4.228,-5.062 -18.975,-4.803 -19.031,7.182 -0.038,7.607 0.026,52.151 0.026,52.151 l 10.553,0 0,-36.819 c 0,-2.039 1.806,-1.322 2.928,-0.058 0.521,0.588 23.124,35.004 24.142,36.381 2.306,3.108 13.701,5.406 13.701,-6.354 0,-8.427 -0.021,-33.382 -0.028,-46.849 l 10.304,0 c 1.081,0 2.457,1.213 2.458,1.215 -0.01,1.021 -0.166,33.137 -0.166,37.375 0,9.528 7.895,15.966 16.436,15.966 l 19.032,0 0,-9.255 -8.756,0 c -3.138,0 -5.607,-2.306 -5.607,-5.44 l 0,-36.102 c 0,-1.942 1.559,-4.696 4.668,-4.696 3.111,0 9.75,-0.083 9.75,-0.083 l 0,-7.956 -13.093,0 c -1.218,0 -1.851,-0.958 -1.851,-1.851 l 0.002,-12.512 0,0 z m -113.032,0.359 c 0,0 -0.166,73.3 -0.166,77.675 l 20.468,-0.027 0,-77.646 -20.302,-0.002 0,0 z m 478.674,13.259 c -9.841,0 -18.67,4.102 -24.807,10.635 -0.359,0.385 -0.708,0.786 -1.05,1.188 -4.783,5.61 -7.679,12.791 -7.679,20.636 0,4.48 0.953,8.769 2.65,12.649 0.213,0.485 0.429,0.964 0.662,1.437 4.005,8.041 11.321,14.246 20.247,16.935 0.526,0.158 1.067,0.28 1.604,0.414 2.68,0.668 5.476,1.021 8.369,1.021 18.524,0 33.563,-14.529 33.563,-32.455 0.002,-17.931 -15.034,-32.46 -33.559,-32.46 l 0,0 z m -89.525,0.469 c -12.309,0 -21.851,8.804 -21.851,21.326 0,12.896 14.228,16.998 21.739,17.789 4.726,0.496 9.28,3.765 9.28,8.396 0,3.727 -3.219,6.74 -6.687,6.74 l -21.96,-0.084 0,9.254 24.31,0 c 0.384,0 0.752,-0.008 1.132,-0.027 11.773,-0.579 21.132,-10.041 21.132,-21.711 0,-1.926 -0.106,-3.633 -0.358,-5.166 -0.063,-0.383 -0.145,-0.743 -0.221,-1.104 -2.104,-9.762 -9.756,-11.649 -21.685,-14.807 0,0 -6.326,-1.967 -6.326,-5.773 0,-2.379 1.377,-4.012 3.261,-4.889 0.188,-0.088 0.382,-0.175 0.579,-0.249 0.986,-0.364 2.065,-0.524 3.149,-0.524 l 14.888,0.055 0,-9.227 -20.382,0 0,10e-4 z m -133.805,0.083 c 0,0 -0.166,6.508 -0.166,10.883 l 20.469,-0.056 0,-10.828 -20.303,0.001 0,0 z m 86.929,0 c 0,0 -0.14,6.508 -0.14,10.883 l 20.441,-0.056 0,-10.828 -20.301,0.001 0,0 z m 78.282,0 c 0,0 -0.139,6.508 -0.139,10.883 l 20.439,-0.056 0,-10.828 -20.3,0.001 0,0 z m -274.596,0.056 c -5.871,0 -10.142,3.04 -12.237,8.039 -0.189,0.455 -0.343,0.923 -0.497,1.41 -0.617,1.942 -0.938,4.135 -0.938,6.519 l 0,31.188 c 0,9.527 5.134,16.324 13.673,16.324 l 30.661,0 0,-9.228 -18.259,0 c -3.137,0 -5.578,-2.657 -5.552,-5.802 l 0,-12.209 20.966,0 0,-9.227 -20.993,-0.057 -0.056,-12.265 c 0,-3.137 2.498,-5.44 5.635,-5.44 l 18.259,0 0,-9.254 -30.662,0.002 0,0 z m 34.97,0.11 c 0,0 -0.166,43.219 -0.166,47.594 0,1.785 0.276,3.451 0.746,4.998 0.156,0.517 0.321,1.033 0.524,1.521 2.234,5.345 7.184,8.819 12.928,9.364 0.521,0.049 1.068,0.083 1.602,0.083 l 19.032,0 0,-9.254 -8.396,0 c -3.137,0 -5.607,-2.306 -5.607,-5.44 l 0,-48.866 -20.663,0 0,0 z m 36.241,0 c 0,0 -0.138,43.219 -0.138,47.594 0,8.934 6.365,15.141 14.197,15.883 0.522,0.049 1.041,0.083 1.575,0.083 l 19.031,0 0,-9.255 -8.729,0 c -3.137,0 -5.635,-2.305 -5.635,-5.439 l 0,-48.866 -20.301,0 0,0 z m 339.013,0.138 0,29.198 c 0,0.729 -1.369,2.064 -2.598,0.275 0,0 -14.022,-20.15 -19.113,-26.242 -4.23,-5.062 -19.001,-4.803 -19.062,7.182 -0.035,7.607 0.027,52.151 0.027,52.151 l 10.553,0 0,-36.819 c 0,-2.039 1.805,-1.322 2.929,-0.058 0.521,0.588 23.151,35.004 24.17,36.381 0.433,0.582 1.164,1.136 2.101,1.573 0.313,0.146 0.646,0.298 0.994,0.414 4.171,1.403 10.58,0.479 10.58,-8.342 0,-11.761 -0.028,-55.715 -0.028,-55.715 l -10.553,0 0,0.002 z m -77.509,6.712 c 8.129,0 11.382,11.144 11.382,24.889 0,13.743 -3.822,24.871 -11.382,24.889 -2.065,0.005 -3.795,-0.676 -5.248,-1.935 -0.183,-0.157 -0.353,-0.323 -0.523,-0.497 -0.52,-0.523 -0.998,-1.125 -1.438,-1.796 -0.146,-0.224 -0.306,-0.452 -0.441,-0.69 -2.616,-4.539 -3.701,-11.812 -3.701,-19.971 0,-0.859 0.013,-1.705 0.027,-2.542 0.143,-7.528 0.985,-14.067 3.563,-18.093 0.146,-0.225 0.288,-0.428 0.442,-0.635 1.694,-2.286 4.047,-3.619 7.319,-3.619 l 0,0 z m -223.33,7.846 c 0,0 -0.166,44.626 -0.166,49.001 l 20.469,-0.026 0,-48.975 -20.303,0 0,0 z m 86.929,0 c 0,0 -0.14,44.626 -0.14,49.001 l 20.441,-0.026 0,-48.975 -20.301,0 0,0 z m 78.282,0 c 0,0 -0.139,44.626 -0.139,49.001 l 20.439,-0.026 0,-48.975 -20.3,0 0,0 z" /></svg>