<svg id="Layer_1" data-name="Layer 1" xmlns="http://www.w3.org/2000/svg" viewBox="0 0 594.03 396.48"><title>console</title><path id="base" d="M19,81.2H10.25V-48.47c0-1.9.29-2.44,2.65-2.44h1.25a3,3,0,0,0,3-3V-77.5a1,1,0,0,1,1-1h566.1a1.23,1.23,0,0,1,1.23,1.22l0.23,23.48a3,3,0,0,0,3.1,3c2-.05,3.23,0,3.36,0,4.8,0,5,.25,5,4.5v33.22c0,0.54,0,.63-0.69.63l-6.08.06c-0.69,0-.78.18-0.78,0.63V30.92a0.23,0.23,0,0,0,.23.23l7.08,0a0.23,0.23,0,0,1,.23.23V80.11c0,0.9-.1,1.09-1.47,1.09H19Z" transform="translate(-5.2 78.65)" fill="#cfd0cf"/><path id="keyboard" d="M16.48,317.84c-5.7,0-6.9-4.5-6.9-8.6V83.33l589.49-.39s0.33,222.57,0,226.3c-0.36,4.08-1.1,8.6-6.9,8.6H16.48Z" transform="translate(-5.2 78.65)" fill="#cfd0cf"/><g id="holes"><path id="_Tracé_" data-name="&lt;Tracé&gt;" d="M217.75,106.8h151.6a0.58,0.58,0,0,1,.6.6v23.4a0.58,0.58,0,0,1-.6.6H217.75a0.58,0.58,0,0,1-.6-0.6V107.4A0.58,0.58,0,0,1,217.75,106.8Z" transform="translate(-5.2 78.65)" fill="#0c0c0d"/><path id="_Tracé_2" data-name="&lt;Tracé&gt;" d="M56.15,106.8h151.2a0.58,0.58,0,0,1,.6.6v23.4a0.58,0.58,0,0,1-.6.6H56.15a0.58,0.58,0,0,1-.6-0.6V107.4A0.58,0.58,0,0,1,56.15,106.8Z" transform="translate(-5.2 78.65)" fill="#0c0c0d"/><path id="_Tracé_3" data-name="&lt;Tracé&gt;" d="M19.05,106.8H42a0.58,0.58,0,0,1,.6.6v23.4a0.58,0.58,0,0,1-.6.6H19.05a0.58,0.58,0,0,1-.6-0.6V107.4A0.53,0.53,0,0,1,19.05,106.8Z" transform="translate(-5.2 78.65)" fill="#0c0c0d"/><path id="_Tracé_4" data-name="&lt;Tracé&gt;" d="M375.55,245.3v21a0.58,0.58,0,0,1-.6.6H37.65a0.58,0.58,0,0,1-.6-0.6V245.2s0.8-2.8-2.1-2.8H18.65a0.58,0.58,0,0,1-.6-0.6V145.5a0.58,0.58,0,0,1,.6-0.6h372.2a0.58,0.58,0,0,1,.6.6v96.3a0.58,0.58,0,0,1-.6.6h-12.8A2.27,2.27,0,0,0,375.55,245.3Z" transform="translate(-5.2 78.65)" fill="#0c0c0d"/><path id="_Tracé_5" data-name="&lt;Tracé&gt;" d="M477.55,170.6a0.58,0.58,0,0,0,.6-0.6V145.6a0.58,0.58,0,0,0-.6-0.6h-73.3a0.58,0.58,0,0,0-.6.6V170a0.58,0.58,0,0,0,.6.6h73.3Z" transform="translate(-5.2 78.65)" fill="#0c0c0d"/><path id="_Tracé_6" data-name="&lt;Tracé&gt;" d="M585.55,267.1a0.58,0.58,0,0,0,.6-0.6v-121a0.58,0.58,0,0,0-.6-0.6h-96.9a0.58,0.58,0,0,0-.6.6v121a0.58,0.58,0,0,0,.6.6h96.9Z" transform="translate(-5.2 78.65)" fill="#0c0c0d"/><path id="_Tracé_7" data-name="&lt;Tracé&gt;" d="M453.75,214.1V192.6a0.58,0.58,0,0,0-.6-0.6h-24.6a0.58,0.58,0,0,0-.6.6v21.5s0.3,1.7-1.9,1.7h-21.8a0.58,0.58,0,0,0-.6.6v25.3a0.58,0.58,0,0,0,.6.6h73.3a0.58,0.58,0,0,0,.6-0.6V216.4a0.58,0.58,0,0,0-.6-0.6h-22.2C453,215.8,453.75,214.1,453.75,214.1Z" transform="translate(-5.2 78.65)" fill="#0c0c0d"/></g><g id="keys"><g id="_Groupe_" data-name="&lt;Groupe&gt;"><path id="_Tracé_8" data-name="&lt;Tracé&gt;" d="M245.15,194.3h19.4a1.37,1.37,0,0,1,1.4,1.4v19.8a1.37,1.37,0,0,1-1.4,1.4h-19.4a1.37,1.37,0,0,1-1.4-1.4V195.7A1.36,1.36,0,0,1,245.15,194.3Z" transform="translate(-5.2 78.65)" fill="#9b9a9a"/><path id="_Tracé_9" data-name="&lt;Tracé&gt;" d="M248.05,196.5h13.5a1.37,1.37,0,0,1,1.4,1.4v13.5a1.37,1.37,0,0,1-1.4,1.4h-13.5a1.37,1.37,0,0,1-1.4-1.4V197.9A1.51,1.51,0,0,1,248.05,196.5Z" transform="translate(-5.2 78.65)" fill="#cfd0cf"/></g><g id="_Groupe_2" data-name="&lt;Groupe&gt;"><path id="_Tracé_10" data-name="&lt;Tracé&gt;" d="M269.05,194.3h19.4a1.37,1.37,0,0,1,1.4,1.4v19.8a1.37,1.37,0,0,1-1.4,1.4h-19.4a1.37,1.37,0,0,1-1.4-1.4V195.7A1.43,1.43,0,0,1,269.05,194.3Z" transform="translate(-5.2 78.65)" fill="#9b9a9a"/><path id="_Tracé_11" data-name="&lt;Tracé&gt;" d="M272.05,196.5h13.5a1.37,1.37,0,0,1,1.4,1.4v13.5a1.37,1.37,0,0,1-1.4,1.4h-13.5a1.37,1.37,0,0,1-1.4-1.4V197.9A1.36,1.36,0,0,1,272.05,196.5Z" transform="translate(-5.2 78.65)" fill="#cfd0cf"/></g><g id="_Groupe_3" data-name="&lt;Groupe&gt;"><path id="_Tracé_12" data-name="&lt;Tracé&gt;" d="M293,194.3h19.4a1.37,1.37,0,0,1,1.4,1.4v19.8a1.37,1.37,0,0,1-1.4,1.4H293a1.37,1.37,0,0,1-1.4-1.4V195.7A1.43,1.43,0,0,1,293,194.3Z" transform="translate(-5.2 78.65)" fill="#9b9a9a"/><path id="_Tracé_13" data-name="&lt;Tracé&gt;" d="M296,196.5h13.5a1.37,1.37,0,0,1,1.4,1.4v13.5a1.37,1.37,0,0,1-1.4,1.4H296a1.37,1.37,0,0,1-1.4-1.4V197.9A1.36,1.36,0,0,1,296,196.5Z" transform="translate(-5.2 78.65)" fill="#cfd0cf"/></g><g id="_Groupe_4" data-name="&lt;Groupe&gt;"><path id="_Tracé_14" data-name="&lt;Tracé&gt;" d="M316.85,194.3h19.4a1.37,1.37,0,0,1,1.4,1.4v19.8a1.37,1.37,0,0,1-1.4,1.4h-19.4a1.37,1.37,0,0,1-1.4-1.4V195.7A1.43,1.43,0,0,1,316.85,194.3Z" transform="translate(-5.2 78.65)" fill="#9b9a9a"/><path id="_Tracé_15" data-name="&lt;Tracé&gt;" d="M319.85,196.5h13.5a1.37,1.37,0,0,1,1.4,1.4v13.5a1.37,1.37,0,0,1-1.4,1.4h-13.5a1.37,1.37,0,0,1-1.4-1.4V197.9A1.36,1.36,0,0,1,319.85,196.5Z" transform="translate(-5.2 78.65)" fill="#cfd0cf"/></g><g id="_Groupe_5" data-name="&lt;Groupe&gt;"><path id="_Tracé_16" data-name="&lt;Tracé&gt;" d="M340.75,194.3h19.4a1.37,1.37,0,0,1,1.4,1.4v19.8a1.37,1.37,0,0,1-1.4,1.4h-19.4a1.37,1.37,0,0,1-1.4-1.4V195.7A1.43,1.43,0,0,1,340.75,194.3Z" transform="translate(-5.2 78.65)" fill="#9b9a9a"/><path id="_Tracé_17" data-name="&lt;Tracé&gt;" d="M343.75,196.5h13.5a1.37,1.37,0,0,1,1.4,1.4v13.5a1.37,1.37,0,0,1-1.4,1.4h-13.5a1.37,1.37,0,0,1-1.4-1.4V197.9A1.43,1.43,0,0,1,343.75,196.5Z" transform="translate(-5.2 78.65)" fill="#cfd0cf"/></g><g id="_Groupe_6" data-name="&lt;Groupe&gt;"><path id="_Tracé_18" data-name="&lt;Tracé&gt;" d="M406.45,217.5h19.4a1.37,1.37,0,0,1,1.4,1.4v19.8a1.37,1.37,0,0,1-1.4,1.4h-19.4a1.37,1.37,0,0,1-1.4-1.4V218.9A1.31,1.31,0,0,1,406.45,217.5Z" transform="translate(-5.2 78.65)" fill="#9b9a9a"/><path id="_Tracé_19" data-name="&lt;Tracé&gt;" d="M409.35,219.7h13.5a1.37,1.37,0,0,1,1.4,1.4v13.5a1.37,1.37,0,0,1-1.4,1.4h-13.5a1.37,1.37,0,0,1-1.4-1.4V221.1A1.37,1.37,0,0,1,409.35,219.7Z" transform="translate(-5.2 78.65)" fill="#cfd0cf"/></g><g id="_Groupe_7" data-name="&lt;Groupe&gt;"><path id="_Tracé_20" data-name="&lt;Tracé&gt;" d="M455.85,217.5h19.5a1.37,1.37,0,0,1,1.4,1.4v19.8a1.37,1.37,0,0,1-1.4,1.4H456a1.37,1.37,0,0,1-1.4-1.4V218.9A1.24,1.24,0,0,1,455.85,217.5Z" transform="translate(-5.2 78.65)" fill="#9b9a9a"/><path id="_Tracé_21" data-name="&lt;Tracé&gt;" d="M458.85,219.7h13.5a1.37,1.37,0,0,1,1.4,1.4v13.5a1.37,1.37,0,0,1-1.4,1.4h-13.5a1.37,1.37,0,0,1-1.4-1.4V221.1A1.31,1.31,0,0,1,458.85,219.7Z" transform="translate(-5.2 78.65)" fill="#cfd0cf"/></g><g id="_Groupe_8" data-name="&lt;Groupe&gt;"><path id="_Tracé_22" data-name="&lt;Tracé&gt;" d="M431.15,217.5h19.4a1.37,1.37,0,0,1,1.4,1.4v19.8a1.37,1.37,0,0,1-1.4,1.4h-19.4a1.37,1.37,0,0,1-1.4-1.4V218.9A1.37,1.37,0,0,1,431.15,217.5Z" transform="translate(-5.2 78.65)" fill="#9b9a9a"/><path id="_Tracé_23" data-name="&lt;Tracé&gt;" d="M434.15,219.7h13.5a1.37,1.37,0,0,1,1.4,1.4v13.5a1.37,1.37,0,0,1-1.4,1.4h-13.5a1.37,1.37,0,0,1-1.4-1.4V221.1A1.31,1.31,0,0,1,434.15,219.7Z" transform="translate(-5.2 78.65)" fill="#cfd0cf"/></g><g id="_Groupe_9" data-name="&lt;Groupe&gt;"><path id="_Tracé_24" data-name="&lt;Tracé&gt;" d="M431.15,193.4h19.4a1.37,1.37,0,0,1,1.4,1.4v19.8a1.37,1.37,0,0,1-1.4,1.4h-19.4a1.37,1.37,0,0,1-1.4-1.4V194.8A1.37,1.37,0,0,1,431.15,193.4Z" transform="translate(-5.2 78.65)" fill="#9b9a9a"/><path id="_Tracé_25" data-name="&lt;Tracé&gt;" d="M434.15,195.6h13.5A1.37,1.37,0,0,1,449,197v13.5a1.37,1.37,0,0,1-1.4,1.4h-13.5a1.37,1.37,0,0,1-1.4-1.4V197A1.31,1.31,0,0,1,434.15,195.6Z" transform="translate(-5.2 78.65)" fill="#cfd0cf"/></g><g id="_Groupe_10" data-name="&lt;Groupe&gt;"><path id="_Tracé_26" data-name="&lt;Tracé&gt;" d="M491.15,170.6h19.4a1.37,1.37,0,0,1,1.4,1.4v19.8a1.37,1.37,0,0,1-1.4,1.4h-19.4a1.37,1.37,0,0,1-1.4-1.4V172A1.37,1.37,0,0,1,491.15,170.6Z" transform="translate(-5.2 78.65)" fill="#9b9a9a"/><path id="_Tracé_27" data-name="&lt;Tracé&gt;" d="M494.15,172.8h13.5a1.37,1.37,0,0,1,1.4,1.4v13.5a1.37,1.37,0,0,1-1.4,1.4h-13.5a1.37,1.37,0,0,1-1.4-1.4V174.2A1.31,1.31,0,0,1,494.15,172.8Z" transform="translate(-5.2 78.65)" fill="#cfd0cf"/></g><g id="_Groupe_11" data-name="&lt;Groupe&gt;"><path id="_Tracé_28" data-name="&lt;Tracé&gt;" d="M515.45,170.6h19.4a1.37,1.37,0,0,1,1.4,1.4v19.8a1.37,1.37,0,0,1-1.4,1.4h-19.4a1.37,1.37,0,0,1-1.4-1.4V172A1.31,1.31,0,0,1,515.45,170.6Z" transform="translate(-5.2 78.65)" fill="#9b9a9a"/><path id="_Tracé_29" data-name="&lt;Tracé&gt;" d="M518.35,172.8h13.5a1.37,1.37,0,0,1,1.4,1.4v13.5a1.37,1.37,0,0,1-1.4,1.4h-13.5a1.37,1.37,0,0,1-1.4-1.4V174.2A1.37,1.37,0,0,1,518.35,172.8Z" transform="translate(-5.2 78.65)" fill="#cfd0cf"/></g><g id="_Groupe_12" data-name="&lt;Groupe&gt;"><path id="_Tracé_30" data-name="&lt;Tracé&gt;" d="M539.65,170.6h19.4a1.37,1.37,0,0,1,1.4,1.4v19.8a1.37,1.37,0,0,1-1.4,1.4h-19.4a1.37,1.37,0,0,1-1.4-1.4V172A1.43,1.43,0,0,1,539.65,170.6Z" transform="translate(-5.2 78.65)" fill="#9b9a9a"/><path id="_Tracé_31" data-name="&lt;Tracé&gt;" d="M542.65,172.8h13.5a1.37,1.37,0,0,1,1.4,1.4v13.5a1.37,1.37,0,0,1-1.4,1.4h-13.5a1.37,1.37,0,0,1-1.4-1.4V174.2A1.37,1.37,0,0,1,542.65,172.8Z" transform="translate(-5.2 78.65)" fill="#cfd0cf"/></g><g id="_Groupe_13" data-name="&lt;Groupe&gt;"><path id="_Tracé_32" data-name="&lt;Tracé&gt;" d="M491.15,194.5h19.4a1.37,1.37,0,0,1,1.4,1.4v19.8a1.37,1.37,0,0,1-1.4,1.4h-19.4a1.37,1.37,0,0,1-1.4-1.4V195.9A1.43,1.43,0,0,1,491.15,194.5Z" transform="translate(-5.2 78.65)" fill="#9b9a9a"/><path id="_Tracé_33" data-name="&lt;Tracé&gt;" d="M494.15,196.7h13.5a1.37,1.37,0,0,1,1.4,1.4v13.5a1.37,1.37,0,0,1-1.4,1.4h-13.5a1.37,1.37,0,0,1-1.4-1.4V198.1A1.36,1.36,0,0,1,494.15,196.7Z" transform="translate(-5.2 78.65)" fill="#cfd0cf"/></g><g id="_Groupe_14" data-name="&lt;Groupe&gt;"><path id="_Tracé_34" data-name="&lt;Tracé&gt;" d="M515.45,194.5h19.4a1.37,1.37,0,0,1,1.4,1.4v19.8a1.37,1.37,0,0,1-1.4,1.4h-19.4a1.37,1.37,0,0,1-1.4-1.4V195.9A1.36,1.36,0,0,1,515.45,194.5Z" transform="translate(-5.2 78.65)" fill="#9b9a9a"/><path id="_Tracé_35" data-name="&lt;Tracé&gt;" d="M518.35,196.7h13.5a1.37,1.37,0,0,1,1.4,1.4v13.5a1.37,1.37,0,0,1-1.4,1.4h-13.5a1.37,1.37,0,0,1-1.4-1.4V198.1A1.43,1.43,0,0,1,518.35,196.7Z" transform="translate(-5.2 78.65)" fill="#cfd0cf"/></g><g id="_Groupe_15" data-name="&lt;Groupe&gt;"><path id="_Tracé_36" data-name="&lt;Tracé&gt;" d="M539.65,194.5h19.4a1.37,1.37,0,0,1,1.4,1.4v19.8a1.37,1.37,0,0,1-1.4,1.4h-19.4a1.37,1.37,0,0,1-1.4-1.4V195.9A1.51,1.51,0,0,1,539.65,194.5Z" transform="translate(-5.2 78.65)" fill="#9b9a9a"/><path id="_Tracé_37" data-name="&lt;Tracé&gt;" d="M542.65,196.7h13.5a1.37,1.37,0,0,1,1.4,1.4v13.5a1.37,1.37,0,0,1-1.4,1.4h-13.5a1.37,1.37,0,0,1-1.4-1.4V198.1A1.43,1.43,0,0,1,542.65,196.7Z" transform="translate(-5.2 78.65)" fill="#cfd0cf"/></g><g id="_Groupe_16" data-name="&lt;Groupe&gt;"><path id="_Tracé_38" data-name="&lt;Tracé&gt;" d="M491.15,219h19.4a1.37,1.37,0,0,1,1.4,1.4v19.8a1.37,1.37,0,0,1-1.4,1.4h-19.4a1.37,1.37,0,0,1-1.4-1.4V220.4A1.37,1.37,0,0,1,491.15,219Z" transform="translate(-5.2 78.65)" fill="#9b9a9a"/><path id="_Tracé_39" data-name="&lt;Tracé&gt;" d="M494.15,221.2h13.5a1.37,1.37,0,0,1,1.4,1.4v13.5a1.37,1.37,0,0,1-1.4,1.4h-13.5a1.37,1.37,0,0,1-1.4-1.4V222.6A1.31,1.31,0,0,1,494.15,221.2Z" transform="translate(-5.2 78.65)" fill="#cfd0cf"/></g><g id="_Groupe_17" data-name="&lt;Groupe&gt;"><path id="_Tracé_40" data-name="&lt;Tracé&gt;" d="M515.45,219h19.4a1.37,1.37,0,0,1,1.4,1.4v19.8a1.37,1.37,0,0,1-1.4,1.4h-19.4a1.37,1.37,0,0,1-1.4-1.4V220.4A1.31,1.31,0,0,1,515.45,219Z" transform="translate(-5.2 78.65)" fill="#9b9a9a"/><path id="_Tracé_41" data-name="&lt;Tracé&gt;" d="M518.35,221.2h13.5a1.37,1.37,0,0,1,1.4,1.4v13.5a1.37,1.37,0,0,1-1.4,1.4h-13.5a1.37,1.37,0,0,1-1.4-1.4V222.6A1.37,1.37,0,0,1,518.35,221.2Z" transform="translate(-5.2 78.65)" fill="#cfd0cf"/></g><g id="_Groupe_18" data-name="&lt;Groupe&gt;"><path id="_Tracé_42" data-name="&lt;Tracé&gt;" d="M539.65,219h19.4a1.37,1.37,0,0,1,1.4,1.4v19.8a1.37,1.37,0,0,1-1.4,1.4h-19.4a1.37,1.37,0,0,1-1.4-1.4V220.4A1.43,1.43,0,0,1,539.65,219Z" transform="translate(-5.2 78.65)" fill="#9b9a9a"/><path id="_Tracé_43" data-name="&lt;Tracé&gt;" d="M542.65,221.2h13.5a1.37,1.37,0,0,1,1.4,1.4v13.5a1.37,1.37,0,0,1-1.4,1.4h-13.5a1.37,1.37,0,0,1-1.4-1.4V222.6A1.37,1.37,0,0,1,542.65,221.2Z" transform="translate(-5.2 78.65)" fill="#cfd0cf"/></g><g id="_Groupe_19" data-name="&lt;Groupe&gt;"><path id="_Tracé_44" data-name="&lt;Tracé&gt;" d="M491.15,243.4h43.7a1.37,1.37,0,0,1,1.4,1.4v19.8a1.37,1.37,0,0,1-1.4,1.4h-43.7a1.37,1.37,0,0,1-1.4-1.4V244.8A1.43,1.43,0,0,1,491.15,243.4Z" transform="translate(-5.2 78.65)" fill="#9b9a9a"/><path id="_Tracé_45" data-name="&lt;Tracé&gt;" d="M494.15,245.6h37.8a1.37,1.37,0,0,1,1.4,1.4v13.5a1.37,1.37,0,0,1-1.4,1.4h-37.8a1.37,1.37,0,0,1-1.4-1.4V247.1A1.39,1.39,0,0,1,494.15,245.6Z" transform="translate(-5.2 78.65)" fill="#cfd0cf"/></g><g id="_Groupe_20" data-name="&lt;Groupe&gt;"><path id="_Tracé_46" data-name="&lt;Tracé&gt;" d="M539.65,243.4h19.4a1.37,1.37,0,0,1,1.4,1.4v19.8a1.37,1.37,0,0,1-1.4,1.4h-19.4a1.37,1.37,0,0,1-1.4-1.4V244.8A1.51,1.51,0,0,1,539.65,243.4Z" transform="translate(-5.2 78.65)" fill="#9b9a9a"/><path id="_Tracé_47" data-name="&lt;Tracé&gt;" d="M542.65,245.6h13.5a1.37,1.37,0,0,1,1.4,1.4v13.5a1.37,1.37,0,0,1-1.4,1.4h-13.5a1.37,1.37,0,0,1-1.4-1.4V247.1A1.45,1.45,0,0,1,542.65,245.6Z" transform="translate(-5.2 78.65)" fill="#cfd0cf"/></g><g id="_Groupe_21" data-name="&lt;Groupe&gt;"><path id="_Tracé_48" data-name="&lt;Tracé&gt;" d="M221.25,194.3h19.4a1.37,1.37,0,0,1,1.4,1.4v19.8a1.37,1.37,0,0,1-1.4,1.4h-19.4a1.37,1.37,0,0,1-1.4-1.4V195.7A1.36,1.36,0,0,1,221.25,194.3Z" transform="translate(-5.2 78.65)" fill="#9b9a9a"/><path id="_Tracé_49" data-name="&lt;Tracé&gt;" d="M224.15,196.5h13.5a1.37,1.37,0,0,1,1.4,1.4v13.5a1.37,1.37,0,0,1-1.4,1.4h-13.5a1.37,1.37,0,0,1-1.4-1.4V197.9A1.43,1.43,0,0,1,224.15,196.5Z" transform="translate(-5.2 78.65)" fill="#cfd0cf"/></g><g id="_Groupe_22" data-name="&lt;Groupe&gt;"><path id="_Tracé_50" data-name="&lt;Tracé&gt;" d="M197.35,194.3h19.4a1.37,1.37,0,0,1,1.4,1.4v19.8a1.37,1.37,0,0,1-1.4,1.4h-19.4a1.37,1.37,0,0,1-1.4-1.4V195.7A1.36,1.36,0,0,1,197.35,194.3Z" transform="translate(-5.2 78.65)" fill="#9b9a9a"/><path id="_Tracé_51" data-name="&lt;Tracé&gt;" d="M200.25,196.5h13.5a1.37,1.37,0,0,1,1.4,1.4v13.5a1.37,1.37,0,0,1-1.4,1.4h-13.5a1.37,1.37,0,0,1-1.4-1.4V197.9A1.43,1.43,0,0,1,200.25,196.5Z" transform="translate(-5.2 78.65)" fill="#cfd0cf"/></g><g id="_Groupe_23" data-name="&lt;Groupe&gt;"><path id="_Tracé_52" data-name="&lt;Tracé&gt;" d="M173.45,194.3h19.4a1.37,1.37,0,0,1,1.4,1.4v19.8a1.37,1.37,0,0,1-1.4,1.4h-19.4a1.37,1.37,0,0,1-1.4-1.4V195.7A1.36,1.36,0,0,1,173.45,194.3Z" transform="translate(-5.2 78.65)" fill="#9b9a9a"/><path id="_Tracé_53" data-name="&lt;Tracé&gt;" d="M176.35,196.5h13.5a1.37,1.37,0,0,1,1.4,1.4v13.5a1.37,1.37,0,0,1-1.4,1.4h-13.5a1.37,1.37,0,0,1-1.4-1.4V197.9A1.43,1.43,0,0,1,176.35,196.5Z" transform="translate(-5.2 78.65)" fill="#cfd0cf"/></g><g id="_Groupe_24" data-name="&lt;Groupe&gt;"><path id="_Tracé_54" data-name="&lt;Tracé&gt;" d="M149.45,194.3h19.4a1.37,1.37,0,0,1,1.4,1.4v19.8a1.37,1.37,0,0,1-1.4,1.4h-19.4a1.37,1.37,0,0,1-1.4-1.4V195.7A1.51,1.51,0,0,1,149.45,194.3Z" transform="translate(-5.2 78.65)" fill="#9b9a9a"/><path id="_Tracé_55" data-name="&lt;Tracé&gt;" d="M152.45,196.5H166a1.37,1.37,0,0,1,1.4,1.4v13.5a1.37,1.37,0,0,1-1.4,1.4h-13.5a1.37,1.37,0,0,1-1.4-1.4V197.9A1.43,1.43,0,0,1,152.45,196.5Z" transform="translate(-5.2 78.65)" fill="#cfd0cf"/></g><g id="_Groupe_25" data-name="&lt;Groupe&gt;"><path id="_Tracé_56" data-name="&lt;Tracé&gt;" d="M125.55,194.3h19.4a1.37,1.37,0,0,1,1.4,1.4v19.8a1.37,1.37,0,0,1-1.4,1.4h-19.4a1.37,1.37,0,0,1-1.4-1.4V195.7A1.43,1.43,0,0,1,125.55,194.3Z" transform="translate(-5.2 78.65)" fill="#9b9a9a"/><path id="_Tracé_57" data-name="&lt;Tracé&gt;" d="M128.55,196.5h13.5a1.37,1.37,0,0,1,1.4,1.4v13.5a1.37,1.37,0,0,1-1.4,1.4h-13.5a1.37,1.37,0,0,1-1.4-1.4V197.9A1.43,1.43,0,0,1,128.55,196.5Z" transform="translate(-5.2 78.65)" fill="#cfd0cf"/></g><g id="_Groupe_26" data-name="&lt;Groupe&gt;"><path id="_Tracé_58" data-name="&lt;Tracé&gt;" d="M101.65,194.3h19.4a1.37,1.37,0,0,1,1.4,1.4v19.8a1.37,1.37,0,0,1-1.4,1.4h-19.4a1.37,1.37,0,0,1-1.4-1.4V195.7A1.43,1.43,0,0,1,101.65,194.3Z" transform="translate(-5.2 78.65)" fill="#9b9a9a"/><path id="_Tracé_59" data-name="&lt;Tracé&gt;" d="M104.65,196.5h13.5a1.37,1.37,0,0,1,1.4,1.4v13.5a1.37,1.37,0,0,1-1.4,1.4h-13.5a1.37,1.37,0,0,1-1.4-1.4V197.9A1.43,1.43,0,0,1,104.65,196.5Z" transform="translate(-5.2 78.65)" fill="#cfd0cf"/></g><g id="_Groupe_27" data-name="&lt;Groupe&gt;"><path id="_Tracé_60" data-name="&lt;Tracé&gt;" d="M77.75,194.3h19.4a1.37,1.37,0,0,1,1.4,1.4v19.8a1.37,1.37,0,0,1-1.4,1.4H77.75a1.37,1.37,0,0,1-1.4-1.4V195.7A1.43,1.43,0,0,1,77.75,194.3Z" transform="translate(-5.2 78.65)" fill="#9b9a9a"/><path id="_Tracé_61" data-name="&lt;Tracé&gt;" d="M80.75,196.5h13.5a1.37,1.37,0,0,1,1.4,1.4v13.5a1.37,1.37,0,0,1-1.4,1.4H80.75a1.37,1.37,0,0,1-1.4-1.4V197.9A1.36,1.36,0,0,1,80.75,196.5Z" transform="translate(-5.2 78.65)" fill="#cfd0cf"/></g><g id="_Groupe_28" data-name="&lt;Groupe&gt;"><path id="_Tracé_62" data-name="&lt;Tracé&gt;" d="M233.15,218.4h19.4a1.37,1.37,0,0,1,1.4,1.4v19.8a1.37,1.37,0,0,1-1.4,1.4h-19.4a1.37,1.37,0,0,1-1.4-1.4V219.8A1.43,1.43,0,0,1,233.15,218.4Z" transform="translate(-5.2 78.65)" fill="#9b9a9a"/><path id="_Tracé_63" data-name="&lt;Tracé&gt;" d="M236.15,220.6h13.5a1.37,1.37,0,0,1,1.4,1.4v13.5a1.37,1.37,0,0,1-1.4,1.4h-13.5a1.37,1.37,0,0,1-1.4-1.4V222A1.37,1.37,0,0,1,236.15,220.6Z" transform="translate(-5.2 78.65)" fill="#cfd0cf"/></g><g id="_Groupe_29" data-name="&lt;Groupe&gt;"><path id="_Tracé_64" data-name="&lt;Tracé&gt;" d="M257.15,218.4h19.4a1.37,1.37,0,0,1,1.4,1.4v19.8a1.37,1.37,0,0,1-1.4,1.4h-19.4a1.37,1.37,0,0,1-1.4-1.4V219.8A1.31,1.31,0,0,1,257.15,218.4Z" transform="translate(-5.2 78.65)" fill="#9b9a9a"/><path id="_Tracé_65" data-name="&lt;Tracé&gt;" d="M260.05,220.6h13.5A1.37,1.37,0,0,1,275,222v13.5a1.37,1.37,0,0,1-1.4,1.4h-13.5a1.37,1.37,0,0,1-1.4-1.4V222A1.37,1.37,0,0,1,260.05,220.6Z" transform="translate(-5.2 78.65)" fill="#cfd0cf"/></g><g id="_Groupe_30" data-name="&lt;Groupe&gt;"><path id="_Tracé_66" data-name="&lt;Tracé&gt;" d="M281.05,218.4h19.4a1.37,1.37,0,0,1,1.4,1.4v19.8a1.37,1.37,0,0,1-1.4,1.4h-19.4a1.37,1.37,0,0,1-1.4-1.4V219.8A1.31,1.31,0,0,1,281.05,218.4Z" transform="translate(-5.2 78.65)" fill="#9b9a9a"/><path id="_Tracé_67" data-name="&lt;Tracé&gt;" d="M284,220.6h13.5a1.37,1.37,0,0,1,1.4,1.4v13.5a1.37,1.37,0,0,1-1.4,1.4H284a1.37,1.37,0,0,1-1.4-1.4V222A1.37,1.37,0,0,1,284,220.6Z" transform="translate(-5.2 78.65)" fill="#cfd0cf"/></g><g id="_Groupe_31" data-name="&lt;Groupe&gt;"><path id="_Tracé_68" data-name="&lt;Tracé&gt;" d="M305,218.4h19.4a1.37,1.37,0,0,1,1.4,1.4v19.8a1.37,1.37,0,0,1-1.4,1.4H305a1.37,1.37,0,0,1-1.4-1.4V219.8A1.31,1.31,0,0,1,305,218.4Z" transform="translate(-5.2 78.65)" fill="#9b9a9a"/><path id="_Tracé_69" data-name="&lt;Tracé&gt;" d="M307.85,220.6h13.5a1.37,1.37,0,0,1,1.4,1.4v13.5a1.37,1.37,0,0,1-1.4,1.4h-13.5a1.37,1.37,0,0,1-1.4-1.4V222A1.37,1.37,0,0,1,307.85,220.6Z" transform="translate(-5.2 78.65)" fill="#cfd0cf"/></g><g id="_Groupe_32" data-name="&lt;Groupe&gt;"><path id="_Tracé_70" data-name="&lt;Tracé&gt;" d="M209.25,218.4h19.4a1.37,1.37,0,0,1,1.4,1.4v19.8a1.37,1.37,0,0,1-1.4,1.4h-19.4a1.37,1.37,0,0,1-1.4-1.4V219.8A1.37,1.37,0,0,1,209.25,218.4Z" transform="translate(-5.2 78.65)" fill="#9b9a9a"/><path id="_Tracé_71" data-name="&lt;Tracé&gt;" d="M212.25,220.6h13.5a1.37,1.37,0,0,1,1.4,1.4v13.5a1.37,1.37,0,0,1-1.4,1.4h-13.5a1.37,1.37,0,0,1-1.4-1.4V222A1.37,1.37,0,0,1,212.25,220.6Z" transform="translate(-5.2 78.65)" fill="#cfd0cf"/></g><g id="_Groupe_33" data-name="&lt;Groupe&gt;"><path id="_Tracé_72" data-name="&lt;Tracé&gt;" d="M185.35,218.4h19.4a1.37,1.37,0,0,1,1.4,1.4v19.8a1.37,1.37,0,0,1-1.4,1.4h-19.4a1.37,1.37,0,0,1-1.4-1.4V219.8A1.37,1.37,0,0,1,185.35,218.4Z" transform="translate(-5.2 78.65)" fill="#9b9a9a"/><path id="_Tracé_73" data-name="&lt;Tracé&gt;" d="M188.35,220.6h13.5a1.37,1.37,0,0,1,1.4,1.4v13.5a1.37,1.37,0,0,1-1.4,1.4h-13.5a1.37,1.37,0,0,1-1.4-1.4V222A1.37,1.37,0,0,1,188.35,220.6Z" transform="translate(-5.2 78.65)" fill="#cfd0cf"/></g><g id="_Groupe_34" data-name="&lt;Groupe&gt;"><path id="_Tracé_74" data-name="&lt;Tracé&gt;" d="M161.45,218.4h19.4a1.37,1.37,0,0,1,1.4,1.4v19.8a1.37,1.37,0,0,1-1.4,1.4h-19.4a1.37,1.37,0,0,1-1.4-1.4V219.8A1.37,1.37,0,0,1,161.45,218.4Z" transform="translate(-5.2 78.65)" fill="#9b9a9a"/><path id="_Tracé_75" data-name="&lt;Tracé&gt;" d="M164.45,220.6H178a1.37,1.37,0,0,1,1.4,1.4v13.5a1.37,1.37,0,0,1-1.4,1.4h-13.5a1.37,1.37,0,0,1-1.4-1.4V222A1.31,1.31,0,0,1,164.45,220.6Z" transform="translate(-5.2 78.65)" fill="#cfd0cf"/></g><g id="_Groupe_35" data-name="&lt;Groupe&gt;"><path id="_Tracé_76" data-name="&lt;Tracé&gt;" d="M137.55,218.4h19.4a1.37,1.37,0,0,1,1.4,1.4v19.8a1.37,1.37,0,0,1-1.4,1.4h-19.4a1.37,1.37,0,0,1-1.4-1.4V219.8A1.37,1.37,0,0,1,137.55,218.4Z" transform="translate(-5.2 78.65)" fill="#9b9a9a"/><path id="_Tracé_77" data-name="&lt;Tracé&gt;" d="M140.55,220.6h13.5a1.37,1.37,0,0,1,1.4,1.4v13.5a1.37,1.37,0,0,1-1.4,1.4h-13.5a1.37,1.37,0,0,1-1.4-1.4V222A1.31,1.31,0,0,1,140.55,220.6Z" transform="translate(-5.2 78.65)" fill="#cfd0cf"/></g><g id="_Groupe_36" data-name="&lt;Groupe&gt;"><path id="_Tracé_78" data-name="&lt;Tracé&gt;" d="M113.65,218.4h19.4a1.37,1.37,0,0,1,1.4,1.4v19.8a1.37,1.37,0,0,1-1.4,1.4h-19.4a1.37,1.37,0,0,1-1.4-1.4V219.8A1.37,1.37,0,0,1,113.65,218.4Z" transform="translate(-5.2 78.65)" fill="#9b9a9a"/><path id="_Tracé_79" data-name="&lt;Tracé&gt;" d="M116.65,220.6h13.5a1.37,1.37,0,0,1,1.4,1.4v13.5a1.37,1.37,0,0,1-1.4,1.4h-13.5a1.37,1.37,0,0,1-1.4-1.4V222A1.31,1.31,0,0,1,116.65,220.6Z" transform="translate(-5.2 78.65)" fill="#cfd0cf"/></g><g id="_Groupe_37" data-name="&lt;Groupe&gt;"><path id="_Tracé_80" data-name="&lt;Tracé&gt;" d="M89.75,218.4h19.4a1.37,1.37,0,0,1,1.4,1.4v19.8a1.37,1.37,0,0,1-1.4,1.4H89.75a1.37,1.37,0,0,1-1.4-1.4V219.8A1.37,1.37,0,0,1,89.75,218.4Z" transform="translate(-5.2 78.65)" fill="#9b9a9a"/><path id="_Tracé_81" data-name="&lt;Tracé&gt;" d="M92.75,220.6h13.5a1.37,1.37,0,0,1,1.4,1.4v13.5a1.37,1.37,0,0,1-1.4,1.4H92.75a1.37,1.37,0,0,1-1.4-1.4V222A1.31,1.31,0,0,1,92.75,220.6Z" transform="translate(-5.2 78.65)" fill="#cfd0cf"/></g><g id="_Groupe_38" data-name="&lt;Groupe&gt;"><path id="_Tracé_82" data-name="&lt;Tracé&gt;" d="M65.85,218.4h19.4a1.37,1.37,0,0,1,1.4,1.4v19.8a1.37,1.37,0,0,1-1.4,1.4H65.85a1.37,1.37,0,0,1-1.4-1.4V219.8A1.31,1.31,0,0,1,65.85,218.4Z" transform="translate(-5.2 78.65)" fill="#9b9a9a"/><path id="_Tracé_83" data-name="&lt;Tracé&gt;" d="M68.75,220.6h13.6a1.37,1.37,0,0,1,1.4,1.4v13.5a1.37,1.37,0,0,1-1.4,1.4H68.75a1.37,1.37,0,0,1-1.4-1.4V222A1.37,1.37,0,0,1,68.75,220.6Z" transform="translate(-5.2 78.65)" fill="#cfd0cf"/></g><g id="_Groupe_39" data-name="&lt;Groupe&gt;"><path id="_Tracé_84" data-name="&lt;Tracé&gt;" d="M101.65,242.4h210.5a1.37,1.37,0,0,1,1.4,1.4v19.8a1.37,1.37,0,0,1-1.4,1.4H101.65a1.37,1.37,0,0,1-1.4-1.4V243.8A1.43,1.43,0,0,1,101.65,242.4Z" transform="translate(-5.2 78.65)" fill="#9b9a9a"/><path id="_Tracé_85" data-name="&lt;Tracé&gt;" d="M104.65,244.6h204.6a1.37,1.37,0,0,1,1.4,1.4v13.5a1.37,1.37,0,0,1-1.4,1.4H104.65a1.37,1.37,0,0,1-1.4-1.4V246.1A1.45,1.45,0,0,1,104.65,244.6Z" transform="translate(-5.2 78.65)" fill="#cfd0cf"/></g><g id="_Groupe_40" data-name="&lt;Groupe&gt;"><path id="_Tracé_86" data-name="&lt;Tracé&gt;" d="M238.35,170.3h19.4a1.37,1.37,0,0,1,1.4,1.4v19.8a1.37,1.37,0,0,1-1.4,1.4h-19.4a1.37,1.37,0,0,1-1.4-1.4V171.7A1.37,1.37,0,0,1,238.35,170.3Z" transform="translate(-5.2 78.65)" fill="#9b9a9a"/><path id="_Tracé_87" data-name="&lt;Tracé&gt;" d="M241.35,172.5h13.5a1.37,1.37,0,0,1,1.4,1.4v13.5a1.37,1.37,0,0,1-1.4,1.4h-13.5a1.37,1.37,0,0,1-1.4-1.4V173.9A1.37,1.37,0,0,1,241.35,172.5Z" transform="translate(-5.2 78.65)" fill="#cfd0cf"/></g><g id="_Groupe_41" data-name="&lt;Groupe&gt;"><path id="_Tracé_88" data-name="&lt;Tracé&gt;" d="M262.25,170.3h19.4a1.37,1.37,0,0,1,1.4,1.4v19.8a1.37,1.37,0,0,1-1.4,1.4h-19.4a1.37,1.37,0,0,1-1.4-1.4V171.7A1.37,1.37,0,0,1,262.25,170.3Z" transform="translate(-5.2 78.65)" fill="#9b9a9a"/><path id="_Tracé_89" data-name="&lt;Tracé&gt;" d="M265.25,172.5h13.5a1.37,1.37,0,0,1,1.4,1.4v13.5a1.37,1.37,0,0,1-1.4,1.4h-13.5a1.37,1.37,0,0,1-1.4-1.4V173.9A1.37,1.37,0,0,1,265.25,172.5Z" transform="translate(-5.2 78.65)" fill="#cfd0cf"/></g><g id="_Groupe_42" data-name="&lt;Groupe&gt;"><path id="_Tracé_90" data-name="&lt;Tracé&gt;" d="M286.25,170.3h19.4a1.37,1.37,0,0,1,1.4,1.4v19.8a1.37,1.37,0,0,1-1.4,1.4h-19.4a1.37,1.37,0,0,1-1.4-1.4V171.7A1.31,1.31,0,0,1,286.25,170.3Z" transform="translate(-5.2 78.65)" fill="#9b9a9a"/><path id="_Tracé_91" data-name="&lt;Tracé&gt;" d="M289.15,172.5h13.5a1.37,1.37,0,0,1,1.4,1.4v13.5a1.37,1.37,0,0,1-1.4,1.4h-13.5a1.37,1.37,0,0,1-1.4-1.4V173.9A1.37,1.37,0,0,1,289.15,172.5Z" transform="translate(-5.2 78.65)" fill="#cfd0cf"/></g><g id="_Groupe_43" data-name="&lt;Groupe&gt;"><path id="_Tracé_92" data-name="&lt;Tracé&gt;" d="M310.15,170.3h19.4a1.37,1.37,0,0,1,1.4,1.4v19.8a1.37,1.37,0,0,1-1.4,1.4h-19.4a1.37,1.37,0,0,1-1.4-1.4V171.7A1.31,1.31,0,0,1,310.15,170.3Z" transform="translate(-5.2 78.65)" fill="#9b9a9a"/><path id="_Tracé_93" data-name="&lt;Tracé&gt;" d="M313.05,172.5h13.5a1.37,1.37,0,0,1,1.4,1.4v13.5a1.37,1.37,0,0,1-1.4,1.4h-13.5a1.37,1.37,0,0,1-1.4-1.4V173.9A1.37,1.37,0,0,1,313.05,172.5Z" transform="translate(-5.2 78.65)" fill="#cfd0cf"/></g><g id="_Groupe_44" data-name="&lt;Groupe&gt;"><path id="_Tracé_94" data-name="&lt;Tracé&gt;" d="M334.05,170.3h19.4a1.37,1.37,0,0,1,1.4,1.4v19.8a1.37,1.37,0,0,1-1.4,1.4h-19.4a1.37,1.37,0,0,1-1.4-1.4V171.7A1.31,1.31,0,0,1,334.05,170.3Z" transform="translate(-5.2 78.65)" fill="#9b9a9a"/><path id="_Tracé_95" data-name="&lt;Tracé&gt;" d="M337,172.5h13.5a1.37,1.37,0,0,1,1.4,1.4v13.5a1.37,1.37,0,0,1-1.4,1.4H337a1.37,1.37,0,0,1-1.4-1.4V173.9A1.37,1.37,0,0,1,337,172.5Z" transform="translate(-5.2 78.65)" fill="#cfd0cf"/></g><g id="_Groupe_45" data-name="&lt;Groupe&gt;"><path id="_Tracé_96" data-name="&lt;Tracé&gt;" d="M214.45,170.3h19.4a1.37,1.37,0,0,1,1.4,1.4v19.8a1.37,1.37,0,0,1-1.4,1.4h-19.4a1.37,1.37,0,0,1-1.4-1.4V171.7A1.37,1.37,0,0,1,214.45,170.3Z" transform="translate(-5.2 78.65)" fill="#9b9a9a"/><path id="_Tracé_97" data-name="&lt;Tracé&gt;" d="M217.45,172.5H231a1.37,1.37,0,0,1,1.4,1.4v13.5a1.37,1.37,0,0,1-1.4,1.4h-13.5a1.37,1.37,0,0,1-1.4-1.4V173.9A1.37,1.37,0,0,1,217.45,172.5Z" transform="translate(-5.2 78.65)" fill="#cfd0cf"/></g><g id="_Groupe_46" data-name="&lt;Groupe&gt;"><path id="_Tracé_98" data-name="&lt;Tracé&gt;" d="M191,170.3h19.4a1.37,1.37,0,0,1,1.4,1.4v19.8a1.37,1.37,0,0,1-1.4,1.4H191a1.37,1.37,0,0,1-1.4-1.4V171.7A1.31,1.31,0,0,1,191,170.3Z" transform="translate(-5.2 78.65)" fill="#9b9a9a"/><path id="_Tracé_99" data-name="&lt;Tracé&gt;" d="M193.85,172.5h13.5a1.37,1.37,0,0,1,1.4,1.4v13.5a1.37,1.37,0,0,1-1.4,1.4h-13.5a1.37,1.37,0,0,1-1.4-1.4V173.9A1.37,1.37,0,0,1,193.85,172.5Z" transform="translate(-5.2 78.65)" fill="#cfd0cf"/></g><g id="_Groupe_47" data-name="&lt;Groupe&gt;"><path id="_Tracé_100" data-name="&lt;Tracé&gt;" d="M166.65,170.3h19.4a1.37,1.37,0,0,1,1.4,1.4v19.8a1.37,1.37,0,0,1-1.4,1.4h-19.4a1.37,1.37,0,0,1-1.4-1.4V171.7A1.37,1.37,0,0,1,166.65,170.3Z" transform="translate(-5.2 78.65)" fill="#9b9a9a"/><path id="_Tracé_101" data-name="&lt;Tracé&gt;" d="M169.65,172.5h13.5a1.37,1.37,0,0,1,1.4,1.4v13.5a1.37,1.37,0,0,1-1.4,1.4h-13.5a1.37,1.37,0,0,1-1.4-1.4V173.9A1.31,1.31,0,0,1,169.65,172.5Z" transform="translate(-5.2 78.65)" fill="#cfd0cf"/></g><g id="_Groupe_48" data-name="&lt;Groupe&gt;"><path id="_Tracé_102" data-name="&lt;Tracé&gt;" d="M142.75,170.3h19.4a1.37,1.37,0,0,1,1.4,1.4v19.8a1.37,1.37,0,0,1-1.4,1.4h-19.4a1.37,1.37,0,0,1-1.4-1.4V171.7A1.37,1.37,0,0,1,142.75,170.3Z" transform="translate(-5.2 78.65)" fill="#9b9a9a"/><path id="_Tracé_103" data-name="&lt;Tracé&gt;" d="M145.75,172.5h13.5a1.37,1.37,0,0,1,1.4,1.4v13.5a1.37,1.37,0,0,1-1.4,1.4h-13.5a1.37,1.37,0,0,1-1.4-1.4V173.9A1.31,1.31,0,0,1,145.75,172.5Z" transform="translate(-5.2 78.65)" fill="#cfd0cf"/></g><g id="_Groupe_49" data-name="&lt;Groupe&gt;"><path id="_Tracé_104" data-name="&lt;Tracé&gt;" d="M118.85,170.3h19.4a1.37,1.37,0,0,1,1.4,1.4v19.8a1.37,1.37,0,0,1-1.4,1.4h-19.4a1.37,1.37,0,0,1-1.4-1.4V171.7A1.37,1.37,0,0,1,118.85,170.3Z" transform="translate(-5.2 78.65)" fill="#9b9a9a"/><path id="_Tracé_105" data-name="&lt;Tracé&gt;" d="M121.85,172.5h13.5a1.37,1.37,0,0,1,1.4,1.4v13.5a1.37,1.37,0,0,1-1.4,1.4h-13.5a1.37,1.37,0,0,1-1.4-1.4V173.9A1.31,1.31,0,0,1,121.85,172.5Z" transform="translate(-5.2 78.65)" fill="#cfd0cf"/></g><g id="_Groupe_50" data-name="&lt;Groupe&gt;"><path id="_Tracé_106" data-name="&lt;Tracé&gt;" d="M95,170.3h19.4a1.37,1.37,0,0,1,1.4,1.4v19.8a1.37,1.37,0,0,1-1.4,1.4H95a1.37,1.37,0,0,1-1.4-1.4V171.7A1.31,1.31,0,0,1,95,170.3Z" transform="translate(-5.2 78.65)" fill="#9b9a9a"/><path id="_Tracé_107" data-name="&lt;Tracé&gt;" d="M97.85,172.5h13.5a1.37,1.37,0,0,1,1.4,1.4v13.5a1.37,1.37,0,0,1-1.4,1.4H97.85a1.37,1.37,0,0,1-1.4-1.4V173.9A1.37,1.37,0,0,1,97.85,172.5Z" transform="translate(-5.2 78.65)" fill="#cfd0cf"/></g><g id="_Groupe_51" data-name="&lt;Groupe&gt;"><path id="_Tracé_108" data-name="&lt;Tracé&gt;" d="M71.05,170.3h19.4a1.37,1.37,0,0,1,1.4,1.4v19.8a1.37,1.37,0,0,1-1.4,1.4H71.05a1.37,1.37,0,0,1-1.4-1.4V171.7A1.31,1.31,0,0,1,71.05,170.3Z" transform="translate(-5.2 78.65)" fill="#9b9a9a"/><path id="_Tracé_109" data-name="&lt;Tracé&gt;" d="M74,172.5h13.5a1.37,1.37,0,0,1,1.4,1.4v13.5a1.37,1.37,0,0,1-1.4,1.4H74a1.37,1.37,0,0,1-1.4-1.4V173.9A1.37,1.37,0,0,1,74,172.5Z" transform="translate(-5.2 78.65)" fill="#cfd0cf"/></g><g id="_Groupe_52" data-name="&lt;Groupe&gt;"><path id="_Tracé_110" data-name="&lt;Tracé&gt;" d="M226,146.3h19.4a1.37,1.37,0,0,1,1.4,1.4v19.8a1.37,1.37,0,0,1-1.4,1.4H226a1.37,1.37,0,0,1-1.4-1.4V147.7A1.37,1.37,0,0,1,226,146.3Z" transform="translate(-5.2 78.65)" fill="#9b9a9a"/><path id="_Tracé_111" data-name="&lt;Tracé&gt;" d="M229,148.5h13.5a1.37,1.37,0,0,1,1.4,1.4v13.5a1.37,1.37,0,0,1-1.4,1.4H229a1.37,1.37,0,0,1-1.4-1.4V149.9A1.37,1.37,0,0,1,229,148.5Z" transform="translate(-5.2 78.65)" fill="#cfd0cf"/></g><g id="_Groupe_53" data-name="&lt;Groupe&gt;"><path id="_Tracé_112" data-name="&lt;Tracé&gt;" d="M250,146.3h19.4a1.37,1.37,0,0,1,1.4,1.4v19.8a1.37,1.37,0,0,1-1.4,1.4H250a1.37,1.37,0,0,1-1.4-1.4V147.7A1.31,1.31,0,0,1,250,146.3Z" transform="translate(-5.2 78.65)" fill="#9b9a9a"/><path id="_Tracé_113" data-name="&lt;Tracé&gt;" d="M252.85,148.5h13.5a1.37,1.37,0,0,1,1.4,1.4v13.5a1.37,1.37,0,0,1-1.4,1.4h-13.5a1.37,1.37,0,0,1-1.4-1.4V149.9A1.37,1.37,0,0,1,252.85,148.5Z" transform="translate(-5.2 78.65)" fill="#cfd0cf"/></g><g id="_Groupe_54" data-name="&lt;Groupe&gt;"><path id="_Tracé_114" data-name="&lt;Tracé&gt;" d="M273.85,146.3h19.4a1.37,1.37,0,0,1,1.4,1.4v19.8a1.37,1.37,0,0,1-1.4,1.4h-19.4a1.37,1.37,0,0,1-1.4-1.4V147.7A1.31,1.31,0,0,1,273.85,146.3Z" transform="translate(-5.2 78.65)" fill="#9b9a9a"/><path id="_Tracé_115" data-name="&lt;Tracé&gt;" d="M276.75,148.5h13.6a1.37,1.37,0,0,1,1.4,1.4v13.5a1.37,1.37,0,0,1-1.4,1.4h-13.5a1.37,1.37,0,0,1-1.4-1.4V149.9A1.24,1.24,0,0,1,276.75,148.5Z" transform="translate(-5.2 78.65)" fill="#cfd0cf"/></g><g id="_Groupe_55" data-name="&lt;Groupe&gt;"><path id="_Tracé_116" data-name="&lt;Tracé&gt;" d="M297.75,146.3h19.4a1.37,1.37,0,0,1,1.4,1.4v19.8a1.37,1.37,0,0,1-1.4,1.4h-19.4a1.37,1.37,0,0,1-1.4-1.4V147.7A1.31,1.31,0,0,1,297.75,146.3Z" transform="translate(-5.2 78.65)" fill="#9b9a9a"/><path id="_Tracé_117" data-name="&lt;Tracé&gt;" d="M300.65,148.5h13.5a1.37,1.37,0,0,1,1.4,1.4v13.5a1.37,1.37,0,0,1-1.4,1.4h-13.5a1.37,1.37,0,0,1-1.4-1.4V149.9A1.37,1.37,0,0,1,300.65,148.5Z" transform="translate(-5.2 78.65)" fill="#cfd0cf"/></g><g id="_Groupe_56" data-name="&lt;Groupe&gt;"><path id="_Tracé_118" data-name="&lt;Tracé&gt;" d="M321.65,146.3H341a1.37,1.37,0,0,1,1.4,1.4v19.8a1.37,1.37,0,0,1-1.4,1.4h-19.4a1.37,1.37,0,0,1-1.4-1.4V147.7A1.31,1.31,0,0,1,321.65,146.3Z" transform="translate(-5.2 78.65)" fill="#9b9a9a"/><path id="_Tracé_119" data-name="&lt;Tracé&gt;" d="M324.55,148.5h13.5a1.37,1.37,0,0,1,1.4,1.4v13.5a1.37,1.37,0,0,1-1.4,1.4h-13.5a1.37,1.37,0,0,1-1.4-1.4V149.9A1.37,1.37,0,0,1,324.55,148.5Z" transform="translate(-5.2 78.65)" fill="#cfd0cf"/></g><g id="_Groupe_57" data-name="&lt;Groupe&gt;"><path id="_Tracé_120" data-name="&lt;Tracé&gt;" d="M345.55,146.3H365a1.37,1.37,0,0,1,1.4,1.4v19.8a1.37,1.37,0,0,1-1.4,1.4h-19.4a1.37,1.37,0,0,1-1.4-1.4V147.7A1.31,1.31,0,0,1,345.55,146.3Z" transform="translate(-5.2 78.65)" fill="#9b9a9a"/><path id="_Tracé_121" data-name="&lt;Tracé&gt;" d="M348.45,148.5H362a1.37,1.37,0,0,1,1.4,1.4v13.5a1.37,1.37,0,0,1-1.4,1.4h-13.5a1.37,1.37,0,0,1-1.4-1.4V149.9A1.43,1.43,0,0,1,348.45,148.5Z" transform="translate(-5.2 78.65)" fill="#cfd0cf"/></g><g id="_Groupe_58" data-name="&lt;Groupe&gt;"><path id="_Tracé_122" data-name="&lt;Tracé&gt;" d="M202.05,146.3h19.4a1.37,1.37,0,0,1,1.4,1.4v19.8a1.37,1.37,0,0,1-1.4,1.4h-19.4a1.37,1.37,0,0,1-1.4-1.4V147.7A1.37,1.37,0,0,1,202.05,146.3Z" transform="translate(-5.2 78.65)" fill="#9b9a9a"/><path id="_Tracé_123" data-name="&lt;Tracé&gt;" d="M205.05,148.5h13.5a1.37,1.37,0,0,1,1.4,1.4v13.5a1.37,1.37,0,0,1-1.4,1.4h-13.5a1.37,1.37,0,0,1-1.4-1.4V149.9A1.37,1.37,0,0,1,205.05,148.5Z" transform="translate(-5.2 78.65)" fill="#cfd0cf"/></g><g id="_Groupe_59" data-name="&lt;Groupe&gt;"><path id="_Tracé_124" data-name="&lt;Tracé&gt;" d="M178.15,146.3h19.4a1.37,1.37,0,0,1,1.4,1.4v19.8a1.37,1.37,0,0,1-1.4,1.4h-19.4a1.37,1.37,0,0,1-1.4-1.4V147.7A1.37,1.37,0,0,1,178.15,146.3Z" transform="translate(-5.2 78.65)" fill="#9b9a9a"/><path id="_Tracé_125" data-name="&lt;Tracé&gt;" d="M181.15,148.5h13.5a1.37,1.37,0,0,1,1.4,1.4v13.5a1.37,1.37,0,0,1-1.4,1.4h-13.5a1.37,1.37,0,0,1-1.4-1.4V149.9A1.31,1.31,0,0,1,181.15,148.5Z" transform="translate(-5.2 78.65)" fill="#cfd0cf"/></g><g id="_Groupe_60" data-name="&lt;Groupe&gt;"><path id="_Tracé_126" data-name="&lt;Tracé&gt;" d="M154.25,146.3h19.4a1.37,1.37,0,0,1,1.4,1.4v19.8a1.37,1.37,0,0,1-1.4,1.4h-19.4a1.37,1.37,0,0,1-1.4-1.4V147.7A1.37,1.37,0,0,1,154.25,146.3Z" transform="translate(-5.2 78.65)" fill="#9b9a9a"/><path id="_Tracé_127" data-name="&lt;Tracé&gt;" d="M157.25,148.5h13.5a1.37,1.37,0,0,1,1.4,1.4v13.5a1.37,1.37,0,0,1-1.4,1.4h-13.5a1.37,1.37,0,0,1-1.4-1.4V149.9A1.31,1.31,0,0,1,157.25,148.5Z" transform="translate(-5.2 78.65)" fill="#cfd0cf"/></g><g id="_Groupe_61" data-name="&lt;Groupe&gt;"><path id="_Tracé_128" data-name="&lt;Tracé&gt;" d="M130.35,146.3h19.4a1.37,1.37,0,0,1,1.4,1.4v19.8a1.37,1.37,0,0,1-1.4,1.4h-19.4a1.37,1.37,0,0,1-1.4-1.4V147.7A1.37,1.37,0,0,1,130.35,146.3Z" transform="translate(-5.2 78.65)" fill="#9b9a9a"/><path id="_Tracé_129" data-name="&lt;Tracé&gt;" d="M133.35,148.5h13.5a1.37,1.37,0,0,1,1.4,1.4v13.5a1.37,1.37,0,0,1-1.4,1.4h-13.5a1.37,1.37,0,0,1-1.4-1.4V149.9A1.31,1.31,0,0,1,133.35,148.5Z" transform="translate(-5.2 78.65)" fill="#cfd0cf"/></g><g id="_Groupe_62" data-name="&lt;Groupe&gt;"><path id="_Tracé_130" data-name="&lt;Tracé&gt;" d="M106.45,146.3h19.4a1.37,1.37,0,0,1,1.4,1.4v19.8a1.37,1.37,0,0,1-1.4,1.4h-19.4a1.37,1.37,0,0,1-1.4-1.4V147.7A1.37,1.37,0,0,1,106.45,146.3Z" transform="translate(-5.2 78.65)" fill="#9b9a9a"/><path id="_Tracé_131" data-name="&lt;Tracé&gt;" d="M109.45,148.5H123a1.37,1.37,0,0,1,1.4,1.4v13.5a1.37,1.37,0,0,1-1.4,1.4h-13.5a1.37,1.37,0,0,1-1.4-1.4V149.9A1.31,1.31,0,0,1,109.45,148.5Z" transform="translate(-5.2 78.65)" fill="#cfd0cf"/></g><g id="_Groupe_63" data-name="&lt;Groupe&gt;"><path id="_Tracé_132" data-name="&lt;Tracé&gt;" d="M82.55,146.3H102a1.37,1.37,0,0,1,1.4,1.4v19.8a1.37,1.37,0,0,1-1.4,1.4H82.55a1.37,1.37,0,0,1-1.4-1.4V147.7A1.31,1.31,0,0,1,82.55,146.3Z" transform="translate(-5.2 78.65)" fill="#9b9a9a"/><path id="_Tracé_133" data-name="&lt;Tracé&gt;" d="M85.45,148.5H99a1.37,1.37,0,0,1,1.4,1.4v13.5a1.37,1.37,0,0,1-1.4,1.4H85.45a1.37,1.37,0,0,1-1.4-1.4V149.9A1.43,1.43,0,0,1,85.45,148.5Z" transform="translate(-5.2 78.65)" fill="#cfd0cf"/></g><g id="_Groupe_64" data-name="&lt;Groupe&gt;"><path id="_Tracé_134" data-name="&lt;Tracé&gt;" d="M58.65,146.3h19.4a1.37,1.37,0,0,1,1.4,1.4v19.8a1.37,1.37,0,0,1-1.4,1.4H58.65a1.37,1.37,0,0,1-1.4-1.4V147.7A1.31,1.31,0,0,1,58.65,146.3Z" transform="translate(-5.2 78.65)" fill="#9b9a9a"/><path id="_Tracé_135" data-name="&lt;Tracé&gt;" d="M61.55,148.5h13.5a1.37,1.37,0,0,1,1.4,1.4v13.5a1.37,1.37,0,0,1-1.4,1.4H61.55a1.37,1.37,0,0,1-1.4-1.4V149.9A1.37,1.37,0,0,1,61.55,148.5Z" transform="translate(-5.2 78.65)" fill="#cfd0cf"/></g><g id="_Groupe_65" data-name="&lt;Groupe&gt;"><path id="_Tracé_136" data-name="&lt;Tracé&gt;" d="M20.85,218.4H61a1.37,1.37,0,0,1,1.4,1.4v19.8A1.37,1.37,0,0,1,61,241H20.85a1.37,1.37,0,0,1-1.4-1.4V219.8A1.31,1.31,0,0,1,20.85,218.4Z" transform="translate(-5.2 78.65)" fill="#60605d"/><path id="_Tracé_137" data-name="&lt;Tracé&gt;" d="M23.75,220.6H58a1.37,1.37,0,0,1,1.4,1.4v13.5a1.37,1.37,0,0,1-1.4,1.4H23.75a1.37,1.37,0,0,1-1.4-1.4V222A1.37,1.37,0,0,1,23.75,220.6Z" transform="translate(-5.2 78.65)" fill="#868580"/></g><g id="_Groupe_66" data-name="&lt;Groupe&gt;"><path id="_Tracé_138" data-name="&lt;Tracé&gt;" d="M328.75,218.4H389a1.37,1.37,0,0,1,1.4,1.4v19.8A1.37,1.37,0,0,1,389,241h-60.3a1.37,1.37,0,0,1-1.4-1.4V219.8A1.31,1.31,0,0,1,328.75,218.4Z" transform="translate(-5.2 78.65)" fill="#60605d"/><path id="_Tracé_139" data-name="&lt;Tracé&gt;" d="M331.65,220.6H386a1.37,1.37,0,0,1,1.4,1.4v13.5a1.37,1.37,0,0,1-1.4,1.4h-54.4a1.37,1.37,0,0,1-1.4-1.4V222A1.37,1.37,0,0,1,331.65,220.6Z" transform="translate(-5.2 78.65)" fill="#868580"/></g><g id="_Groupe_67" data-name="&lt;Groupe&gt;"><path id="_Tracé_140" data-name="&lt;Tracé&gt;" d="M40.15,242.4H67a1.37,1.37,0,0,1,1.4,1.4v19.8A1.37,1.37,0,0,1,67,265H40.15a1.37,1.37,0,0,1-1.4-1.4V243.8A1.36,1.36,0,0,1,40.15,242.4Z" transform="translate(-5.2 78.65)" fill="#60605d"/><path id="_Tracé_141" data-name="&lt;Tracé&gt;" d="M43.05,244.6H64a1.37,1.37,0,0,1,1.4,1.4v13.5a1.37,1.37,0,0,1-1.4,1.4H43.05a1.37,1.37,0,0,1-1.4-1.4V246.1A1.45,1.45,0,0,1,43.05,244.6Z" transform="translate(-5.2 78.65)" fill="#868580"/></g><g id="_Groupe_68" data-name="&lt;Groupe&gt;"><path id="_Tracé_142" data-name="&lt;Tracé&gt;" d="M71.05,242.4h26.8a1.37,1.37,0,0,1,1.4,1.4v19.8a1.37,1.37,0,0,1-1.4,1.4H71.05a1.37,1.37,0,0,1-1.4-1.4V243.8A1.36,1.36,0,0,1,71.05,242.4Z" transform="translate(-5.2 78.65)" fill="#60605d"/><path id="_Tracé_143" data-name="&lt;Tracé&gt;" d="M74,244.6h20.9a1.37,1.37,0,0,1,1.4,1.4v13.5a1.37,1.37,0,0,1-1.4,1.4H74a1.37,1.37,0,0,1-1.4-1.4V246.1A1.45,1.45,0,0,1,74,244.6Z" transform="translate(-5.2 78.65)" fill="#868580"/></g><g id="_Groupe_69" data-name="&lt;Groupe&gt;"><path id="_Tracé_144" data-name="&lt;Tracé&gt;" d="M406.45,146.3h32.4a1.37,1.37,0,0,1,1.4,1.4v19.8a1.37,1.37,0,0,1-1.4,1.4h-32.4a1.37,1.37,0,0,1-1.4-1.4V147.7A1.31,1.31,0,0,1,406.45,146.3Z" transform="translate(-5.2 78.65)" fill="#60605d"/><path id="_Tracé_145" data-name="&lt;Tracé&gt;" d="M409.35,148.5h26.5a1.37,1.37,0,0,1,1.4,1.4v13.5a1.37,1.37,0,0,1-1.4,1.4h-26.5a1.37,1.37,0,0,1-1.4-1.4V149.9A1.37,1.37,0,0,1,409.35,148.5Z" transform="translate(-5.2 78.65)" fill="#868580"/></g><g id="_Groupe_70" data-name="&lt;Groupe&gt;"><path id="_Tracé_146" data-name="&lt;Tracé&gt;" d="M442.85,146.3h32.5a1.37,1.37,0,0,1,1.4,1.4v19.8a1.37,1.37,0,0,1-1.4,1.4H443a1.37,1.37,0,0,1-1.4-1.4V147.7A1.24,1.24,0,0,1,442.85,146.3Z" transform="translate(-5.2 78.65)" fill="#60605d"/><path id="_Tracé_147" data-name="&lt;Tracé&gt;" d="M445.85,148.5h26.5a1.37,1.37,0,0,1,1.4,1.4v13.5a1.37,1.37,0,0,1-1.4,1.4h-26.5a1.37,1.37,0,0,1-1.4-1.4V149.9A1.37,1.37,0,0,1,445.85,148.5Z" transform="translate(-5.2 78.65)" fill="#868580"/></g><g id="_Groupe_71" data-name="&lt;Groupe&gt;"><path id="_Tracé_148" data-name="&lt;Tracé&gt;" d="M316.45,242.4h25.8a1.37,1.37,0,0,1,1.4,1.4v19.8a1.37,1.37,0,0,1-1.4,1.4h-25.8a1.37,1.37,0,0,1-1.4-1.4V243.8A1.43,1.43,0,0,1,316.45,242.4Z" transform="translate(-5.2 78.65)" fill="#60605d"/><path id="_Tracé_149" data-name="&lt;Tracé&gt;" d="M319.45,244.6h19.9a1.37,1.37,0,0,1,1.4,1.4v13.5a1.37,1.37,0,0,1-1.4,1.4h-19.9a1.37,1.37,0,0,1-1.4-1.4V246.1A1.45,1.45,0,0,1,319.45,244.6Z" transform="translate(-5.2 78.65)" fill="#868580"/></g><g id="_Groupe_72" data-name="&lt;Groupe&gt;"><path id="_Tracé_150" data-name="&lt;Tracé&gt;" d="M346.85,242.4h25.8a1.37,1.37,0,0,1,1.4,1.4v19.8a1.37,1.37,0,0,1-1.4,1.4h-25.8a1.37,1.37,0,0,1-1.4-1.4V243.8A1.36,1.36,0,0,1,346.85,242.4Z" transform="translate(-5.2 78.65)" fill="#60605d"/><path id="_Tracé_151" data-name="&lt;Tracé&gt;" d="M349.75,244.6h19.9A1.37,1.37,0,0,1,371,246v13.5a1.37,1.37,0,0,1-1.4,1.4h-19.9a1.37,1.37,0,0,1-1.4-1.4V246.1A1.45,1.45,0,0,1,349.75,244.6Z" transform="translate(-5.2 78.65)" fill="#868580"/></g><g id="_Groupe_73" data-name="&lt;Groupe&gt;"><path id="_Tracé_152" data-name="&lt;Tracé&gt;" d="M20.85,194.3h28.5a1.37,1.37,0,0,1,1.4,1.4v19.8a1.37,1.37,0,0,1-1.4,1.4H20.85a1.37,1.37,0,0,1-1.4-1.4V195.7A1.36,1.36,0,0,1,20.85,194.3Z" transform="translate(-5.2 78.65)" fill="#60605d"/><path id="_Tracé_153" data-name="&lt;Tracé&gt;" d="M23.75,196.5h22.6a1.37,1.37,0,0,1,1.4,1.4v13.5a1.37,1.37,0,0,1-1.4,1.4H23.75a1.37,1.37,0,0,1-1.4-1.4V197.9A1.43,1.43,0,0,1,23.75,196.5Z" transform="translate(-5.2 78.65)" fill="#868580"/></g><g id="_Groupe_74" data-name="&lt;Groupe&gt;"><path id="_Tracé_154" data-name="&lt;Tracé&gt;" d="M54.05,194.3h19.2a1.37,1.37,0,0,1,1.4,1.4v19.8a1.37,1.37,0,0,1-1.4,1.4H54.05a1.37,1.37,0,0,1-1.4-1.4V195.7A1.43,1.43,0,0,1,54.05,194.3Z" transform="translate(-5.2 78.65)" fill="#60605d"/><path id="_Tracé_155" data-name="&lt;Tracé&gt;" d="M57.05,196.5h13.3a1.37,1.37,0,0,1,1.4,1.4v13.5a1.37,1.37,0,0,1-1.4,1.4H57.05a1.37,1.37,0,0,1-1.4-1.4V197.9A1.43,1.43,0,0,1,57.05,196.5Z" transform="translate(-5.2 78.65)" fill="#868580"/></g><g id="_Groupe_75" data-name="&lt;Groupe&gt;"><path id="_Tracé_156" data-name="&lt;Tracé&gt;" d="M369.45,146.3h19.2a1.37,1.37,0,0,1,1.4,1.4v19.8a1.37,1.37,0,0,1-1.4,1.4h-19.2a1.37,1.37,0,0,1-1.4-1.4V147.7A1.37,1.37,0,0,1,369.45,146.3Z" transform="translate(-5.2 78.65)" fill="#60605d"/><path id="_Tracé_157" data-name="&lt;Tracé&gt;" d="M372.45,148.5h13.3a1.37,1.37,0,0,1,1.4,1.4v13.5a1.37,1.37,0,0,1-1.4,1.4h-13.3a1.37,1.37,0,0,1-1.4-1.4V149.9A1.31,1.31,0,0,1,372.45,148.5Z" transform="translate(-5.2 78.65)" fill="#868580"/></g><g id="_Groupe_76" data-name="&lt;Groupe&gt;"><path id="_Tracé_158" data-name="&lt;Tracé&gt;" d="M20.85,170.3h45.8a1.37,1.37,0,0,1,1.4,1.4v19.8a1.37,1.37,0,0,1-1.4,1.4H20.85a1.37,1.37,0,0,1-1.4-1.4V171.7A1.31,1.31,0,0,1,20.85,170.3Z" transform="translate(-5.2 78.65)" fill="#60605d"/><path id="_Tracé_159" data-name="&lt;Tracé&gt;" d="M23.75,172.5h39.9a1.37,1.37,0,0,1,1.4,1.4v13.5a1.37,1.37,0,0,1-1.4,1.4H23.75a1.37,1.37,0,0,1-1.4-1.4V173.9A1.37,1.37,0,0,1,23.75,172.5Z" transform="translate(-5.2 78.65)" fill="#868580"/></g><g id="_Groupe_77" data-name="&lt;Groupe&gt;"><path id="_Tracé_160" data-name="&lt;Tracé&gt;" d="M20.85,146.3h33.4a1.37,1.37,0,0,1,1.4,1.4v19.8a1.37,1.37,0,0,1-1.4,1.4H20.85a1.37,1.37,0,0,1-1.4-1.4V147.7A1.31,1.31,0,0,1,20.85,146.3Z" transform="translate(-5.2 78.65)" fill="#60605d"/><path id="_Tracé_161" data-name="&lt;Tracé&gt;" d="M23.75,148.5h27.5a1.37,1.37,0,0,1,1.4,1.4v13.5a1.37,1.37,0,0,1-1.4,1.4H23.75a1.37,1.37,0,0,1-1.4-1.4V149.9A1.37,1.37,0,0,1,23.75,148.5Z" transform="translate(-5.2 78.65)" fill="#868580"/></g><g id="_Groupe_78" data-name="&lt;Groupe&gt;"><path id="_Tracé_162" data-name="&lt;Tracé&gt;" d="M358.15,170.3h30.5a1.37,1.37,0,0,1,1.4,1.4v43.7a1.37,1.37,0,0,1-1.4,1.4h-23.5a1.37,1.37,0,0,1-1.4-1.4V196.7c0-2.4-1.5-3.2-3.7-3.2-3,0-3.3-1.8-3.3-3V171.7A1.43,1.43,0,0,1,358.15,170.3Z" transform="translate(-5.2 78.65)" fill="#60605d"/><path id="_Tracé_163" data-name="&lt;Tracé&gt;" d="M361.05,172.4h24.8a1.37,1.37,0,0,1,1.4,1.4v37.7a1.37,1.37,0,0,1-1.4,1.4h-17.8a1.37,1.37,0,0,1-1.4-1.4V194.9c0-2-1.9-3-3.6-3-3.1,0-3.4-2.1-3.4-3.1v-15A1.37,1.37,0,0,1,361.05,172.4Z" transform="translate(-5.2 78.65)" fill="#868580"/></g><g id="_Groupe_79" data-name="&lt;Groupe&gt;"><path id="_Tracé_164" data-name="&lt;Tracé&gt;" d="M20.75,107.8h19.4a1.37,1.37,0,0,1,1.4,1.4V129a1.37,1.37,0,0,1-1.4,1.4H20.75a1.37,1.37,0,0,1-1.4-1.4V109.2A1.31,1.31,0,0,1,20.75,107.8Z" transform="translate(-5.2 78.65)" fill="#60605d"/><path id="_Tracé_165" data-name="&lt;Tracé&gt;" d="M23.65,110h13.5a1.37,1.37,0,0,1,1.4,1.4v13.5a1.37,1.37,0,0,1-1.4,1.4H23.65a1.37,1.37,0,0,1-1.4-1.4V111.4A1.37,1.37,0,0,1,23.65,110Z" transform="translate(-5.2 78.65)" fill="#868580"/></g><g id="_Groupe_80" data-name="&lt;Groupe&gt;"><path id="_Tracé_166" data-name="&lt;Tracé&gt;" d="M58.05,107.8h26.2a1.37,1.37,0,0,1,1.4,1.4V129a1.37,1.37,0,0,1-1.4,1.4H58.05a1.37,1.37,0,0,1-1.4-1.4V109.2A1.37,1.37,0,0,1,58.05,107.8Z" transform="translate(-5.2 78.65)" fill="#60605d"/><path id="_Tracé_167" data-name="&lt;Tracé&gt;" d="M61.05,110h20.3a1.37,1.37,0,0,1,1.4,1.4v13.5a1.37,1.37,0,0,1-1.4,1.4H61.05a1.37,1.37,0,0,1-1.4-1.4V111.4A1.31,1.31,0,0,1,61.05,110Z" transform="translate(-5.2 78.65)" fill="#868580"/></g><g id="_Groupe_81" data-name="&lt;Groupe&gt;"><path id="_Tracé_168" data-name="&lt;Tracé&gt;" d="M88.45,107.8h26.2a1.37,1.37,0,0,1,1.4,1.4V129a1.37,1.37,0,0,1-1.4,1.4H88.45a1.37,1.37,0,0,1-1.4-1.4V109.2A1.31,1.31,0,0,1,88.45,107.8Z" transform="translate(-5.2 78.65)" fill="#60605d"/><path id="_Tracé_169" data-name="&lt;Tracé&gt;" d="M91.35,110h20.3a1.37,1.37,0,0,1,1.4,1.4v13.5a1.37,1.37,0,0,1-1.4,1.4H91.35a1.37,1.37,0,0,1-1.4-1.4V111.4A1.37,1.37,0,0,1,91.35,110Z" transform="translate(-5.2 78.65)" fill="#868580"/></g><g id="_Groupe_82" data-name="&lt;Groupe&gt;"><path id="_Tracé_170" data-name="&lt;Tracé&gt;" d="M118.75,107.8H145a1.37,1.37,0,0,1,1.4,1.4V129a1.37,1.37,0,0,1-1.4,1.4h-26.2a1.37,1.37,0,0,1-1.4-1.4V109.2A1.43,1.43,0,0,1,118.75,107.8Z" transform="translate(-5.2 78.65)" fill="#60605d"/><path id="_Tracé_171" data-name="&lt;Tracé&gt;" d="M121.75,110h20.3a1.37,1.37,0,0,1,1.4,1.4v13.5a1.37,1.37,0,0,1-1.4,1.4h-20.3a1.37,1.37,0,0,1-1.4-1.4V111.4A1.37,1.37,0,0,1,121.75,110Z" transform="translate(-5.2 78.65)" fill="#868580"/></g><g id="_Groupe_83" data-name="&lt;Groupe&gt;"><path id="_Tracé_172" data-name="&lt;Tracé&gt;" d="M149.15,107.8h26.2a1.37,1.37,0,0,1,1.4,1.4V129a1.37,1.37,0,0,1-1.4,1.4h-26.2a1.37,1.37,0,0,1-1.4-1.4V109.2A1.37,1.37,0,0,1,149.15,107.8Z" transform="translate(-5.2 78.65)" fill="#60605d"/><path id="_Tracé_173" data-name="&lt;Tracé&gt;" d="M152.15,110h20.3a1.37,1.37,0,0,1,1.4,1.4v13.5a1.37,1.37,0,0,1-1.4,1.4h-20.3a1.37,1.37,0,0,1-1.4-1.4V111.4A1.31,1.31,0,0,1,152.15,110Z" transform="translate(-5.2 78.65)" fill="#868580"/></g><g id="_Groupe_84" data-name="&lt;Groupe&gt;"><path id="_Tracé_174" data-name="&lt;Tracé&gt;" d="M179.55,107.8h26.2a1.37,1.37,0,0,1,1.4,1.4V129a1.37,1.37,0,0,1-1.4,1.4h-26.2a1.37,1.37,0,0,1-1.4-1.4V109.2A1.37,1.37,0,0,1,179.55,107.8Z" transform="translate(-5.2 78.65)" fill="#60605d"/><path id="_Tracé_175" data-name="&lt;Tracé&gt;" d="M182.55,110h20.3a1.37,1.37,0,0,1,1.4,1.4v13.5a1.37,1.37,0,0,1-1.4,1.4h-20.3a1.37,1.37,0,0,1-1.4-1.4V111.4A1.31,1.31,0,0,1,182.55,110Z" transform="translate(-5.2 78.65)" fill="#868580"/></g><g id="_Groupe_85" data-name="&lt;Groupe&gt;"><path id="_Tracé_176" data-name="&lt;Tracé&gt;" d="M219.85,107.8h26.2a1.37,1.37,0,0,1,1.4,1.4V129a1.37,1.37,0,0,1-1.4,1.4h-26.2a1.37,1.37,0,0,1-1.4-1.4V109.2A1.37,1.37,0,0,1,219.85,107.8Z" transform="translate(-5.2 78.65)" fill="#60605d"/><path id="_Tracé_177" data-name="&lt;Tracé&gt;" d="M222.85,110h20.3a1.37,1.37,0,0,1,1.4,1.4v13.5a1.37,1.37,0,0,1-1.4,1.4h-20.3a1.37,1.37,0,0,1-1.4-1.4V111.4A1.31,1.31,0,0,1,222.85,110Z" transform="translate(-5.2 78.65)" fill="#868580"/></g><g id="_Groupe_86" data-name="&lt;Groupe&gt;"><path id="_Tracé_178" data-name="&lt;Tracé&gt;" d="M250.25,107.8h26.1a1.37,1.37,0,0,1,1.4,1.4V129a1.37,1.37,0,0,1-1.4,1.4h-26.2a1.37,1.37,0,0,1-1.4-1.4V109.2A1.45,1.45,0,0,1,250.25,107.8Z" transform="translate(-5.2 78.65)" fill="#60605d"/><path id="_Tracé_179" data-name="&lt;Tracé&gt;" d="M253.15,110h20.3a1.37,1.37,0,0,1,1.4,1.4v13.5a1.37,1.37,0,0,1-1.4,1.4h-20.3a1.37,1.37,0,0,1-1.4-1.4V111.4A1.37,1.37,0,0,1,253.15,110Z" transform="translate(-5.2 78.65)" fill="#868580"/></g><g id="_Groupe_87" data-name="&lt;Groupe&gt;"><path id="_Tracé_180" data-name="&lt;Tracé&gt;" d="M280.55,107.8h26.2a1.37,1.37,0,0,1,1.4,1.4V129a1.37,1.37,0,0,1-1.4,1.4h-26.2a1.37,1.37,0,0,1-1.4-1.4V109.2A1.43,1.43,0,0,1,280.55,107.8Z" transform="translate(-5.2 78.65)" fill="#60605d"/><path id="_Tracé_181" data-name="&lt;Tracé&gt;" d="M283.55,110h20.3a1.37,1.37,0,0,1,1.4,1.4v13.5a1.37,1.37,0,0,1-1.4,1.4h-20.3a1.37,1.37,0,0,1-1.4-1.4V111.4A1.37,1.37,0,0,1,283.55,110Z" transform="translate(-5.2 78.65)" fill="#868580"/></g><g id="_Groupe_88" data-name="&lt;Groupe&gt;"><path id="_Tracé_182" data-name="&lt;Tracé&gt;" d="M311,107.8h26.2a1.37,1.37,0,0,1,1.4,1.4V129a1.37,1.37,0,0,1-1.4,1.4H311a1.37,1.37,0,0,1-1.4-1.4V109.2A1.37,1.37,0,0,1,311,107.8Z" transform="translate(-5.2 78.65)" fill="#60605d"/><path id="_Tracé_183" data-name="&lt;Tracé&gt;" d="M314,110h20.3a1.37,1.37,0,0,1,1.4,1.4v13.5a1.37,1.37,0,0,1-1.4,1.4H314a1.37,1.37,0,0,1-1.4-1.4V111.4A1.31,1.31,0,0,1,314,110Z" transform="translate(-5.2 78.65)" fill="#868580"/></g><g id="_Groupe_89" data-name="&lt;Groupe&gt;"><path id="_Tracé_184" data-name="&lt;Tracé&gt;" d="M341.35,107.8h26.2a1.37,1.37,0,0,1,1.4,1.4V129a1.37,1.37,0,0,1-1.4,1.4h-26.2A1.37,1.37,0,0,1,340,129V109.2A1.37,1.37,0,0,1,341.35,107.8Z" transform="translate(-5.2 78.65)" fill="#60605d"/><path id="_Tracé_185" data-name="&lt;Tracé&gt;" d="M344.35,110h20.3a1.37,1.37,0,0,1,1.4,1.4v13.5a1.37,1.37,0,0,1-1.4,1.4h-20.3a1.37,1.37,0,0,1-1.4-1.4V111.4A1.31,1.31,0,0,1,344.35,110Z" transform="translate(-5.2 78.65)" fill="#868580"/></g><g id="_Groupe_90" data-name="&lt;Groupe&gt;"><path id="_Tracé_186" data-name="&lt;Tracé&gt;" d="M491.15,146.3h19.4a1.37,1.37,0,0,1,1.4,1.4v19.8a1.37,1.37,0,0,1-1.4,1.4h-19.4a1.37,1.37,0,0,1-1.4-1.4V147.7A1.37,1.37,0,0,1,491.15,146.3Z" transform="translate(-5.2 78.65)" fill="#60605d"/><path id="_Tracé_187" data-name="&lt;Tracé&gt;" d="M494.15,148.5h13.5a1.37,1.37,0,0,1,1.4,1.4v13.5a1.37,1.37,0,0,1-1.4,1.4h-13.5a1.37,1.37,0,0,1-1.4-1.4V149.9A1.31,1.31,0,0,1,494.15,148.5Z" transform="translate(-5.2 78.65)" fill="#868580"/></g><g id="_Groupe_91" data-name="&lt;Groupe&gt;"><path id="_Tracé_188" data-name="&lt;Tracé&gt;" d="M515.45,146.3h19.4a1.37,1.37,0,0,1,1.4,1.4v19.8a1.37,1.37,0,0,1-1.4,1.4h-19.4a1.37,1.37,0,0,1-1.4-1.4V147.7A1.31,1.31,0,0,1,515.45,146.3Z" transform="translate(-5.2 78.65)" fill="#60605d"/><path id="_Tracé_189" data-name="&lt;Tracé&gt;" d="M518.35,148.5h13.5a1.37,1.37,0,0,1,1.4,1.4v13.5a1.37,1.37,0,0,1-1.4,1.4h-13.5a1.37,1.37,0,0,1-1.4-1.4V149.9A1.37,1.37,0,0,1,518.35,148.5Z" transform="translate(-5.2 78.65)" fill="#868580"/></g><g id="_Groupe_92" data-name="&lt;Groupe&gt;"><path id="_Tracé_190" data-name="&lt;Tracé&gt;" d="M539.65,146.3h19.4a1.37,1.37,0,0,1,1.4,1.4v19.8a1.37,1.37,0,0,1-1.4,1.4h-19.4a1.37,1.37,0,0,1-1.4-1.4V147.7A1.43,1.43,0,0,1,539.65,146.3Z" transform="translate(-5.2 78.65)" fill="#60605d"/><path id="_Tracé_191" data-name="&lt;Tracé&gt;" d="M542.65,148.5h13.5a1.37,1.37,0,0,1,1.4,1.4v13.5a1.37,1.37,0,0,1-1.4,1.4h-13.5a1.37,1.37,0,0,1-1.4-1.4V149.9A1.37,1.37,0,0,1,542.65,148.5Z" transform="translate(-5.2 78.65)" fill="#868580"/></g><g id="_Groupe_93" data-name="&lt;Groupe&gt;"><path id="_Tracé_192" data-name="&lt;Tracé&gt;" d="M563.95,146.3h19.4a1.37,1.37,0,0,1,1.4,1.4v19.8a1.37,1.37,0,0,1-1.4,1.4h-19.4a1.37,1.37,0,0,1-1.4-1.4V147.7A1.37,1.37,0,0,1,563.95,146.3Z" transform="translate(-5.2 78.65)" fill="#60605d"/><path id="_Tracé_193" data-name="&lt;Tracé&gt;" d="M566.95,148.5h13.5a1.37,1.37,0,0,1,1.4,1.4v13.5a1.37,1.37,0,0,1-1.4,1.4h-13.5a1.37,1.37,0,0,1-1.4-1.4V149.9A1.37,1.37,0,0,1,566.95,148.5Z" transform="translate(-5.2 78.65)" fill="#868580"/></g><g id="_Groupe_94" data-name="&lt;Groupe&gt;"><path id="_Tracé_194" data-name="&lt;Tracé&gt;" d="M563.95,170.6h19.4a1.37,1.37,0,0,1,1.4,1.4v19.8a1.37,1.37,0,0,1-1.4,1.4h-19.4a1.37,1.37,0,0,1-1.4-1.4V172A1.37,1.37,0,0,1,563.95,170.6Z" transform="translate(-5.2 78.65)" fill="#60605d"/><path id="_Tracé_195" data-name="&lt;Tracé&gt;" d="M566.95,172.8h13.5a1.37,1.37,0,0,1,1.4,1.4v13.5a1.37,1.37,0,0,1-1.4,1.4h-13.5a1.37,1.37,0,0,1-1.4-1.4V174.2A1.37,1.37,0,0,1,566.95,172.8Z" transform="translate(-5.2 78.65)" fill="#868580"/></g><g id="_Groupe_95" data-name="&lt;Groupe&gt;"><path id="_Tracé_196" data-name="&lt;Tracé&gt;" d="M563.95,194.5h19.4a1.37,1.37,0,0,1,1.4,1.4v19.8a1.37,1.37,0,0,1-1.4,1.4h-19.4a1.37,1.37,0,0,1-1.4-1.4V195.9A1.43,1.43,0,0,1,563.95,194.5Z" transform="translate(-5.2 78.65)" fill="#60605d"/><path id="_Tracé_197" data-name="&lt;Tracé&gt;" d="M566.95,196.7h13.5a1.37,1.37,0,0,1,1.4,1.4v13.5a1.37,1.37,0,0,1-1.4,1.4h-13.5a1.37,1.37,0,0,1-1.4-1.4V198.1A1.43,1.43,0,0,1,566.95,196.7Z" transform="translate(-5.2 78.65)" fill="#868580"/></g><g id="_Groupe_96" data-name="&lt;Groupe&gt;"><path id="_Tracé_198" data-name="&lt;Tracé&gt;" d="M563.95,219.3h19.4a1.37,1.37,0,0,1,1.4,1.4v43.9a1.37,1.37,0,0,1-1.4,1.4h-19.4a1.37,1.37,0,0,1-1.4-1.4V220.7A1.43,1.43,0,0,1,563.95,219.3Z" transform="translate(-5.2 78.65)" fill="#60605d"/><path id="_Tracé_199" data-name="&lt;Tracé&gt;" d="M566.95,221.5h13.5a1.37,1.37,0,0,1,1.4,1.4v37.6a1.37,1.37,0,0,1-1.4,1.4h-13.5a1.37,1.37,0,0,1-1.4-1.4V222.9A1.43,1.43,0,0,1,566.95,221.5Z" transform="translate(-5.2 78.65)" fill="#868580"/></g></g><g id="plaque"><path id="_Tracé_200" data-name="&lt;Tracé&gt;" d="M489.79,102.07V87.87a1.15,1.15,0,0,1,1.26-1H567.8a0.92,0.92,0,0,1,.51.1,1.38,1.38,0,0,0-.88-0.4H490.55a1.16,1.16,0,0,0-1.26,1v14.2a1,1,0,0,0,.76.9A1.23,1.23,0,0,1,489.79,102.07Z" transform="translate(-5.2 78.65)" fill="#eaeaea"/><path id="_Tracé_201" data-name="&lt;Tracé&gt;" d="M567.92,86.77a0.63,0.63,0,0,1,.13.5v14.2a1.15,1.15,0,0,1-1.26,1H490c-0.25,0-.38-0.1-0.63-0.1a1.37,1.37,0,0,0,1,.5h76.74a1.16,1.16,0,0,0,1.26-1V87.57A0.7,0.7,0,0,0,567.92,86.77Z" transform="translate(-5.2 78.65)" fill="#777878"/></g><g id="lights"><path id="_Tracé_202" data-name="&lt;Tracé&gt;" d="M549.55,117.4h17.8a0.22,0.22,0,0,1,.2.2V120a0.22,0.22,0,0,1-.2.2h-17.8a0.22,0.22,0,0,1-.2-0.2v-2.4A0.22,0.22,0,0,1,549.55,117.4Z" transform="translate(-5.2 78.65)" fill="#525056"/><path id="_Tracé_203" data-name="&lt;Tracé&gt;" d="M549.55,127.7h17.8a0.22,0.22,0,0,1,.2.2v2.4a0.22,0.22,0,0,1-.2.2h-17.8a0.22,0.22,0,0,1-.2-0.2v-2.4A0.22,0.22,0,0,1,549.55,127.7Z" transform="translate(-5.2 78.65)" fill="#b9d432"/><path id="_Tracé_204" data-name="&lt;Tracé&gt;" d="M565.25,129.8h-13.6a0.65,0.65,0,0,1-.6-0.6v-0.3a0.65,0.65,0,0,1,.6-0.6h13.6a0.65,0.65,0,0,1,.6.6v0.3A0.58,0.58,0,0,1,565.25,129.8Z" transform="translate(-5.2 78.65)" fill="#e6e414"/></g><g id="amiga_logo_big"><g id="_Groupe_97" data-name="&lt;Groupe&gt;"><g id="_Groupe_98" data-name="&lt;Groupe&gt;"><polygon id="_Tracé_205" data-name="&lt;Tracé&gt;" points="454.15 133.85 460.56 125.85 460.56 124.75 453.25 133.85 454.15 133.85" fill="#777878"/><path id="_Tracé_206" data-name="&lt;Tracé&gt;" d="M470.35,39.7V61.1a2.44,2.44,0,0,0,.6,1.8,1.58,1.58,0,0,0,.8.5c-0.1,0-.1-0.1-0.2-0.1a3.8,3.8,0,0,1-.6-1.8V39.8h-0.6V39.7h0Z" transform="translate(-5.2 78.65)" fill="#777878"/><path id="_Tracé_207" data-name="&lt;Tracé&gt;" d="M455.65,63.8v0.4H449l-0.1.3h7.3V63.9A1.27,1.27,0,0,0,455.65,63.8Z" transform="translate(-5.2 78.65)" fill="#777878"/><path id="_Tracé_208" data-name="&lt;Tracé&gt;" d="M465.75,56.3h-8.1l-1.5,1.9-1.7,2c-0.3.4-.5,0.9-0.7,1.2a1.18,1.18,0,0,0-.1.8,1,1,0,0,0,.5.8,0.76,0.76,0,0,0,.5.2,0.87,0.87,0,0,1-.4-0.7,2,2,0,0,1,.1-0.8,3.75,3.75,0,0,1,.7-1.2l1.7-2,1.5-1.9h7.6Z" transform="translate(-5.2 78.65)" fill="#777878"/><path id="_Tracé_209" data-name="&lt;Tracé&gt;" d="M472.55,63.7l-0.1.4h-9.9l-0.1.3H473l0.2-.6A1.48,1.48,0,0,1,472.55,63.7Z" transform="translate(-5.2 78.65)" fill="#777878"/></g><g id="_Groupe_99" data-name="&lt;Groupe&gt;"><path id="_Tracé_210" data-name="&lt;Tracé&gt;" d="M483.75,44.5l-0.2-1.7-4.2,16.9a5.55,5.55,0,0,0-.2,1.7,2.13,2.13,0,0,0,.7,1.5l0.6,0.3a1.91,1.91,0,0,1-.7-1.4,14.93,14.93,0,0,1,.2-1.7Z" transform="translate(-5.2 78.65)" fill="#777878"/><polygon id="_Tracé_211" data-name="&lt;Tracé&gt;" points="485.45 135.95 485.86 135.25 483.36 118.95 482.75 118.95 485.45 135.95" fill="#777878"/><path id="_Tracé_212" data-name="&lt;Tracé&gt;" d="M509.85,40.3l-0.1.3a3.65,3.65,0,0,0-2.7.8,5.23,5.23,0,0,0-1.4,3l-3.9,15.5a7,7,0,0,0-.3,2.2,1.38,1.38,0,0,0,.6,1.1,0.76,0.76,0,0,0,.5.2,1.91,1.91,0,0,1-.5-1,12.22,12.22,0,0,1,.3-2.2l3.9-15.6a7,7,0,0,1,1.4-3,4.15,4.15,0,0,1,2.7-.7l0.2-.6h-0.7Z" transform="translate(-5.2 78.65)" fill="#777878"/><path id="_Tracé_213" data-name="&lt;Tracé&gt;" d="M504,64.1h-11.5l-0.1.3h12.2l0.1-.6h-0.6Z" transform="translate(-5.2 78.65)" fill="#777878"/><polygon id="_Tracé_214" data-name="&lt;Tracé&gt;" points="495.75 121.75 481.95 142.75 481.75 142.75 481.75 143.15 482.56 143.15 495.25 123.75 495.75 121.75" fill="#777878"/><path id="_Tracé_215" data-name="&lt;Tracé&gt;" d="M481.75,64.1h-7.4l-0.1.3h8.1l0.2-.6a2,2,0,0,1-.7-0.1Z" transform="translate(-5.2 78.65)" fill="#777878"/></g><g id="_Groupe_100" data-name="&lt;Groupe&gt;"><line id="_Tracé_216" data-name="&lt;Tracé&gt;" x1="507.55" y1="119.25" x2="507.45" y2="119.55" fill="none"/><path id="_Tracé_217" data-name="&lt;Tracé&gt;" d="M518.75,64.1h-11.4l-0.1.3h12.1l0.2-.6h-0.7Z" transform="translate(-5.2 78.65)" fill="#777878"/><path id="_Tracé_218" data-name="&lt;Tracé&gt;" d="M524.15,40.3l-0.1.3a3.29,3.29,0,0,0-2.4.7,6,6,0,0,0-1.4,3l-3.9,15.5a9.24,9.24,0,0,0-.4,2.2,1.23,1.23,0,0,0,.5,1,0.76,0.76,0,0,0,.5.2,1,1,0,0,1-.4-0.9,9.24,9.24,0,0,1,.4-2.2l3.9-15.5a6,6,0,0,1,1.4-3,3.61,3.61,0,0,1,2.4-.7l0.2-.6h-0.7Z" transform="translate(-5.2 78.65)" fill="#777878"/></g><g id="_Groupe_101" data-name="&lt;Groupe&gt;"><path id="_Tracé_219" data-name="&lt;Tracé&gt;" d="M546.85,40.5l-1.2,6.6h-0.1v0.3h0.6l1.2-6.6a1.83,1.83,0,0,0-.2-0.9,0.62,0.62,0,0,0-.4-0.2h-0.1C546.75,40,546.85,40.5,546.85,40.5Z" transform="translate(-5.2 78.65)" fill="#777878"/><path id="_Tracé_220" data-name="&lt;Tracé&gt;" d="M530.35,61.6a6.22,6.22,0,0,0,1.9,1.4,6.34,6.34,0,0,1-1.3-1.1,8.19,8.19,0,0,1-1.9-5.4,17.84,17.84,0,0,1,1.7-7.9,14.31,14.31,0,0,1,4.9-5.6,10.45,10.45,0,0,1,5.6-1.9,5.42,5.42,0,0,1,1.5.2,3.1,3.1,0,0,0-2.1-.6,10.45,10.45,0,0,0-5.6,1.9,14.31,14.31,0,0,0-4.9,5.6,17.84,17.84,0,0,0-1.7,7.9A8.27,8.27,0,0,0,530.35,61.6Z" transform="translate(-5.2 78.65)" fill="#777878"/><path id="_Tracé_221" data-name="&lt;Tracé&gt;" d="M546.65,52.9a3.31,3.31,0,0,0-1.5.4,2.36,2.36,0,0,0-.8.9,8.89,8.89,0,0,0-.5,1.8L542,63.2a21.66,21.66,0,0,1-8.1,1.6,13.63,13.63,0,0,1-5.6-1.1c0.2,0.1.3,0.2,0.5,0.3a12.61,12.61,0,0,0,5.7,1.2,19.86,19.86,0,0,0,8.1-1.6l1.8-7.2a8.89,8.89,0,0,1,.5-1.8,2.36,2.36,0,0,1,.8-0.9,3.94,3.94,0,0,1,1.5-.4l0.1-.7h-0.6Z" transform="translate(-5.2 78.65)" fill="#777878"/></g><g id="_Groupe_102" data-name="&lt;Groupe&gt;"><path id="_Tracé_222" data-name="&lt;Tracé&gt;" d="M550.55,63.8v0.4h-6.6l-0.1.3h7.3V63.9A1.76,1.76,0,0,0,550.55,63.8Z" transform="translate(-5.2 78.65)" fill="#777878"/><path id="_Tracé_223" data-name="&lt;Tracé&gt;" d="M565.15,39.7V61.1a2.44,2.44,0,0,0,.6,1.8,1.58,1.58,0,0,0,.8.5c-0.1,0-.1-0.1-0.2-0.1a3.8,3.8,0,0,1-.6-1.8V39.8h-0.6V39.7h0Z" transform="translate(-5.2 78.65)" fill="#777878"/><polygon id="_Tracé_224" data-name="&lt;Tracé&gt;" points="549.05 133.85 556.05 125.15 556.05 124.05 548.15 133.85 549.05 133.85" fill="#777878"/><path id="_Tracé_225" data-name="&lt;Tracé&gt;" d="M560.55,56.3h-8.1l-1.5,1.9-1.7,2c-0.3.4-.5,0.9-0.7,1.2a1.18,1.18,0,0,0-.1.8,1,1,0,0,0,.5.8,0.76,0.76,0,0,0,.5.2,0.87,0.87,0,0,1-.4-0.7,2,2,0,0,1,.1-0.8,3.75,3.75,0,0,1,.7-1.2l1.7-2,1.5-1.9h7.5V56.3Z" transform="translate(-5.2 78.65)" fill="#777878"/><path id="_Tracé_226" data-name="&lt;Tracé&gt;" d="M567.35,63.7l-0.1.4h-9.9l-0.1.3h10.6l0.2-.6A1.48,1.48,0,0,1,567.35,63.7Z" transform="translate(-5.2 78.65)" fill="#777878"/></g></g><g id="_Groupe_103" data-name="&lt;Groupe&gt;"><g id="_Groupe_104" data-name="&lt;Groupe&gt;"><path id="_Tracé_227" data-name="&lt;Tracé&gt;" d="M449.65,64.2a3.63,3.63,0,0,0,1.7-.7,17.1,17.1,0,0,0,2.8-3l16.5-20.4h0.2V39.8H470l-16.5,20.4a17.1,17.1,0,0,1-2.8,3,5.09,5.09,0,0,1-1.7.7l-0.2.6h0.7Z" transform="translate(-5.2 78.65)" fill="#e8e8e8"/><polygon id="_Tracé_228" data-name="&lt;Tracé&gt;" points="461.15 125.05 460.56 125.85 460.45 133.85 454.25 133.85 454.06 134.15 461.06 134.15 461.15 125.05" fill="#e8e8e8"/><path id="_Tracé_229" data-name="&lt;Tracé&gt;" d="M463.15,64.2a7.58,7.58,0,0,0,1.8-.3,2.64,2.64,0,0,0,.9-1.1,6.33,6.33,0,0,0,.4-2.8V56.5h-0.6v3.2a6.61,6.61,0,0,1-.4,2.8,2.55,2.55,0,0,1-.9,1.1,7.58,7.58,0,0,1-1.8.3l-0.2.6H463Z" transform="translate(-5.2 78.65)" fill="#e8e8e8"/></g><g id="_Groupe_105" data-name="&lt;Groupe&gt;"><path id="_Tracé_230" data-name="&lt;Tracé&gt;" d="M480.35,40.6h8.2V40.3h-8.7l-0.2.6h0.7V40.6Z" transform="translate(-5.2 78.65)" fill="#e8e8e8"/><path id="_Tracé_231" data-name="&lt;Tracé&gt;" d="M493.15,64.2a4,4,0,0,0,2.9-.8,5.92,5.92,0,0,0,1.5-3l4.2-17-1.1,1.6-3.7,15a5.92,5.92,0,0,1-1.5,3,4.56,4.56,0,0,1-2.9.8l-0.2.6H493Z" transform="translate(-5.2 78.65)" fill="#e8e8e8"/><polygon id="_Tracé_232" data-name="&lt;Tracé&gt;" points="486.06 136.25 497.36 119.25 505.25 119.25 505.36 118.95 496.75 118.95 485.95 135.25 486.06 136.25" fill="#e8e8e8"/><polygon id="_Tracé_233" data-name="&lt;Tracé&gt;" points="479.15 121.95 478.86 123.25 481.75 143.15 482.25 143.15 479.15 121.95" fill="#e8e8e8"/><path id="_Tracé_234" data-name="&lt;Tracé&gt;" d="M475,64.2a3.4,3.4,0,0,0,2.2-.6,5.69,5.69,0,0,0,1.9-3.1l4.6-17.9a6,6,0,0,0-1.4-1.1h0a5,5,0,0,1,.8.7l-4.6,17.9a5.69,5.69,0,0,1-1.9,3.1,3.4,3.4,0,0,1-2.2.6l-0.1.6H475V64.2Z" transform="translate(-5.2 78.65)" fill="#e8e8e8"/></g><g id="_Groupe_106" data-name="&lt;Groupe&gt;"><path id="_Tracé_235" data-name="&lt;Tracé&gt;" d="M513.45,40.6h11.2l0.1-.3h-11.9l-0.2.6a1.7,1.7,0,0,1,.7.1Z" transform="translate(-5.2 78.65)" fill="#e8e8e8"/><path id="_Tracé_236" data-name="&lt;Tracé&gt;" d="M508,64.2a3.68,3.68,0,0,0,2.6-.7,7,7,0,0,0,1.4-3l3.9-15.5a12.21,12.21,0,0,0,.3-2.2,1.23,1.23,0,0,0-.5-1c-0.1-.1-0.3-0.1-0.4-0.2a1.27,1.27,0,0,1,.4.9,12.22,12.22,0,0,1-.3,2.2l-3.9,15.5a5.89,5.89,0,0,1-1.4,3,3.68,3.68,0,0,1-2.6.7l-0.2.6H508V64.2Z" transform="translate(-5.2 78.65)" fill="#e8e8e8"/></g><g id="_Groupe_107" data-name="&lt;Groupe&gt;"><path id="_Tracé_237" data-name="&lt;Tracé&gt;" d="M536.65,53.2h0.6l0.1-.4h9.8l0.1-.3h-10.5Z" transform="translate(-5.2 78.65)" fill="#e8e8e8"/><path id="_Tracé_238" data-name="&lt;Tracé&gt;" d="M532.75,63.3a4.79,4.79,0,0,0,2.8.8,8,8,0,0,0,2.3-.5l1.6-6.4a9.62,9.62,0,0,0,.4-2.1,1.38,1.38,0,0,0-.6-1.1,0.76,0.76,0,0,0-.5-0.2,1.39,1.39,0,0,1,.5,1,9.62,9.62,0,0,1-.4,2.1l-1.6,6.4a8,8,0,0,1-2.3.5A5.45,5.45,0,0,1,532.75,63.3Z" transform="translate(-5.2 78.65)" fill="#e8e8e8"/><path id="_Tracé_239" data-name="&lt;Tracé&gt;" d="M525.45,60.5a11.29,11.29,0,0,1-1.8-5.7c-0.2-4.6,1.7-8.3,5.7-11.3a18.74,18.74,0,0,1,10.7-3.5c0.4,0,1.4-.1,2.8-0.1a38.84,38.84,0,0,1,4.4.2,0.1,0.1,0,0,0-.1-0.1,0.62,0.62,0,0,0-.4-0.2,40.45,40.45,0,0,0-4.5-.2c-1.4,0-2.4.1-2.8,0.1a19.78,19.78,0,0,0-10.7,3.5c-4,3-5.9,6.7-5.7,11.3a11.29,11.29,0,0,0,1.8,5.7,10.07,10.07,0,0,0,4,3.7h0.1A11.27,11.27,0,0,1,525.45,60.5Z" transform="translate(-5.2 78.65)" fill="#e8e8e8"/><path id="_Tracé_240" data-name="&lt;Tracé&gt;" d="M545.65,47.5h0.6c-0.2-2.1-.3-3.6-1.2-4.5a6.1,6.1,0,0,0-1.6-1.3c0.3,0.2.6,0.6,1,.9C545.35,43.6,545.45,45.2,545.65,47.5Z" transform="translate(-5.2 78.65)" fill="#e8e8e8"/></g><g id="_Groupe_108" data-name="&lt;Groupe&gt;"><path id="_Tracé_241" data-name="&lt;Tracé&gt;" d="M558,64.2a7.58,7.58,0,0,0,1.8-.3,2.64,2.64,0,0,0,.9-1.1,6.33,6.33,0,0,0,.4-2.8V56.6h-0.6v3.1a6.61,6.61,0,0,1-.4,2.8,2.55,2.55,0,0,1-.9,1.1,7.58,7.58,0,0,1-1.8.3l-0.2.6h0.7Z" transform="translate(-5.2 78.65)" fill="#e8e8e8"/><path id="_Tracé_242" data-name="&lt;Tracé&gt;" d="M544.55,64.2a3.63,3.63,0,0,0,1.7-.7,17.1,17.1,0,0,0,2.8-3l16.5-20.4h0.2V39.8h-0.8l-16.5,20.4a17.1,17.1,0,0,1-2.8,3,5.09,5.09,0,0,1-1.7.7l-0.2.6h0.7Z" transform="translate(-5.2 78.65)" fill="#e8e8e8"/><polygon id="_Tracé_243" data-name="&lt;Tracé&gt;" points="556.05 125.15 555.46 125.85 555.25 133.85 549.15 133.85 548.86 134.15 555.86 134.15 556.05 125.15" fill="#e8e8e8"/></g></g></g><path id="_Tracé_244" data-name="&lt;Tracé&gt;" d="M5.2-5.5H576.6" transform="translate(-5.2 78.65)" fill="#777878"/><path id="_Tracé_245" data-name="&lt;Tracé&gt;" d="M13.54-24h571.4a0.27,0.27,0,0,1,.3.3v3.3a0.27,0.27,0,0,1-.3.3H13.54a0.27,0.27,0,0,1-.3-0.3v-3.3A0.32,0.32,0,0,1,13.54-24Z" transform="translate(-5.2 78.65)" fill="#777878"/><path id="_Tracé_246" data-name="&lt;Tracé&gt;" d="M13.54-16.51h571.4a0.27,0.27,0,0,1,.3.3v3.3a0.27,0.27,0,0,1-.3.3H13.54a0.27,0.27,0,0,1-.3-0.3v-3.3A0.27,0.27,0,0,1,13.54-16.51Z" transform="translate(-5.2 78.65)" fill="#777878"/><path id="_Tracé_247" data-name="&lt;Tracé&gt;" d="M13.54-9h571.4a0.27,0.27,0,0,1,.3.3v3.3a0.27,0.27,0,0,1-.3.3H13.54a0.27,0.27,0,0,1-.3-0.3v-3.3A0.27,0.27,0,0,1,13.54-9Z" transform="translate(-5.2 78.65)" fill="#777878"/><path id="_Tracé_248" data-name="&lt;Tracé&gt;" d="M13.54-1.51h571.4a0.27,0.27,0,0,1,.3.3v3.3a0.27,0.27,0,0,1-.3.3H13.54a0.27,0.27,0,0,1-.3-0.3v-3.3A0.27,0.27,0,0,1,13.54-1.51Z" transform="translate(-5.2 78.65)" fill="#777878"/><path id="_Tracé_249" data-name="&lt;Tracé&gt;" d="M13.54,6h571.4a0.27,0.27,0,0,1,.3.3v3.3a0.27,0.27,0,0,1-.3.3H13.54a0.27,0.27,0,0,1-.3-0.3V6.29A0.27,0.27,0,0,1,13.54,6Z" transform="translate(-5.2 78.65)" fill="#777878"/><path id="_Tracé_250" data-name="&lt;Tracé&gt;" d="M13.54,13.49h571.4a0.27,0.27,0,0,1,.3.3v3.3a0.27,0.27,0,0,1-.3.3H13.54a0.27,0.27,0,0,1-.3-0.3v-3.3A0.27,0.27,0,0,1,13.54,13.49Z" transform="translate(-5.2 78.65)" fill="#777878"/><path id="_Tracé_251" data-name="&lt;Tracé&gt;" d="M13.54,21h571.4a0.27,0.27,0,0,1,.3.3v3.3a0.27,0.27,0,0,1-.3.3H13.54a0.27,0.27,0,0,1-.3-0.3v-3.3A0.27,0.27,0,0,1,13.54,21Z" transform="translate(-5.2 78.65)" fill="#777878"/><path id="_Tracé_252" data-name="&lt;Tracé&gt;" d="M13.54-31.56h571.4a0.27,0.27,0,0,1,.3.3V-28a0.27,0.27,0,0,1-.3.3H13.54a0.27,0.27,0,0,1-.3-0.3v-3.3A0.32,0.32,0,0,1,13.54-31.56Z" transform="translate(-5.2 78.65)" fill="#777878"/><path id="_Tracé_253" data-name="&lt;Tracé&gt;" d="M13.74-39.14h571.4a0.27,0.27,0,0,1,.3.3v3.3a0.27,0.27,0,0,1-.3.3H13.74a0.27,0.27,0,0,1-.3-0.3v-3.3A0.32,0.32,0,0,1,13.74-39.14Z" transform="translate(-5.2 78.65)" fill="#777878"/><g id="_Groupe_109" data-name="&lt;Groupe&gt;"><g opacity="0.75"><path d="M77.67-78.49l0,26.55h-3.9l0-26.55h3.9Z" transform="translate(-5.2 78.65)"/></g><path d="M78.67-78.49l0,26.55h-3.9l0-26.55h3.9Z" transform="translate(-5.2 78.65)" fill="#777878"/></g><g id="_Groupe_110" data-name="&lt;Groupe&gt;"><g opacity="0.75"><path d="M70.17-78.48l0,26.55h-3.9l0-26.55h3.9Z" transform="translate(-5.2 78.65)"/></g><path d="M71.17-78.48l0,26.55h-3.9l0-26.55h3.9Z" transform="translate(-5.2 78.65)" fill="#777878"/></g><g id="_Groupe_111" data-name="&lt;Groupe&gt;"><g opacity="0.75"><path d="M62.67-78.46l0,26.55h-3.9l0-26.55h3.9Z" transform="translate(-5.2 78.65)"/></g><path d="M63.67-78.46l0,26.55h-3.9l0-26.55h3.9Z" transform="translate(-5.2 78.65)" fill="#777878"/></g><g id="_Groupe_112" data-name="&lt;Groupe&gt;"><g opacity="0.75"><path d="M55.17-78.45l0,26.55h-3.9l0-26.55h3.9Z" transform="translate(-5.2 78.65)"/></g><path d="M56.17-78.45l0,26.55h-3.9l0-26.55h3.9Z" transform="translate(-5.2 78.65)" fill="#777878"/></g><g id="_Groupe_113" data-name="&lt;Groupe&gt;"><g opacity="0.75"><path d="M47.67-78.43l0,26.55h-3.9l0-26.55h3.9Z" transform="translate(-5.2 78.65)"/></g><path d="M48.67-78.43l0,26.55h-3.9l0-26.55h3.9Z" transform="translate(-5.2 78.65)" fill="#777878"/></g><g id="_Groupe_114" data-name="&lt;Groupe&gt;"><g opacity="0.75"><path d="M40.17-78.42l0,26.55h-3.9l0-26.55h3.9Z" transform="translate(-5.2 78.65)"/></g><path d="M41.17-78.42l0,26.55h-3.9l0-26.55h3.9Z" transform="translate(-5.2 78.65)" fill="#777878"/></g><g id="_Groupe_115" data-name="&lt;Groupe&gt;"><g opacity="0.75"><path d="M32.67-78.4l0,26.55h-3.9l0-26.55h3.9Z" transform="translate(-5.2 78.65)"/></g><path d="M33.67-78.4l0,26.55h-3.9l0-26.55h3.9Z" transform="translate(-5.2 78.65)" fill="#777878"/></g><g id="_Groupe_116" data-name="&lt;Groupe&gt;"><g opacity="0.75"><path d="M85.22-78.5l0,26.55h-3.9l0-26.55h3.9Z" transform="translate(-5.2 78.65)"/></g><path d="M86.22-78.5l0,26.55h-3.9l0-26.55h3.9Z" transform="translate(-5.2 78.65)" fill="#777878"/></g><g id="_Groupe_117" data-name="&lt;Groupe&gt;"><g opacity="0.75"><path d="M92.79-78.51l0,26.55h-3.9l0-26.55h3.9Z" transform="translate(-5.2 78.65)"/></g><path d="M93.79-78.51l0,26.55h-3.9l0-26.55h3.9Z" transform="translate(-5.2 78.65)" fill="#777878"/></g><g opacity="0.75"><path id="_Tracé_254" data-name="&lt;Tracé&gt;" d="M145.28-78.47l0,26.55h-3.9l0-26.55h3.9Z" transform="translate(-5.2 78.65)"/><path id="_Tracé_255" data-name="&lt;Tracé&gt;" d="M137.78-78.46l0,26.55h-3.9l0-26.55h3.9Z" transform="translate(-5.2 78.65)"/><path id="_Tracé_256" data-name="&lt;Tracé&gt;" d="M130.28-78.44l0,26.55h-3.9l0-26.55h3.9Z" transform="translate(-5.2 78.65)"/><path id="_Tracé_257" data-name="&lt;Tracé&gt;" d="M122.78-78.43l0,26.55h-3.9l0-26.55h3.9Z" transform="translate(-5.2 78.65)"/><path id="_Tracé_258" data-name="&lt;Tracé&gt;" d="M115.28-78.42l0,26.55h-3.9l0-26.55h3.9Z" transform="translate(-5.2 78.65)"/><path id="_Tracé_259" data-name="&lt;Tracé&gt;" d="M107.78-78.4l0,26.55h-3.9l0-26.55h3.9Z" transform="translate(-5.2 78.65)"/><path id="_Tracé_260" data-name="&lt;Tracé&gt;" d="M100.28-78.39l0,26.55h-3.9l0-26.55h3.9Z" transform="translate(-5.2 78.65)"/><path id="_Tracé_261" data-name="&lt;Tracé&gt;" d="M152.83-78.49l0,26.55H149l0-26.55h3.9Z" transform="translate(-5.2 78.65)"/><path id="_Tracé_262" data-name="&lt;Tracé&gt;" d="M160.4-78.49l0,26.55h-3.9l0-26.55h3.9Z" transform="translate(-5.2 78.65)"/></g><path id="_Tracé_263" data-name="&lt;Tracé&gt;" d="M146.28-78.47l0,26.55h-3.9l0-26.55h3.9Z" transform="translate(-5.2 78.65)" fill="#777878"/><path id="_Tracé_264" data-name="&lt;Tracé&gt;" d="M138.78-78.46l0,26.55h-3.9l0-26.55h3.9Z" transform="translate(-5.2 78.65)" fill="#777878"/><path id="_Tracé_265" data-name="&lt;Tracé&gt;" d="M131.28-78.44l0,26.55h-3.9l0-26.55h3.9Z" transform="translate(-5.2 78.65)" fill="#777878"/><path id="_Tracé_266" data-name="&lt;Tracé&gt;" d="M123.78-78.43l0,26.55h-3.9l0-26.55h3.9Z" transform="translate(-5.2 78.65)" fill="#777878"/><path id="_Tracé_267" data-name="&lt;Tracé&gt;" d="M116.28-78.42l0,26.55h-3.9l0-26.55h3.9Z" transform="translate(-5.2 78.65)" fill="#777878"/><path id="_Tracé_268" data-name="&lt;Tracé&gt;" d="M108.78-78.4l0,26.55h-3.9l0-26.55h3.9Z" transform="translate(-5.2 78.65)" fill="#777878"/><path id="_Tracé_269" data-name="&lt;Tracé&gt;" d="M101.28-78.39l0,26.55h-3.9l0-26.55h3.9Z" transform="translate(-5.2 78.65)" fill="#777878"/><path id="_Tracé_270" data-name="&lt;Tracé&gt;" d="M153.83-78.49l0,26.55H150l0-26.55h3.9Z" transform="translate(-5.2 78.65)" fill="#777878"/><path id="_Tracé_271" data-name="&lt;Tracé&gt;" d="M161.4-78.49l0,26.55h-3.9l0-26.55h3.9Z" transform="translate(-5.2 78.65)" fill="#777878"/><g opacity="0.75"><path id="_Tracé_272" data-name="&lt;Tracé&gt;" d="M212.89-78.57l0,26.55H209l0-26.55h3.9Z" transform="translate(-5.2 78.65)"/><path id="_Tracé_273" data-name="&lt;Tracé&gt;" d="M205.39-78.55l0,26.55h-3.9l0-26.55h3.9Z" transform="translate(-5.2 78.65)"/><path id="_Tracé_274" data-name="&lt;Tracé&gt;" d="M197.89-78.54l0,26.55H194l0-26.55h3.9Z" transform="translate(-5.2 78.65)"/><path id="_Tracé_275" data-name="&lt;Tracé&gt;" d="M190.39-78.52l0,26.55h-3.9l0-26.55h3.9Z" transform="translate(-5.2 78.65)"/><path id="_Tracé_276" data-name="&lt;Tracé&gt;" d="M182.89-78.51l0,26.55H179l0-26.55h3.9Z" transform="translate(-5.2 78.65)"/><path id="_Tracé_277" data-name="&lt;Tracé&gt;" d="M175.39-78.5l0,26.55h-3.9l0-26.55h3.9Z" transform="translate(-5.2 78.65)"/><path id="_Tracé_278" data-name="&lt;Tracé&gt;" d="M167.89-78.48l0,26.55H164l0-26.55h3.9Z" transform="translate(-5.2 78.65)"/><path id="_Tracé_279" data-name="&lt;Tracé&gt;" d="M220.44-78.58l0,26.55h-3.9l0-26.55h3.9Z" transform="translate(-5.2 78.65)"/><path id="_Tracé_280" data-name="&lt;Tracé&gt;" d="M228-78.59l0,26.55h-3.9l0-26.55H228Z" transform="translate(-5.2 78.65)"/></g><path id="_Tracé_281" data-name="&lt;Tracé&gt;" d="M213.89-78.57l0,26.55H210l0-26.55h3.9Z" transform="translate(-5.2 78.65)" fill="#777878"/><path id="_Tracé_282" data-name="&lt;Tracé&gt;" d="M206.39-78.55l0,26.55h-3.9l0-26.55h3.9Z" transform="translate(-5.2 78.65)" fill="#777878"/><path id="_Tracé_283" data-name="&lt;Tracé&gt;" d="M198.89-78.54l0,26.55H195l0-26.55h3.9Z" transform="translate(-5.2 78.65)" fill="#777878"/><path id="_Tracé_284" data-name="&lt;Tracé&gt;" d="M191.39-78.52l0,26.55h-3.9l0-26.55h3.9Z" transform="translate(-5.2 78.65)" fill="#777878"/><path id="_Tracé_285" data-name="&lt;Tracé&gt;" d="M183.89-78.51l0,26.55H180l0-26.55h3.9Z" transform="translate(-5.2 78.65)" fill="#777878"/><path id="_Tracé_286" data-name="&lt;Tracé&gt;" d="M176.39-78.5l0,26.55h-3.9l0-26.55h3.9Z" transform="translate(-5.2 78.65)" fill="#777878"/><path id="_Tracé_287" data-name="&lt;Tracé&gt;" d="M168.89-78.48l0,26.55H165l0-26.55h3.9Z" transform="translate(-5.2 78.65)" fill="#777878"/><path id="_Tracé_288" data-name="&lt;Tracé&gt;" d="M221.44-78.58l0,26.55h-3.9l0-26.55h3.9Z" transform="translate(-5.2 78.65)" fill="#777878"/><path id="_Tracé_289" data-name="&lt;Tracé&gt;" d="M229-78.59l0,26.55h-3.9l0-26.55H229Z" transform="translate(-5.2 78.65)" fill="#777878"/><g opacity="0.75"><path id="_Tracé_290" data-name="&lt;Tracé&gt;" d="M280.51-78.46l0,26.55h-3.9l0-26.55h3.9Z" transform="translate(-5.2 78.65)"/><path id="_Tracé_291" data-name="&lt;Tracé&gt;" d="M273-78.45l0,26.55h-3.9l0-26.55H273Z" transform="translate(-5.2 78.65)"/><path id="_Tracé_292" data-name="&lt;Tracé&gt;" d="M265.51-78.43l0,26.55h-3.9l0-26.55h3.9Z" transform="translate(-5.2 78.65)"/><path id="_Tracé_293" data-name="&lt;Tracé&gt;" d="M258-78.42l0,26.55h-3.9l0-26.55H258Z" transform="translate(-5.2 78.65)"/><path id="_Tracé_294" data-name="&lt;Tracé&gt;" d="M250.51-78.4l0,26.55h-3.9l0-26.55h3.9Z" transform="translate(-5.2 78.65)"/><path id="_Tracé_295" data-name="&lt;Tracé&gt;" d="M243-78.39l0,26.55h-3.9l0-26.55H243Z" transform="translate(-5.2 78.65)"/><path id="_Tracé_296" data-name="&lt;Tracé&gt;" d="M235.51-78.38l0,26.55h-3.9l0-26.55h3.9Z" transform="translate(-5.2 78.65)"/><path id="_Tracé_297" data-name="&lt;Tracé&gt;" d="M288.06-78.47l0,26.55h-3.9l0-26.55h3.9Z" transform="translate(-5.2 78.65)"/><path id="_Tracé_298" data-name="&lt;Tracé&gt;" d="M295.63-78.48l0,26.55h-3.9l0-26.55h3.9Z" transform="translate(-5.2 78.65)"/></g><path id="_Tracé_299" data-name="&lt;Tracé&gt;" d="M281.51-78.46l0,26.55h-3.9l0-26.55h3.9Z" transform="translate(-5.2 78.65)" fill="#777878"/><path id="_Tracé_300" data-name="&lt;Tracé&gt;" d="M274-78.45l0,26.55h-3.9l0-26.55H274Z" transform="translate(-5.2 78.65)" fill="#777878"/><path id="_Tracé_301" data-name="&lt;Tracé&gt;" d="M266.51-78.43l0,26.55h-3.9l0-26.55h3.9Z" transform="translate(-5.2 78.65)" fill="#777878"/><path id="_Tracé_302" data-name="&lt;Tracé&gt;" d="M259-78.42l0,26.55h-3.9l0-26.55H259Z" transform="translate(-5.2 78.65)" fill="#777878"/><path id="_Tracé_303" data-name="&lt;Tracé&gt;" d="M251.51-78.4l0,26.55h-3.9l0-26.55h3.9Z" transform="translate(-5.2 78.65)" fill="#777878"/><path id="_Tracé_304" data-name="&lt;Tracé&gt;" d="M244-78.39l0,26.55h-3.9l0-26.55H244Z" transform="translate(-5.2 78.65)" fill="#777878"/><path id="_Tracé_305" data-name="&lt;Tracé&gt;" d="M236.51-78.38l0,26.55h-3.9l0-26.55h3.9Z" transform="translate(-5.2 78.65)" fill="#777878"/><path id="_Tracé_306" data-name="&lt;Tracé&gt;" d="M289.06-78.47l0,26.55h-3.9l0-26.55h3.9Z" transform="translate(-5.2 78.65)" fill="#777878"/><path id="_Tracé_307" data-name="&lt;Tracé&gt;" d="M296.63-78.48l0,26.55h-3.9l0-26.55h3.9Z" transform="translate(-5.2 78.65)" fill="#777878"/><g opacity="0.75"><path id="_Tracé_308" data-name="&lt;Tracé&gt;" d="M348.12-78.55l0,26.55h-3.9l0-26.55h3.9Z" transform="translate(-5.2 78.65)"/><path id="_Tracé_309" data-name="&lt;Tracé&gt;" d="M340.62-78.54l0,26.55h-3.9l0-26.55h3.9Z" transform="translate(-5.2 78.65)"/><path id="_Tracé_310" data-name="&lt;Tracé&gt;" d="M333.12-78.53l0,26.55h-3.9l0-26.55h3.9Z" transform="translate(-5.2 78.65)"/><path id="_Tracé_311" data-name="&lt;Tracé&gt;" d="M325.62-78.51l0,26.55h-3.9l0-26.55h3.9Z" transform="translate(-5.2 78.65)"/><path id="_Tracé_312" data-name="&lt;Tracé&gt;" d="M318.12-78.5l0,26.55h-3.9l0-26.55h3.9Z" transform="translate(-5.2 78.65)"/><path id="_Tracé_313" data-name="&lt;Tracé&gt;" d="M310.62-78.48l0,26.55h-3.9l0-26.55h3.9Z" transform="translate(-5.2 78.65)"/><path id="_Tracé_314" data-name="&lt;Tracé&gt;" d="M303.12-78.47l0,26.55h-3.9l0-26.55h3.9Z" transform="translate(-5.2 78.65)"/><path id="_Tracé_315" data-name="&lt;Tracé&gt;" d="M355.67-78.57l0,26.55h-3.9l0-26.55h3.9Z" transform="translate(-5.2 78.65)"/><path id="_Tracé_316" data-name="&lt;Tracé&gt;" d="M363.25-78.57l0,26.55h-3.9l0-26.55h3.9Z" transform="translate(-5.2 78.65)"/></g><path id="_Tracé_317" data-name="&lt;Tracé&gt;" d="M349.12-78.55l0,26.55h-3.9l0-26.55h3.9Z" transform="translate(-5.2 78.65)" fill="#777878"/><path id="_Tracé_318" data-name="&lt;Tracé&gt;" d="M341.62-78.54l0,26.55h-3.9l0-26.55h3.9Z" transform="translate(-5.2 78.65)" fill="#777878"/><path id="_Tracé_319" data-name="&lt;Tracé&gt;" d="M334.12-78.53l0,26.55h-3.9l0-26.55h3.9Z" transform="translate(-5.2 78.65)" fill="#777878"/><path id="_Tracé_320" data-name="&lt;Tracé&gt;" d="M326.62-78.51l0,26.55h-3.9l0-26.55h3.9Z" transform="translate(-5.2 78.65)" fill="#777878"/><path id="_Tracé_321" data-name="&lt;Tracé&gt;" d="M319.12-78.5l0,26.55h-3.9l0-26.55h3.9Z" transform="translate(-5.2 78.65)" fill="#777878"/><path id="_Tracé_322" data-name="&lt;Tracé&gt;" d="M311.62-78.48l0,26.55h-3.9l0-26.55h3.9Z" transform="translate(-5.2 78.65)" fill="#777878"/><path id="_Tracé_323" data-name="&lt;Tracé&gt;" d="M304.12-78.47l0,26.55h-3.9l0-26.55h3.9Z" transform="translate(-5.2 78.65)" fill="#777878"/><path id="_Tracé_324" data-name="&lt;Tracé&gt;" d="M356.67-78.57l0,26.55h-3.9l0-26.55h3.9Z" transform="translate(-5.2 78.65)" fill="#777878"/><path id="_Tracé_325" data-name="&lt;Tracé&gt;" d="M364.25-78.57l0,26.55h-3.9l0-26.55h3.9Z" transform="translate(-5.2 78.65)" fill="#777878"/><g opacity="0.75"><path id="_Tracé_326" data-name="&lt;Tracé&gt;" d="M415.74-78.61l0,26.55h-3.9l0-26.55h3.9Z" transform="translate(-5.2 78.65)"/><path id="_Tracé_327" data-name="&lt;Tracé&gt;" d="M408.24-78.6l0,26.55h-3.9l0-26.55h3.9Z" transform="translate(-5.2 78.65)"/><path id="_Tracé_328" data-name="&lt;Tracé&gt;" d="M400.74-78.59l0,26.55h-3.9l0-26.55h3.9Z" transform="translate(-5.2 78.65)"/><path id="_Tracé_329" data-name="&lt;Tracé&gt;" d="M393.24-78.57l0,26.55h-3.9l0-26.55h3.9Z" transform="translate(-5.2 78.65)"/><path id="_Tracé_330" data-name="&lt;Tracé&gt;" d="M385.74-78.56l0,26.55h-3.9l0-26.55h3.9Z" transform="translate(-5.2 78.65)"/><path id="_Tracé_331" data-name="&lt;Tracé&gt;" d="M378.24-78.54l0,26.55h-3.9l0-26.55h3.9Z" transform="translate(-5.2 78.65)"/><path id="_Tracé_332" data-name="&lt;Tracé&gt;" d="M370.74-78.53l0,26.55h-3.9l0-26.55h3.9Z" transform="translate(-5.2 78.65)"/><path id="_Tracé_333" data-name="&lt;Tracé&gt;" d="M423.29-78.63l0,26.55h-3.9l0-26.55h3.9Z" transform="translate(-5.2 78.65)"/><path id="_Tracé_334" data-name="&lt;Tracé&gt;" d="M430.86-78.63l0,26.55H427l0-26.55h3.9Z" transform="translate(-5.2 78.65)"/></g><path id="_Tracé_335" data-name="&lt;Tracé&gt;" d="M416.74-78.61l0,26.55h-3.9l0-26.55h3.9Z" transform="translate(-5.2 78.65)" fill="#777878"/><path id="_Tracé_336" data-name="&lt;Tracé&gt;" d="M409.24-78.6l0,26.55h-3.9l0-26.55h3.9Z" transform="translate(-5.2 78.65)" fill="#777878"/><path id="_Tracé_337" data-name="&lt;Tracé&gt;" d="M401.74-78.59l0,26.55h-3.9l0-26.55h3.9Z" transform="translate(-5.2 78.65)" fill="#777878"/><path id="_Tracé_338" data-name="&lt;Tracé&gt;" d="M394.24-78.57l0,26.55h-3.9l0-26.55h3.9Z" transform="translate(-5.2 78.65)" fill="#777878"/><path id="_Tracé_339" data-name="&lt;Tracé&gt;" d="M386.74-78.56l0,26.55h-3.9l0-26.55h3.9Z" transform="translate(-5.2 78.65)" fill="#777878"/><path id="_Tracé_340" data-name="&lt;Tracé&gt;" d="M379.24-78.54l0,26.55h-3.9l0-26.55h3.9Z" transform="translate(-5.2 78.65)" fill="#777878"/><path id="_Tracé_341" data-name="&lt;Tracé&gt;" d="M371.74-78.53l0,26.55h-3.9l0-26.55h3.9Z" transform="translate(-5.2 78.65)" fill="#777878"/><path id="_Tracé_342" data-name="&lt;Tracé&gt;" d="M424.29-78.63l0,26.55h-3.9l0-26.55h3.9Z" transform="translate(-5.2 78.65)" fill="#777878"/><path id="_Tracé_343" data-name="&lt;Tracé&gt;" d="M431.86-78.63l0,26.55H428l0-26.55h3.9Z" transform="translate(-5.2 78.65)" fill="#777878"/><g opacity="0.75"><path id="_Tracé_344" data-name="&lt;Tracé&gt;" d="M483.35-78.59l0,26.55h-3.9l0-26.55h3.9Z" transform="translate(-5.2 78.65)"/><path id="_Tracé_345" data-name="&lt;Tracé&gt;" d="M475.85-78.57l0,26.55H472l0-26.55h3.9Z" transform="translate(-5.2 78.65)"/><path id="_Tracé_346" data-name="&lt;Tracé&gt;" d="M468.35-78.56l0,26.55h-3.9l0-26.55h3.9Z" transform="translate(-5.2 78.65)"/><path id="_Tracé_347" data-name="&lt;Tracé&gt;" d="M460.85-78.54l0,26.55H457l0-26.55h3.9Z" transform="translate(-5.2 78.65)"/><path id="_Tracé_348" data-name="&lt;Tracé&gt;" d="M453.35-78.53l0,26.55h-3.9l0-26.55h3.9Z" transform="translate(-5.2 78.65)"/><path id="_Tracé_349" data-name="&lt;Tracé&gt;" d="M445.85-78.51l0,26.55H442l0-26.55h3.9Z" transform="translate(-5.2 78.65)"/><path id="_Tracé_350" data-name="&lt;Tracé&gt;" d="M438.35-78.5l0,26.55h-3.9l0-26.55h3.9Z" transform="translate(-5.2 78.65)"/><path id="_Tracé_351" data-name="&lt;Tracé&gt;" d="M490.9-78.6l0,26.55h-3.9l0-26.55h3.9Z" transform="translate(-5.2 78.65)"/><path id="_Tracé_352" data-name="&lt;Tracé&gt;" d="M498.48-78.61l0,26.55h-3.9l0-26.55h3.9Z" transform="translate(-5.2 78.65)"/></g><path id="_Tracé_353" data-name="&lt;Tracé&gt;" d="M484.35-78.59l0,26.55h-3.9l0-26.55h3.9Z" transform="translate(-5.2 78.65)" fill="#777878"/><path id="_Tracé_354" data-name="&lt;Tracé&gt;" d="M476.85-78.57l0,26.55H473l0-26.55h3.9Z" transform="translate(-5.2 78.65)" fill="#777878"/><path id="_Tracé_355" data-name="&lt;Tracé&gt;" d="M469.35-78.56l0,26.55h-3.9l0-26.55h3.9Z" transform="translate(-5.2 78.65)" fill="#777878"/><path id="_Tracé_356" data-name="&lt;Tracé&gt;" d="M461.85-78.54l0,26.55H458l0-26.55h3.9Z" transform="translate(-5.2 78.65)" fill="#777878"/><path id="_Tracé_357" data-name="&lt;Tracé&gt;" d="M454.35-78.53l0,26.55h-3.9l0-26.55h3.9Z" transform="translate(-5.2 78.65)" fill="#777878"/><path id="_Tracé_358" data-name="&lt;Tracé&gt;" d="M446.85-78.51l0,26.55H443l0-26.55h3.9Z" transform="translate(-5.2 78.65)" fill="#777878"/><path id="_Tracé_359" data-name="&lt;Tracé&gt;" d="M439.35-78.5l0,26.55h-3.9l0-26.55h3.9Z" transform="translate(-5.2 78.65)" fill="#777878"/><path id="_Tracé_360" data-name="&lt;Tracé&gt;" d="M491.9-78.6l0,26.55h-3.9l0-26.55h3.9Z" transform="translate(-5.2 78.65)" fill="#777878"/><path id="_Tracé_361" data-name="&lt;Tracé&gt;" d="M499.48-78.61l0,26.55h-3.9l0-26.55h3.9Z" transform="translate(-5.2 78.65)" fill="#777878"/><g id="_Groupe_118" data-name="&lt;Groupe&gt;"><g opacity="0.75"><path d="M551-78.56L551-52h-3.9l0-26.55H551Z" transform="translate(-5.2 78.65)"/></g><path d="M552-78.56L552-52h-3.9l0-26.55H552Z" transform="translate(-5.2 78.65)" fill="#777878"/></g><g id="_Groupe_119" data-name="&lt;Groupe&gt;"><g opacity="0.75"><path d="M543.46-78.54l0,26.55h-3.9l0-26.55h3.9Z" transform="translate(-5.2 78.65)"/></g><path d="M544.46-78.54l0,26.55h-3.9l0-26.55h3.9Z" transform="translate(-5.2 78.65)" fill="#777878"/></g><g id="_Groupe_120" data-name="&lt;Groupe&gt;"><g opacity="0.75"><path d="M536-78.53L536-52h-3.9l0-26.55H536Z" transform="translate(-5.2 78.65)"/></g><path d="M537-78.53L537-52h-3.9l0-26.55H537Z" transform="translate(-5.2 78.65)" fill="#777878"/></g><g id="_Groupe_121" data-name="&lt;Groupe&gt;"><g opacity="0.75"><path d="M528.46-78.51l0,26.55h-3.9l0-26.55h3.9Z" transform="translate(-5.2 78.65)"/></g><path d="M529.46-78.51l0,26.55h-3.9l0-26.55h3.9Z" transform="translate(-5.2 78.65)" fill="#777878"/></g><g id="_Groupe_122" data-name="&lt;Groupe&gt;"><g opacity="0.75"><path d="M521-78.5L521-52h-3.9l0-26.55H521Z" transform="translate(-5.2 78.65)"/></g><path d="M522-78.5L522-52h-3.9l0-26.55H522Z" transform="translate(-5.2 78.65)" fill="#777878"/></g><g id="_Groupe_123" data-name="&lt;Groupe&gt;"><g opacity="0.75"><path d="M513.46-78.49l0,26.55h-3.9l0-26.55h3.9Z" transform="translate(-5.2 78.65)"/></g><path d="M514.46-78.49l0,26.55h-3.9l0-26.55h3.9Z" transform="translate(-5.2 78.65)" fill="#777878"/></g><g id="_Groupe_124" data-name="&lt;Groupe&gt;"><g opacity="0.75"><path d="M506-78.47l0,26.55h-3.9l0-26.55H506Z" transform="translate(-5.2 78.65)"/></g><path d="M507-78.47l0,26.55h-3.9l0-26.55H507Z" transform="translate(-5.2 78.65)" fill="#777878"/></g><g id="_Groupe_125" data-name="&lt;Groupe&gt;"><g opacity="0.75"><path d="M558.51-78.57l0,26.55h-3.9l0-26.55h3.9Z" transform="translate(-5.2 78.65)"/></g><path d="M559.51-78.57l0,26.55h-3.9l0-26.55h3.9Z" transform="translate(-5.2 78.65)" fill="#777878"/></g><g id="_Groupe_126" data-name="&lt;Groupe&gt;"><g opacity="0.75"><path d="M566.09-78.58l0,26.55h-3.9l0-26.55h3.9Z" transform="translate(-5.2 78.65)"/></g><path d="M567.09-78.58l0,26.55h-3.9l0-26.55h3.9Z" transform="translate(-5.2 78.65)" fill="#777878"/></g><g id="_Groupe_127" data-name="&lt;Groupe&gt;"><g opacity="0.75"><path d="M573.45-78.58l0,26.55h-3.9l0-26.55h3.9Z" transform="translate(-5.2 78.65)"/></g><path d="M574.45-78.58l0,26.55h-3.9l0-26.55h3.9Z" transform="translate(-5.2 78.65)" fill="#777878"/></g><path id="path3002" d="M500.5,87.87a6.71,6.71,0,1,0,2,13.09V97.61a3.85,3.85,0,0,1-1.9.51,3.55,3.55,0,1,1,0-7.09,3.77,3.77,0,0,1,1.9.51V88.19A6.7,6.7,0,0,0,500.5,87.87Z" transform="translate(-5.2 78.65)" fill="#494949"/><polygon id="polygon9367" points="497.41 170.67 497.41 170.67 502.41 170.67 500.17 173 497.41 173 497.41 170.67" fill="#494949"/><polygon id="polygon9369" points="497.41 175.8 497.41 175.8 502.41 175.8 500.17 173.47 497.41 173.47 497.41 175.8" fill="#494949"/><g id="Commodore"><path id="path3067" d="M519.06,93.77a2.38,2.38,0,0,0,1.56-.51,1.82,1.82,0,0,0,.62-1.44,1.85,1.85,0,0,0-.62-1.45,2.31,2.31,0,0,0-1.56-.51,2.38,2.38,0,0,0-1.56.51,1.83,1.83,0,0,0-.62,1.45,1.8,1.8,0,0,0,.62,1.44A2.38,2.38,0,0,0,519.06,93.77Zm0-.91a0.77,0.77,0,0,1-.65-0.32,1.17,1.17,0,0,1-.19-0.74,1.36,1.36,0,0,1,.19-0.74,0.74,0.74,0,0,1,.65-0.32,0.77,0.77,0,0,1,.65.32,1.17,1.17,0,0,1,.19.74,1.39,1.39,0,0,1-.19.74A0.77,0.77,0,0,1,519.06,92.86Z" transform="translate(-5.2 78.65)" fill="#7c7c7c"/><path id="path3069" d="M521.76,93.68h1.3V92.1a1.66,1.66,0,0,1,.19-0.89,0.6,0.6,0,0,1,.54-0.28,0.43,0.43,0,0,1,.4.22,1.11,1.11,0,0,1,.13.54v2h1.3V92.11a1.66,1.66,0,0,1,.19-0.89,0.6,0.6,0,0,1,.54-0.28,0.43,0.43,0,0,1,.4.22,1.11,1.11,0,0,1,.13.54v2h1.3V91.5a2.18,2.18,0,0,0-.25-1.2,1.15,1.15,0,0,0-1.07-.43,1.67,1.67,0,0,0-.75.17,1.39,1.39,0,0,0-.57.55A1.15,1.15,0,0,0,525,90a1.45,1.45,0,0,0-.71-0.18,1.66,1.66,0,0,0-.8.19,1.32,1.32,0,0,0-.56.59h0V89.94h-1.19v3.74h0Z" transform="translate(-5.2 78.65)" fill="#7c7c7c"/><path id="path3071" d="M528.86,93.68h1.3V92.1a1.66,1.66,0,0,1,.19-0.89,0.6,0.6,0,0,1,.54-0.28,0.43,0.43,0,0,1,.4.22,1.11,1.11,0,0,1,.13.54v2h1.3V92.11a1.66,1.66,0,0,1,.19-0.89,0.6,0.6,0,0,1,.54-0.28,0.43,0.43,0,0,1,.4.22,1.11,1.11,0,0,1,.13.54v2h1.3V91.5a2.18,2.18,0,0,0-.25-1.2,1.15,1.15,0,0,0-1.07-.43,1.67,1.67,0,0,0-.75.17,1.39,1.39,0,0,0-.57.55,1.15,1.15,0,0,0-.46-0.55,1.45,1.45,0,0,0-.71-0.18,1.63,1.63,0,0,0-.8.19,1.32,1.32,0,0,0-.56.59h0V89.94h-1.19v3.74h0Z" transform="translate(-5.2 78.65)" fill="#7c7c7c"/><path id="path3073" d="M538,93.77a2.38,2.38,0,0,0,1.56-.51,1.82,1.82,0,0,0,.62-1.44,1.85,1.85,0,0,0-.62-1.45,2.31,2.31,0,0,0-1.56-.51,2.38,2.38,0,0,0-1.56.51,1.83,1.83,0,0,0-.62,1.45,1.8,1.8,0,0,0,.62,1.44A2.4,2.4,0,0,0,538,93.77Zm0-.91a0.77,0.77,0,0,1-.65-0.32,1.17,1.17,0,0,1-.19-0.74,1.36,1.36,0,0,1,.19-0.74,0.74,0.74,0,0,1,.65-0.32,0.77,0.77,0,0,1,.65.32,1.26,1.26,0,0,1,.2.74,1.29,1.29,0,0,1-.2.74A0.76,0.76,0,0,1,538,92.86Z" transform="translate(-5.2 78.65)" fill="#7c7c7c"/><path id="path3075" d="M544.7,88.29h-1.3v2.13h0a1.36,1.36,0,0,0-.57-0.45,1.87,1.87,0,0,0-.71-0.13,1.44,1.44,0,0,0-1.19.6,2.21,2.21,0,0,0-.41,1.29,2.35,2.35,0,0,0,.43,1.43,1.56,1.56,0,0,0,1.27.6,1.51,1.51,0,0,0,.8-0.22A1.15,1.15,0,0,0,543.5,93h0v0.68h1.2V88.29h0Zm-2.88,3.48a1,1,0,0,1,.2-0.65,0.74,0.74,0,0,1,.59-0.28,0.7,0.7,0,0,1,.57.28,1.19,1.19,0,0,1,0,1.39,0.72,0.72,0,0,1-1,.11L542,92.49a1.15,1.15,0,0,1-.22-0.73h0Z" transform="translate(-5.2 78.65)" fill="#7c7c7c"/><path id="path3077" d="M547.36,93.77a2.38,2.38,0,0,0,1.56-.51,1.82,1.82,0,0,0,.62-1.44,1.85,1.85,0,0,0-.62-1.45,2.31,2.31,0,0,0-1.56-.51,2.38,2.38,0,0,0-1.56.51,1.85,1.85,0,0,0-.62,1.45,1.8,1.8,0,0,0,.62,1.44A2.4,2.4,0,0,0,547.36,93.77Zm0-.91a0.77,0.77,0,0,1-.65-0.32,1.26,1.26,0,0,1-.19-0.74,1.36,1.36,0,0,1,.19-0.74,0.74,0.74,0,0,1,.65-0.32,0.77,0.77,0,0,1,.65.32,1.26,1.26,0,0,1,.19.74,1.39,1.39,0,0,1-.19.74A0.74,0.74,0,0,1,547.36,92.86Z" transform="translate(-5.2 78.65)" fill="#7c7c7c"/><path id="path3079" d="M552.82,89.89l-0.22,0h-0.23a1,1,0,0,0-.68.22,1.61,1.61,0,0,0-.43.56h0V89.94h-1.19v3.75h1.3V92.11a1.35,1.35,0,0,1,.24-0.87,0.85,0.85,0,0,1,.7-0.31h0.22a0.65,0.65,0,0,1,.22,0Z" transform="translate(-5.2 78.65)" fill="#7c7c7c"/><path id="path3081" d="M556.89,92.19V91.95a2.4,2.4,0,0,0-.42-1.47,1.76,1.76,0,0,0-1.47-.64,2.07,2.07,0,0,0-1.44.51,1.86,1.86,0,0,0-.56,1.44,1.76,1.76,0,0,0,.62,1.44,2.46,2.46,0,0,0,1.56.52,4.38,4.38,0,0,0,.71-0.05,3.61,3.61,0,0,0,.66-0.18V92.61a2.48,2.48,0,0,1-1.15.28,1.48,1.48,0,0,1-.76-0.17,0.72,0.72,0,0,1-.34-0.55h2.59Zm-2.61-.74a1,1,0,0,1,.19-0.55,0.74,0.74,0,0,1,1.07,0,0.88,0.88,0,0,1,.17.55h-1.43Z" transform="translate(-5.2 78.65)" fill="#7c7c7c"/><path id="path3064" d="M514.11,93.72a2.69,2.69,0,0,1-1.35-.8,2.39,2.39,0,0,1-.62-1.39,2.66,2.66,0,0,1,1.38-2.89,4.55,4.55,0,0,1,1.93-.38,6.43,6.43,0,0,1,1.17.14l-0.11,1.12-0.34-.09a2.84,2.84,0,0,0-.73-0.09,2.09,2.09,0,0,0-1.26.37,1.85,1.85,0,0,0,0,2.64,2.4,2.4,0,0,0,2,.32l0.34-.09,0.1,1.13a5.55,5.55,0,0,1-1.24.14A4,4,0,0,1,514.11,93.72Z" transform="translate(-5.2 78.65)" fill="#7c7c7c"/></g><rect id="Line" x="504.89" y="173.02" width="49.83" height="0.38" fill="#7c7c7c"/><path d="M528.82,99.5h-2l-0.32.74a1.85,1.85,0,0,0-.18.54,0.28,0.28,0,0,0,.2.28,1.62,1.62,0,0,0,.42.07v0.14h-1.66v-0.14a0.74,0.74,0,0,0,.47-0.2,2,2,0,0,0,.35-0.6l1.9-4.46h0.14l1.8,4.32a3.22,3.22,0,0,0,.33.65,0.78,0.78,0,0,0,.62.3v0.14h-2.09v-0.14q0.54,0,.54-0.36a1.9,1.9,0,0,0-.19-0.61Zm-0.1-.29-0.9-2.14-0.92,2.14h1.82Z" transform="translate(-5.2 78.65)" fill="#7c7c7c"/><path d="M531.24,99.18h2v0.62h-2V99.18Z" transform="translate(-5.2 78.65)" fill="#7c7c7c"/><path d="M537.06,96l-0.29.64h-1.59l-0.37.74a2.75,2.75,0,0,1,1.48.62,1.79,1.79,0,0,1,.68,1.42,1.86,1.86,0,0,1-.64,1.41,2.1,2.1,0,0,1-1.47.59,1.44,1.44,0,0,1-.56-0.1,0.46,0.46,0,0,1-.34-0.42,0.27,0.27,0,0,1,.09-0.2,0.32,0.32,0,0,1,.22-0.08,0.91,0.91,0,0,1,.46.2,1,1,0,0,0,.56.2,1.12,1.12,0,0,0,.82-0.35,1.14,1.14,0,0,0,.34-0.83,1.52,1.52,0,0,0-.64-1.26,2.67,2.67,0,0,0-1.68-.5l1-2.06h1.9Z" transform="translate(-5.2 78.65)" fill="#7c7c7c"/><path d="M539.43,95.87a1.4,1.4,0,0,1,1.14.66,4.1,4.1,0,0,1,0,4.19,1.3,1.3,0,0,1-2.27,0,4.1,4.1,0,0,1,0-4.19A1.4,1.4,0,0,1,539.43,95.87Zm0,0.24q-0.94,0-.94,2.78a5.24,5.24,0,0,0,.16,1.36,1,1,0,0,0,.78.9q0.94,0,.94-2.78a5.56,5.56,0,0,0-.14-1.36A0.94,0.94,0,0,0,539.43,96.11Z" transform="translate(-5.2 78.65)" fill="#7c7c7c"/><path d="M543.43,95.87a1.4,1.4,0,0,1,1.14.66,4.1,4.1,0,0,1,0,4.19,1.3,1.3,0,0,1-2.27,0,4.1,4.1,0,0,1,0-4.19A1.4,1.4,0,0,1,543.43,95.87Zm0,0.24q-0.94,0-.94,2.78a5.24,5.24,0,0,0,.16,1.36,1,1,0,0,0,.78.9q0.94,0,.94-2.78a5.56,5.56,0,0,0-.14-1.36A0.94,0.94,0,0,0,543.43,96.11Z" transform="translate(-5.2 78.65)" fill="#7c7c7c"/><path d="M597.08,82.11a0.84,0.84,0,0,1,1,1V104.7a1.25,1.25,0,0,1-1.41.92H11.35a1.69,1.69,0,0,1-1.41-.56V83.49a1.06,1.06,0,0,1,1-1.27" transform="translate(-5.2 78.65)" fill="none" stroke="#9b9a9a" stroke-miterlimit="10"/><line x1="5.73" y1="160.87" x2="591.89" y2="160.76" fill="none" stroke="#e7e6e7" stroke-miterlimit="10" stroke-width="2"/><g id="_Groupe_128" data-name="&lt;Groupe&gt;"><g opacity="0.75"><path d="M24.83-78.49l0,26.55H21l0-26.55h3.9Z" transform="translate(-5.2 78.65)"/></g><path d="M25.83-78.49l0,26.55H22l0-26.55h3.9Z" transform="translate(-5.2 78.65)" fill="#777878"/></g><g id="_Groupe_129" data-name="&lt;Groupe&gt;"><g opacity="0.75"><path d="M580.82-78.54l0,26.55H577l0-26.55h3.9Z" transform="translate(-5.2 78.65)"/></g><path d="M581.82-78.54l0,26.55H578l0-26.55h3.9Z" transform="translate(-5.2 78.65)" fill="#777878"/></g></svg>