<?xml version="1.0" encoding="utf-8"?>
<!-- Generator: Adobe Illustrator 22.0.1, SVG Export Plug-In . SVG Version: 6.00 Build 0)  -->
<svg version="1.1"
	 id="svg2" xmlns:cc="http://creativecommons.org/ns#" xmlns:dc="http://purl.org/dc/elements/1.1/" xmlns:rdf="http://www.w3.org/1999/02/22-rdf-syntax-ns#" xmlns:svg="http://www.w3.org/2000/svg"
	 xmlns="http://www.w3.org/2000/svg" xmlns:xlink="http://www.w3.org/1999/xlink" x="0px" y="0px" viewBox="0 0 420.5 340.5"
	 style="enable-background:new 0 0 420.5 340.5;" xml:space="preserve">
<style type="text/css">
	.st0{fill:#333333;stroke:#000000;stroke-width:0.5;stroke-miterlimit:10;}
	.st1{fill:#282828;stroke:#000000;stroke-width:0.5;stroke-miterlimit:10;}
	.st2{fill:#DB0000;stroke:#000000;stroke-width:0.5;stroke-miterlimit:10;}
	.st3{fill:#45494C;stroke:#000000;stroke-width:0.5;stroke-miterlimit:10;}
	.st4{fill:none;stroke:#000000;stroke-width:0.5;stroke-miterlimit:10;}
	.st5{fill:#414042;stroke:#000000;stroke-width:0.5;stroke-miterlimit:10;}
	.st6{fill:url(#SVGID_1_);}
	.st7{fill:url(#SVGID_2_);}
	.st8{fill:url(#SVGID_3_);}
	.st9{fill:url(#SVGID_4_);}
	.st10{fill:url(#SVGID_5_);}
	.st11{fill:url(#SVGID_6_);}
	.st12{fill:url(#SVGID_7_);}
	.st13{fill:url(#SVGID_8_);}
	.st14{fill:url(#SVGID_9_);}
	.st15{fill:url(#SVGID_10_);}
	.st16{fill:url(#SVGID_11_);}
	.st17{fill:url(#SVGID_12_);}
	.st18{fill:url(#SVGID_13_);}
	.st19{fill:url(#SVGID_14_);}
	.st20{fill:url(#SVGID_15_);}
	.st21{fill:url(#SVGID_16_);}
	.st22{fill:url(#SVGID_17_);}
</style>
<path class="st0" d="M389.5,340.2h-359c-9.7,0-17.5-7.8-17.5-17.5V19.3c0-9.7,7.8-17.5,17.5-17.5h359c9.7,0,17.5,7.8,17.5,17.5
	v303.4C407,332.4,399.2,340.2,389.5,340.2z"/>
<circle class="st1" cx="315.2" cy="313.3" r="13"/>
<circle class="st1" cx="104.7" cy="313.3" r="13"/>
<rect x="181.4" y="310.8" class="st2" width="57.2" height="14.7"/>
<circle class="st3" cx="145.7" cy="322.6" r="5"/>
<path class="st0" d="M108.1,13.6h207.4l-13.2,53.6c-26.1-3.5-56-6.1-89-6.2c-34.8-0.1-66.2,2.5-93.4,6.2
	C116,49.3,112.1,31.4,108.1,13.6z"/>
<polygon class="st4" points="144.1,22 144.1,26.5 144.1,48.1 279.6,48.1 279.6,26.5 279.6,22 "/>
<path class="st1" d="M290.1,26.5h-1.8h-1.8h-7v7v2.6v5v7h7h1.8h1.8c3.9,0,7-3.1,7-7v-5v-2.6v-7H290.1z"/>
<path class="st1" d="M133.5,26.5h1.8h1.8h7v7v2.6v5v7h-7h-1.8h-1.8c-3.9,0-7-3.1-7-7v-5v-2.6v-7H133.5z"/>
<path class="st1" d="M260,40.4h-98.4c-2.9,0-5.3-2.4-5.3-5.3v-0.2c0-2.9,2.4-5.3,5.3-5.3H260c2.9,0,5.3,2.4,5.3,5.3v0.2
	C265.3,38,262.9,40.4,260,40.4z"/>
<path class="st4" d="M407,79.9c0,0-43.4-6.7-43.6-2.9c-5.3,98-12,203.9-35.1,206.9c-14.6,1.9-35.1-6.7-43.4,26.9
	c-0.4,1.5-11.5,6.3-46.3,11.8"/>
<path class="st4" d="M13,79.9c0,0,43.4-6.7,43.6-2.9c5.3,98,12,203.9,35.1,206.9c14.6,1.9,35.1-6.7,43.4,26.9
	c0.4,1.5,11.5,6.3,46.3,11.8"/>
<path class="st4" d="M407,269.5l-9.1-3.6h-41c0,0-21.6,38.4-30.3,41"/>
<path class="st4" d="M13,269.5l9.1-3.6h41c0,0,21.6,38.4,30.3,41"/>
<path class="st4" d="M322.8,118c0-15.7-12.7-28.3-28.3-28.3H258h-92.2h-36.4c-15.7,0-28.3,12.7-28.3,28.3v44.9
	c0,1.9,0.2,3.8,0.6,5.6c-0.4,3.3-0.6,6.7-0.6,10.1v23c0,51.6,41.8,93.4,93.4,93.4h34.8c51.6,0,93.4-41.8,93.4-93.4v-23
	c0-3.4-0.2-6.8-0.6-10.1c0.4-1.8,0.6-3.7,0.6-5.6L322.8,118L322.8,118z"/>
<line class="st4" x1="193.2" y1="285.3" x2="203.3" y2="275.2"/>
<line class="st4" x1="206.4" y1="285.3" x2="216.5" y2="275.2"/>
<line class="st4" x1="219.5" y1="285.3" x2="229.6" y2="275.2"/>
<path class="st5" d="M305.2,191.5h-185c-4.8,0-8.7-3.9-8.7-8.7v-0.4c0-4.8,3.9-8.7,8.7-8.7h185c4.8,0,8.7,3.9,8.7,8.7v0.4
	C313.8,187.6,310,191.5,305.2,191.5z"/>
<g>
	
		<linearGradient id="SVGID_1_" gradientUnits="userSpaceOnUse" x1="201.9623" y1="-398.3276" x2="207.1965" y2="-393.0936" gradientTransform="matrix(1 0 0 -1 0 -252)">
		<stop  offset="0" style="stop-color:#999999"/>
		<stop  offset="0.98" style="stop-color:#F3F3F3"/>
	</linearGradient>
	<path class="st6" d="M207.1,141.6c-0.1-0.1-0.2-0.2-0.3-0.2c-2.3-0.6-3.7-0.5-4.3,0.3c-0.2,0.3-0.4,0.5-0.4,0.8s0,0.5,0.1,0.7l0,0
		c0.1,0.2,0.2,0.4,0.4,0.5l0,0c0.1,0.1,0.3,0.2,0.5,0.3c0.1,0.1,0.4,0.1,0.8,0.1c0.1,0,0.3,0,0.5,0s0.4,0,0.5,0l0,0
		c0.4,0,0.8,0,0.9,0.1c0.1,0,0.4,0.3,0.4,0.4c0,0.1,0,0,0,0c0,0.1,0,0.1,0,0.2c0,0.2-0.1,0.1-0.1,0.2l0,0c-0.1,0.1-0.2,0.1-0.4,0.2
		c-0.2,0.1-0.5,0.1-0.9,0.1c-0.3,0-0.7,0-1,0s-0.6-0.1-0.9-0.2c-0.1,0-0.2,0-0.4,0c-0.1,0.1-0.2,0.2-0.2,0.3s0,0.2,0,0.4
		c0.1,0.1,0.2,0.2,0.3,0.2c0.3,0.1,0.6,0.2,1,0.2s0.8,0.1,1.2,0c0.4,0,0.8-0.1,1.1-0.1c0.4-0.1,0.7-0.3,0.9-0.5l0,0
		c0.1-0.2,0.2-0.3,0.3-0.4l0,0c0.1-0.2,0.1-0.3,0.1-0.5l0,0c0-0.1,0-0.3-0.1-0.5c0-0.1,0-0.1-0.2-0.4c-0.1-0.3-0.4-0.5-0.9-0.6l0,0
		c-0.1,0-0.5,0-1,0c-0.1,0-0.3,0-0.6,0c-0.2,0-0.4,0-0.5,0c-0.3,0-0.4,0-0.5,0s-0.2-0.1-0.2-0.1c-0.1-0.1-0.1-0.1-0.2-0.2l0,0
		c0,0,0-0.1,0-0.2c0-0.1,0.1-0.2,0.2-0.3c0.5-0.5,1.7-0.5,3.3,0c0.1,0,0.2,0,0.4,0c0.1-0.1,0.2-0.2,0.2-0.3
		C207.2,141.9,207.2,141.7,207.1,141.6z"/>
	
		<linearGradient id="SVGID_2_" gradientUnits="userSpaceOnUse" x1="196.3774" y1="-404.7125" x2="201.7105" y2="-399.3795" gradientTransform="matrix(1 0 0 -1 0 -252)">
		<stop  offset="0" style="stop-color:#999999"/>
		<stop  offset="0.98" style="stop-color:#F3F3F3"/>
	</linearGradient>
	<path class="st7" d="M201.6,147.9c-0.1-0.1-0.2-0.2-0.3-0.2c-2.3-0.6-3.7-0.5-4.3,0.3c-0.2,0.3-0.4,0.5-0.4,0.8s0,0.5,0.1,0.7l0,0
		c0.1,0.2,0.2,0.4,0.4,0.5l0,0c0.1,0.1,0.3,0.2,0.5,0.3c0.1,0.1,0.4,0.1,0.8,0.1c0.1,0,0.3,0,0.5,0s0.4,0,0.5,0l0,0
		c0.4,0,0.8,0,0.9,0.1c0.1,0,0.4,0.3,0.4,0.4c0,0.1,0,0,0,0c0,0.1,0,0.1,0,0.2c0,0.2-0.1,0.1-0.1,0.2l0,0c-0.1,0.1-0.2,0.1-0.4,0.2
		c-0.2,0.1-0.5,0.1-0.9,0.1c-0.3,0-0.7,0-1,0s-0.6-0.1-0.9-0.2c-0.1,0-0.2,0-0.4,0c-0.1,0.1-0.2,0.2-0.2,0.3s0,0.2,0,0.4
		c0.1,0.1,0.2,0.2,0.3,0.2c0.3,0.1,0.6,0.2,1,0.2s0.8,0.1,1.2,0c0.4,0,0.8-0.1,1.1-0.1c0.4-0.1,0.7-0.3,0.9-0.5l0,0
		c0.1-0.2,0.2-0.3,0.3-0.4l0,0c0.1-0.2,0.1-0.3,0.1-0.5l0,0c0-0.1,0-0.3-0.1-0.5c0-0.1,0-0.1-0.2-0.4c-0.1-0.3-0.4-0.5-0.9-0.6l0,0
		c-0.3,0-0.6-0.1-1.1-0.1c-0.1,0-0.3,0-0.6,0c-0.2,0-0.4,0-0.5,0c-0.3,0-0.4,0-0.5,0s-0.2-0.1-0.2-0.1c-0.1-0.1-0.1-0.1-0.2-0.2l0,0
		c0,0,0-0.1,0-0.2c0-0.1,0.1-0.2,0.2-0.3c0.5-0.5,1.7-0.5,3.3,0c0.1,0,0.2,0,0.4,0c0.1-0.1,0.2-0.2,0.2-0.3
		C201.7,148.1,201.7,148,201.6,147.9z"/>
	
		<linearGradient id="SVGID_3_" gradientUnits="userSpaceOnUse" x1="207.6194" y1="-397.9807" x2="212.7155" y2="-392.8845" gradientTransform="matrix(1 0 0 -1 0 -252)">
		<stop  offset="0" style="stop-color:#999999"/>
		<stop  offset="0.98" style="stop-color:#F3F3F3"/>
	</linearGradient>
	<path class="st8" d="M212,141.2c-0.1-0.1-0.2-0.1-0.3-0.1h-3.3c-0.1,0-0.2,0-0.3,0.1s-0.1,0.2-0.1,0.3v4.1c0,0.1,0,0.2,0.1,0.3
		s0.2,0.1,0.3,0.1h3.3c0.1,0,0.2,0,0.3-0.1s0.1-0.2,0.1-0.3s0-0.2-0.1-0.3s-0.2-0.1-0.3-0.1h-2.8v-1h2.1c0.1,0,0.2,0,0.3-0.1
		s0.1-0.2,0.1-0.3s0-0.2-0.1-0.3s-0.2-0.1-0.3-0.1h-2.1v-1h2.8c0.1,0,0.2,0,0.3-0.1s0.1-0.2,0.1-0.3
		C212.2,141.4,212.1,141.3,212,141.2z"/>
	
		<linearGradient id="SVGID_4_" gradientUnits="userSpaceOnUse" x1="212.5692" y1="-398.6245" x2="218.1788" y2="-393.015" gradientTransform="matrix(1 0 0 -1 0 -252)">
		<stop  offset="0" style="stop-color:#999999"/>
		<stop  offset="0.98" style="stop-color:#F3F3F3"/>
	</linearGradient>
	<path class="st9" d="M217.8,141.8c0-0.1-0.1-0.3-0.2-0.3c-0.9-0.6-1.9-0.8-2.9-0.6c-0.4,0.1-0.5,0.1-0.9,0.3s-0.7,0.6-0.7,0.6
		c-0.2,0.2-0.3,0.5-0.4,0.8c-0.1,0.3-0.1,0.5-0.1,0.9s0,0.8,0.2,1.2c0.1,0.4,0.3,0.7,0.6,1l0,0c0.2,0.3,0.5,0.5,0.9,0.6
		c0.3,0.1,0.7,0.2,1.1,0.2c1,0,1.8-0.2,2.2-0.6c0.5-0.4,0.7-1.1,0.6-2.1c0-0.1-0.1-0.2-0.2-0.3c-0.1-0.1-0.2-0.1-0.3-0.1h-2.2
		c-0.1,0-0.2,0.1-0.3,0.1c-0.1,0.1-0.1,0.2-0.1,0.4c0,0.1,0,0.3,0.1,0.4c0.1,0.1,0.2,0.2,0.3,0.2h1.7c0,0.3-0.1,0.5-0.3,0.6
		c-0.3,0.3-0.8,0.4-1.5,0.4c-0.3,0-0.5-0.1-0.8-0.1l0,0c-0.2-0.1-0.4-0.2-0.5-0.4c-0.2-0.2-0.3-0.4-0.3-0.6
		c-0.1-0.2-0.1-0.5-0.1-0.8s0-0.5,0.1-0.7c0-0.1,0.1-0.3,0.2-0.4c0,0,0.1-0.2,0.4-0.3c0.2-0.1,0.4-0.2,0.7-0.2l0,0
		c0.7-0.2,1.4,0,2.1,0.4c0.1,0.1,0.2,0.1,0.4,0.1c0.1,0,0.2-0.1,0.3-0.2C217.8,142.1,217.8,141.9,217.8,141.8z"/>
	
		<linearGradient id="SVGID_5_" gradientUnits="userSpaceOnUse" x1="218.8615" y1="-398.675" x2="224.3526" y2="-393.1841" gradientTransform="matrix(1 0 0 -1 0 -252)">
		<stop  offset="0" style="stop-color:#999999"/>
		<stop  offset="0.98" style="stop-color:#F3F3F3"/>
	</linearGradient>
	<path class="st10" d="M223.9,146.1c0.1-0.1,0.1-0.2,0.1-0.4c-0.5-3.4-1.4-5.2-2.8-5.1c-1.3-0.1-2.3,1.5-2.8,4.8
		c0,0.1,0,0.2,0.1,0.4c0.1,0.1,0.2,0.2,0.3,0.2s0.2,0,0.4-0.1c0.1-0.1,0.2-0.2,0.2-0.3c0.1-0.4,0.1-0.8,0.2-1.1l0,0h3.2
		c0.1,0.4,0.2,0.8,0.2,1.3c0,0.1,0.1,0.2,0.2,0.3c0.1,0.1,0.2,0.1,0.3,0.1C223.7,146.3,223.8,146.2,223.9,146.1z M219.9,143.6
		c0.4-1.2,0.8-1.9,1.3-1.9s1,0.7,1.3,1.9H219.9z"/>
	
		<linearGradient id="SVGID_6_" gradientUnits="userSpaceOnUse" x1="202.5461" y1="-405.3906" x2="208.3136" y2="-399.6231" gradientTransform="matrix(1 0 0 -1 0 -252)">
		<stop  offset="0" style="stop-color:#999999"/>
		<stop  offset="0.98" style="stop-color:#F3F3F3"/>
	</linearGradient>
	<path class="st11" d="M203,152.6c0.1-0.1,0.2-0.2,0.2-0.3c0.1-0.4,0.1-0.8,0.2-1.1h3.2c0.1,0.4,0.2,0.8,0.2,1.3
		c0,0.1,0.1,0.2,0.2,0.3c0.1,0.1,0.2,0.1,0.4,0.1c0.1,0,0.2-0.1,0.3-0.2c0.1-0.1,0.1-0.2,0.1-0.4c-0.5-3.4-1.4-5.2-2.8-5.1
		c-1.3-0.1-2.3,1.5-2.8,4.8c0,0.1,0,0.2,0.1,0.4c0.1,0.1,0.2,0.2,0.3,0.2C202.7,152.7,202.8,152.7,203,152.6z M203.6,150.1
		c0.4-1.2,0.8-1.9,1.3-1.9s1,0.7,1.3,1.9H203.6z"/>
	
		<linearGradient id="SVGID_7_" gradientUnits="userSpaceOnUse" x1="206.4799" y1="-404.0702" x2="211.8721" y2="-398.6779" gradientTransform="matrix(1 0 0 -1 0 -252)">
		<stop  offset="0" style="stop-color:#999999"/>
		<stop  offset="0.98" style="stop-color:#F3F3F3"/>
	</linearGradient>
	<path class="st12" d="M212,147.7c-0.1-0.1-0.2-0.1-0.3-0.1h-4.3c-0.1,0-0.2,0-0.3,0.1s-0.1,0.2-0.1,0.3s0,0.2,0.1,0.3
		s0.2,0.1,0.3,0.1h1.7v3.8c0,0.1,0,0.2,0.1,0.3s0.2,0.1,0.3,0.1s0.2,0,0.3-0.1s0.1-0.2,0.1-0.3v-3.8h1.7c0.1,0,0.2,0,0.3-0.1
		s0.1-0.2,0.1-0.3C212.2,147.9,212.1,147.8,212,147.7z"/>
	
		<linearGradient id="SVGID_8_" gradientUnits="userSpaceOnUse" x1="212.3977" y1="-404.8523" x2="217.8492" y2="-399.4008" gradientTransform="matrix(1 0 0 -1 0 -252)">
		<stop  offset="0" style="stop-color:#999999"/>
		<stop  offset="0.98" style="stop-color:#F3F3F3"/>
	</linearGradient>
	<path class="st13" d="M217.9,147.6c-0.1-0.1-0.2-0.1-0.3-0.1s-0.2,0-0.3,0.1s-0.1,0.2-0.1,0.3v2.5c0,0.2,0,0.4-0.1,0.5
		c-0.1,0.2-0.2,0.3-0.3,0.4c-0.1,0.1-0.3,0.2-0.4,0.3c-0.2,0.1-0.3,0.1-0.5,0.1h-0.7c-0.2,0-0.4,0-0.5-0.1c-0.2-0.1-0.3-0.2-0.4-0.3
		c-0.1-0.1-0.2-0.3-0.3-0.4l0,0c-0.1-0.2-0.1-0.3-0.1-0.5v-2.5c0-0.1,0-0.2-0.1-0.3s-0.2-0.1-0.3-0.1s-0.2,0-0.3,0.1
		s-0.1,0.2-0.1,0.3v2.5c0,0.3,0.1,0.6,0.2,0.9l0,0c0.1,0.3,0.3,0.5,0.5,0.7s0.5,0.4,0.7,0.5c0.3,0.1,0.6,0.2,0.9,0.2h0.7
		c0.3,0,0.6-0.1,0.9-0.2l0,0c0.3-0.1,0.5-0.3,0.7-0.5s0.4-0.5,0.5-0.7l0,0c0.1-0.3,0.2-0.6,0.2-0.9v-2.5
		C218,147.8,217.9,147.7,217.9,147.6z"/>
	
		<linearGradient id="SVGID_9_" gradientUnits="userSpaceOnUse" x1="218.4157" y1="-404.905" x2="223.9066" y2="-399.4141" gradientTransform="matrix(1 0 0 -1 0 -252)">
		<stop  offset="0" style="stop-color:#999999"/>
		<stop  offset="0.98" style="stop-color:#F3F3F3"/>
	</linearGradient>
	<path class="st14" d="M218.5,147.6c-0.1,0.1-0.1,0.2-0.1,0.4v4.2c0,0.1,0.1,0.2,0.1,0.3c0.1,0.1,0.2,0.1,0.4,0.1
		c0.1,0,0.3,0,0.4-0.1c0.1-0.1,0.2-0.2,0.2-0.3v-3.8c1.1-0.1,2,0,2.6,0.2c0.4,0.1,0.7,0.4,0.7,0.7c0,0.2-0.1,0.4-0.3,0.5
		c-0.3,0.1-0.8,0.2-1.5,0.1c-0.1,0-0.2,0-0.3,0.1s-0.2,0.1-0.2,0.2s0,0.2,0,0.3s0.1,0.2,0.2,0.2l2.7,1.8c0.1,0.1,0.2,0.1,0.4,0.1
		c0.1,0,0.3-0.1,0.3-0.2c0.1-0.1,0.1-0.2,0.1-0.3s-0.1-0.2-0.2-0.3l-1.4-0.9c0.2,0,0.4-0.1,0.5-0.2c0.6-0.3,0.9-0.7,0.9-1.4
		c0-0.8-0.4-1.3-1.4-1.7c-0.8-0.2-2-0.3-3.5-0.2C218.7,147.5,218.6,147.5,218.5,147.6z"/>
	
		<linearGradient id="SVGID_10_" gradientUnits="userSpaceOnUse" x1="224.2963" y1="-404.7413" x2="229.6295" y2="-399.408" gradientTransform="matrix(1 0 0 -1 0 -252)">
		<stop  offset="0" style="stop-color:#999999"/>
		<stop  offset="0.98" style="stop-color:#F3F3F3"/>
	</linearGradient>
	<path class="st15" d="M224.6,147.7c-0.1,0.1-0.1,0.2-0.1,0.3v4.2c0,0.1,0,0.2,0.1,0.3s0.2,0.1,0.3,0.1s0.2,0,0.3-0.1
		s0.1-0.2,0.1-0.3v-3.1l3.3,3.4c0.1,0.1,0.2,0.1,0.2,0.1c0.1,0,0.2,0,0.3,0s0.2-0.1,0.2-0.2c0.1-0.1,0.1-0.2,0.1-0.3v-4.2
		c0-0.1,0-0.2-0.1-0.3s-0.2-0.1-0.3-0.1s-0.2,0-0.3,0.1s-0.1,0.2-0.1,0.3v3.1l-3.3-3.4c-0.1-0.1-0.2-0.1-0.2-0.1c-0.1,0-0.2,0-0.3,0
		C224.7,147.6,224.7,147.6,224.6,147.7z"/>
	
		<radialGradient id="SVGID_11_" cx="221.7534" cy="-381.4788" r="3.6743" gradientTransform="matrix(1 0 0 -1 0 -252)" gradientUnits="userSpaceOnUse">
		<stop  offset="0.43" style="stop-color:#FFFFFF"/>
		<stop  offset="0.64" style="stop-color:#7A7A7A"/>
		<stop  offset="0.99" style="stop-color:#000000"/>
	</radialGradient>
	<path class="st16" d="M223.3,128.4c0.3,0,0.4,0,0.6,0l0,0c0.4,0.2,0.6,0.5,0.6,0.7c-0.1,0.4-0.5,0.9-1.2,1.4
		c-0.8,0.6-2,1.2-3.3,1.9c-0.6,0.3-1.2,0.5-2,0.8s-0.7,2.5-0.1,2.3c1-0.4,2.1-0.8,2.9-1.2c1.5-0.7,2.8-1.4,3.7-2.2
		c1.2-0.9,1.9-1.8,2-2.6c0.2-0.8,0-1.5-0.6-2.2C225.7,127.1,223.2,128.4,223.3,128.4z"/>
	
		<radialGradient id="SVGID_12_" cx="203.9767" cy="-386.9308" r="3.7925" gradientTransform="matrix(1 0 0 -1 0 -252)" gradientUnits="userSpaceOnUse">
		<stop  offset="0" style="stop-color:#FFFFFF"/>
		<stop  offset="1" style="stop-color:#000000"/>
	</radialGradient>
	<path class="st17" d="M209.5,135.7c-0.6,0.1-1.1,0.2-1.8,0.3l0,0c-1.1,0.2-2.2,0.2-3,0.3l0,0c-0.7,0-1.3,0-1.8-0.2
		c-0.2-0.1-0.5-0.1-0.7,0c-0.3,0.1-0.4,0.3-0.5,0.5c-0.1,0.3-0.1,0.5,0,0.8c0.1,0.2,0.3,0.4,0.5,0.5c0.5,0.2,1.3,0.3,2.5,0.3
		c0.9,0,2.1-0.1,3.3-0.3l0,0c0.6-0.1,1.2-0.2,2-0.3C210.6,137.5,210.1,135.6,209.5,135.7z"/>
	
		<radialGradient id="SVGID_13_" cx="205.8533" cy="-378.9511" r="8.6896" gradientTransform="matrix(1 0 0 -1 0 -252)" gradientUnits="userSpaceOnUse">
		<stop  offset="0.8128" style="stop-color:#FFFFFF"/>
		<stop  offset="1" style="stop-color:#575757"/>
	</radialGradient>
	<path class="st18" d="M209.4,124.8c-0.6,0.2-1.1,0.4-1.7,0.6c-1.2,0.5-2.4,1-3.4,1.5l0,0c-1.1,0.5-2.1,1.1-2.7,1.7l0,0
		c-0.8,0.6-1.4,1.3-1.8,2l0,0c-0.5,0.8-0.5,1.7-0.1,2.4c0.2,0.7,0.9,1.1,2.3,1.2c0.7,0,1.7,0,2.9-0.3c0.6-0.1,1.3-0.3,2.2-0.5
		c0.5-0.1-0.1-2.1-0.5-2c-0.7,0.2-1.3,0.3-2,0.5c-1,0.2-1.8,0.3-2.4,0.2c-0.2,0-0.4,0-0.5,0l0,0c0-0.2,0-0.4,0.1-0.6l0,0
		c0.2-0.4,0.6-0.8,1.2-1.2c0.6-0.5,1.4-1,2.4-1.4c0.9-0.5,2.1-0.9,3.2-1.4l0,0c0.3-0.1,0.7-0.2,1-0.4
		C210.3,126.6,210.1,124.4,209.4,124.8z"/>
	
		<radialGradient id="SVGID_14_" cx="222.6428" cy="-372.887" r="4.8589" gradientTransform="matrix(1 0 0 -1 0 -252)" gradientUnits="userSpaceOnUse">
		<stop  offset="0" style="stop-color:#FFFFFF"/>
		<stop  offset="1" style="stop-color:#000000"/>
	</radialGradient>
	<path class="st19" d="M217.9,124.9c0.6-0.1,1.3-0.1,2-0.2c1.2-0.1,2.4-0.1,3.3,0c0.3,0,0.5,0,0.7-0.2s0.3-0.4,0.4-0.7
		c0-0.3,0-0.5-0.2-0.7s-0.4-0.3-0.7-0.4c-1.1-0.1-2.3-0.1-3.7,0c-0.8,0.1-1.8,0.2-2.7,0.3C216.5,123,217.2,125,217.9,124.9z"/>
	
		<linearGradient id="SVGID_15_" gradientUnits="userSpaceOnUse" x1="204.6057" y1="-380.1086" x2="203.1245" y2="-378.9828" gradientTransform="matrix(1 0 0 -1 0 -252)">
		<stop  offset="0" style="stop-color:#000000"/>
		<stop  offset="1" style="stop-color:#FFFFFF"/>
	</linearGradient>
	<path class="st20" d="M200.8,130.9c0,1.1,0.7,1,0.7,1l0,0l0,0c0-0.2,0-0.4,0.1-0.6l0,0c0.2-0.4,0.6-0.8,1.2-1.2
		c0.6-0.5,1.4-1,2.4-1.4c0.9-0.5,2.1-0.9,3.2-1.4l0,0c0.3-0.1,0.7-0.2,1-0.4c0.4-0.1,0.5-0.6,0.5-1.1c-0.5,0-0.9,0-1.4,0
		c-1,0-2,0.1-2.9,0.4c-0.5,0.2-1,0.5-1.5,0.7l0,0c-0.3,0.2-0.7,0.3-0.9,0.5C202.1,128.3,200.8,129.6,200.8,130.9z"/>
	
		<radialGradient id="SVGID_16_" cx="214.4702" cy="-378.61" r="7.8812" gradientTransform="matrix(1 0 0 -1 0 -252)" gradientUnits="userSpaceOnUse">
		<stop  offset="4.000000e-02" style="stop-color:#FFFFFF"/>
		<stop  offset="4.000000e-02" style="stop-color:#FFFFFF"/>
		<stop  offset="0.23" style="stop-color:#6E93E1"/>
		<stop  offset="1" style="stop-color:#363499"/>
	</radialGradient>
	<circle class="st21" cx="213" cy="130.3" r="8.7"/>
	
		<linearGradient id="SVGID_17_" gradientUnits="userSpaceOnUse" x1="213.7126" y1="-383.2961" x2="213.1194" y2="-381.3582" gradientTransform="matrix(1 0 0 -1 0 -252)">
		<stop  offset="0" style="stop-color:#000000"/>
		<stop  offset="0.9893" style="stop-color:#FFFFFF"/>
	</linearGradient>
	<path class="st22" d="M204.3,131.8c-0.1,0-2.7,0.6-3.2,0.2c-0.1-0.1,0.3,0.2,0.7,0.7c0.1,0.1,0,0.2,0,0.3c0,0,0,0-0.1,0.1v0.1
		c0,0.1,0,0.1,0,0.1c0,0.1-0.1,0.3-0.1,0.4v0.1c0,0-0.1,0-0.1,0.1c0,0-0.1,0-0.1,0.1l0,0h0.2c0,0,0.3,0,0.6,0s0.7,0,1.1,0
		c0.2,0,0.4-0.1,0.6-0.1c0.3,0,0.5-0.1,0.7-0.1s0.2,0,0.3,0c0.9-0.2,2.1-0.5,3.4-0.9c1-0.3,2.4-0.7,4-1.3l4-1.3
		c0.8-0.3,1.5-0.5,2.2-0.7c0.5-0.2,1-0.3,1.4-0.4c0.5-0.1,1-0.3,1.4-0.4c0.5-0.1,0.9-0.2,1.3-0.3c0.5-0.1,0.8-0.1,0.9,0l0,0
		c0.1,0.1,0.7,0,1.1,0.5c0.5,0.7,0.7,2.2,0.9,1.9c0.3-0.4,0.5-0.8,0.5-1.2c0.3-1.1-0.2-2.1-1.5-2.9c-0.4-0.3-1.1-0.4-2.4-0.2l0,0
		c-0.4,0.1-1,0.2-1.7,0.3c-0.4,0.1-0.8,0.2-1.3,0.3c-0.5,0.1-1,0.3-1.7,0.5c-0.6,0.2-1.3,0.4-2.1,0.7l-4,1.3c-1.1,0.4-2.2,0.7-3,0.9
		L204.3,131.8z"/>
</g>
</svg>
