<?xml version="1.0" encoding="utf-8"?>
<!-- Generator: Adobe Illustrator 22.0.1, SVG Export Plug-In . SVG Version: 6.00 Build 0)  -->
<svg version="1.1"
	 id="svg2" xmlns:cc="http://creativecommons.org/ns#" xmlns:dc="http://purl.org/dc/elements/1.1/" xmlns:rdf="http://www.w3.org/1999/02/22-rdf-syntax-ns#" xmlns:svg="http://www.w3.org/2000/svg"
	 xmlns="http://www.w3.org/2000/svg" xmlns:xlink="http://www.w3.org/1999/xlink" x="0px" y="0px" viewBox="0 0 332.1 535.8"
	 style="enable-background:new 0 0 332.1 535.8;" xml:space="preserve">
<style type="text/css">
	.st0{fill:#58595B;}
	.st1{fill:#333333;}
	.st2{fill:#414042;}
	.st3{fill:#45494C;}
	.st4{fill:#282828;}
	.st5{fill:#BE1F13;}
	.st6{fill:#FFFFFF;stroke:#FFFFFF;stroke-width:0.75;stroke-miterlimit:10;}
	.st7{fill:#000099;stroke:#FFFFFF;stroke-width:0.75;stroke-miterlimit:10;}
</style>
<g>
	<path class="st0" d="M71.6,522.3c-47.8-32.9-49.8-92.5-27.2-139.8c37.1-73.6,37.1-155.6,0-229.2C21.8,106,23.8,46.3,71.6,13.4l0,0
		c47-33,148.7-4.2,189,75.7c57.8,114.8,57.8,242.6,0,357.4C220.4,526.5,118.7,555.4,71.6,522.3L71.6,522.3z"/>
	<path class="st1" d="M213.7,226.5c-38.5,23.7-94.5,2.7-125.2-47s-24.4-109.3,14-133s94.5-2.7,125.2,47S252.2,202.8,213.7,226.5z"/>
	<path class="st2" d="M209.5,324.5c-35.5-21.9-87.3-2.5-115.7,43.4s-22.6,101,13,122.9c35.5,21.9,87.3,2.5,115.7-43.4
		C250.8,401.5,245,346.5,209.5,324.5z"/>
	<path class="st3" d="M197.5,343.9c-27.2-16.8-67-1.9-88.7,33.3c-21.8,35.2-17.3,77.4,9.9,94.3c27.2,16.8,67,1.9,88.7-33.3
		C229.2,402.9,224.8,360.7,197.5,343.9z"/>
	<path class="st4" d="M165.7,373.4c-9.9-0.8-17.2-9.5-16.4-19.4s9.5-17.2,19.4-16.4c9.9,0.8,17.2,9.5,16.4,19.4
		C184.2,366.9,175.5,374.3,165.7,373.4z"/>
	<path class="st4" d="M190.2,411.2c-9.9-0.8-17.2-9.5-16.4-19.4s9.5-17.2,19.4-16.4c9.9,0.8,17.2,9.5,16.4,19.4
		C208.8,404.7,200.1,412,190.2,411.2z"/>
	<path class="st4" d="M198.8,454c-9.9-0.8-17.2-9.5-16.4-19.4s9.5-17.2,19.4-16.4c9.9,0.8,17.2,9.5,16.4,19.4
		C217.3,447.5,208.7,454.8,198.8,454z"/>
	<path class="st4" d="M117.2,395.8c-9.7-1.8-16.2-11.1-14.4-20.9c1.8-9.7,11.1-16.2,20.9-14.4c9.7,1.8,16.2,11.1,14.4,20.9
		C136.3,391.1,127,397.5,117.2,395.8z"/>
	<path class="st4" d="M143.8,432c-9.7-1.8-16.2-11.1-14.4-20.9c1.8-9.7,11.1-16.2,20.9-14.4c9.7,1.8,16.2,11.1,14.4,20.9
		C162.9,427.3,153.6,433.7,143.8,432z"/>
	<path class="st4" d="M153.5,477.3c-9.7-1.8-16.2-11.1-14.4-20.9c1.8-9.7,11.1-16.2,20.9-14.4c9.7,1.8,16.2,11.1,14.4,20.9
		C172.6,472.6,163.3,479.1,153.5,477.3z"/>
	<path class="st5" d="M124.7,297.1c-3.9,0-7.1-3.2-7.1-7.1v-27.6c0-3.9,3.2-7.1,7.1-7.1l0,0c3.9,0,7.1,3.2,7.1,7.1V290
		C131.7,294,128.6,297.1,124.7,297.1L124.7,297.1z"/>
	<path class="st0" d="M158.1,195.1c-32.4,0-58.6-26.2-58.6-58.6s26.2-58.6,58.6-58.6s58.6,26.2,58.6,58.6
		C216.7,168.9,190.5,195.1,158.1,195.1z"/>
	<path class="st2" d="M158.1,190.8c-30,0-54.3-24.3-54.3-54.3s24.3-54.3,54.3-54.3s54.3,24.3,54.3,54.3S188.1,190.8,158.1,190.8z"/>
	<path class="st4" d="M174,173.4v-21.1h21c3.8,0,6.9-2.6,6.9-5.8v-20.1c0-3.2-3.1-5.8-6.9-5.8h-21v-21c0-3.8-2.6-6.9-5.8-6.9h-20.1
		c-3.2,0-5.8,3.1-5.8,6.9v21.1h-21.1c-3.8,0-6.9,2.6-6.9,5.8v20.1c0,3.2,3.1,5.8,6.9,5.8h21.1v21.1c0,3.8,2.6,6.9,5.8,6.9h20.1
		C171.4,180.3,174,177.2,174,173.4z"/>
</g>
<g>
	<g>
		<path class="st6" d="M253.2,297.8l-14.3-4.9v3.1l6,2.1h-2.5v6.3l11-3.7c0.6-0.1,2.4-0.7,2.4-1.5
			C255.8,298.5,253.8,297.9,253.2,297.8z M245,298.1l3,1l-3,1V298.1z"/>
	</g>
	<g>
		<path class="st6" d="M255.5,280.6v9.4h2.7v-9.7c0-2.5-2.1-4.8-4.8-4.8h-9.9c-2.5,0-4.6,2.1-4.6,4.8v9.7h12.5v-7.6H249v4.9h-7.5
			v-6.7c0-1.2,1-2.2,2.2-2.2h9.4C254.4,278.4,255.5,279.3,255.5,280.6z"/>
		<path class="st6" d="M248.3,282.4h-2.7v1.6h-0.7v-1.6c0-0.3,0.3-0.7,0.7-0.7h5.8c0.3,0,0.7,0.3,0.7,0.7v7.6h2.7v-8.8
			c0-1.2-1-2.2-2.2-2.2h-8.1c-1.2,0-2.2,1-2.2,2.2v5.4h6.1v-4.2H248.3z"/>
	</g>
	<g>
		<path class="st6" d="M255.5,265.1v9.4h2.7v-9.7c0-2.5-2.1-4.8-4.8-4.8h-9.7c-2.5,0-4.6,2.1-4.6,4.8v9.7h2.7v-9.4
			c0-1.2,1-2.2,2.2-2.2h9.3C254.4,262.8,255.5,263.7,255.5,265.1z"/>
		<path class="st6" d="M249,272.4h2.4v-6.3c0.3,0,0.7,0.3,0.7,0.7v7.6h2.7v-8.8c0-1.2-1-2.2-2.2-2.2H249V272.4z"/>
		<path class="st6" d="M248.2,272.4h-2.5v-6.3c-0.3,0-0.7,0.3-0.7,0.7v7.6h-2.7v-8.8c0-1.2,1-2.2,2.2-2.2h3.6L248.2,272.4
			L248.2,272.4L248.2,272.4z"/>
	</g>
	<g>
		<path class="st6" d="M244.7,249.4v-5.7h-2.5v8.7v0.1c0,1.6,1.3,3,3,3c1.6,0,3-1.3,3-3v-3.4c0.6-1.3,1.9-2.5,3.4-2.5
			c2.1,0,3.7,1.9,3.7,3.9v8.4h2.7V250c0-3.4-2.8-6.3-6.3-6.3s-6.3,3-6.3,6.6l0,0l0,0v1.9c0,0.3-0.1,0.4-0.4,0.4
			c-0.3,0-0.4-0.1-0.4-0.4L244.7,249.4L244.7,249.4z"/>
		<path class="st6" d="M252.3,253.1v5.7h2.4v-8.7V250c0-1.6-1.3-3-3-3c-1.6,0-3,1.3-3,3v3.4c-0.6,1.3-1.9,2.5-3.4,2.5
			c-2.1,0-3.7-1.9-3.7-3.9v-8.4h-2.7v8.8c0,3.4,2.8,6.3,6.3,6.3s6.3-3,6.3-6.6l0,0l0,0v-1.9c0-0.3,0.1-0.4,0.4-0.4
			c0.3,0,0.4,0.1,0.4,0.4C252.3,250.3,252.3,253.1,252.3,253.1z"/>
	</g>
	<path class="st6" d="M255.5,294.9l-16.6-5.5v2.7l16,5.5c0.7,0.1,1.2,0.7,1.2,1.5c0,0.7-0.6,1.3-1.2,1.5l-13.3,4.5v-7.2h-2.7v10.7
		l16.6-5.2c1.8-0.6,3.1-2.2,3.1-4.2C258.6,297.2,257.3,295.5,255.5,294.9z"/>
	<g>
		<path class="st6" d="M253.2,297.8l-14.3-4.9v3.1l6,2.1h-2.5v6.3l11-3.7c0.6-0.1,2.4-0.7,2.4-1.5
			C255.8,298.5,253.8,297.9,253.2,297.8z M245,298.1l3,1l-3,1V298.1z"/>
	</g>
	<g>
		<path class="st6" d="M255.5,280.6v9.4h2.7v-9.7c0-2.5-2.1-4.8-4.8-4.8h-9.9c-2.5,0-4.6,2.1-4.6,4.8v9.7h12.5v-7.6H249v4.9h-7.5
			v-6.7c0-1.2,1-2.2,2.2-2.2h9.4C254.4,278.4,255.5,279.3,255.5,280.6z"/>
		<path class="st6" d="M248.3,282.4h-2.7v1.6h-0.7v-1.6c0-0.3,0.3-0.7,0.7-0.7h5.8c0.3,0,0.7,0.3,0.7,0.7v7.6h2.7v-8.8
			c0-1.2-1-2.2-2.2-2.2h-8.1c-1.2,0-2.2,1-2.2,2.2v5.4h6.1v-4.2H248.3z"/>
	</g>
	<g>
		<path class="st6" d="M255.5,265.1v9.4h2.7v-9.7c0-2.5-2.1-4.8-4.8-4.8h-9.7c-2.5,0-4.6,2.1-4.6,4.8v9.7h2.7v-9.4
			c0-1.2,1-2.2,2.2-2.2h9.3C254.4,262.8,255.5,263.7,255.5,265.1z"/>
		<path class="st6" d="M249,272.4h2.4v-6.3c0.3,0,0.7,0.3,0.7,0.7v7.6h2.7v-8.8c0-1.2-1-2.2-2.2-2.2H249V272.4z"/>
		<path class="st6" d="M248.2,272.4h-2.5v-6.3c-0.3,0-0.7,0.3-0.7,0.7v7.6h-2.7v-8.8c0-1.2,1-2.2,2.2-2.2h3.6L248.2,272.4
			L248.2,272.4L248.2,272.4z"/>
	</g>
	<g>
		<path class="st6" d="M244.7,249.4v-5.7h-2.5v8.7v0.1c0,1.6,1.3,3,3,3c1.6,0,3-1.3,3-3v-3.4c0.6-1.3,1.9-2.5,3.4-2.5
			c2.1,0,3.7,1.9,3.7,3.9v8.4h2.7V250c0-3.4-2.8-6.3-6.3-6.3s-6.3,3-6.3,6.6l0,0l0,0v1.9c0,0.3-0.1,0.4-0.4,0.4
			c-0.3,0-0.4-0.1-0.4-0.4L244.7,249.4L244.7,249.4z"/>
		<path class="st6" d="M252.3,253.1v5.7h2.4v-8.7V250c0-1.6-1.3-3-3-3c-1.6,0-3,1.3-3,3v3.4c-0.6,1.3-1.9,2.5-3.4,2.5
			c-2.1,0-3.7-1.9-3.7-3.9v-8.4h-2.7v8.8c0,3.4,2.8,6.3,6.3,6.3s6.3-3,6.3-6.6l0,0l0,0v-1.9c0-0.3,0.1-0.4,0.4-0.4
			c0.3,0,0.4,0.1,0.4,0.4C252.3,250.3,252.3,253.1,252.3,253.1z"/>
	</g>
	<path class="st6" d="M255.5,294.9l-16.6-5.5v2.7l16,5.5c0.7,0.1,1.2,0.7,1.2,1.5c0,0.7-0.6,1.3-1.2,1.5l-13.3,4.5v-7.2h-2.7v10.7
		l16.6-5.2c1.8-0.6,3.1-2.2,3.1-4.2C258.6,297.2,257.3,295.5,255.5,294.9z"/>
	<g>
		<path class="st7" d="M253.2,297.8l-14.3-4.9v3.1l6,2.1h-2.5v6.3l11-3.7c0.6-0.1,2.4-0.7,2.4-1.5
			C255.8,298.5,253.8,297.9,253.2,297.8z M245,298.1l3,1l-3,1V298.1z"/>
	</g>
	<g>
		<path class="st7" d="M255.5,280.6v9.4h2.7v-9.7c0-2.5-2.1-4.8-4.8-4.8h-9.9c-2.5,0-4.6,2.1-4.6,4.8v9.7h12.5v-7.6H249v4.9h-7.5
			v-6.7c0-1.2,1-2.2,2.2-2.2h9.4C254.4,278.4,255.5,279.3,255.5,280.6z"/>
		<path class="st7" d="M248.3,282.4h-2.7v1.6h-0.7v-1.6c0-0.3,0.3-0.7,0.7-0.7h5.8c0.3,0,0.7,0.3,0.7,0.7v7.6h2.7v-8.8
			c0-1.2-1-2.2-2.2-2.2h-8.1c-1.2,0-2.2,1-2.2,2.2v5.4h6.1v-4.2H248.3z"/>
	</g>
	<g>
		<path class="st7" d="M255.5,265.1v9.4h2.7v-9.7c0-2.5-2.1-4.8-4.8-4.8h-9.7c-2.5,0-4.6,2.1-4.6,4.8v9.7h2.7v-9.4
			c0-1.2,1-2.2,2.2-2.2h9.3C254.4,262.8,255.5,263.7,255.5,265.1z"/>
		<path class="st7" d="M249,272.4h2.4v-6.3c0.3,0,0.7,0.3,0.7,0.7v7.6h2.7v-8.8c0-1.2-1-2.2-2.2-2.2H249V272.4z"/>
		<path class="st7" d="M248.2,272.4h-2.5v-6.3c-0.3,0-0.7,0.3-0.7,0.7v7.6h-2.7v-8.8c0-1.2,1-2.2,2.2-2.2h3.6L248.2,272.4
			L248.2,272.4L248.2,272.4z"/>
	</g>
	<g>
		<path class="st7" d="M244.7,249.4v-5.7h-2.5v8.7v0.1c0,1.6,1.3,3,3,3c1.6,0,3-1.3,3-3v-3.4c0.6-1.3,1.9-2.5,3.4-2.5
			c2.1,0,3.7,1.9,3.7,3.9v8.4h2.7V250c0-3.4-2.8-6.3-6.3-6.3s-6.3,3-6.3,6.6l0,0l0,0v1.9c0,0.3-0.1,0.4-0.4,0.4
			c-0.3,0-0.4-0.1-0.4-0.4L244.7,249.4L244.7,249.4z"/>
		<path class="st7" d="M252.3,253.1v5.7h2.4v-8.7V250c0-1.6-1.3-3-3-3c-1.6,0-3,1.3-3,3v3.4c-0.6,1.3-1.9,2.5-3.4,2.5
			c-2.1,0-3.7-1.9-3.7-3.9v-8.4h-2.7v8.8c0,3.4,2.8,6.3,6.3,6.3s6.3-3,6.3-6.6l0,0l0,0v-1.9c0-0.3,0.1-0.4,0.4-0.4
			c0.3,0,0.4,0.1,0.4,0.4C252.3,250.3,252.3,253.1,252.3,253.1z"/>
	</g>
	<path class="st7" d="M255.5,294.9l-16.6-5.5v2.7l16,5.5c0.7,0.1,1.2,0.7,1.2,1.5c0,0.7-0.6,1.3-1.2,1.5l-13.3,4.5v-7.2h-2.7v10.7
		l16.6-5.2c1.8-0.6,3.1-2.2,3.1-4.2C258.6,297.2,257.3,295.5,255.5,294.9z"/>
</g>
</svg>
