<?xml version="1.0" encoding="utf-8"?>
<!-- Generator: Adobe Illustrator 22.0.1, SVG Export Plug-In . SVG Version: 6.00 Build 0)  -->
<svg version="1.1" id="Calque_1" xmlns="http://www.w3.org/2000/svg" xmlns:xlink="http://www.w3.org/1999/xlink" x="0px" y="0px"
	 viewBox="0 0 172 172" style="enable-background:new 0 0 172 172;" xml:space="preserve">
<style type="text/css">
	.st0{fill:#58595B;}
	.st1{fill:#45494C;}
	.st2{fill:#BBBDBF;}
	.st3{fill:#FFFFFF;}
	.st4{fill:#FFFFFF;stroke:#FFFFFF;stroke-width:0.25;stroke-miterlimit:10;}
	.st5{fill:#000099;stroke:#FFFFFF;stroke-width:0.25;stroke-miterlimit:10;}
	.st6{fill:url(#SVGID_1_);}
	.st7{fill:url(#SVGID_2_);}
	.st8{fill:url(#SVGID_3_);}
	.st9{fill:url(#SVGID_4_);}
	.st10{fill:url(#SVGID_5_);}
	.st11{fill:url(#SVGID_6_);}
	.st12{fill:url(#SVGID_7_);}
	.st13{fill:url(#SVGID_8_);}
	.st14{fill:url(#SVGID_9_);}
	.st15{fill:url(#SVGID_10_);}
	.st16{fill:url(#SVGID_11_);}
	.st17{fill:url(#SVGID_12_);}
	.st18{fill:url(#SVGID_13_);}
	.st19{fill:#CCCCCC;}
	.st20{fill:url(#SVGID_14_);}
	.st21{fill:url(#SVGID_15_);}
	.st22{fill:none;}
	.st23{fill:url(#SVGID_16_);}
	.st24{fill:url(#SVGID_17_);}
</style>
<g>
	<path class="st0" d="M86,172c-47.5,0-86-38.5-86-86S38.5,0,86,0s86,38.5,86,86S133.5,172,86,172z M98.6,86c0-7-5.7-12.6-12.6-12.6
		S73.4,79.1,73.4,86c0,7,5.6,12.6,12.6,12.6S98.6,93,98.6,86z"/>
	<path id="XMLID_3_" class="st1" d="M86,63.4c-12.5,0-22.6,10.1-22.6,22.6s10.1,22.6,22.6,22.6s22.6-10.1,22.6-22.6
		S98.5,63.4,86,63.4z M86,97.9c-7,0-12.6-5.6-12.6-12.6S79,72.7,86,72.7s12.6,5.7,12.6,12.6C98.6,92.3,93,97.9,86,97.9z"/>
	<path id="XMLID_6_" class="st2" d="M86,60c-14.4,0-26,11.7-26,26s11.6,26,26,26s26-11.7,26-26S100.4,60,86,60z M86,110.1
		c-13.3,0-24.1-10.8-24.1-24.1S72.7,61.9,86,61.9s24.1,10.8,24.1,24.1S99.3,110.1,86,110.1z"/>
	<path id="XMLID_918_" class="st3" d="M86,1.4C39.3,1.4,1.4,39.3,1.4,86s37.9,84.6,84.6,84.6s84.6-37.9,84.6-84.6S132.7,1.4,86,1.4z
		 M150.2,135.2c-14.8,19.3-38,31.7-64.2,31.7s-49.4-12.4-64.2-31.7C11.3,121.6,5.1,104.5,5.1,86C5.1,41.3,41.3,5.1,86,5.1
		s80.9,36.2,80.9,80.9C166.9,104.5,160.7,121.6,150.2,135.2L150.2,135.2z"/>
	<path class="st3" d="M41.3,112.8H43c0.2,0,0.4,0.2,0.4,0.4v6.6c0,0.2-0.2,0.4-0.4,0.4h-1.7c-0.2,0-0.4-0.2-0.4-0.4v-6.6
		C40.9,112.9,41.1,112.8,41.3,112.8z"/>
	<path class="st3" d="M38.3,110.1h1.4c0.2,0,0.4,0.2,0.4,0.4v9.3c0,0.2-0.2,0.4-0.4,0.4H35c-0.2,0-0.5-0.3-0.5-0.5v-6.3
		c0-0.2,0.3-0.5,0.5-0.5h3v-2.3C37.9,110.3,38.1,110.1,38.3,110.1L38.3,110.1z M36.7,114h1.1c0.2,0,0.4,0.2,0.4,0.4v4.3
		c0,0.2-0.2,0.4-0.4,0.4h-1.1c-0.2,0-0.4-0.2-0.4-0.4v-4.3C36.4,114.2,36.5,114,36.7,114z"/>
	<path class="st3" d="M46.1,115.5h3c0.2,0,0.4,0.3,0.4,0.4v3.9c0,0.2-0.2,0.4-0.4,0.4h-4.4c-0.1,0-0.4-0.2-0.4-0.4v-0.9
		c0-0.2,0.2-0.4,0.4-0.4h3v-1.1h-3c-0.1,0-0.4-0.2-0.4-0.4v-3.9c0-0.2,0.2-0.4,0.4-0.4h4.1c0.2,0,0.4,0.2,0.4,0.4v0.9
		c0,0.1-0.2,0.4-0.4,0.4H46L46.1,115.5L46.1,115.5z"/>
	<path class="st3" d="M55.5,117.1v2.7c0,0.2-0.2,0.4-0.4,0.4h-4.4c-0.1,0-0.4-0.2-0.4-0.4v-6.6c0-0.2,0.2-0.4,0.4-0.4h4.4
		c0.2,0,0.4,0.3,0.4,0.4v2.7h-1.7v-1.6c0,0-0.2-0.4-0.4-0.4h-1.1c-0.2,0-0.4,0.2-0.4,0.4v4.3c0,0.2,0.2,0.4,0.4,0.4h1.1
		c0.2,0,0.4-0.2,0.4-0.4v-1.5H55.5z"/>
	<polygon class="st3" points="54.6,111.9 55.1,111.9 55.1,110.6 55.5,110.6 55.5,110.2 54.1,110.2 54.1,110.6 54.6,110.6 	"/>
	<path class="st3" d="M53.7,111.2h-0.5l0,0c0,0.2-0.1,0.2-0.3,0.2s-0.3-0.1-0.3-0.4v-0.3c0-0.3,0-0.3,0.3-0.3c0.2,0,0.3,0,0.3,0.2
		l0,0h0.5l0,0c0-0.5-0.2-0.6-0.7-0.6h-0.1c-0.5,0-0.7,0.2-0.7,0.7v0.4c0,0.5,0.2,0.7,0.7,0.7H53C53.5,112,53.7,111.8,53.7,111.2
		L53.7,111.2z"/>
	<polygon class="st3" points="46.8,110.2 46.5,111.4 46.1,110.2 45.4,110.2 45.4,111.9 45.8,111.9 45.8,110.6 46.2,111.9 
		46.7,111.9 47.1,110.6 47.1,111.9 47.5,111.9 47.5,110.2 	"/>
	<g>
		<path class="st3" d="M51.2,110.2h-0.4h-0.4l-0.5,1.8h0.5l0.1-0.3h0.3h0.3l0.1,0.3h0.5L51.2,110.2z M50.9,111.3h-0.2l0.2-0.7l0,0
			l0,0l0.2,0.7H50.9z"/>
		<path class="st3" d="M49,110.2L49,110.2h-0.9v1.8h0.5v-0.5h0.3H49c0.5,0,0.7-0.2,0.7-0.6v-0.1C49.7,110.3,49.5,110.2,49,110.2z
			 M49.2,110.9c0,0.2,0,0.2-0.2,0.2h-0.1h-0.3v-0.5h0.3l0,0c0.2,0,0.2,0,0.2,0.2L49.2,110.9L49.2,110.9z"/>
		<path class="st3" d="M44.1,110.1L44.1,110.1h-0.2c-0.5,0-0.7,0.2-0.7,0.7v0.4c0,0.5,0.2,0.7,0.7,0.7H44h0.1c0.5,0,0.7-0.2,0.7-0.7
			v-0.4C44.8,110.3,44.6,110.1,44.1,110.1z M44.3,111.2c0,0.3,0,0.4-0.3,0.4l0,0l0,0c-0.3,0-0.3-0.1-0.3-0.4v-0.3
			c0-0.3,0-0.3,0.3-0.3l0,0l0,0c0.3,0,0.3,0.1,0.3,0.3V111.2z"/>
	</g>
	<path class="st3" d="M42.7,111.2h-0.5l0,0c0,0.2-0.1,0.2-0.3,0.2s-0.3-0.1-0.3-0.4v-0.3c0-0.3,0-0.3,0.3-0.3c0.2,0,0.3,0,0.3,0.2
		l0,0h0.5l0,0c0-0.5-0.2-0.6-0.7-0.6h-0.1c-0.5,0-0.7,0.2-0.7,0.7v0.4c0,0.5,0.2,0.7,0.7,0.7H42C42.4,112,42.7,111.8,42.7,111.2
		L42.7,111.2z"/>
	<path class="st0" d="M37.9,118.7h-1.7c-0.1,0-0.1-0.1-0.1-0.1v-4.2c0-0.1,0.1-0.1,0.1-0.1h1.7c0.1,0,0.1,0.1,0.1,0.1L37.9,118.7
		C38,118.7,37.9,118.7,37.9,118.7z"/>
	<g>
		<g>
			<path class="st4" d="M153.2,80.2l-3.3,9.6h2.1l1.4-4v1.7h4.2l-2.5-7.4c-0.1-0.4-0.5-1.6-1-1.6C153.7,78.5,153.3,79.8,153.2,80.2z
				 M153.4,85.7l0.7-2l0.7,2H153.4z"/>
		</g>
		<g>
			<path class="st4" d="M141.7,78.7h6.3v-1.8h-6.5c-1.7,0-3.2,1.4-3.2,3.2v6.6c0,1.7,1.4,3.1,3.2,3.1h6.5v-8.4h-5.1V83h3.3v5h-4.5
				c-0.8,0-1.5-0.7-1.5-1.5v-6.3C140.2,79.4,140.8,78.7,141.7,78.7z"/>
			<path class="st4" d="M142.9,83.5v1.8h1.1v0.5h-1.1c-0.2,0-0.5-0.2-0.5-0.5v-3.9c0-0.2,0.2-0.5,0.5-0.5h5.1v-1.8h-5.9
				c-0.8,0-1.5,0.7-1.5,1.5V86c0,0.8,0.7,1.5,1.5,1.5h3.6v-4.1L142.9,83.5L142.9,83.5z"/>
		</g>
		<g>
			<path class="st4" d="M131.3,78.7h6.3v-1.8h-6.5c-1.7,0-3.2,1.4-3.2,3.2v6.5c0,1.7,1.4,3.1,3.2,3.1h6.5v-1.8h-6.3
				c-0.8,0-1.5-0.7-1.5-1.5v-6.2C129.8,79.4,130.4,78.7,131.3,78.7z"/>
			<path class="st4" d="M136.2,83v-1.6H132c0-0.2,0.2-0.5,0.5-0.5h5.1v-1.8h-5.9c-0.8,0-1.5,0.7-1.5,1.5V83H136.2z"/>
			<path class="st4" d="M136.2,83.6v1.7H132c0,0.2,0.2,0.5,0.5,0.5h5.1v1.8h-5.9c-0.8,0-1.5-0.7-1.5-1.5v-2.4L136.2,83.6L136.2,83.6
				z"/>
		</g>
		<g>
			<path class="st4" d="M120.8,85.9H117v1.7h5.8h0.1c1.1,0,2-0.9,2-2s-0.9-2-2-2h-2.3c-0.9-0.4-1.7-1.3-1.7-2.3
				c0-1.4,1.3-2.5,2.6-2.5h5.6V77h-5.9c-2.3,0-4.2,1.9-4.2,4.2c0,2.3,2,4.2,4.4,4.2l0,0l0,0h1.3c0.2,0,0.3,0.1,0.3,0.3
				c0,0.2-0.1,0.3-0.3,0.3L120.8,85.9L120.8,85.9z"/>
			<path class="st4" d="M123.3,80.8h3.8v-1.6h-5.8h-0.1c-1.1,0-2,0.9-2,2s0.9,2,2,2h2.3c0.9,0.4,1.7,1.3,1.7,2.3
				c0,1.4-1.3,2.5-2.6,2.5H117v1.8h5.9c2.3,0,4.2-1.9,4.2-4.2c0-2.3-2-4.2-4.4-4.2l0,0l0,0h-1.3c-0.2,0-0.3-0.1-0.3-0.3
				c0-0.2,0.1-0.3,0.3-0.3C121.4,80.8,123.3,80.8,123.3,80.8z"/>
		</g>
		<path class="st4" d="M151.3,78.7l-3.7,11.1h1.8l3.7-10.7c0.1-0.5,0.5-0.8,1-0.8s0.9,0.4,1,0.8l3,8.9h-4.8v1.8h7.2L157,78.7
			c-0.4-1.2-1.5-2.1-2.8-2.1C152.8,76.6,151.7,77.5,151.3,78.7z"/>
		<g>
			<path class="st4" d="M153.2,80.2l-3.3,9.6h2.1l1.4-4v1.7h4.2l-2.5-7.4c-0.1-0.4-0.5-1.6-1-1.6C153.7,78.5,153.3,79.8,153.2,80.2z
				 M153.4,85.7l0.7-2l0.7,2H153.4z"/>
		</g>
		<g>
			<path class="st4" d="M141.7,78.7h6.3v-1.8h-6.5c-1.7,0-3.2,1.4-3.2,3.2v6.6c0,1.7,1.4,3.1,3.2,3.1h6.5v-8.4h-5.1V83h3.3v5h-4.5
				c-0.8,0-1.5-0.7-1.5-1.5v-6.3C140.2,79.4,140.8,78.7,141.7,78.7z"/>
			<path class="st4" d="M142.9,83.5v1.8h1.1v0.5h-1.1c-0.2,0-0.5-0.2-0.5-0.5v-3.9c0-0.2,0.2-0.5,0.5-0.5h5.1v-1.8h-5.9
				c-0.8,0-1.5,0.7-1.5,1.5V86c0,0.8,0.7,1.5,1.5,1.5h3.6v-4.1L142.9,83.5L142.9,83.5z"/>
		</g>
		<g>
			<path class="st4" d="M131.3,78.7h6.3v-1.8h-6.5c-1.7,0-3.2,1.4-3.2,3.2v6.5c0,1.7,1.4,3.1,3.2,3.1h6.5v-1.8h-6.3
				c-0.8,0-1.5-0.7-1.5-1.5v-6.2C129.8,79.4,130.4,78.7,131.3,78.7z"/>
			<path class="st4" d="M136.2,83v-1.6H132c0-0.2,0.2-0.5,0.5-0.5h5.1v-1.8h-5.9c-0.8,0-1.5,0.7-1.5,1.5V83H136.2z"/>
			<path class="st4" d="M136.2,83.6v1.7H132c0,0.2,0.2,0.5,0.5,0.5h5.1v1.8h-5.9c-0.8,0-1.5-0.7-1.5-1.5v-2.4L136.2,83.6L136.2,83.6
				z"/>
		</g>
		<g>
			<path class="st4" d="M120.8,85.9H117v1.7h5.8h0.1c1.1,0,2-0.9,2-2s-0.9-2-2-2h-2.3c-0.9-0.4-1.7-1.3-1.7-2.3
				c0-1.4,1.3-2.5,2.6-2.5h5.6V77h-5.9c-2.3,0-4.2,1.9-4.2,4.2c0,2.3,2,4.2,4.4,4.2l0,0l0,0h1.3c0.2,0,0.3,0.1,0.3,0.3
				c0,0.2-0.1,0.3-0.3,0.3L120.8,85.9L120.8,85.9z"/>
			<path class="st4" d="M123.3,80.8h3.8v-1.6h-5.8h-0.1c-1.1,0-2,0.9-2,2s0.9,2,2,2h2.3c0.9,0.4,1.7,1.3,1.7,2.3
				c0,1.4-1.3,2.5-2.6,2.5H117v1.8h5.9c2.3,0,4.2-1.9,4.2-4.2c0-2.3-2-4.2-4.4-4.2l0,0l0,0h-1.3c-0.2,0-0.3-0.1-0.3-0.3
				c0-0.2,0.1-0.3,0.3-0.3C121.4,80.8,123.3,80.8,123.3,80.8z"/>
		</g>
		<path class="st4" d="M151.3,78.7l-3.7,11.1h1.8l3.7-10.7c0.1-0.5,0.5-0.8,1-0.8s0.9,0.4,1,0.8l3,8.9h-4.8v1.8h7.2L157,78.7
			c-0.4-1.2-1.5-2.1-2.8-2.1C152.8,76.6,151.7,77.5,151.3,78.7z"/>
		<g>
			<path class="st5" d="M153.2,80.2l-3.3,9.6h2.1l1.4-4v1.7h4.2l-2.5-7.4c-0.1-0.4-0.5-1.6-1-1.6C153.7,78.5,153.3,79.8,153.2,80.2z
				 M153.4,85.7l0.7-2l0.7,2H153.4z"/>
		</g>
		<g>
			<path class="st5" d="M141.7,78.7h6.3v-1.8h-6.5c-1.7,0-3.2,1.4-3.2,3.2v6.6c0,1.7,1.4,3.1,3.2,3.1h6.5v-8.4h-5.1V83h3.3v5h-4.5
				c-0.8,0-1.5-0.7-1.5-1.5v-6.3C140.2,79.4,140.8,78.7,141.7,78.7z"/>
			<path class="st5" d="M142.9,83.5v1.8h1.1v0.5h-1.1c-0.2,0-0.5-0.2-0.5-0.5v-3.9c0-0.2,0.2-0.5,0.5-0.5h5.1v-1.8h-5.9
				c-0.8,0-1.5,0.7-1.5,1.5V86c0,0.8,0.7,1.5,1.5,1.5h3.6v-4.1L142.9,83.5L142.9,83.5z"/>
		</g>
		<g>
			<path class="st5" d="M131.3,78.7h6.3v-1.8h-6.5c-1.7,0-3.2,1.4-3.2,3.2v6.5c0,1.7,1.4,3.1,3.2,3.1h6.5v-1.8h-6.3
				c-0.8,0-1.5-0.7-1.5-1.5v-6.2C129.8,79.4,130.4,78.7,131.3,78.7z"/>
			<path class="st5" d="M136.2,83v-1.6H132c0-0.2,0.2-0.5,0.5-0.5h5.1v-1.8h-5.9c-0.8,0-1.5,0.7-1.5,1.5V83H136.2z"/>
			<path class="st5" d="M136.2,83.6v1.7H132c0,0.2,0.2,0.5,0.5,0.5h5.1v1.8h-5.9c-0.8,0-1.5-0.7-1.5-1.5v-2.4L136.2,83.6L136.2,83.6
				z"/>
		</g>
		<g>
			<path class="st5" d="M120.8,85.9H117v1.7h5.8h0.1c1.1,0,2-0.9,2-2s-0.9-2-2-2h-2.3c-0.9-0.4-1.7-1.3-1.7-2.3
				c0-1.4,1.3-2.5,2.6-2.5h5.6V77h-5.9c-2.3,0-4.2,1.9-4.2,4.2c0,2.3,2,4.2,4.4,4.2l0,0l0,0h1.3c0.2,0,0.3,0.1,0.3,0.3
				c0,0.2-0.1,0.3-0.3,0.3L120.8,85.9L120.8,85.9z"/>
			<path class="st5" d="M123.3,80.8h3.8v-1.6h-5.8h-0.1c-1.1,0-2,0.9-2,2s0.9,2,2,2h2.3c0.9,0.4,1.7,1.3,1.7,2.3
				c0,1.4-1.3,2.5-2.6,2.5H117v1.8h5.9c2.3,0,4.2-1.9,4.2-4.2c0-2.3-2-4.2-4.4-4.2l0,0l0,0h-1.3c-0.2,0-0.3-0.1-0.3-0.3
				c0-0.2,0.1-0.3,0.3-0.3C121.4,80.8,123.3,80.8,123.3,80.8z"/>
		</g>
		<path class="st5" d="M151.3,78.7l-3.7,11.1h1.8l3.7-10.7c0.1-0.5,0.5-0.8,1-0.8s0.9,0.4,1,0.8l3,8.9h-4.8v1.8h7.2L157,78.7
			c-0.4-1.2-1.5-2.1-2.8-2.1C152.8,76.6,151.7,77.5,151.3,78.7z"/>
	</g>
	
		<linearGradient id="SVGID_1_" gradientUnits="userSpaceOnUse" x1="22.141" y1="82.951" x2="27.2135" y2="88.0234" gradientTransform="matrix(1 0 0 -1 0 174)">
		<stop  offset="0" style="stop-color:#999999"/>
		<stop  offset="0.98" style="stop-color:#F3F3F3"/>
	</linearGradient>
	<path class="st6" d="M27.1,86.4c-0.1-0.1-0.2-0.2-0.3-0.2c-2.2-0.6-3.6-0.5-4.2,0.3c-0.2,0.3-0.4,0.5-0.4,0.8s0,0.5,0.1,0.7l0,0
		c0.1,0.2,0.2,0.4,0.4,0.5l0,0c0.1,0.1,0.3,0.2,0.5,0.3c0.1,0.1,0.4,0.1,0.8,0.1c0.1,0,0.3,0,0.5,0s0.4,0,0.5,0l0,0
		c0.4,0,0.8,0,0.9,0.1c0.1,0,0.4,0.3,0.4,0.4s0,0,0,0c0,0.1,0,0.1,0,0.2c0,0.2-0.1,0.1-0.1,0.2l0,0c-0.1,0.1-0.2,0.1-0.4,0.2
		c-0.2,0.1-0.5,0.1-0.9,0.1c-0.3,0-0.7,0-1,0S23.3,90,23,89.9c-0.1,0-0.2,0-0.4,0c-0.1,0.1-0.2,0.2-0.2,0.3c0,0.1,0,0.2,0,0.4
		c0.1,0.1,0.2,0.2,0.3,0.2c0.3,0.1,0.6,0.2,1,0.2s0.8,0.1,1.2,0c0.4,0,0.8-0.1,1.1-0.1c0.4-0.1,0.7-0.3,0.9-0.5l0,0
		c0.1-0.2,0.2-0.3,0.3-0.4l0,0c0.1-0.2,0.1-0.3,0.1-0.5l0,0c0-0.1,0-0.3-0.1-0.5c0-0.1,0-0.1-0.2-0.4c-0.1-0.3-0.4-0.5-0.9-0.6l0,0
		c-0.1,0-0.5,0-1,0c-0.1,0-0.3,0-0.6,0c-0.2,0-0.4,0-0.5,0c-0.3,0-0.4,0-0.5,0s-0.2-0.1-0.2-0.1c-0.1-0.1-0.1-0.1-0.2-0.2l0,0
		c0,0,0-0.1,0-0.2s0.1-0.2,0.2-0.3c0.5-0.5,1.6-0.5,3.2,0c0.1,0,0.2,0,0.4,0c0.1-0.1,0.2-0.2,0.2-0.3C27.2,86.7,27.2,86.5,27.1,86.4
		z"/>
	
		<linearGradient id="SVGID_2_" gradientUnits="userSpaceOnUse" x1="16.6909" y1="76.801" x2="21.8593" y2="81.9693" gradientTransform="matrix(1 0 0 -1 0 174)">
		<stop  offset="0" style="stop-color:#999999"/>
		<stop  offset="0.98" style="stop-color:#F3F3F3"/>
	</linearGradient>
	<path class="st7" d="M21.7,92.5c-0.1-0.1-0.2-0.2-0.3-0.2c-2.2-0.6-3.6-0.5-4.2,0.3c-0.2,0.3-0.4,0.5-0.4,0.8s0,0.5,0.1,0.7l0,0
		c0.1,0.2,0.2,0.4,0.4,0.5l0,0c0.1,0.1,0.3,0.2,0.5,0.3c0.1,0.1,0.4,0.1,0.8,0.1c0.1,0,0.3,0,0.5,0s0.4,0,0.5,0l0,0
		c0.4,0,0.8,0,0.9,0.1c0.1,0,0.4,0.3,0.4,0.4s0,0,0,0c0,0.1,0,0.1,0,0.2c0,0.2-0.1,0.1-0.1,0.2l0,0c-0.1,0.1-0.2,0.1-0.4,0.2
		c-0.2,0.1-0.5,0.1-0.9,0.1c-0.3,0-0.7,0-1,0s-0.6-0.1-0.9-0.2c-0.1,0-0.2,0-0.4,0c-0.1,0.1-0.2,0.2-0.2,0.3c0,0.1,0,0.2,0,0.4
		c0.1,0.1,0.2,0.2,0.3,0.2c0.3,0.1,0.6,0.2,1,0.2s0.8,0.1,1.2,0c0.4,0,0.8-0.1,1.1-0.1c0.4-0.1,0.7-0.3,0.9-0.5l0,0
		c0.1-0.2,0.2-0.3,0.3-0.4l0,0c0.1-0.2,0.1-0.3,0.1-0.5l0,0c0-0.1,0-0.3-0.1-0.5c0-0.1,0-0.1-0.2-0.4c-0.1-0.3-0.4-0.5-0.9-0.6l0,0
		c-0.3,0-0.6-0.1-1.1-0.1c-0.1,0-0.3,0-0.6,0c-0.2,0-0.4,0-0.5,0c-0.3,0-0.4,0-0.5,0s-0.2-0.1-0.2-0.1c-0.1-0.1-0.1-0.1-0.2-0.2l0,0
		c0,0,0-0.1,0-0.2s0.1-0.2,0.2-0.3c0.5-0.5,1.6-0.5,3.2,0c0.1,0,0.2,0,0.4,0c0.1-0.1,0.2-0.2,0.2-0.3C21.8,92.7,21.8,92.6,21.7,92.5
		z"/>
	
		<linearGradient id="SVGID_3_" gradientUnits="userSpaceOnUse" x1="27.5553" y1="83.3553" x2="32.494" y2="88.294" gradientTransform="matrix(1 0 0 -1 0 174)">
		<stop  offset="0" style="stop-color:#999999"/>
		<stop  offset="0.98" style="stop-color:#F3F3F3"/>
	</linearGradient>
	<path class="st8" d="M31.8,86c-0.1-0.1-0.2-0.1-0.3-0.1h-3.2c-0.1,0-0.2,0-0.3,0.1c-0.1,0.1-0.1,0.2-0.1,0.3v4c0,0.1,0,0.2,0.1,0.3
		c0.1,0.1,0.2,0.1,0.3,0.1h3.2c0.1,0,0.2,0,0.3-0.1c0.1-0.1,0.1-0.2,0.1-0.3c0-0.1,0-0.2-0.1-0.3c-0.1-0.1-0.2-0.1-0.3-0.1h-2.7v-1
		h2c0.1,0,0.2,0,0.3-0.1c0.1-0.1,0.1-0.2,0.1-0.3c0-0.1,0-0.2-0.1-0.3c-0.1-0.1-0.2-0.1-0.3-0.1h-2v-1h2.7c0.1,0,0.2,0,0.3-0.1
		c0.1-0.1,0.1-0.2,0.1-0.3C32,86.2,31.9,86.1,31.8,86z"/>
	
		<linearGradient id="SVGID_4_" gradientUnits="userSpaceOnUse" x1="32.3637" y1="82.7199" x2="37.8" y2="88.1562" gradientTransform="matrix(1 0 0 -1 0 174)">
		<stop  offset="0" style="stop-color:#999999"/>
		<stop  offset="0.98" style="stop-color:#F3F3F3"/>
	</linearGradient>
	<path class="st9" d="M37.4,86.6c0-0.1-0.1-0.3-0.2-0.3c-0.9-0.6-1.8-0.8-2.8-0.6c-0.4,0.1-0.5,0.1-0.9,0.3
		c-0.4,0.2-0.7,0.6-0.7,0.6c-0.2,0.2-0.3,0.5-0.4,0.8c-0.1,0.3-0.1,0.5-0.1,0.9s0,0.8,0.2,1.2c0.1,0.4,0.3,0.7,0.6,1l0,0
		c0.2,0.3,0.5,0.5,0.9,0.6c0.3,0.1,0.7,0.2,1.1,0.2c1,0,1.7-0.2,2.1-0.6c0.5-0.4,0.7-1.1,0.6-2c0-0.1-0.1-0.2-0.2-0.3
		c-0.1-0.1-0.2-0.1-0.3-0.1h-2.1c-0.1,0-0.2,0.1-0.3,0.1c-0.1,0.1-0.1,0.2-0.1,0.4c0,0.1,0,0.3,0.1,0.4s0.2,0.2,0.3,0.2h1.6
		c0,0.3-0.1,0.5-0.3,0.6c-0.3,0.3-0.8,0.4-1.5,0.4c-0.3,0-0.5-0.1-0.8-0.1l0,0c-0.2-0.1-0.4-0.2-0.5-0.4c-0.2-0.2-0.3-0.4-0.3-0.6
		c-0.1-0.2-0.1-0.5-0.1-0.8s0-0.5,0.1-0.7c0-0.1,0.1-0.3,0.2-0.4c0,0,0.1-0.2,0.4-0.3c0.2-0.1,0.4-0.2,0.7-0.2l0,0
		c0.7-0.2,1.4,0,2,0.4c0.1,0.1,0.2,0.1,0.4,0.1c0.1,0,0.2-0.1,0.3-0.2C37.4,86.9,37.4,86.7,37.4,86.6z"/>
	
		<linearGradient id="SVGID_5_" gradientUnits="userSpaceOnUse" x1="38.5153" y1="82.6173" x2="43.8368" y2="87.9387" gradientTransform="matrix(1 0 0 -1 0 174)">
		<stop  offset="0" style="stop-color:#999999"/>
		<stop  offset="0.98" style="stop-color:#F3F3F3"/>
	</linearGradient>
	<path class="st10" d="M43.4,90.8c0.1-0.1,0.1-0.2,0.1-0.4c-0.5-3.3-1.4-5-2.7-4.9c-1.3-0.1-2.2,1.5-2.7,4.7c0,0.1,0,0.2,0.1,0.4
		c0.1,0.1,0.2,0.2,0.3,0.2s0.2,0,0.4-0.1c0.1-0.1,0.2-0.2,0.2-0.3c0.1-0.4,0.1-0.8,0.2-1.1l0,0h3.1c0.1,0.4,0.2,0.8,0.2,1.3
		c0,0.1,0.1,0.2,0.2,0.3C42.9,91,43,91,43.1,91C43.2,91,43.3,90.9,43.4,90.8z M39.5,88.4c0.4-1.2,0.8-1.8,1.3-1.8s1,0.7,1.3,1.8
		H39.5z"/>
	
		<linearGradient id="SVGID_6_" gradientUnits="userSpaceOnUse" x1="22.7055" y1="76.1074" x2="28.2949" y2="81.6968" gradientTransform="matrix(1 0 0 -1 0 174)">
		<stop  offset="0" style="stop-color:#999999"/>
		<stop  offset="0.98" style="stop-color:#F3F3F3"/>
	</linearGradient>
	<path class="st11" d="M23.1,97.1c0.1-0.1,0.2-0.2,0.2-0.3c0.1-0.4,0.1-0.8,0.2-1.1h3.1c0.1,0.4,0.2,0.8,0.2,1.3
		c0,0.1,0.1,0.2,0.2,0.3c0.1,0.1,0.2,0.1,0.4,0.1c0.1,0,0.2-0.1,0.3-0.2c0.1-0.1,0.1-0.2,0.1-0.4c-0.5-3.3-1.4-5-2.7-4.9
		c-1.3-0.1-2.2,1.5-2.7,4.7c0,0.1,0,0.2,0.1,0.4c0.1,0.1,0.2,0.2,0.3,0.2C22.8,97.2,22.9,97.2,23.1,97.1z M23.7,94.7
		c0.4-1.2,0.8-1.8,1.3-1.8s1,0.7,1.3,1.8H23.7z"/>
	
		<linearGradient id="SVGID_7_" gradientUnits="userSpaceOnUse" x1="26.4274" y1="77.4774" x2="31.6531" y2="82.7032" gradientTransform="matrix(1 0 0 -1 0 174)">
		<stop  offset="0" style="stop-color:#999999"/>
		<stop  offset="0.98" style="stop-color:#F3F3F3"/>
	</linearGradient>
	<path class="st12" d="M31.8,92.3c-0.1-0.1-0.2-0.1-0.3-0.1h-4.2c-0.1,0-0.2,0-0.3,0.1c-0.1,0.1-0.1,0.2-0.1,0.3
		c0,0.1,0,0.2,0.1,0.3c0.1,0.1,0.2,0.1,0.3,0.1h1.6v3.7c0,0.1,0,0.2,0.1,0.3c0.1,0.1,0.2,0.1,0.3,0.1c0.1,0,0.2,0,0.3-0.1
		c0.1-0.1,0.1-0.2,0.1-0.3V93h1.6c0.1,0,0.2,0,0.3-0.1c0.1-0.1,0.1-0.2,0.1-0.3C32,92.5,31.9,92.4,31.8,92.3z"/>
	
		<linearGradient id="SVGID_8_" gradientUnits="userSpaceOnUse" x1="32.141" y1="76.741" x2="37.4241" y2="82.0241" gradientTransform="matrix(1 0 0 -1 0 174)">
		<stop  offset="0" style="stop-color:#999999"/>
		<stop  offset="0.98" style="stop-color:#F3F3F3"/>
	</linearGradient>
	<path class="st13" d="M37.5,92.2c-0.1-0.1-0.2-0.1-0.3-0.1s-0.2,0-0.3,0.1s-0.1,0.2-0.1,0.3v2.4c0,0.2,0,0.4-0.1,0.5
		c-0.1,0.2-0.2,0.3-0.3,0.4S36.1,96,36,96.1c-0.2,0.1-0.3,0.1-0.5,0.1h-0.7c-0.2,0-0.4,0-0.5-0.1c-0.2-0.1-0.3-0.2-0.4-0.3
		c-0.1-0.1-0.2-0.3-0.3-0.4l0,0c-0.1-0.2-0.1-0.3-0.1-0.5v-2.4c0-0.1,0-0.2-0.1-0.3c-0.1-0.1-0.2-0.1-0.3-0.1s-0.2,0-0.3,0.1
		s-0.1,0.2-0.1,0.3v2.4c0,0.3,0.1,0.6,0.2,0.9l0,0c0.1,0.3,0.3,0.5,0.5,0.7s0.5,0.4,0.7,0.5c0.3,0.1,0.6,0.2,0.9,0.2h0.7
		c0.3,0,0.6-0.1,0.9-0.2l0,0c0.3-0.1,0.5-0.3,0.7-0.5s0.4-0.5,0.5-0.7l0,0c0.1-0.3,0.2-0.6,0.2-0.9v-2.4
		C37.6,92.4,37.5,92.3,37.5,92.2z"/>
	
		<linearGradient id="SVGID_9_" gradientUnits="userSpaceOnUse" x1="38.0169" y1="76.6462" x2="43.3382" y2="81.9675" gradientTransform="matrix(1 0 0 -1 0 174)">
		<stop  offset="0" style="stop-color:#999999"/>
		<stop  offset="0.98" style="stop-color:#F3F3F3"/>
	</linearGradient>
	<path class="st14" d="M38.1,92.2C38,92.3,38,92.4,38,92.6v4.1c0,0.1,0.1,0.2,0.1,0.3c0.1,0.1,0.2,0.1,0.4,0.1c0.1,0,0.3,0,0.4-0.1
		c0.1-0.1,0.2-0.2,0.2-0.3V93c1.1-0.1,1.9,0,2.5,0.2c0.4,0.1,0.7,0.4,0.7,0.7c0,0.2-0.1,0.4-0.3,0.5c-0.3,0.1-0.8,0.2-1.5,0.1
		c-0.1,0-0.2,0-0.3,0.1S40,94.7,40,94.8s0,0.2,0,0.3c0,0.1,0.1,0.2,0.2,0.2l2.6,1.7c0.1,0.1,0.2,0.1,0.4,0.1c0.1,0,0.3-0.1,0.3-0.2
		c0.1-0.1,0.1-0.2,0.1-0.3c0-0.1-0.1-0.2-0.2-0.3L42,95.4c0.2,0,0.4-0.1,0.5-0.2c0.6-0.3,0.9-0.7,0.9-1.4c0-0.8-0.4-1.3-1.4-1.6
		c-0.8-0.2-1.9-0.3-3.4-0.2C38.3,92.1,38.2,92.1,38.1,92.2z"/>
	
		<linearGradient id="SVGID_10_" gradientUnits="userSpaceOnUse" x1="43.7291" y1="76.7916" x2="48.8976" y2="81.9602" gradientTransform="matrix(1 0 0 -1 0 174)">
		<stop  offset="0" style="stop-color:#999999"/>
		<stop  offset="0.98" style="stop-color:#F3F3F3"/>
	</linearGradient>
	<path class="st15" d="M44,92.3c-0.1,0.1-0.1,0.2-0.1,0.3v4.1c0,0.1,0,0.2,0.1,0.3c0.1,0.1,0.2,0.1,0.3,0.1s0.2,0,0.3-0.1
		s0.1-0.2,0.1-0.3v-3l3.2,3.3c0.1,0.1,0.2,0.1,0.2,0.1c0.1,0,0.2,0,0.3,0s0.2-0.1,0.2-0.2c0.1-0.1,0.1-0.2,0.1-0.3v-4.1
		c0-0.1,0-0.2-0.1-0.3c-0.1-0.1-0.2-0.1-0.3-0.1s-0.2,0-0.3,0.1s-0.1,0.2-0.1,0.3v3l-3.2-3.3c-0.1-0.1-0.2-0.1-0.2-0.1
		c-0.1,0-0.2,0-0.3,0C44.1,92.2,44.1,92.2,44,92.3z"/>
	
		<radialGradient id="SVGID_11_" cx="41.2791" cy="99.3213" r="3.5608" gradientTransform="matrix(1 0 0 -1 0 174)" gradientUnits="userSpaceOnUse">
		<stop  offset="0.43" style="stop-color:#FFFFFF"/>
		<stop  offset="0.64" style="stop-color:#7A7A7A"/>
		<stop  offset="0.99" style="stop-color:#000000"/>
	</radialGradient>
	<path class="st16" d="M42.8,73.6c0.3,0,0.4,0,0.6,0l0,0c0.4,0.2,0.6,0.5,0.6,0.7c-0.1,0.4-0.5,0.9-1.2,1.4
		c-0.8,0.6-1.9,1.2-3.2,1.8c-0.6,0.3-1.2,0.5-1.9,0.8c-0.8,0.3-0.7,2.4-0.1,2.2c1-0.4,2-0.8,2.8-1.2c1.5-0.7,2.7-1.4,3.6-2.1
		c1.2-0.9,1.8-1.7,1.9-2.5c0.2-0.8,0-1.5-0.6-2.1C45.1,72.4,42.7,73.6,42.8,73.6z"/>
	
		<radialGradient id="SVGID_12_" cx="24.0514" cy="94.0376" r="3.6754" gradientTransform="matrix(1 0 0 -1 0 174)" gradientUnits="userSpaceOnUse">
		<stop  offset="0" style="stop-color:#FFFFFF"/>
		<stop  offset="1" style="stop-color:#000000"/>
	</radialGradient>
	<path class="st17" d="M29.4,80.7c-0.6,0.1-1.1,0.2-1.7,0.3l0,0c-1.1,0.2-2.1,0.2-2.9,0.3l0,0c-0.7,0-1.3,0-1.7-0.2
		c-0.2-0.1-0.5-0.1-0.7,0c-0.3,0.1-0.4,0.3-0.5,0.5c-0.1,0.3-0.1,0.5,0,0.8c0.1,0.2,0.3,0.4,0.5,0.5c0.5,0.2,1.3,0.3,2.4,0.3
		c0.9,0,2-0.1,3.2-0.3l0,0c0.6-0.1,1.2-0.2,1.9-0.3C30.5,82.5,30,80.6,29.4,80.7z"/>
	
		<radialGradient id="SVGID_13_" cx="25.87" cy="101.7709" r="8.4212" gradientTransform="matrix(1 0 0 -1 0 174)" gradientUnits="userSpaceOnUse">
		<stop  offset="0.8128" style="stop-color:#FFFFFF"/>
		<stop  offset="1" style="stop-color:#575757"/>
	</radialGradient>
	<path class="st18" d="M29.3,70.1c-0.6,0.2-1.1,0.4-1.6,0.6c-1.2,0.5-2.3,1-3.3,1.5l0,0c-1.1,0.5-2,1.1-2.6,1.6l0,0
		c-0.8,0.6-1.4,1.3-1.7,1.9l0,0c-0.5,0.8-0.5,1.6-0.1,2.3c0.2,0.7,0.9,1.1,2.2,1.2c0.7,0,1.6,0,2.8-0.3c0.6-0.1,1.3-0.3,2.1-0.5
		c0.5-0.1-0.1-2-0.5-1.9c-0.7,0.2-1.3,0.3-1.9,0.5c-1,0.2-1.7,0.3-2.3,0.2c-0.2,0-0.4,0-0.5,0l0,0c0-0.2,0-0.4,0.1-0.6l0,0
		c0.2-0.4,0.6-0.8,1.2-1.2c0.6-0.5,1.4-1,2.3-1.4c0.9-0.5,2-0.9,3.1-1.4l0,0c0.3-0.1,0.7-0.2,1-0.4C30.2,71.9,30,69.8,29.3,70.1z"/>
	<path class="st19" d="M37.5,70.2c0.6-0.1,1.3-0.1,1.9-0.2c1.2-0.1,2.3-0.1,3.2,0c0.3,0,0.5,0,0.7-0.2s0.3-0.4,0.4-0.7
		c0-0.3,0-0.5-0.2-0.7s-0.4-0.3-0.7-0.4c-1.1-0.1-2.2-0.1-3.6,0c-0.8,0.1-1.7,0.2-2.6,0.3C36.2,68.4,36.9,70.3,37.5,70.2z"/>
	
		<radialGradient id="SVGID_14_" cx="42.141" cy="107.6478" r="4.7088" gradientTransform="matrix(1 0 0 -1 0 174)" gradientUnits="userSpaceOnUse">
		<stop  offset="0" style="stop-color:#FFFFFF"/>
		<stop  offset="1" style="stop-color:#000000"/>
	</radialGradient>
	<path class="st20" d="M37.5,70.2c0.6-0.1,1.3-0.1,1.9-0.2c1.2-0.1,2.3-0.1,3.2,0c0.3,0,0.5,0,0.7-0.2s0.3-0.4,0.4-0.7
		c0-0.3,0-0.5-0.2-0.7s-0.4-0.3-0.7-0.4c-1.1-0.1-2.2-0.1-3.6,0c-0.8,0.1-1.7,0.2-2.6,0.3C36.2,68.4,36.9,70.3,37.5,70.2z"/>
	
		<linearGradient id="SVGID_15_" gradientUnits="userSpaceOnUse" x1="24.6977" y1="100.6974" x2="23.2622" y2="101.7884" gradientTransform="matrix(1 0 0 -1 0 174)">
		<stop  offset="0" style="stop-color:#000000"/>
		<stop  offset="1" style="stop-color:#FFFFFF"/>
	</linearGradient>
	<path class="st21" d="M21,76.1c0,1.1,0.7,1,0.7,1l0,0l0,0c0-0.2,0-0.4,0.1-0.6l0,0c0.2-0.4,0.6-0.8,1.2-1.2c0.6-0.5,1.4-1,2.3-1.4
		c0.9-0.5,2-0.9,3.1-1.4l0,0c0.3-0.1,0.7-0.2,1-0.4c0.4-0.1,0.5-0.6,0.5-1.1c-0.5,0-0.9,0-1.4,0c-1,0-1.9,0.1-2.8,0.4
		c-0.5,0.2-1,0.5-1.5,0.7l0,0c-0.3,0.2-0.7,0.3-0.9,0.5C22.2,73.5,21,74.8,21,76.1z"/>
	<path class="st22" d="M43.7,69.1c0-0.3,0-0.5-0.2-0.7s-0.4-0.3-0.7-0.4c-1.1-0.1-2.2-0.1-3.6,0c-1.2,0.1-2.5,0.2-3.9,0.5
		c-1.3,0.2-2.6,0.5-4,0.9c-1.3,0.4-2.6,0.8-3.8,1.2c-1.2,0.5-2.3,1-3.3,1.5l0,0c-1.1,0.5-2,1.1-2.6,1.6l0,0
		c-0.8,0.6-1.4,1.3-1.7,1.9l0,0c-0.5,0.8-0.5,1.6-0.1,2.3c0.2,0.7,0.9,1,2.1,1.1c0.7,0,1.7,0,2.8-0.2c1-0.2,2.1-0.5,3.5-0.9
		c1-0.3,2.3-0.7,3.9-1.3l3.9-1.3c1.4-0.5,2.6-0.8,3.5-1.1c1.1-0.3,2-0.5,2.6-0.6c0.5-0.1,0.8-0.1,0.9,0l0,0c0.4,0.2,0.6,0.5,0.6,0.7
		c-0.1,0.4-0.5,0.9-1.2,1.4c-0.8,0.6-1.9,1.2-3.2,1.8c-1.3,0.6-2.8,1.1-4.4,1.7l0,0c-1.2,0.4-2.5,0.7-3.8,1.1
		c-1.3,0.3-2.5,0.5-3.6,0.7l0,0c-1.1,0.2-2.1,0.2-2.9,0.3l0,0c-0.7,0-1.3,0-1.7-0.2c-0.2-0.1-0.5-0.1-0.7,0
		c-0.3,0.1-0.4,0.3-0.5,0.5c-0.1,0.3-0.1,0.5,0,0.8c0.1,0.2,0.3,0.4,0.5,0.5c0.5,0.2,1.3,0.3,2.4,0.3c0.9,0,2-0.1,3.2-0.3l0,0
		c1.2-0.2,2.4-0.4,3.8-0.7l0,0c1.4-0.3,2.7-0.7,4-1.1c1.7-0.5,3.2-1.1,4.6-1.8c1.5-0.7,2.7-1.4,3.6-2.1c1.2-0.9,1.8-1.7,1.9-2.5
		c0.3-1.1-0.2-2-1.5-2.8c-0.4-0.3-1.1-0.4-2.3-0.2l0,0c-0.7,0.1-1.7,0.3-2.9,0.7c-0.9,0.3-2.1,0.6-3.6,1.1l-3.9,1.3
		c-1.6,0.5-2.8,0.9-3.9,1.2c-1.3,0.4-2.4,0.7-3.4,0.9c-1,0.2-1.7,0.3-2.3,0.2c-0.2,0-0.4,0-0.5,0l0,0c0-0.2,0-0.4,0.1-0.6l0,0
		c0.2-0.4,0.6-0.8,1.2-1.2c0.6-0.5,1.4-1,2.3-1.4c0.9-0.5,2-0.9,3.1-1.4l0,0c1.1-0.4,2.3-0.8,3.6-1.2c1.3-0.4,2.5-0.7,3.8-0.9
		c1.3-0.2,2.5-0.4,3.7-0.5s2.3-0.1,3.2,0c0.3,0,0.5,0,0.7-0.2C43.5,69.6,43.6,69.4,43.7,69.1z"/>
	
		<radialGradient id="SVGID_16_" cx="34.2208" cy="102.1015" r="7.6378" gradientTransform="matrix(1 0 0 -1 0 174)" gradientUnits="userSpaceOnUse">
		<stop  offset="4.000000e-02" style="stop-color:#FFFFFF"/>
		<stop  offset="4.000000e-02" style="stop-color:#FFFFFF"/>
		<stop  offset="0.23" style="stop-color:#6E93E1"/>
		<stop  offset="1" style="stop-color:#363499"/>
	</radialGradient>
	<circle class="st23" cx="32.8" cy="75.5" r="8.4"/>
	
		<linearGradient id="SVGID_17_" gradientUnits="userSpaceOnUse" x1="33.715" y1="97.6301" x2="33.1401" y2="99.5081" gradientTransform="matrix(1 0 0 -1 0 174)">
		<stop  offset="0" style="stop-color:#000000"/>
		<stop  offset="0.9893" style="stop-color:#FFFFFF"/>
	</linearGradient>
	<path class="st24" d="M24.4,76.9c-0.1,0-2.6,0.6-3.1,0.2c-0.1-0.1,0.3,0.2,0.7,0.7c0.1,0.1,0,0.2,0,0.3c0,0,0,0-0.1,0.1v0.1
		c0,0.1,0,0.1,0,0.1c0,0.1-0.1,0.3-0.1,0.4v0.1c0,0-0.1,0-0.1,0.1c0,0-0.1,0-0.1,0.1l0,0h0.2c0,0,0.3,0,0.6,0c0.3,0,0.7,0,1.1,0
		c0.2,0,0.4-0.1,0.6-0.1c0.3,0,0.5-0.1,0.7-0.1s0.2,0,0.3,0c0.9-0.2,2-0.5,3.3-0.9c1-0.3,2.3-0.7,3.9-1.3l3.9-1.3
		c0.8-0.3,1.5-0.5,2.1-0.7c0.5-0.2,1-0.3,1.4-0.4c0.5-0.1,1-0.3,1.4-0.4c0.5-0.1,0.9-0.2,1.3-0.3c0.5-0.1,0.8-0.1,0.9,0l0,0
		c0.1,0.1,0.7,0,1.1,0.5c0.5,0.7,0.7,2.1,0.9,1.8c0.3-0.4,0.5-0.8,0.5-1.2c0.3-1.1-0.2-2-1.5-2.8c-0.4-0.3-1.1-0.4-2.3-0.2l0,0
		c-0.4,0.1-1,0.2-1.6,0.3c-0.4,0.1-0.8,0.2-1.3,0.3c-0.5,0.1-1,0.3-1.6,0.5s-1.3,0.4-2,0.7l-3.9,1.3c-1.1,0.4-2.1,0.7-2.9,0.9
		L24.4,76.9z"/>
	<path class="st22" d="M40.7,72c-0.4,0.1-1,0.3-1.4,0.4c-0.9,0.3-2.1,0.6-3.6,1.1l-3.9,1.3c-1.2,0.4-2.2,0.7-3.1,1
		c-0.4,0.1-0.6,0.2-0.8,0.2c-1.3,0.4-4.5,1.3-5.8,1.2"/>
	<path class="st22" d="M24.8,78.9c0.9-0.2,2.3-0.5,3.6-0.9c1-0.3,2.3-0.7,3.9-1.3l3.9-1.3c1.4-0.5,2.6-0.8,3.5-1.1
		c0.5-0.1,1.1-0.3,1.5-0.4"/>
</g>
</svg>
